<svg width="23" height="15" viewBox="0 0 23 15" fill="none" xmlns="http://www.w3.org/2000/svg">
<path fill-rule="evenodd" clip-rule="evenodd" d="M10.9405 12.469C11.1242 12.4895 11.3109 12.5 11.5 12.5C14.2614 12.5 16.5 10.2614 16.5 7.5C16.5 6.94878 16.4108 6.4184 16.2461 5.9225L10.9405 12.469ZM13.4536 2.89606C12.8535 2.64107 12.1932 2.5 11.5 2.5C8.73858 2.5 6.5 4.73858 6.5 7.5C6.5 8.56543 6.83324 9.55302 7.40117 10.3642L13.4536 2.89606Z" fill="#03FBF3" fill-opacity="0.3"/>
<path fill-rule="evenodd" clip-rule="evenodd" d="M9.166 14.6856C9.91689 14.8853 10.6974 15 11.5 15C14.7218 15 17.5883 13.1514 19.6083 11.3755C20.6264 10.4805 21.4489 9.58685 22.0169 8.91718C22.3012 8.58198 22.5225 8.30197 22.6735 8.10472C22.7491 8.00606 22.807 7.92804 22.8466 7.87407C22.8663 7.84709 22.8815 7.82611 22.8919 7.81158L22.904 7.79465L22.9074 7.78991L22.9084 7.78849L22.9087 7.78802C22.9088 7.78785 22.9089 7.78771 22.5 7.5L22.9089 7.78771C23.0304 7.61512 23.0304 7.38488 22.9089 7.21229L22.5 7.5C22.9089 7.21229 22.9088 7.21215 22.9087 7.21198L22.9084 7.21151L22.9074 7.21009L22.904 7.20535L22.8919 7.18842C22.8815 7.17389 22.8663 7.15291 22.8466 7.12593C22.807 7.07196 22.7491 6.99394 22.6735 6.89528C22.5225 6.69803 22.3012 6.41802 22.0169 6.08282C21.4489 5.41315 20.6264 4.5195 19.6083 3.62448C19.3296 3.37948 19.0348 3.13309 18.7252 2.89036L18.0955 3.66737C18.3918 3.89922 18.6764 4.13667 18.948 4.37552C19.9206 5.2305 20.709 6.08685 21.2543 6.72968C21.525 7.04892 21.7351 7.31458 21.8771 7.5C21.7351 7.68542 21.525 7.95108 21.2543 8.27032C20.709 8.91315 19.9206 9.7695 18.948 10.6245C16.9868 12.3486 14.3533 14 11.5 14C10.9452 14 10.3988 13.9376 9.86396 13.8243L9.166 14.6856ZM14.5002 1.57783C13.5436 1.21782 12.5363 1 11.5 1C8.64667 1 6.01316 2.65137 4.05195 4.37552C3.07942 5.2305 2.29099 6.08685 1.74574 6.72968C1.47496 7.04892 1.26493 7.31458 1.12291 7.5C1.26493 7.68542 1.47496 7.95108 1.74574 8.27032C2.29099 8.91315 3.07942 9.7695 4.05195 10.6245C4.63574 11.1377 5.2791 11.6445 5.97009 12.1032L5.3378 12.8834C4.62661 12.4054 3.97398 11.8874 3.3917 11.3755C2.37362 10.4805 1.55114 9.58685 0.983126 8.91718C0.698816 8.58198 0.477472 8.30197 0.326463 8.10472C0.250939 8.00606 0.192953 7.92804 0.153425 7.87407C0.13366 7.84709 0.118505 7.82611 0.108075 7.81158L0.0959859 7.79465L0.0926252 7.78991L0.0916204 7.78849L0.0912874 7.78802C0.0911681 7.78785 0.0910677 7.78771 0.5 7.5C0.0910677 7.21229 0.0911681 7.21215 0.0912874 7.21198L0.0916204 7.21151L0.0926252 7.21009L0.0959859 7.20535L0.108075 7.18842C0.118505 7.17389 0.13366 7.15291 0.153425 7.12593C0.192953 7.07196 0.250939 6.99394 0.326463 6.89528C0.477472 6.69803 0.698816 6.41802 0.983126 6.08282C1.55114 5.41315 2.37362 4.5195 3.3917 3.62448C5.41171 1.84863 8.2782 0 11.5 0C12.7874 0 14.018 0.295164 15.1606 0.762906L14.5002 1.57783ZM0.5 7.5L0.0910677 7.78771C-0.0303559 7.61512 -0.0303559 7.38488 0.0910677 7.21229L0.5 7.5Z" fill="#03FBF3" fill-opacity="0.3"/>
</svg>
