<svg width="149" height="37" viewBox="0 0 149 37" fill="none" xmlns="http://www.w3.org/2000/svg">
<path d="M10.32 33.512L10.5515 33.0688L10.32 33.512ZM3.552 27.272L3.1246 27.5315L3.12599 27.5338L3.552 27.272ZM3.552 9.176L3.97801 9.43776L3.97939 9.43549L3.552 9.176ZM29.808 2.888L30.0395 2.44479L29.808 2.888ZM36.576 9.176L36.1486 9.43549L36.15 9.43776L36.576 9.176ZM36.576 27.272L37.002 27.5338L37.0034 27.5315L36.576 27.272ZM29.808 33.512L30.0395 33.9552L29.808 33.512ZM23.856 25.592L24.1133 26.0208L24.1167 26.0186L23.856 25.592ZM26.592 22.664L27.0323 22.9011L27.0347 22.8964L26.592 22.664ZM26.592 13.784L26.1493 14.0164L26.1518 14.021L26.592 13.784ZM23.856 10.856L23.5899 11.2793L23.5969 11.2837L23.6041 11.2879L23.856 10.856ZM16.224 10.856L16.4813 11.2848L16.4847 11.2826L16.224 10.856ZM13.536 13.784L13.9763 14.0211L13.9787 14.0164L13.536 13.784ZM13.536 22.664L13.0933 22.8964L13.0958 22.9011L13.536 22.664ZM16.224 25.592L15.9579 26.0153L15.9649 26.0197L15.9721 26.0239L16.224 25.592ZM20.064 35.268C16.5194 35.268 13.3522 34.5314 10.5515 33.0688L10.0885 33.9552C13.0478 35.5006 16.3766 36.268 20.064 36.268V35.268ZM10.5515 33.0688C7.74796 31.6048 5.56068 29.586 3.97801 27.0102L3.12599 27.5338C4.80732 30.27 7.13204 32.4113 10.0885 33.9552L10.5515 33.0688ZM3.97939 27.0125C2.39816 24.4081 1.604 21.475 1.604 18.2H0.604C0.604 21.645 1.44184 24.7599 3.12461 27.5315L3.97939 27.0125ZM1.604 18.2C1.604 14.9249 2.39816 12.0089 3.97801 9.43776L3.12599 8.91424C1.44184 11.6551 0.604 14.7551 0.604 18.2H1.604ZM3.97939 9.43549C5.56244 6.82812 7.74948 4.79445 10.5515 3.3312L10.0885 2.44479C7.13052 3.98954 4.80556 6.14787 3.12461 8.91651L3.97939 9.43549ZM10.5515 3.3312C13.3522 1.86857 16.5194 1.132 20.064 1.132V0.131999C16.3766 0.131999 13.0478 0.899428 10.0885 2.44479L10.5515 3.3312ZM20.064 1.132C23.6086 1.132 26.7758 1.86857 29.5766 3.3312L30.0395 2.44479C27.0802 0.899428 23.7514 0.131999 20.064 0.131999V1.132ZM29.5766 3.3312C32.3785 4.79445 34.5656 6.82812 36.1486 9.43549L37.0034 8.91651C35.3224 6.14787 32.9975 3.98954 30.0395 2.44479L29.5766 3.3312ZM36.15 9.43776C37.7298 12.0089 38.524 14.9249 38.524 18.2H39.524C39.524 14.7551 38.6862 11.6551 37.002 8.91424L36.15 9.43776ZM38.524 18.2C38.524 21.475 37.7298 24.4081 36.1486 27.0125L37.0034 27.5315C38.6862 24.7599 39.524 21.645 39.524 18.2H38.524ZM36.15 27.0102C34.5673 29.586 32.38 31.6048 29.5766 33.0688L30.0395 33.9552C32.996 32.4113 35.3207 30.27 37.002 27.5338L36.15 27.0102ZM29.5766 33.0688C26.7758 34.5314 23.6086 35.268 20.064 35.268V36.268C23.7514 36.268 27.0802 35.5006 30.0395 33.9552L29.5766 33.0688ZM20.064 27.1C21.5553 27.1 22.9095 26.743 24.1132 26.0207L23.5988 25.1633C22.5625 25.785 21.3887 26.1 20.064 26.1V27.1ZM24.1167 26.0186C25.3481 25.2661 26.3204 24.223 27.0322 22.9011L26.1518 22.4269C25.5196 23.601 24.6679 24.5099 23.5953 25.1654L24.1167 26.0186ZM27.0347 22.8964C27.7504 21.5333 28.1 19.9629 28.1 18.2H27.1C27.1 19.8291 26.7776 21.2347 26.1493 22.4316L27.0347 22.8964ZM28.1 18.2C28.1 16.4375 27.7505 14.8808 27.0322 13.5469L26.1518 14.021C26.7775 15.1832 27.1 16.5705 27.1 18.2H28.1ZM27.0347 13.5516C26.3229 12.1958 25.3478 11.1473 24.1079 10.4241L23.6041 11.2879C24.6682 11.9087 25.5171 12.8122 26.1493 14.0164L27.0347 13.5516ZM24.1221 10.4327C22.9172 9.67531 21.5598 9.3 20.064 9.3V10.3C21.3842 10.3 22.5548 10.6287 23.5899 11.2793L24.1221 10.4327ZM20.064 9.3C18.5681 9.3 17.1972 9.67527 15.9633 10.4294L16.4847 11.2826C17.5548 10.6287 18.7439 10.3 20.064 10.3V9.3ZM15.9668 10.4273C14.7599 11.1514 13.8032 12.1993 13.0933 13.5516L13.9787 14.0164C14.6128 12.8087 15.4481 11.9046 16.4812 11.2847L15.9668 10.4273ZM13.0958 13.5469C12.3775 14.8808 12.028 16.4375 12.028 18.2H13.028C13.028 16.5705 13.3505 15.1832 13.9762 14.021L13.0958 13.5469ZM12.028 18.2C12.028 19.9629 12.3776 21.5333 13.0933 22.8964L13.9787 22.4316C13.3504 21.2347 13.028 19.8291 13.028 18.2H12.028ZM13.0958 22.9011C13.8057 24.2195 14.7595 25.262 15.9579 26.0153L16.4901 25.1687C15.4485 24.514 14.6103 23.6045 13.9762 22.4269L13.0958 22.9011ZM15.9721 26.0239C17.2048 26.743 18.5726 27.1 20.064 27.1V26.1C18.7394 26.1 17.5472 25.785 16.4759 25.1601L15.9721 26.0239ZM57.0596 8.744V8.244H56.5596V8.744H57.0596ZM67.8596 8.744H68.3596V8.244H67.8596V8.744ZM67.8596 17.96H67.3596V18.46H67.8596V17.96ZM75.2516 17.96V18.46H75.7516V17.96H75.2516ZM75.2516 8.744V8.244H74.7516V8.744H75.2516ZM86.0516 8.744H86.5516V8.244H86.0516V8.744ZM86.0516 35V35.5H86.5516V35H86.0516ZM75.2516 35H74.7516V35.5H75.2516V35ZM75.2516 26.456H75.7516V25.956H75.2516V26.456ZM67.8596 26.456V25.956H67.3596V26.456H67.8596ZM67.8596 35V35.5H68.3596V35H67.8596ZM57.0596 35H56.5596V35.5H57.0596V35ZM57.0596 9.244H67.8596V8.244H57.0596V9.244ZM67.3596 8.744V17.96H68.3596V8.744H67.3596ZM67.8596 18.46H75.2516V17.46H67.8596V18.46ZM75.7516 17.96V8.744H74.7516V17.96H75.7516ZM75.2516 9.244H86.0516V8.244H75.2516V9.244ZM85.5516 8.744V35H86.5516V8.744H85.5516ZM86.0516 34.5H75.2516V35.5H86.0516V34.5ZM75.7516 35V26.456H74.7516V35H75.7516ZM75.2516 25.956H67.8596V26.956H75.2516V25.956ZM67.3596 26.456V35H68.3596V26.456H67.3596ZM67.8596 34.5H57.0596V35.5H67.8596V34.5ZM57.5596 35V8.744H56.5596V35H57.5596ZM112.882 11.384L112.557 11.764L112.56 11.7665L112.882 11.384ZM116.53 35V35.5H117.03V35H116.53ZM106.45 35H105.95V35.5H106.45V35ZM106.45 31.544H106.95L105.998 31.3292L106.45 31.544ZM93.6817 34.424L93.4541 34.8694L93.466 34.8751L93.6817 34.424ZM90.3698 31.496L89.9391 31.75L89.9429 31.7566L89.947 31.763L90.3698 31.496ZM92.2418 21.416L91.9613 21.002L92.2418 21.416ZM105.634 19.4V19.9H106.227L106.127 19.3153L105.634 19.4ZM97.0898 16.904L97.2288 17.3844L97.2403 17.3808L97.0898 16.904ZM93.9697 18.392L93.5196 18.6095L93.7822 19.1531L94.2674 18.7938L93.9697 18.392ZM90.5137 11.24L90.2512 10.8145L89.8673 11.0514L90.0636 11.4575L90.5137 11.24ZM95.9378 9.08L96.0556 9.56595L96.0607 9.56464L95.9378 9.08ZM104.338 28.328L104.055 27.9153L104.338 28.328ZM105.682 26.456L106.154 26.6196L106.182 26.5401V26.456H105.682ZM105.682 24.632H106.182V24.132H105.682V24.632ZM100.354 28.376L100.014 28.7424L100.027 28.7549L100.041 28.7664L100.354 28.376ZM102.322 8.764C106.862 8.764 110.248 9.78936 112.557 11.764L113.207 11.004C110.652 8.81864 106.997 7.764 102.322 7.764V8.764ZM112.56 11.7665C114.843 13.6892 116.03 16.6931 116.03 20.888H117.03C117.03 16.5069 115.785 13.1748 113.204 11.0015L112.56 11.7665ZM116.03 20.888V35H117.03V20.888H116.03ZM116.53 34.5H106.45V35.5H116.53V34.5ZM106.95 35V31.544H105.95V35H106.95ZM105.998 31.3292C104.857 33.7277 102.593 34.98 99.0098 34.98V35.98C102.85 35.98 105.546 34.6083 106.901 31.7588L105.998 31.3292ZM99.0098 34.98C96.9846 34.98 95.2863 34.6371 93.8975 33.9729L93.466 34.8751C95.0212 35.6189 96.8749 35.98 99.0098 35.98V34.98ZM93.9093 33.9788C92.539 33.2784 91.5068 32.3601 90.7925 31.229L89.947 31.763C90.7687 33.0639 91.9445 34.0976 93.4542 34.8692L93.9093 33.9788ZM90.8004 31.242C90.1126 30.0756 89.7657 28.7723 89.7657 27.32H88.7657C88.7657 28.9398 89.1549 30.4204 89.9391 31.75L90.8004 31.242ZM89.7657 27.32C89.7657 24.8779 90.6882 23.0723 92.5222 21.83L91.9613 21.002C89.8273 22.4477 88.7657 24.5781 88.7657 27.32H89.7657ZM92.5222 21.83C94.3842 20.5686 97.2726 19.9 101.266 19.9V18.9C97.1949 18.9 94.0673 19.5754 91.9613 21.002L92.5222 21.83ZM101.266 19.9H105.634V18.9H101.266V19.9ZM106.127 19.3153C105.928 18.1618 105.352 17.2646 104.398 16.6713C103.463 16.0909 102.21 15.828 100.69 15.828V16.828C102.113 16.828 103.156 17.0771 103.87 17.5207C104.563 17.9514 104.987 18.5902 105.141 19.4847L106.127 19.3153ZM100.69 15.828C99.4509 15.828 98.2001 16.029 96.9392 16.4272L97.2403 17.3808C98.4114 17.011 99.5606 16.828 100.69 16.828V15.828ZM96.9507 16.4237C95.6875 16.7894 94.5916 17.3092 93.6721 17.9902L94.2674 18.7938C95.0759 18.1948 96.06 17.7226 97.2288 17.3843L96.9507 16.4237ZM94.4199 18.1745L90.9639 11.0225L90.0636 11.4575L93.5196 18.6095L94.4199 18.1745ZM90.7763 11.6655C92.2266 10.7706 93.9834 10.0683 96.0555 9.56592L95.82 8.59407C93.6681 9.11573 91.8089 9.85336 90.2512 10.8145L90.7763 11.6655ZM96.0607 9.56464C98.1664 9.03036 100.253 8.764 102.322 8.764V7.764C100.166 7.764 97.9971 8.04164 95.8148 8.59536L96.0607 9.56464ZM102.274 29.452C103.138 29.452 103.925 29.2161 104.62 28.7407L104.055 27.9153C103.534 28.2719 102.946 28.452 102.274 28.452V29.452ZM104.62 28.7407C105.333 28.253 105.838 27.5325 106.154 26.6196L105.209 26.2924C104.949 27.0435 104.559 27.571 104.055 27.9153L104.62 28.7407ZM106.182 26.456V24.632H105.182V26.456H106.182ZM105.682 24.132H102.994V25.132H105.682V24.132ZM102.994 24.132C101.85 24.132 100.905 24.3198 100.232 24.768C99.5243 25.24 99.1817 25.9583 99.1817 26.84H100.182C100.182 26.2497 100.391 25.864 100.787 25.6C101.219 25.3122 101.93 25.132 102.994 25.132V24.132ZM99.1817 26.84C99.1817 27.5879 99.4643 28.2324 100.014 28.7424L100.694 28.0096C100.347 27.6876 100.182 27.3081 100.182 26.84H99.1817ZM100.041 28.7664C100.634 29.2403 101.395 29.452 102.274 29.452V28.452C101.553 28.452 101.034 28.2797 100.666 27.9856L100.041 28.7664ZM126.71 33.752L126.489 34.2004L126.492 34.2016L126.71 33.752ZM121.19 28.904L120.767 29.1708L120.77 29.1754L121.19 28.904ZM121.19 14.84L120.77 14.5686L120.769 14.5703L121.19 14.84ZM126.71 9.992L126.492 9.54238L126.489 9.54356L126.71 9.992ZM142.934 10.328L142.675 10.7557L142.934 10.328ZM147.638 16.04L147.859 16.4887L148.258 16.2923L148.109 15.8726L147.638 16.04ZM139.238 20.168L138.781 20.3711L138.992 20.8459L139.459 20.6167L139.238 20.168ZM131.462 18.056L131.102 17.7089L131.096 17.7158L131.462 18.056ZM131.462 25.688L131.096 26.0283L131.102 26.0351L131.462 25.688ZM139.238 23.576L139.459 23.1273L138.992 22.8981L138.781 23.3729L139.238 23.576ZM147.638 27.704L148.109 27.8714L148.258 27.4517L147.859 27.2553L147.638 27.704ZM142.934 33.416L143.193 33.8437L142.934 33.416ZM134.726 34.98C131.816 34.98 129.22 34.4171 126.929 33.3024L126.492 34.2016C128.936 35.3909 131.684 35.98 134.726 35.98V34.98ZM126.931 33.3036C124.672 32.1894 122.903 30.6327 121.61 28.6326L120.77 29.1754C122.166 31.3353 124.076 33.0106 126.489 34.2004L126.931 33.3036ZM121.613 28.6372C120.355 26.6425 119.722 24.3842 119.722 21.848H118.722C118.722 24.5598 119.402 27.0055 120.767 29.1707L121.613 28.6372ZM119.722 21.848C119.722 19.3117 120.355 17.0708 121.611 15.1097L120.769 14.5703C119.402 16.7052 118.722 19.1363 118.722 21.848H119.722ZM121.61 15.1114C122.903 13.1113 124.672 11.5546 126.931 10.4404L126.489 9.54356C124.076 10.7334 122.166 12.4087 120.77 14.5686L121.61 15.1114ZM126.929 10.4416C129.22 9.32685 131.816 8.764 134.726 8.764V7.764C131.684 7.764 128.936 8.35314 126.492 9.54238L126.929 10.4416ZM134.726 8.764C137.854 8.764 140.496 9.43585 142.675 10.7557L143.193 9.90032C140.829 8.46815 137.999 7.764 134.726 7.764V8.764ZM142.675 10.7557C144.852 12.0739 146.343 13.8874 147.167 16.2074L148.109 15.8726C147.206 13.3286 145.561 11.3341 143.193 9.90032L142.675 10.7557ZM147.418 15.5913L139.018 19.7193L139.459 20.6167L147.859 16.4887L147.418 15.5913ZM139.695 19.9649C139.16 18.7598 138.478 17.8183 137.632 17.1775C136.78 16.5317 135.789 16.212 134.678 16.212V17.212C135.584 17.212 136.36 17.4683 137.028 17.9745C137.703 18.4857 138.293 19.2722 138.781 20.3711L139.695 19.9649ZM134.678 16.212C133.267 16.212 132.064 16.7121 131.102 17.7089L131.822 18.4031C132.589 17.6079 133.53 17.212 134.678 17.212V16.212ZM131.096 17.7158C130.153 18.7316 129.714 20.1329 129.714 21.848H130.714C130.714 20.2991 131.108 19.1724 131.829 18.3962L131.096 17.7158ZM129.714 21.848C129.714 23.592 130.151 25.0107 131.096 26.0282L131.829 25.3478C131.109 24.5733 130.714 23.432 130.714 21.848H129.714ZM131.102 26.0351C132.064 27.0319 133.267 27.532 134.678 27.532V26.532C133.53 26.532 132.589 26.1361 131.822 25.3409L131.102 26.0351ZM134.678 27.532C135.789 27.532 136.78 27.2123 137.632 26.5665C138.478 25.9257 139.16 24.9842 139.695 23.7791L138.781 23.3729C138.293 24.4718 137.703 25.2583 137.028 25.7695C136.36 26.2757 135.584 26.532 134.678 26.532V27.532ZM139.018 24.0247L147.418 28.1527L147.859 27.2553L139.459 23.1273L139.018 24.0247ZM147.167 27.5366C146.343 29.8566 144.852 31.6701 142.675 32.9883L143.193 33.8437C145.561 32.4099 147.206 30.4154 148.109 27.8714L147.167 27.5366ZM142.675 32.9883C140.496 34.3081 137.854 34.98 134.726 34.98V35.98C137.999 35.98 140.829 35.2759 143.193 33.8437L142.675 32.9883Z" fill="white"/>
</svg>
