<svg width="122" height="116" viewBox="0 0 122 116" fill="none" xmlns="http://www.w3.org/2000/svg">
<g filter="url(#filter0_d)">
<path d="M19.5671 73.9409L20.0544 70.4708L26.9945 71.4452L26.5073 74.9153L19.5671 73.9409Z" fill="#03FBF3"/>
<path d="M33.9861 97.2157L34.4733 93.7456L37.9434 94.2328L37.4562 97.7029L33.9861 97.2157Z" fill="#03FBF3"/>
<path d="M113.55 52.6573L113.245 49.1662L78.0871 52.2437C76.9256 52.3443 75.8304 52.828 74.9738 53.6189C74.1173 54.4098 73.5479 55.463 73.3552 56.6129L71.7603 66.1854C71.7062 66.675 71.7558 67.1705 71.9059 67.6396C72.0561 68.1087 72.3034 68.5409 72.6318 68.908C72.9603 69.2751 73.3623 69.5688 73.8119 69.7701C74.2615 69.9714 74.7484 70.0757 75.2409 70.0761C75.3439 70.0767 75.4469 70.072 75.5494 70.0621L104.845 67.4946L106.985 91.9377L96.3717 92.8666C95.7032 89.9928 94.0202 87.4567 91.6317 85.7243C89.2433 83.992 86.3099 83.1797 83.3706 83.4368C80.4313 83.6938 77.6835 85.0029 75.632 87.1236C73.5805 89.2442 72.3632 92.0339 72.2037 94.9802L66.8286 95.4499C66.5997 95.471 66.3688 95.4461 66.1497 95.3766C65.9306 95.307 65.7276 95.1943 65.5527 95.045C65.3756 94.8979 65.2295 94.7171 65.1227 94.5132C65.0159 94.3092 64.9506 94.0861 64.9306 93.8568L64.7781 92.1042L70.0148 91.645L69.7081 88.1539L64.4714 88.6183L64.3137 86.8167L70.4862 83.1082C70.7143 82.9711 70.9082 82.7838 71.0532 82.5605C71.1981 82.3373 71.2903 82.084 71.3227 81.8198C71.3551 81.5556 71.327 81.2875 71.2403 81.0358C71.1537 80.7841 71.0109 80.5555 70.8227 80.3672L68.5566 78.1029L70.8227 75.8368C71.0185 75.6404 71.1649 75.4004 71.2499 75.1364C71.3349 74.8724 71.356 74.5921 71.3115 74.3183C71.267 74.0446 71.1582 73.7853 70.994 73.5618C70.8298 73.3383 70.6149 73.157 70.367 73.0327L64.3259 70.0113C64.4837 69.3926 64.6379 68.7722 64.8394 68.1676L71.4326 52.1648C71.7976 51.2721 72.4019 50.4975 73.1791 49.9264C73.9562 49.3552 74.8759 49.0097 75.8368 48.9278L111.963 45.7732C112.359 45.7407 112.758 45.7513 113.153 45.8047L113.643 42.3347C112.985 42.2434 112.319 42.2258 111.658 42.2821L75.5301 45.4367C73.9286 45.5736 72.3959 46.1498 71.1009 47.1019C69.8058 48.054 68.7987 49.3451 68.1903 50.8329L61.5639 66.9565C60.7042 69.5349 60.2035 72.2193 60.0759 74.9343C59.6953 74.0613 59.2154 73.2351 58.6458 72.4719C57.6792 71.1824 56.4666 70.0973 55.078 69.2793C53.6894 68.4614 52.1524 67.9269 50.556 67.7066L47.7641 67.3141L57.0931 61.0959L59.5817 63.5846L62.0598 61.1065L58.5547 57.6013C58.2682 57.3147 57.8913 57.1363 57.488 57.0963C57.0847 57.0564 56.6801 57.1574 56.343 57.3822L43.7595 65.7701L32.161 47.0508C31.4845 45.9588 30.576 45.029 29.4998 44.3275C28.4236 43.626 27.2063 43.17 25.9341 42.9919L8.48722 40.5383L8 44.0101L25.4451 46.4637C26.2088 46.5699 26.9397 46.8431 27.5858 47.2638C28.2319 47.6846 28.7774 48.2425 29.1833 48.898L30.291 50.6839L8.48722 47.6204L8 51.0905L15.5729 52.1561L14.1095 62.5681L8.48722 61.7794L8 65.2495L13.6223 66.0399L10.2065 90.3376L8.48722 90.0957L8 93.5658L23.7399 95.7776C23.7519 99.0234 25.0497 102.132 27.3491 104.423C29.6485 106.714 32.7621 108 36.0079 108C38.6603 107.992 41.2391 107.127 43.359 105.533C45.4789 103.938 47.0261 101.701 47.7694 99.1548L53.113 99.9049C53.3585 99.9398 53.6063 99.9573 53.8543 99.9575C55.1204 99.955 56.343 99.4958 57.2976 98.6641C58.2522 97.8325 58.8747 96.6843 59.0507 95.4306L60.5929 84.4472L61.4447 94.1617C61.5621 95.4685 62.1629 96.6844 63.1294 97.5715C64.096 98.4587 65.3589 98.9533 66.6709 98.9585C66.8251 98.9585 66.9793 98.9585 67.1335 98.9392L72.5104 98.4678C73.144 101.155 74.6646 103.551 76.8268 105.268C78.9891 106.985 81.6668 107.923 84.4279 107.932C84.7855 107.932 85.1447 107.916 85.5058 107.884C88.444 107.63 91.1915 106.323 93.2431 104.204C95.2948 102.085 96.5128 99.2973 96.6731 96.3524L113.547 94.875L113.242 91.3839L110.473 91.6257L108.335 67.1826L113.547 66.727L113.242 63.2358L108.03 63.7055L107.115 53.2164L113.55 52.6573ZM57.5259 81.0595L57.2806 82.7945L50.3404 81.8184L50.8276 78.3483L57.5943 79.2982C57.63 79.8861 57.6071 80.4761 57.5259 81.0595ZM19.0447 52.6433L32.685 54.5606V54.5501L39.9073 66.1942L17.5796 63.0571L19.0447 52.6433ZM44.6743 96.9501C44.4332 98.6665 43.6885 100.273 42.5344 101.566C41.3802 102.859 39.8685 103.781 38.1904 104.215C36.5123 104.649 34.7432 104.575 33.1069 104.004C31.4706 103.432 30.0405 102.388 28.9976 101.004C28.0181 99.7039 27.42 98.157 27.2703 96.5364C27.1206 94.9158 27.4251 93.2855 28.1498 91.8282C28.8746 90.371 29.9908 89.1443 31.3735 88.2858C32.7561 87.4273 34.3505 86.9707 35.9781 86.9674C36.392 86.9674 36.8054 86.996 37.2154 87.0533C39.5155 87.3796 41.5923 88.6047 42.9906 90.4599C44.3888 92.3151 44.9943 94.6491 44.6743 96.9501ZM53.5949 96.4348L48.2496 95.6829C48.2421 93.4082 47.6017 91.1805 46.4001 89.2491C45.1985 87.3176 43.4831 85.7587 41.4458 84.7468C39.4086 83.735 37.1299 83.31 34.8649 83.5196C32.5998 83.7291 30.4378 84.5649 28.6208 85.9334C26.5051 87.5242 24.9666 89.7623 24.2393 92.3075L13.6766 90.8248L17.0923 66.5359L43.1198 70.1865L50.0617 71.1627C51.413 71.3192 52.7049 71.8061 53.8233 72.5803C54.9417 73.3546 55.8522 74.3923 56.4744 75.602L51.3096 74.8764C50.3895 74.7469 49.4557 74.988 48.7134 75.5467C47.971 76.1053 47.4808 76.9359 47.3505 77.8558L46.8633 81.3259C46.7333 82.2462 46.9741 83.1804 47.5328 83.9232C48.0916 84.666 48.9224 85.1564 49.8427 85.2867L56.7846 86.2611L56.2974 89.733L51.0905 89.0022L50.6033 92.4722L55.8102 93.2048L55.5648 94.9399C55.5008 95.3989 55.2577 95.8138 54.8885 96.094C54.5193 96.3742 54.0542 96.4967 53.5949 96.4348ZM66.6253 75.078L64.8394 76.8638C64.5109 77.1925 64.3263 77.6382 64.3263 78.1029C64.3263 78.5676 64.5109 79.0133 64.8394 79.342L66.7585 81.2575L63.9737 82.9312L63.6074 78.7461C63.461 77.0318 63.4816 75.3074 63.6687 73.597L66.6253 75.078ZM93.1698 94.9048C93.3209 96.6314 92.9566 98.3641 92.123 99.8836C91.2894 101.403 90.0239 102.641 88.4865 103.442C86.9492 104.242 85.209 104.568 83.4861 104.38C81.7632 104.191 80.135 103.496 78.8073 102.381C77.4796 101.267 76.5122 99.7845 76.0273 98.1205C75.5424 96.4565 75.5619 94.6861 76.0832 93.0331C76.6046 91.3802 77.6044 89.919 78.9562 88.8343C80.3081 87.7496 81.9512 87.0902 83.6778 86.9394C83.9372 86.9166 84.2036 86.9043 84.456 86.9043C86.6453 86.9083 88.7539 87.7316 90.3666 89.2123C91.9793 90.693 92.9793 92.7238 93.1698 94.9048ZM104.542 64.0245L75.2304 66.6621L76.8165 57.1982C76.8807 56.8149 77.0705 56.4639 77.3561 56.2002C77.6416 55.9366 78.0066 55.7753 78.3938 55.7418L103.631 53.5336L104.542 64.0245Z" fill="#03FBF3"/>
<path d="M77.1912 73.4279L84.1734 72.818L84.4784 76.3091L77.4961 76.919L77.1912 73.4279Z" fill="#03FBF3"/>
<path d="M82.4896 94.0923L85.9807 93.7873L86.2857 97.2785L82.7946 97.5834L82.4896 94.0923Z" fill="#03FBF3"/>
<path d="M36.7982 47.7957L39.2763 45.3175L37.0103 43.0514H41.5424C42.0072 43.0514 42.453 42.8668 42.7817 42.5381C43.1103 42.2095 43.295 41.7637 43.295 41.2989V36.7667L49.0662 42.5379C49.3949 42.8665 49.8405 43.0511 50.3053 43.0511C50.77 43.0511 51.2157 42.8665 51.5443 42.5379L57.3156 36.7667V41.2989C57.3156 41.7637 57.5002 42.2095 57.8289 42.5381C58.1575 42.8668 58.6033 43.0514 59.0681 43.0514H65.3529L61.3342 47.0701L63.8123 49.5482L70.8226 42.5379C71.0677 42.2928 71.2345 41.9806 71.3021 41.6407C71.3697 41.3008 71.335 40.9484 71.2024 40.6282C71.0698 40.3081 70.8452 40.0344 70.557 39.8418C70.2689 39.6492 69.9301 39.5464 69.5836 39.5463H60.8207V32.536C60.8206 32.1894 60.7178 31.8507 60.5252 31.5625C60.3326 31.2744 60.059 31.0498 59.7388 30.9172C59.4186 30.7846 59.0662 30.7499 58.7263 30.8175C58.3864 30.8851 58.0742 31.0519 57.8291 31.2969L50.3053 38.8207L42.7815 31.2969C42.5364 31.0519 42.2241 30.8851 41.8842 30.8175C41.5443 30.7499 41.192 30.7846 40.8718 30.9172C40.5516 31.0498 40.2779 31.2744 40.0853 31.5625C39.8927 31.8507 39.7899 32.1894 39.7898 32.536V39.5463H32.7795C32.433 39.5464 32.0942 39.6492 31.8061 39.8418C31.5179 40.0344 31.2933 40.3081 31.1607 40.6282C31.0281 40.9484 30.9934 41.3008 31.061 41.6407C31.1286 41.9806 31.2954 42.2928 31.5405 42.5379L36.7982 47.7957Z" fill="#03FBF3"/>
<path d="M47.326 29.0308H50.8311C50.8319 28.6918 50.905 28.3568 51.0455 28.0482C51.186 27.7396 51.3908 27.4646 51.6461 27.2415C52.6967 26.1557 53.2841 24.7039 53.2841 23.193C53.2841 21.6821 52.6967 20.2304 51.6461 19.1446C51.3896 18.9212 51.184 18.6454 51.0431 18.3358C50.9022 18.0263 50.8293 17.6901 50.8293 17.35C50.8293 17.0098 50.9022 16.6737 51.0431 16.3641C51.184 16.0545 51.3896 15.7787 51.6461 15.5553C52.7025 14.4725 53.291 13.0179 53.2847 11.5051H49.7796C49.7792 11.8452 49.7061 12.1812 49.5652 12.4907C49.4244 12.8002 49.219 13.0761 48.9629 13.2998C47.9129 14.3866 47.326 15.8387 47.326 17.35C47.326 18.8612 47.9129 20.3133 48.9629 21.4001C49.219 21.6232 49.4243 21.8986 49.565 22.2077C49.7057 22.5168 49.7785 22.8525 49.7785 23.1922C49.7785 23.5318 49.7057 23.8675 49.565 24.1766C49.4243 24.4857 49.219 24.7611 48.9629 24.9842C47.9064 26.0654 47.3183 27.5192 47.326 29.0308Z" fill="#03FBF3"/>
<path d="M57.8414 25.5257H61.3465C61.3473 25.1867 61.4204 24.8517 61.5609 24.5431C61.7014 24.2345 61.9062 23.9595 62.1615 23.7363C63.2121 22.6505 63.7995 21.1988 63.7995 19.6879C63.7995 18.177 63.2121 16.7253 62.1615 15.6395C61.905 15.4161 61.6994 15.1403 61.5585 14.8307C61.4176 14.5211 61.3447 14.185 61.3447 13.8448C61.3447 13.5047 61.4176 13.1685 61.5585 12.8589C61.6994 12.5494 61.905 12.2736 62.1615 12.0502C63.2179 10.9674 63.8064 9.51275 63.8001 8H60.295C60.2945 8.34005 60.2214 8.67608 60.0806 8.98558C59.9397 9.29509 59.7344 9.57093 59.4783 9.79463C58.4283 10.8815 57.8413 12.3336 57.8413 13.8448C57.8413 15.356 58.4283 16.8082 59.4783 17.895C59.7344 18.1181 59.9397 18.3935 60.0804 18.7026C60.2211 19.0117 60.2939 19.3474 60.2939 19.687C60.2939 20.0267 60.2211 20.3623 60.0804 20.6715C59.9397 20.9806 59.7344 21.256 59.4783 21.479C58.4218 22.5602 57.8337 24.0141 57.8414 25.5257Z" fill="#03FBF3"/>
</g>
<defs>
<filter id="filter0_d" x="0" y="0" width="121.643" height="116" filterUnits="userSpaceOnUse" color-interpolation-filters="sRGB">
<feFlood flood-opacity="0" result="BackgroundImageFix"/>
<feColorMatrix in="SourceAlpha" type="matrix" values="0 0 0 0 0 0 0 0 0 0 0 0 0 0 0 0 0 0 127 0"/>
<feOffset/>
<feGaussianBlur stdDeviation="4"/>
<feColorMatrix type="matrix" values="0 0 0 0 0.0117647 0 0 0 0 0.984314 0 0 0 0 0.952941 0 0 0 0.5 0"/>
<feBlend mode="normal" in2="BackgroundImageFix" result="effect1_dropShadow"/>
<feBlend mode="normal" in="SourceGraphic" in2="effect1_dropShadow" result="shape"/>
</filter>
</defs>
</svg>
