<svg width="159" height="150" viewBox="0 0 159 150" fill="none" xmlns="http://www.w3.org/2000/svg">
<path d="M17.3508 98.9114L18.0817 93.7062L28.4919 95.1679L27.7611 100.373L17.3508 98.9114Z" fill="#03FBF3"/>
<path d="M38.979 133.823L39.7098 128.618L44.915 129.349L44.1841 134.554L38.979 133.823Z" fill="#03FBF3"/>
<path d="M158.326 66.9859L157.868 61.7492L105.131 66.3655C103.388 66.5164 101.746 67.242 100.461 68.4284C99.1759 69.6147 98.3218 71.1945 98.0328 72.9193L95.6405 87.2781C95.5592 88.0124 95.6336 88.7557 95.8589 89.4593C96.0841 90.163 96.4552 90.8113 96.9478 91.3619C97.4404 91.9126 98.0435 92.3532 98.7178 92.6552C99.3922 92.9571 100.123 93.1135 100.861 93.1141C101.016 93.115 101.17 93.1079 101.324 93.0931L145.268 89.2418L148.478 125.907L132.558 127.3C131.555 122.989 129.03 119.185 125.448 116.586C121.865 113.988 117.465 112.77 113.056 113.155C108.647 113.541 104.525 115.504 101.448 118.685C98.3708 121.866 96.5448 126.051 96.3056 130.47L88.2429 131.175C87.8995 131.206 87.5532 131.169 87.2245 131.065C86.8958 130.961 86.5913 130.791 86.3291 130.567C86.0635 130.347 85.8442 130.076 85.684 129.77C85.5239 129.464 85.4259 129.129 85.3958 128.785L85.1671 126.156L93.0221 125.468L92.5621 120.231L84.7071 120.927L84.4705 118.225L93.7293 112.662C94.0715 112.457 94.3623 112.176 94.5797 111.841C94.7971 111.506 94.9354 111.126 94.9841 110.73C95.0327 110.333 94.9905 109.931 94.8605 109.554C94.7306 109.176 94.5163 108.833 94.2341 108.551L90.8349 105.154L94.2341 101.755C94.5278 101.461 94.7474 101.101 94.8748 100.705C95.0023 100.309 95.0339 99.888 94.9672 99.4775C94.9005 99.0669 94.7373 98.678 94.491 98.3427C94.2447 98.0075 93.9224 97.7355 93.5506 97.549L84.4889 93.0169C84.7255 92.0889 84.9568 91.1583 85.2591 90.2513L95.1489 66.2472C95.6964 64.9082 96.6029 63.7463 97.7686 62.8895C98.9342 62.0328 100.314 61.5145 101.755 61.3917L155.944 56.6598C156.539 56.611 157.137 56.6269 157.729 56.7071L158.465 51.502C157.478 51.3651 156.479 51.3386 155.486 51.4231L101.295 56.155C98.8929 56.3604 96.5938 57.2247 94.6513 58.6528C92.7087 60.081 91.198 62.0176 90.2855 64.2493L80.3458 88.4348C79.0563 92.3023 78.3053 96.329 78.1139 100.401C77.543 99.0919 76.8232 97.8526 75.9688 96.7078C74.5188 94.7735 72.6998 93.1459 70.617 91.919C68.5341 90.6921 66.2286 89.8903 63.8339 89.5599L59.6462 88.9711L73.6396 79.6439L77.3726 83.3769L81.0898 79.6596L75.832 74.4019C75.4023 73.9721 74.8369 73.7044 74.232 73.6445C73.6271 73.5846 73.0201 73.7361 72.5144 74.0733L53.6392 86.655L36.2414 58.5762C35.2268 56.9381 33.8639 55.5434 32.2497 54.4912C30.6355 53.439 28.8094 52.755 26.9011 52.4878L0.730823 48.8074L0 54.0151L26.1677 57.6955C27.3132 57.8548 28.4095 58.2646 29.3787 58.8957C30.3479 59.5268 31.166 60.3638 31.775 61.347L33.4364 64.0258L0.730823 59.4306L0 64.6357L11.3593 66.2341L9.1642 81.8521L0.730823 80.6691L0 85.8743L8.43338 87.0599L3.30973 123.506L0.730823 123.144L0 128.349L23.6098 131.666C23.6279 136.535 25.5746 141.198 29.0237 144.634C32.4728 148.071 37.1431 150 42.0118 150C45.9905 149.989 49.8587 148.69 53.0385 146.299C56.2183 143.907 58.5391 140.551 59.6541 136.732L67.6694 137.857C68.0378 137.91 68.4094 137.936 68.7814 137.936C70.6805 137.932 72.5145 137.244 73.9464 135.996C75.3783 134.749 76.312 133.026 76.576 131.146L78.8894 114.671L80.167 129.243C80.3431 131.203 81.2443 133.027 82.6942 134.357C84.144 135.688 86.0383 136.43 88.0063 136.438C88.2376 136.438 88.469 136.438 88.7003 136.409L96.7656 135.702C97.7159 139.733 99.9968 143.326 103.24 145.902C106.484 148.477 110.5 149.885 114.642 149.897C115.178 149.897 115.717 149.874 116.259 149.827C120.666 149.444 124.787 147.484 127.865 144.306C130.942 141.128 132.769 136.946 133.01 132.529L158.32 130.312L157.863 125.076L153.709 125.439L150.502 88.7739L158.32 88.0904L157.863 82.8537L150.045 83.5583L148.672 67.8245L158.326 66.9859ZM74.2889 109.589L73.9209 112.192L63.5106 110.728L64.2414 105.522L74.3914 106.947C74.445 107.829 74.4107 108.714 74.2889 109.589ZM16.5671 66.9649L37.0275 69.8409V69.8251L47.861 87.2912L14.3693 82.5856L16.5671 66.9649ZM55.0115 133.425C54.6498 136 53.5328 138.409 51.8015 140.349C50.0703 142.289 47.8028 143.672 45.2856 144.322C42.7685 144.973 40.1148 144.863 37.6603 144.006C35.2058 143.148 33.0607 141.582 31.4964 139.506C30.0272 137.556 29.13 135.236 28.9054 132.805C28.6808 130.374 29.1377 127.928 30.2248 125.742C31.3118 123.556 32.9862 121.716 35.0602 120.429C37.1342 119.141 39.5258 118.456 41.9671 118.451C42.588 118.451 43.2081 118.494 43.8231 118.58C47.2732 119.069 50.3885 120.907 52.4858 123.69C54.5832 126.473 55.4915 129.974 55.0115 133.425ZM68.3924 132.652L60.3744 131.524C60.3632 128.112 59.4026 124.771 57.6002 121.874C55.7977 118.976 53.2246 116.638 50.1687 115.12C47.1128 113.602 43.6948 112.965 40.2973 113.279C36.8997 113.594 33.6567 114.847 30.9311 116.9C27.7576 119.286 25.4499 122.643 24.359 126.461L8.51487 124.237L13.6385 87.8039L52.6797 93.2798L63.0926 94.744C65.1195 94.9788 67.0573 95.7091 68.7349 96.8704C70.4126 98.0318 71.7783 99.5885 72.7116 101.403L64.9643 100.315C63.5843 100.12 62.1836 100.482 61.07 101.32C59.9565 102.158 59.2212 103.404 59.0258 104.784L58.2949 109.989C58.0999 111.369 58.4612 112.771 59.2993 113.885C60.1373 114.999 61.3836 115.735 62.764 115.93L73.1769 117.392L72.4461 122.599L64.6357 121.503L63.9049 126.708L71.7153 127.807L71.3472 130.41C71.2513 131.098 70.8865 131.721 70.3327 132.141C69.779 132.561 69.0813 132.745 68.3924 132.652ZM87.9379 100.617L85.2591 103.296C84.7663 103.789 84.4894 104.457 84.4894 105.154C84.4894 105.851 84.7663 106.52 85.2591 107.013L88.1377 109.886L83.9605 112.397L83.411 106.119C83.1916 103.548 83.2224 100.961 83.5031 98.3955L87.9379 100.617ZM127.755 130.357C127.981 132.947 127.435 135.546 126.185 137.825C124.934 140.105 123.036 141.962 120.73 143.163C118.424 144.363 115.813 144.853 113.229 144.57C110.645 144.287 108.202 143.243 106.211 141.572C104.219 139.901 102.768 137.677 102.041 135.181C101.314 132.685 101.343 130.029 102.125 127.55C102.907 125.07 104.407 122.878 106.434 121.251C108.462 119.624 110.927 118.635 113.517 118.409C113.906 118.375 114.305 118.356 114.684 118.356C117.968 118.362 121.131 119.597 123.55 121.818C125.969 124.039 127.469 127.086 127.755 130.357ZM144.813 84.0367L100.846 87.9931L103.225 73.7973C103.321 73.2224 103.606 72.6958 104.034 72.3003C104.462 71.9049 105.01 71.663 105.591 71.6127L143.446 68.3004L144.813 84.0367Z" fill="#03FBF3"/>
<path d="M103.787 98.1418L114.26 97.227L114.718 102.464L104.244 103.379L103.787 98.1418Z" fill="#03FBF3"/>
<path d="M111.734 129.138L116.971 128.681L117.428 133.918L112.192 134.375L111.734 129.138Z" fill="#03FBF3"/>
<path d="M43.1973 59.6934L46.9145 55.9762L43.5154 52.5771H50.3136C51.0108 52.5771 51.6795 52.3001 52.1725 51.8071C52.6655 51.3141 52.9425 50.6455 52.9425 49.9482V43.15L61.5993 51.8069C62.0923 52.2997 62.7608 52.5765 63.4579 52.5765C64.155 52.5765 64.8235 52.2997 65.3165 51.8069L73.9733 43.15V49.9482C73.9733 50.6455 74.2503 51.3141 74.7433 51.8071C75.2363 52.3001 75.905 52.5771 76.6022 52.5771H86.0293L80.0013 58.6051L83.7185 62.3223L94.2339 51.8069C94.6015 51.4392 94.8518 50.9708 94.9532 50.461C95.0545 49.9511 95.0025 49.4226 94.8036 48.9423C94.6046 48.462 94.2678 48.0515 93.8356 47.7626C93.4034 47.4737 92.8952 47.3195 92.3753 47.3194H79.231V36.804C79.2309 36.2841 79.0767 35.7759 78.7878 35.3437C78.499 34.9115 78.0884 34.5747 77.6081 34.3757C77.1278 34.1768 76.5994 34.1248 76.0895 34.2261C75.5796 34.3275 75.1112 34.5778 74.7436 34.9454L63.4579 46.231L52.1722 34.9454C51.8046 34.5778 51.3362 34.3275 50.8263 34.2261C50.3164 34.1248 49.788 34.1768 49.3077 34.3757C48.8274 34.5747 48.4168 34.9115 48.128 35.3437C47.8391 35.7759 47.6849 36.2841 47.6847 36.804V47.3194H37.1693C36.6495 47.3195 36.1413 47.4737 35.7091 47.7626C35.2769 48.0515 34.94 48.462 34.7411 48.9423C34.5422 49.4226 34.4901 49.9511 34.5915 50.461C34.6929 50.9708 34.9432 51.4392 35.3107 51.8069L43.1973 59.6934Z" fill="#03FBF3"/>
<path d="M58.9889 31.5463H64.2466C64.2477 31.0377 64.3573 30.5352 64.5681 30.0723C64.7789 29.6095 65.0861 29.1969 65.469 28.8622C67.045 27.2335 67.926 25.0559 67.926 22.7895C67.926 20.5232 67.045 18.3456 65.469 16.7169C65.0843 16.3818 64.7759 15.9681 64.5646 15.5037C64.3532 15.0394 64.2439 14.5351 64.2439 14.0249C64.2439 13.5147 64.3532 13.0105 64.5646 12.5461C64.7759 12.0818 65.0843 11.6681 65.469 11.333C67.0536 9.70873 67.9364 7.52682 67.927 5.25769H62.6693C62.6686 5.76776 62.559 6.27181 62.3477 6.73607C62.1364 7.20033 61.8284 7.61409 61.4442 7.94964C59.8692 9.57988 58.9888 11.7581 58.9888 14.0249C58.9888 16.2918 59.8692 18.47 61.4442 20.1002C61.8284 20.4348 62.1364 20.8479 62.3474 21.3116C62.5584 21.7753 62.6676 22.2788 62.6676 22.7882C62.6676 23.2977 62.5584 23.8012 62.3474 24.2649C62.1364 24.7286 61.8284 25.1416 61.4442 25.4762C59.8595 27.098 58.9774 29.2788 58.9889 31.5463Z" fill="#03FBF3"/>
<path d="M74.7621 26.2886H80.0198C80.0209 25.78 80.1305 25.2775 80.3413 24.8146C80.5521 24.3518 80.8593 23.9392 81.2422 23.6045C82.8182 21.9758 83.6992 19.7982 83.6992 17.5319C83.6992 15.2655 82.8182 13.0879 81.2422 11.4592C80.8575 11.1241 80.5491 10.7104 80.3378 10.2461C80.1264 9.7817 80.0171 9.27743 80.0171 8.76724C80.0171 8.25705 80.1264 7.75278 80.3378 7.28842C80.5491 6.82406 80.8575 6.41039 81.2422 6.07529C82.8268 4.45104 83.7096 2.26913 83.7002 0H78.4425C78.4418 0.510073 78.3322 1.01412 78.1209 1.47838C77.9096 1.94264 77.6016 2.3564 77.2174 2.69195C75.6424 4.32219 74.762 6.50042 74.762 8.76724C74.762 11.0341 75.6424 13.2123 77.2174 14.8425C77.6016 15.1771 77.9096 15.5902 78.1206 16.0539C78.3316 16.5176 78.4408 17.0211 78.4408 17.5305C78.4408 18.04 78.3316 18.5435 78.1206 19.0072C77.9096 19.4709 77.6016 19.8839 77.2174 20.2185C75.6327 21.8403 74.7506 24.0211 74.7621 26.2886Z" fill="#03FBF3"/>
</svg>
