<svg width="50" height="32" viewBox="0 0 50 32" fill="none" xmlns="http://www.w3.org/2000/svg">
<g filter="url(#filter0_d)">
<path d="M43.3333 17.0835H6.66667C5.74666 17.0835 5 16.5235 5 15.8335C5 15.1435 5.74666 14.5835 6.66667 14.5835H43.3333C44.2533 14.5835 45 15.1435 45 15.8335C45 16.5235 44.2533 17.0835 43.3333 17.0835Z" fill="#03FBF3"/>
<path d="M43.3333 7.5H6.66667C5.74666 7.5 5 6.94 5 6.25C5 5.56 5.74666 5 6.66667 5H43.3333C44.2533 5 45 5.56 45 6.25C45 6.94 44.2533 7.5 43.3333 7.5Z" fill="#03FBF3"/>
<path d="M43.3333 26.6665H6.66667C5.74666 26.6665 5 26.1065 5 25.4165C5 24.7265 5.74666 24.1665 6.66667 24.1665H43.3333C44.2533 24.1665 45 24.7265 45 25.4165C45 26.1065 44.2533 26.6665 43.3333 26.6665Z" fill="#03FBF3"/>
</g>
<defs>
<filter id="filter0_d" x="0" y="0" width="50" height="31.6665" filterUnits="userSpaceOnUse" color-interpolation-filters="sRGB">
<feFlood flood-opacity="0" result="BackgroundImageFix"/>
<feColorMatrix in="SourceAlpha" type="matrix" values="0 0 0 0 0 0 0 0 0 0 0 0 0 0 0 0 0 0 127 0"/>
<feOffset/>
<feGaussianBlur stdDeviation="2.5"/>
<feColorMatrix type="matrix" values="0 0 0 0 0.0117647 0 0 0 0 0.984314 0 0 0 0 0.952941 0 0 0 0.4 0"/>
<feBlend mode="normal" in2="BackgroundImageFix" result="effect1_dropShadow"/>
<feBlend mode="normal" in="SourceGraphic" in2="effect1_dropShadow" result="shape"/>
</filter>
</defs>
</svg>
