<svg width="43" height="39" viewBox="0 0 43 39" fill="none" xmlns="http://www.w3.org/2000/svg">
<g filter="url(#filter0_d)">
<path d="M38.6122 28.8137C38.5639 27.6532 38.0061 26.5703 37.0417 25.7643C35.1533 24.1862 33.5711 23.2752 32.0625 22.8974C29.9839 22.3767 28.0584 22.8502 26.3401 24.3046C26.3375 24.3067 26.3349 24.309 26.3324 24.3112L24.5042 25.8837C23.3617 25.3256 21.1401 24.1 18.7399 22.0198L18.5619 21.8657C16.1613 19.7852 14.7472 17.8595 14.1038 16.8704L15.9184 15.286C15.921 15.2837 15.9236 15.2815 15.9261 15.2792C17.6042 13.7901 18.1505 12.1215 17.5498 10.3198C17.1138 9.01236 16.0627 7.64114 14.2417 6.00455C13.3118 5.16882 12.0624 4.68542 10.7234 4.64358C9.38358 4.60169 8.09794 5.00587 7.10085 5.78154L7.06204 5.81177C7.04406 5.82578 7.02648 5.84025 7.00931 5.85507C5.02439 7.57534 3.98389 9.98361 4.00019 12.8196C4.02798 17.6373 7.08314 23.1468 12.1726 27.5577C13.1323 28.3894 14.2231 29.2125 15.4145 30.0043C16.0071 30.398 16.8558 30.301 17.3102 29.7873C17.7647 29.2737 17.6526 28.5381 17.0599 28.1443C15.9623 27.4149 14.9614 26.6599 14.0849 25.9005C9.48777 21.9163 6.72873 17.022 6.70446 12.808C6.69195 10.6238 7.45005 8.80077 8.89707 7.53362L8.90742 7.52553C9.89024 6.76094 11.3782 6.80746 12.2951 7.63147C15.7958 10.7779 15.5424 12.2633 13.9955 13.638L11.489 15.8266C11.0959 16.1699 10.9864 16.6871 11.2134 17.1289C11.277 17.2528 12.8164 20.2008 16.6501 23.5234L16.8282 23.6774C20.6614 26.9997 24.0631 28.3337 24.206 28.3889C24.7156 28.5857 25.3126 28.4908 25.7086 28.1501L28.234 25.9777C29.8204 24.637 31.5344 24.4175 35.1646 27.4514C36.1154 28.246 36.1691 29.5356 35.287 30.3873L35.2774 30.3965C33.8273 31.6404 31.7462 32.2969 29.2535 32.2969C29.2329 32.2969 29.2123 32.2969 29.1917 32.2967C27.1992 32.2881 24.892 31.8148 22.5195 30.9279C21.834 30.6715 21.0381 30.9455 20.7424 31.5398C20.4466 32.1341 20.7627 32.8236 21.4485 33.08C24.1908 34.1051 26.7914 34.6301 29.1783 34.6405C29.2036 34.6406 29.2288 34.6406 29.2541 34.6406C32.4935 34.6406 35.2447 33.7395 37.2143 32.0326C37.2314 32.0177 37.248 32.0025 37.2642 31.9869L37.2993 31.9531C38.1942 31.089 38.6605 29.9741 38.6122 28.8137Z" fill="#03FBF3"/>
</g>
<defs>
<filter id="filter0_d" x="0" y="0.640625" width="42.6156" height="38" filterUnits="userSpaceOnUse" color-interpolation-filters="sRGB">
<feFlood flood-opacity="0" result="BackgroundImageFix"/>
<feColorMatrix in="SourceAlpha" type="matrix" values="0 0 0 0 0 0 0 0 0 0 0 0 0 0 0 0 0 0 127 0"/>
<feOffset/>
<feGaussianBlur stdDeviation="2"/>
<feColorMatrix type="matrix" values="0 0 0 0 0.0117647 0 0 0 0 0.984314 0 0 0 0 0.952941 0 0 0 0.4 0"/>
<feBlend mode="normal" in2="BackgroundImageFix" result="effect1_dropShadow"/>
<feBlend mode="normal" in="SourceGraphic" in2="effect1_dropShadow" result="shape"/>
</filter>
</defs>
</svg>
