<svg width="261" height="36" viewBox="0 0 261 36" fill="none" xmlns="http://www.w3.org/2000/svg">
<path d="M24.573 17.3606L24.1465 17.0997L23.9917 17.3527L24.1395 17.6099L24.573 17.3606ZM34.509 34.6406V35.1406H35.3733L34.9425 34.3914L34.509 34.6406ZM21.741 34.6406L21.2991 34.8746L21.44 35.1406H21.741V34.6406ZM15.309 22.4966L15.7509 22.2626L15.61 21.9966H15.309V22.4966ZM12.141 22.4966V21.9966H11.641V22.4966H12.141ZM12.141 34.6406V35.1406H12.641V34.6406H12.141ZM0.813 34.6406H0.313V35.1406H0.813V34.6406ZM0.813 1.04062V0.540623H0.313V1.04062H0.813ZM12.141 1.04062H12.641V0.540623H12.141V1.04062ZM12.141 13.5686H11.641V14.0686H12.141V13.5686ZM15.597 13.5686V14.0686H15.8873L16.0312 13.8165L15.597 13.5686ZM22.749 1.04062V0.540623H22.4587L22.3148 0.792732L22.749 1.04062ZM34.557 1.04062L34.9835 1.30155L35.449 0.540623H34.557V1.04062ZM24.1395 17.6099L34.0755 34.8899L34.9425 34.3914L25.0065 17.1114L24.1395 17.6099ZM34.509 34.1406H21.741V35.1406H34.509V34.1406ZM22.1829 34.4066L15.7509 22.2626L14.8671 22.7306L21.2991 34.8746L22.1829 34.4066ZM15.309 21.9966H12.141V22.9966H15.309V21.9966ZM11.641 22.4966V34.6406H12.641V22.4966H11.641ZM12.141 34.1406H0.813V35.1406H12.141V34.1406ZM1.313 34.6406V1.04062H0.313V34.6406H1.313ZM0.813 1.54062H12.141V0.540623H0.813V1.54062ZM11.641 1.04062V13.5686H12.641V1.04062H11.641ZM12.141 14.0686H15.597V13.0686H12.141V14.0686ZM16.0312 13.8165L23.1832 1.28851L22.3148 0.792732L15.1628 13.3207L16.0312 13.8165ZM22.749 1.54062H34.557V0.540623H22.749V1.54062ZM34.1305 0.779695L24.1465 17.0997L24.9995 17.6216L34.9835 1.30155L34.1305 0.779695ZM41.583 33.3926L41.3544 33.8374L41.3619 33.8411L41.583 33.3926ZM36.159 28.5446L35.7361 28.8114L35.738 28.8143L36.159 28.5446ZM36.159 14.4806L36.58 14.7503L36.5819 14.7474L36.159 14.4806ZM41.583 9.63262L41.3619 9.18418L41.3594 9.18541L41.583 9.63262ZM57.327 9.63262L57.1034 10.0798L57.1059 10.0811L57.327 9.63262ZM62.751 14.4806L62.3251 14.7427L62.33 14.7503L62.751 14.4806ZM62.751 28.5446L62.3281 28.2779L62.327 28.2796L62.751 28.5446ZM57.327 33.3926L57.5506 33.8398L57.553 33.8386L57.327 33.3926ZM52.527 25.3286L52.9 25.6617L52.9057 25.6551L52.527 25.3286ZM46.383 17.6966L46.756 18.0296L46.383 17.6966ZM46.383 25.3286L46.0042 25.6551L46.01 25.6616L46.383 25.3286ZM49.455 34.6206C46.6106 34.6206 44.0636 34.0584 41.8041 32.9442L41.3619 33.8411C43.7744 35.0308 46.4754 35.6206 49.455 35.6206V34.6206ZM41.8115 32.9479C39.5807 31.8015 37.8413 30.2438 36.58 28.2749L35.738 28.8143C37.1007 30.9415 38.9773 32.6157 41.3545 33.8373L41.8115 32.9479ZM36.5819 28.2779C35.3237 26.2831 34.691 24.0248 34.691 21.4886H33.691C33.691 24.2004 34.3703 26.6461 35.7361 28.8114L36.5819 28.2779ZM34.691 21.4886C34.691 18.9524 35.3237 16.7115 36.58 14.7503L35.738 14.2109C34.3703 16.3458 33.691 18.7769 33.691 21.4886H34.691ZM36.5819 14.7474C37.8428 12.7483 39.5802 11.193 41.8066 10.0798L41.3594 9.18541C38.9778 10.3762 37.0992 12.0529 35.7361 14.2139L36.5819 14.7474ZM41.8041 10.0811C44.0636 8.9668 46.6106 8.40462 49.455 8.40462V7.40462C46.4754 7.40462 43.7744 7.99444 41.3619 9.18419L41.8041 10.0811ZM49.455 8.40462C52.3325 8.40462 54.8781 8.96721 57.1034 10.0798L57.5506 9.18541C55.1679 7.99404 52.4655 7.40462 49.455 7.40462V8.40462ZM57.1059 10.0811C59.3633 11.1943 61.0978 12.7482 62.3252 14.7427L63.1768 14.2186C61.8442 12.053 59.9627 10.3749 57.5481 9.18419L57.1059 10.0811ZM62.33 14.7503C63.5863 16.7115 64.219 18.9524 64.219 21.4886H65.219C65.219 18.7769 64.5397 16.3458 63.172 14.2109L62.33 14.7503ZM64.219 21.4886C64.219 24.0248 63.5863 26.2831 62.3281 28.2779L63.1739 28.8114C64.5397 26.6461 65.219 24.2004 65.219 21.4886H64.219ZM62.327 28.2796C61.0993 30.2439 59.3628 31.8002 57.101 32.9466L57.553 33.8386C59.9632 32.617 61.8427 30.9413 63.175 28.8096L62.327 28.2796ZM57.1034 32.9454C54.8781 34.058 52.3325 34.6206 49.455 34.6206V35.6206C52.4655 35.6206 55.1679 35.0312 57.5506 33.8398L57.1034 32.9454ZM49.455 27.1726C50.8391 27.1726 52.001 26.6685 52.9 25.6616L52.154 24.9956C51.453 25.7808 50.5669 26.1726 49.455 26.1726V27.1726ZM52.9057 25.6551C53.8067 24.6099 54.227 23.2002 54.227 21.4886H53.227C53.227 23.041 52.8473 24.1914 52.1483 25.0022L52.9057 25.6551ZM54.227 21.4886C54.227 19.7782 53.8072 18.3797 52.9 17.3636L52.154 18.0296C52.8468 18.8055 53.227 19.935 53.227 21.4886H54.227ZM52.9 17.3636C52.001 16.3568 50.8391 15.8526 49.455 15.8526V16.8526C50.5669 16.8526 51.453 17.2445 52.154 18.0296L52.9 17.3636ZM49.455 15.8526C48.0709 15.8526 46.909 16.3568 46.01 17.3636L46.756 18.0296C47.457 17.2445 48.3431 16.8526 49.455 16.8526V15.8526ZM46.01 17.3636C45.1028 18.3797 44.683 19.7782 44.683 21.4886H45.683C45.683 19.935 46.0632 18.8055 46.756 18.0296L46.01 17.3636ZM44.683 21.4886C44.683 23.2002 45.1033 24.6099 46.0043 25.6551L46.7617 25.0022C46.0627 24.1914 45.683 23.041 45.683 21.4886H44.683ZM46.01 25.6616C46.909 26.6685 48.0709 27.1726 49.455 27.1726V26.1726C48.3431 26.1726 47.457 25.7808 46.756 24.9956L46.01 25.6616ZM68.0752 8.38462V7.88462H67.5752V8.38462H68.0752ZM78.8753 8.38462H79.3753V7.88462H78.8753V8.38462ZM78.8753 17.6006H78.3753V18.1006H78.8753V17.6006ZM86.2673 17.6006V18.1006H86.7673V17.6006H86.2673ZM86.2673 8.38462V7.88462H85.7673V8.38462H86.2673ZM97.0673 8.38462H97.5673V7.88462H97.0673V8.38462ZM97.0673 34.6406V35.1406H97.5673V34.6406H97.0673ZM86.2673 34.6406H85.7673V35.1406H86.2673V34.6406ZM86.2673 26.0966H86.7673V25.5966H86.2673V26.0966ZM78.8753 26.0966V25.5966H78.3753V26.0966H78.8753ZM78.8753 34.6406V35.1406H79.3753V34.6406H78.8753ZM68.0752 34.6406H67.5752V35.1406H68.0752V34.6406ZM68.0752 8.88462H78.8753V7.88462H68.0752V8.88462ZM78.3753 8.38462V17.6006H79.3753V8.38462H78.3753ZM78.8753 18.1006H86.2673V17.1006H78.8753V18.1006ZM86.7673 17.6006V8.38462H85.7673V17.6006H86.7673ZM86.2673 8.88462H97.0673V7.88462H86.2673V8.88462ZM96.5673 8.38462V34.6406H97.5673V8.38462H96.5673ZM97.0673 34.1406H86.2673V35.1406H97.0673V34.1406ZM86.7673 34.6406V26.0966H85.7673V34.6406H86.7673ZM86.2673 25.5966H78.8753V26.5966H86.2673V25.5966ZM78.3753 26.0966V34.6406H79.3753V26.0966H78.3753ZM78.8753 34.1406H68.0752V35.1406H78.8753V34.1406ZM68.5752 34.6406V8.38462H67.5752V34.6406H68.5752ZM127.017 16.8326V17.3326H127.517V16.8326H127.017ZM119.001 16.8326V16.3326H118.501V16.8326H119.001ZM119.001 34.6406V35.1406H119.501V34.6406H119.001ZM108.201 34.6406H107.701V35.1406H108.201V34.6406ZM108.201 16.8326H108.701V16.3326H108.201V16.8326ZM100.185 16.8326H99.6854V17.3326H100.185V16.8326ZM100.185 8.38462V7.88462H99.6854V8.38462H100.185ZM127.017 8.38462H127.517V7.88462H127.017V8.38462ZM127.017 16.3326H119.001V17.3326H127.017V16.3326ZM118.501 16.8326V34.6406H119.501V16.8326H118.501ZM119.001 34.1406H108.201V35.1406H119.001V34.1406ZM108.701 34.6406V16.8326H107.701V34.6406H108.701ZM108.201 16.3326H100.185V17.3326H108.201V16.3326ZM100.685 16.8326V8.38462H99.6854V16.8326H100.685ZM100.185 8.88462H127.017V7.88462H100.185V8.88462ZM126.517 8.38462V16.8326H127.517V8.38462H126.517ZM151.882 11.0246L151.557 11.4046L151.56 11.4071L151.882 11.0246ZM155.53 34.6406V35.1406H156.03V34.6406H155.53ZM145.45 34.6406H144.95V35.1406H145.45V34.6406ZM145.45 31.1846H145.95L144.998 30.9699L145.45 31.1846ZM132.682 34.0646L132.454 34.51L132.466 34.5157L132.682 34.0646ZM129.37 31.1366L128.939 31.3906L128.943 31.3972L128.947 31.4036L129.37 31.1366ZM131.242 21.0566L130.961 20.6427L131.242 21.0566ZM144.634 19.0406V19.5406H145.227L145.127 18.9559L144.634 19.0406ZM136.09 16.5446L136.229 17.025L136.24 17.0214L136.09 16.5446ZM132.97 18.0326L132.52 18.2502L132.782 18.7938L133.267 18.4344L132.97 18.0326ZM129.514 10.8806L129.251 10.4551L128.867 10.692L129.064 11.0982L129.514 10.8806ZM134.938 8.72062L135.056 9.20658L135.061 9.20527L134.938 8.72062ZM143.338 27.9686L143.055 27.556L143.338 27.9686ZM144.682 26.0966L145.154 26.2602L145.182 26.1807V26.0966H144.682ZM144.682 24.2726H145.182V23.7726H144.682V24.2726ZM139.354 28.0166L139.014 28.383L139.027 28.3956L139.041 28.4071L139.354 28.0166ZM141.322 8.40462C145.862 8.40462 149.248 9.42999 151.557 11.4046L152.207 10.6446C149.652 8.45926 145.997 7.40462 141.322 7.40462V8.40462ZM151.56 11.4071C153.843 13.3299 155.03 16.3337 155.03 20.5286H156.03C156.03 16.1476 154.785 12.8154 152.204 10.6422L151.56 11.4071ZM155.03 20.5286V34.6406H156.03V20.5286H155.03ZM155.53 34.1406H145.45V35.1406H155.53V34.1406ZM145.95 34.6406V31.1846H144.95V34.6406H145.95ZM144.998 30.9699C143.857 33.3683 141.593 34.6206 138.01 34.6206V35.6206C141.85 35.6206 144.546 34.2489 145.901 31.3994L144.998 30.9699ZM138.01 34.6206C135.985 34.6206 134.286 34.2778 132.897 33.6136L132.466 34.5157C134.021 35.2595 135.875 35.6206 138.01 35.6206V34.6206ZM132.909 33.6194C131.539 32.919 130.507 32.0007 129.792 30.8696L128.947 31.4036C129.769 32.7046 130.944 33.7382 132.454 34.5098L132.909 33.6194ZM129.8 30.8826C129.113 29.7163 128.766 28.4129 128.766 26.9606H127.766C127.766 28.5804 128.155 30.061 128.939 31.3906L129.8 30.8826ZM128.766 26.9606C128.766 24.5185 129.688 22.7129 131.522 21.4706L130.961 20.6427C128.827 22.0883 127.766 24.2188 127.766 26.9606H128.766ZM131.522 21.4706C133.384 20.2092 136.273 19.5406 140.266 19.5406V18.5406C136.195 18.5406 133.067 19.216 130.961 20.6427L131.522 21.4706ZM140.266 19.5406H144.634V18.5406H140.266V19.5406ZM145.127 18.9559C144.928 17.8024 144.352 16.9052 143.398 16.3119C142.463 15.7315 141.21 15.4686 139.69 15.4686V16.4686C141.113 16.4686 142.156 16.7178 142.87 17.1613C143.563 17.5921 143.987 18.2309 144.141 19.1253L145.127 18.9559ZM139.69 15.4686C138.451 15.4686 137.2 15.6696 135.939 16.0678L136.24 17.0214C137.411 16.6516 138.561 16.4686 139.69 16.4686V15.4686ZM135.951 16.0643C134.688 16.43 133.592 16.9498 132.672 17.6308L133.267 18.4344C134.076 17.8355 135.06 17.3632 136.229 17.0249L135.951 16.0643ZM133.42 17.8151L129.964 10.6631L129.064 11.0982L132.52 18.2502L133.42 17.8151ZM129.776 11.3061C131.227 10.4113 132.983 9.70889 135.056 9.20655L134.82 8.2347C132.668 8.75636 130.809 9.49398 129.251 10.4551L129.776 11.3061ZM135.061 9.20527C137.166 8.67098 139.253 8.40462 141.322 8.40462V7.40462C139.166 7.40462 136.997 7.68226 134.815 8.23598L135.061 9.20527ZM141.274 29.0926C142.138 29.0926 142.925 28.8567 143.62 28.3813L143.055 27.556C142.534 27.9126 141.946 28.0926 141.274 28.0926V29.0926ZM143.62 28.3813C144.333 27.8937 144.838 27.1731 145.154 26.2602L144.209 25.9331C143.949 26.6841 143.559 27.2116 143.055 27.556L143.62 28.3813ZM145.182 26.0966V24.2726H144.182V26.0966H145.182ZM144.682 23.7726H141.994V24.7726H144.682V23.7726ZM141.994 23.7726C140.85 23.7726 139.905 23.9604 139.232 24.4086C138.524 24.8807 138.182 25.599 138.182 26.4806H139.182C139.182 25.8903 139.391 25.5046 139.787 25.2407C140.219 24.9529 140.93 24.7726 141.994 24.7726V23.7726ZM138.182 26.4806C138.182 27.2285 138.464 27.873 139.014 28.383L139.694 27.6502C139.347 27.3282 139.182 26.9487 139.182 26.4806H138.182ZM139.041 28.4071C139.634 28.8809 140.395 29.0926 141.274 29.0926V28.0926C140.553 28.0926 140.034 27.9203 139.666 27.6262L139.041 28.4071ZM172.862 25.9046L173.291 25.6477L173.146 25.4046H172.862V25.9046ZM170.798 25.9046V25.4046H170.298V25.9046H170.798ZM170.798 34.6406V35.1406H171.298V34.6406H170.798ZM159.95 34.6406H159.45V35.1406H159.95V34.6406ZM159.95 8.38462V7.88462H159.45V8.38462H159.95ZM170.798 8.38462H171.298V7.88462H170.798V8.38462ZM170.798 17.6006H170.298V18.1006H170.798V17.6006ZM173.15 17.6006V18.1006H173.427L173.574 17.8656L173.15 17.6006ZM178.91 8.38462V7.88462H178.633L178.486 8.11962L178.91 8.38462ZM190.334 8.38462L190.749 8.66343L191.272 7.88462H190.334V8.38462ZM181.886 20.9606L181.471 20.6818L181.286 20.9574L181.468 21.2349L181.886 20.9606ZM190.862 34.6406V35.1406H191.788L191.28 34.3663L190.862 34.6406ZM178.094 34.6406L177.665 34.8975L177.811 35.1406H178.094V34.6406ZM172.862 25.4046H170.798V26.4046H172.862V25.4046ZM170.298 25.9046V34.6406H171.298V25.9046H170.298ZM170.798 34.1406H159.95V35.1406H170.798V34.1406ZM160.45 34.6406V8.38462H159.45V34.6406H160.45ZM159.95 8.88462H170.798V7.88462H159.95V8.88462ZM170.298 8.38462V17.6006H171.298V8.38462H170.298ZM170.798 18.1006H173.15V17.1006H170.798V18.1006ZM173.574 17.8656L179.334 8.64962L178.486 8.11962L172.726 17.3356L173.574 17.8656ZM178.91 8.88462H190.334V7.88462H178.91V8.88462ZM189.919 8.10581L181.471 20.6818L182.301 21.2394L190.749 8.66343L189.919 8.10581ZM181.468 21.2349L190.444 34.9149L191.28 34.3663L182.304 20.6863L181.468 21.2349ZM190.862 34.1406H178.094V35.1406H190.862V34.1406ZM178.523 34.3837L173.291 25.6477L172.433 26.1615L177.665 34.8975L178.523 34.3837ZM218.142 16.8326V17.3326H218.642V16.8326H218.142ZM210.126 16.8326V16.3326H209.626V16.8326H210.126ZM210.126 34.6406V35.1406H210.626V34.6406H210.126ZM199.326 34.6406H198.826V35.1406H199.326V34.6406ZM199.326 16.8326H199.826V16.3326H199.326V16.8326ZM191.31 16.8326H190.81V17.3326H191.31V16.8326ZM191.31 8.38462V7.88462H190.81V8.38462H191.31ZM218.142 8.38462H218.642V7.88462H218.142V8.38462ZM218.142 16.3326H210.126V17.3326H218.142V16.3326ZM209.626 16.8326V34.6406H210.626V16.8326H209.626ZM210.126 34.1406H199.326V35.1406H210.126V34.1406ZM199.826 34.6406V16.8326H198.826V34.6406H199.826ZM199.326 16.3326H191.31V17.3326H199.326V16.3326ZM191.81 16.8326V8.38462H190.81V16.8326H191.81ZM191.31 8.88462H218.142V7.88462H191.31V8.88462ZM217.642 8.38462V16.8326H218.642V8.38462H217.642ZM245.311 18.6086L244.979 18.9824L244.986 18.9887L245.311 18.6086ZM244.879 32.1446L245.194 32.5327L245.198 32.5297L244.879 32.1446ZM221.263 34.6406H220.763V35.1406H221.263V34.6406ZM221.263 8.38462V7.88462H220.763V8.38462H221.263ZM232.063 8.38462H232.563V7.88462H232.063V8.38462ZM232.063 16.3046H231.563V16.8046H232.063V16.3046ZM249.535 8.38462V7.88462H249.035V8.38462H249.535ZM260.335 8.38462H260.835V7.88462H260.335V8.38462ZM260.335 34.6406V35.1406H260.835V34.6406H260.335ZM249.535 34.6406H249.035V35.1406H249.535V34.6406ZM232.063 22.6406V22.1406H231.563V22.6406H232.063ZM232.063 27.3446H231.563V27.8446H232.063V27.3446ZM237.487 16.8046C240.913 16.8046 243.379 17.5604 244.979 18.9823L245.643 18.2349C243.787 16.5848 241.037 15.8046 237.487 15.8046V16.8046ZM244.986 18.9887C246.61 20.3763 247.451 22.3982 247.451 25.1366H248.451C248.451 22.1791 247.532 19.849 245.636 18.2285L244.986 18.9887ZM247.451 25.1366C247.451 27.9837 246.479 30.1706 244.56 31.7595L245.198 32.5297C247.375 30.7267 248.451 28.2415 248.451 25.1366H247.451ZM244.563 31.7566C242.636 33.3226 239.852 34.1406 236.143 34.1406V35.1406C239.985 35.1406 243.025 34.2946 245.194 32.5327L244.563 31.7566ZM236.143 34.1406H221.263V35.1406H236.143V34.1406ZM221.763 34.6406V8.38462H220.763V34.6406H221.763ZM221.263 8.88462H232.063V7.88462H221.263V8.88462ZM231.563 8.38462V16.3046H232.563V8.38462H231.563ZM232.063 16.8046H237.487V15.8046H232.063V16.8046ZM249.535 8.88462H260.335V7.88462H249.535V8.88462ZM259.835 8.38462V34.6406H260.835V8.38462H259.835ZM260.335 34.1406H249.535V35.1406H260.335V34.1406ZM250.035 34.6406V8.38462H249.035V34.6406H250.035ZM235.039 27.8446C235.902 27.8446 236.641 27.6236 237.16 27.0946C237.676 26.5674 237.891 25.8192 237.891 24.9446H236.891C236.891 25.6701 236.713 26.1218 236.446 26.3947C236.18 26.6656 235.743 26.8446 235.039 26.8446V27.8446ZM237.891 24.9446C237.891 24.0969 237.674 23.3699 237.153 22.8594C236.633 22.3509 235.897 22.1406 235.039 22.1406V23.1406C235.748 23.1406 236.188 23.3144 236.453 23.5738C236.716 23.8314 236.891 24.2563 236.891 24.9446H237.891ZM235.039 22.1406H232.063V23.1406H235.039V22.1406ZM231.563 22.6406V27.3446H232.563V22.6406H231.563ZM232.063 27.8446H235.039V26.8446H232.063V27.8446Z" fill="white"/>
</svg>
