<svg width="40" height="31" viewBox="0 0 40 31" fill="none" xmlns="http://www.w3.org/2000/svg">
<path d="M36.2499 0.640625H3.75002C1.68213 0.640625 0 2.32276 0 4.39065V26.8906C0 28.9585 1.68213 30.6406 3.75002 30.6406H36.2499C38.3178 30.6406 39.9999 28.9585 39.9999 26.8906V4.39065C39.9999 2.32276 38.3178 0.640625 36.2499 0.640625ZM36.2499 3.14061C36.4198 3.14061 36.5813 3.17585 36.729 3.23738L20 17.7366L3.27083 3.23738C3.41854 3.17593 3.5801 3.14061 3.74994 3.14061H36.2499ZM36.2499 28.1406H3.75002C3.06033 28.1406 2.49999 27.5803 2.49999 26.8905V5.87865L19.1809 20.3354C19.4165 20.5392 19.7082 20.6406 20 20.6406C20.2917 20.6406 20.5835 20.5393 20.8191 20.3354L37.5 5.87865V26.8906C37.4999 27.5803 36.9396 28.1406 36.2499 28.1406Z" fill="#03FBF3"/>
</svg>
