<svg width="100" height="100" viewBox="0 0 100 100" fill="none" xmlns="http://www.w3.org/2000/svg">
<path d="M93.178 9.98336H59.9002V6.65557C59.9002 2.99501 56.9052 0 53.2446 0H6.65557C2.99501 0 0 2.99501 0 6.65557V43.2612C0 61.5641 17.4709 61.5641 23.2945 61.5641C24.2928 61.5641 24.9584 60.8985 24.9584 59.9002C24.9584 58.9018 24.2928 58.2363 23.2945 58.2363C19.6339 58.2363 16.6389 55.2413 16.6389 51.5807C16.6389 51.4143 16.6389 51.0815 16.6389 50.9151C17.1381 47.421 20.1331 44.9251 23.6273 44.9251H46.589V48.2529H31.614C30.6156 48.2529 29.9501 48.9185 29.9501 49.9168C29.9501 53.7438 31.4476 57.4043 33.9434 60.0666C33.4443 61.7304 33.2779 63.228 33.2779 64.8919C33.2779 71.5474 37.2712 77.5374 43.2612 80.1997C43.2612 81.198 42.7621 83.1947 38.2696 83.1947C33.6107 83.1947 29.9501 86.8552 29.9501 91.5141V99.8336H33.2779V91.5141C33.2779 88.8519 35.2745 86.6889 37.9368 86.5225L46.0899 90.5158C46.7554 90.8486 47.5874 91.1814 48.2529 91.3478V99.8336H51.5807V91.3478C52.4127 91.1814 53.0782 91.015 53.7438 90.6822L61.8968 86.6889C64.5591 86.8552 66.5557 89.0183 66.5557 91.6805V100H69.8835V91.6805C69.8835 87.0216 66.223 83.3611 61.5641 83.3611C57.0716 83.3611 56.5724 81.3644 56.5724 80.3661C62.8952 77.7038 66.7221 71.381 66.5557 64.5591C66.5557 64.2263 66.5557 63.5607 66.5557 63.3943C66.5557 61.0649 66.0566 58.7354 64.8919 56.7388H76.0399C79.5341 56.7388 82.5291 59.2346 83.0283 62.7288C83.3611 66.3894 80.6988 69.7171 77.0383 70.0499C76.8719 70.0499 76.5391 70.0499 76.3727 70.0499C75.3744 70.0499 74.7088 70.7155 74.7088 71.7138C74.7088 72.7122 75.3744 73.3777 76.3727 73.3777C82.1964 73.3777 99.6672 73.3777 99.6672 55.0749V16.6389C99.8336 12.9784 96.8386 9.98336 93.178 9.98336ZM23.6273 41.5973C18.4692 41.5973 13.9767 45.4243 13.3111 50.5824C13.1448 53.0782 13.8103 55.574 15.3078 57.5707C7.15474 55.9068 3.32779 51.4143 3.32779 43.2612V6.65557C3.32779 4.82529 4.82529 3.32779 6.65557 3.32779H53.2446C55.0749 3.32779 56.5724 4.82529 56.5724 6.65557V38.2696C56.5724 40.0998 55.0749 41.5973 53.2446 41.5973H23.6273ZM33.4443 51.5807H51.5807C57.4043 51.5807 62.2296 55.9068 63.0616 61.5641H44.9251C39.1015 61.5641 34.2762 57.2379 33.4443 51.5807ZM54.4093 77.371C53.7438 77.5374 53.2446 78.203 53.2446 78.8686V79.8669C53.0782 82.1963 54.4093 84.5258 56.5724 85.5241L52.2463 87.6872C50.7488 88.3528 48.9185 88.3528 47.421 87.6872L43.2612 85.5241C45.4243 84.5258 46.7554 82.1963 46.589 79.8669V79.0349C46.589 78.3694 46.0899 77.7038 45.4243 77.5374C40.0998 75.5408 36.6057 70.5491 36.6057 64.8919C36.6057 64.0599 36.6057 63.228 36.7721 62.5624C39.1015 64.0599 41.9301 64.8919 44.9251 64.8919H63.228C63.228 70.5491 59.7338 75.5408 54.4093 77.371ZM96.5058 54.9085C96.5058 63.0616 92.6789 67.5541 84.5258 69.218C86.0233 67.2213 86.6889 64.7255 86.5225 62.2296C85.8569 57.0716 81.5308 53.2446 76.2063 53.2446H62.7288C59.9002 50.0832 55.9068 48.2529 51.5807 48.2529H49.9168V44.9251H53.2446C56.9052 44.9251 59.9002 41.9301 59.9002 38.2696V13.3111H93.178C95.0083 13.3111 96.5058 14.8087 96.5058 16.6389V54.9085Z" fill="#03FBF3"/>
<path d="M38.2696 18.3028H36.6057C35.6073 18.3028 34.9418 17.6372 34.9418 16.6389V11.6472C34.9418 8.81858 32.7787 6.65552 29.9501 6.65552C27.1215 6.65552 24.9584 8.81858 24.9584 11.6472V16.6389C24.9584 17.6372 24.2929 18.3028 23.2945 18.3028C23.2945 17.3044 22.629 16.6389 21.6306 16.6389H14.9751C13.9767 16.6389 13.3112 17.3044 13.3112 18.3028V36.6056C13.3112 37.6039 13.9767 38.2695 14.9751 38.2695H21.6306C22.629 38.2695 23.2945 37.6039 23.2945 36.6056H38.2696C41.0982 36.6056 43.2612 34.4425 43.2612 31.6139V23.2945C43.2612 20.4658 41.0982 18.3028 38.2696 18.3028ZM19.9667 34.9417H16.6389V19.9667H19.9667V34.9417ZM39.9335 31.6139C39.9335 32.6123 39.2679 33.2778 38.2696 33.2778H23.2945V21.6306C26.1231 21.6306 28.2862 19.4675 28.2862 16.6389V11.6472C28.2862 10.6489 28.9518 9.9833 29.9501 9.9833C30.9484 9.9833 31.614 10.6489 31.614 11.6472V16.6389C31.614 19.4675 33.7771 21.6306 36.6057 21.6306H38.2696C39.2679 21.6306 39.9335 22.2961 39.9335 23.2945V31.6139Z" fill="#03FBF3"/>
<path d="M91.5141 16.6389H84.8585C83.8602 16.6389 83.1946 17.3045 83.1946 18.3028H68.2196C65.391 18.3028 63.2279 20.4659 63.2279 23.2945V31.614C63.2279 34.4426 65.391 36.6056 68.2196 36.6056H69.8835C70.8818 36.6056 71.5474 37.2712 71.5474 38.2695V43.2612C71.5474 46.0898 73.7104 48.2529 76.5391 48.2529C79.3677 48.2529 81.5307 46.0898 81.5307 43.2612V38.2695C81.5307 37.2712 82.1963 36.6056 83.1946 36.6056C83.1946 37.604 83.8602 38.2695 84.8585 38.2695H91.5141C92.5124 38.2695 93.178 37.604 93.178 36.6056V18.3028C93.178 17.3045 92.5124 16.6389 91.5141 16.6389ZM83.1946 33.2779C80.366 33.2779 78.2029 35.4409 78.2029 38.2695V43.2612C78.2029 44.2596 77.5374 44.9251 76.5391 44.9251C75.5407 44.9251 74.8752 44.2596 74.8752 43.2612V38.2695C74.8752 35.4409 72.7121 33.2779 69.8835 33.2779H68.2196C67.2213 33.2779 66.5557 32.6123 66.5557 31.614V23.2945C66.5557 22.2962 67.2213 21.6306 68.2196 21.6306H83.1946V33.2779ZM89.8502 34.9417H86.5224V19.9667H89.8502V34.9417Z" fill="#03FBF3"/>
<path d="M68.2197 43.2612H61.5641V46.589H68.2197V43.2612Z" fill="#03FBF3"/>
<path d="M44.925 8.31941V6.65552H41.5972V8.31941H39.9333V11.6472H41.5972V13.3111H44.925V11.6472H46.5889V8.31941H44.925Z" fill="#03FBF3"/>
</svg>
