<svg width="166" height="166" viewBox="0 0 166 166" fill="none" xmlns="http://www.w3.org/2000/svg">
<g filter="url(#filter0_d)">
<path d="M147.767 22.975H97.8503V17.9834C97.8503 12.4925 93.3577 8 87.8669 8H17.9834C12.4925 8 8 12.4925 8 17.9834V72.8918C8 100.346 34.2063 100.346 42.9418 100.346C44.4393 100.346 45.4376 99.3478 45.4376 97.8503C45.4376 96.3527 44.4393 95.3544 42.9418 95.3544C37.4509 95.3544 32.9584 90.8619 32.9584 85.371C32.9584 85.1215 32.9584 84.6223 32.9584 84.3727C33.7072 79.1314 38.1997 75.3877 43.4409 75.3877H77.8835V80.3794H55.421C53.9235 80.3794 52.9251 81.3777 52.9251 82.8752C52.9251 88.6156 55.1714 94.1065 58.9151 98.0998C58.1664 100.596 57.9168 102.842 57.9168 105.338C57.9168 115.321 63.9068 124.306 72.8919 128.3C72.8919 129.797 72.1431 132.792 65.4043 132.792C58.416 132.792 52.9251 138.283 52.9251 145.271V157.75H57.9168V145.271C57.9168 141.278 60.9118 138.033 64.9052 137.784L77.1348 143.774C78.1331 144.273 79.381 144.772 80.3794 145.022V157.75H85.3711V145.022C86.619 144.772 87.6173 144.522 88.6156 144.023L100.845 138.033C104.839 138.283 107.834 141.527 107.834 145.521V158H112.825V145.521C112.825 138.532 107.334 133.042 100.346 133.042C93.6073 133.042 92.8586 130.047 92.8586 128.549C102.343 124.556 108.083 115.072 107.834 104.839C107.834 104.339 107.834 103.341 107.834 103.092C107.834 99.5973 107.085 96.1032 105.338 93.1082H122.06C127.301 93.1082 131.794 96.8519 132.542 102.093C133.042 107.584 129.048 112.576 123.557 113.075C123.308 113.075 122.809 113.075 122.559 113.075C121.062 113.075 120.063 114.073 120.063 115.571C120.063 117.068 121.062 118.067 122.559 118.067C131.295 118.067 157.501 118.067 157.501 90.6123V32.9584C157.75 27.4676 153.258 22.975 147.767 22.975ZM43.4409 70.396C35.7038 70.396 28.9651 76.1364 27.9667 83.8735C27.7171 87.6173 28.7155 91.3611 30.9617 94.3561C18.7321 91.8602 12.9917 85.1215 12.9917 72.8918V17.9834C12.9917 15.2379 15.2379 12.9917 17.9834 12.9917H87.8669C90.6123 12.9917 92.8586 15.2379 92.8586 17.9834V65.4043C92.8586 68.1497 90.6123 70.396 87.8669 70.396H43.4409ZM58.1664 85.371H85.3711C94.1065 85.371 101.344 91.8602 102.592 100.346H75.3877C66.6523 100.346 59.4143 93.8569 58.1664 85.371ZM89.614 124.057C88.6157 124.306 87.8669 125.304 87.8669 126.303V127.8C87.6173 131.295 89.614 134.789 92.8586 136.286L86.3694 139.531C84.1231 140.529 81.3777 140.529 79.1315 139.531L72.8919 136.286C76.1364 134.789 78.1331 131.295 77.8835 127.8V126.552C77.8835 125.554 77.1348 124.556 76.1365 124.306C68.1498 121.311 62.9085 113.824 62.9085 105.338C62.9085 104.09 62.9085 102.842 63.1581 101.844C66.6523 104.09 70.8952 105.338 75.3877 105.338H102.842C102.842 113.824 97.6007 121.311 89.614 124.057ZM152.759 90.3627C152.759 102.592 147.018 109.331 134.789 111.827C137.035 108.832 138.033 105.088 137.784 101.344C136.785 93.6073 130.296 87.8669 122.309 87.8669H102.093C97.8503 83.1248 91.8602 80.3794 85.3711 80.3794H82.8752V75.3877H87.8669C93.3577 75.3877 97.8503 70.8952 97.8503 65.4043V27.9667H147.767C150.512 27.9667 152.759 30.213 152.759 32.9584V90.3627Z" fill="#03FBF3"/>
<path d="M65.4044 35.4543H62.9086C61.4111 35.4543 60.4127 34.4559 60.4127 32.9584V25.4709C60.4127 21.228 57.1681 17.9834 52.9252 17.9834C48.6823 17.9834 45.4377 21.228 45.4377 25.4709V32.9584C45.4377 34.4559 44.4393 35.4543 42.9418 35.4543C42.9418 33.9568 41.9435 32.9584 40.446 32.9584H30.4626C28.9651 32.9584 27.9668 33.9568 27.9668 35.4543V62.9085C27.9668 64.406 28.9651 65.4044 30.4626 65.4044H40.446C41.9435 65.4044 42.9418 64.406 42.9418 62.9085H65.4044C69.6473 62.9085 72.8919 59.6639 72.8919 55.421V42.9418C72.8919 38.6989 69.6473 35.4543 65.4044 35.4543ZM37.9502 60.4127H32.9585V37.9501H37.9502V60.4127ZM67.9002 55.421C67.9002 56.9185 66.9019 57.9168 65.4044 57.9168H42.9418V40.446C47.1848 40.446 50.4294 37.2014 50.4294 32.9584V25.4709C50.4294 23.9734 51.4277 22.9751 52.9252 22.9751C54.4227 22.9751 55.421 23.9734 55.421 25.4709V32.9584C55.421 37.2014 58.6656 40.446 62.9086 40.446H65.4044C66.9019 40.446 67.9002 41.4443 67.9002 42.9418V55.421Z" fill="#03FBF3"/>
<path d="M145.271 32.9584H135.288C133.79 32.9584 132.792 33.9567 132.792 35.4542H110.329C106.086 35.4542 102.842 38.6988 102.842 42.9417V55.4209C102.842 59.6639 106.086 62.9085 110.329 62.9085H112.825C114.323 62.9085 115.321 63.9068 115.321 65.4043V72.8918C115.321 77.1347 118.566 80.3793 122.809 80.3793C127.051 80.3793 130.296 77.1347 130.296 72.8918V65.4043C130.296 63.9068 131.294 62.9085 132.792 62.9085C132.792 64.406 133.79 65.4043 135.288 65.4043H145.271C146.769 65.4043 147.767 64.406 147.767 62.9085V35.4542C147.767 33.9567 146.769 32.9584 145.271 32.9584ZM132.792 57.9168C128.549 57.9168 125.304 61.1614 125.304 65.4043V72.8918C125.304 74.3893 124.306 75.3877 122.809 75.3877C121.311 75.3877 120.313 74.3893 120.313 72.8918V65.4043C120.313 61.1614 117.068 57.9168 112.825 57.9168H110.329C108.832 57.9168 107.833 56.9184 107.833 55.4209V42.9417C107.833 41.4442 108.832 40.4459 110.329 40.4459H132.792V57.9168ZM142.775 60.4126H137.784V37.9501H142.775V60.4126Z" fill="#03FBF3"/>
<path d="M110.33 72.8918H100.346V77.8835H110.33V72.8918Z" fill="#03FBF3"/>
<path d="M75.3874 20.4792V17.9834H70.3957V20.4792H67.8999V25.4709H70.3957V27.9668H75.3874V25.4709H77.8833V20.4792H75.3874Z" fill="#03FBF3"/>
</g>
<defs>
<filter id="filter0_d" x="0" y="0" width="165.511" height="166" filterUnits="userSpaceOnUse" color-interpolation-filters="sRGB">
<feFlood flood-opacity="0" result="BackgroundImageFix"/>
<feColorMatrix in="SourceAlpha" type="matrix" values="0 0 0 0 0 0 0 0 0 0 0 0 0 0 0 0 0 0 127 0"/>
<feOffset/>
<feGaussianBlur stdDeviation="4"/>
<feColorMatrix type="matrix" values="0 0 0 0 0.0117647 0 0 0 0 0.984314 0 0 0 0 0.952941 0 0 0 0.5 0"/>
<feBlend mode="normal" in2="BackgroundImageFix" result="effect1_dropShadow"/>
<feBlend mode="normal" in="SourceGraphic" in2="effect1_dropShadow" result="shape"/>
</filter>
</defs>
</svg>
