<svg width="167" height="166" viewBox="0 0 167 166" fill="none" xmlns="http://www.w3.org/2000/svg">
<path d="M68.5864 163.783C69.2866 162.499 70.0647 161.293 70.7649 160.087C71.3096 159.192 71.8931 158.258 72.4378 157.325C73.3326 155.768 74.5386 154.99 76.2892 154.835C80.6464 154.446 85.198 153.862 88.9327 151.256C91.3447 149.583 93.7567 147.91 96.1687 146.237L96.4411 146.043C104.377 140.557 112.625 134.877 120.328 128.886C134.022 118.266 145.148 105.817 153.395 91.8894C162.071 77.2229 166.195 62.4786 166 46.7617C165.689 24.1978 150.05 5.29084 127.953 0.816967C126.863 0.583548 125.735 0.427935 124.607 0.233419C124.101 0.155612 123.634 0.0778064 123.168 0H115.581C114.726 0.155613 113.87 0.311224 113.014 0.466837L112.897 0.50574C110.874 0.855869 108.812 1.2449 106.867 1.75064C99.6311 3.6958 92.9009 7.19709 86.2095 12.5268C86.0539 12.6435 85.8983 12.7603 85.7427 12.9159L85.626 12.9937C85.3536 13.2271 85.0424 13.4605 84.7701 13.6939C84.3811 14.0052 84.0309 14.1219 83.8364 14.1608L82.7082 14.5887L81.6578 13.8884C80.9965 13.4216 80.374 12.9159 79.7127 12.449L79.596 12.3712C78.1954 11.3208 76.7171 10.2315 75.2777 9.25896C67.536 4.04593 59.2107 1.01148 50.6131 0.272321C50.1462 0.233418 49.7183 0.116709 49.4071 0.0389026H49.3682H43.8828C42.8324 0.233419 41.782 0.389033 40.7706 0.544646C38.4364 0.894774 36.2189 1.2449 34.157 1.90626C15.5224 7.81955 4.24045 20.7354 0.622451 40.3815C0.466838 41.1985 0.350129 42.0155 0.194516 42.8324L0.155613 42.9491C0.11671 43.2604 0.0389032 43.5716 0 43.8828V52.8695C0.11671 53.7642 0.23342 54.659 0.350129 55.5149C0.622452 57.4989 0.85587 59.5219 1.206 61.506C2.99555 72.36 7.04148 82.9417 13.5772 93.8345C14.1608 94.8071 14.861 96.3244 14.861 97.9583C14.8221 105 16.5339 112.08 20.3075 120.172C21.0855 121.884 21.0077 123.44 20.113 125.152C14.7443 135.111 9.29787 145.265 4.00703 155.068L3.96813 155.107L0 162.499V164.055C0.661355 165.3 1.67284 166 4.35716 166H4.39606C21.7858 165.922 40.3426 165.922 64.5404 166C66.6412 165.961 67.7305 165.378 68.5864 163.783ZM13.1493 69.9091L10.8151 78.0009L8.67542 69.8313C5.29084 56.8765 3.11226 42.988 9.648 29.0996C14.5109 18.907 22.8751 11.3208 33.2622 7.74174C43.6105 4.16264 55.0869 4.9018 65.513 9.80361C70.7649 12.2545 75.6278 15.6391 80.4129 20.0741C82.6304 22.1359 83.5252 22.1359 85.7816 20.0352C94.1847 12.2156 102.938 7.62503 112.508 6.03C133.905 2.4509 153.979 15.6391 159.231 36.6857C161.604 46.2559 161.137 56.4096 157.714 68.5864C153.707 82.8249 145.731 96.2465 133.36 109.629C126.591 116.943 118.81 123.673 110.33 129.626L102.199 135.344L106.984 126.63C107.062 126.474 107.139 126.319 107.217 126.202C107.412 125.852 107.606 125.463 107.84 125.113C109.513 122.39 111.185 119.588 112.78 116.865L112.819 116.787C116.632 110.446 120.561 103.872 124.685 97.5303C127.252 93.6011 127.836 89.0494 126.319 85.0035C124.801 81.0743 121.495 78.1954 117.293 77.0673L114.337 76.2892L115.893 73.6438C118.266 69.6367 118.577 65.0462 116.71 61.1169C114.881 57.2266 111.263 54.5034 107.062 53.842L104.922 53.4919L105.116 51.3133C105.739 45.011 103.521 40.4593 98.5807 37.775C93.6011 35.0907 88.6215 35.7131 83.7586 39.6035L82.2025 40.8484L80.7242 39.4479C80.4907 39.2144 80.2573 38.981 80.0239 38.7476C79.5571 38.2808 79.1291 37.8528 78.6623 37.4638C75.7445 34.974 72.1655 33.9236 68.5475 34.4682C64.8516 35.0518 61.506 37.3082 59.4052 40.6928C55.7094 46.6449 51.9747 52.7139 48.3956 58.5882L48.1233 59.0162C46.4893 61.7005 44.8554 64.3848 43.2215 67.0302C42.988 67.4193 42.7546 67.7694 42.4823 68.1584C42.3656 68.3529 42.2489 68.5086 42.1322 68.6642L39.6813 72.36L38.0473 68.2362C35.6353 62.0506 31.4338 58.9773 25.5983 59.094C19.1793 59.2885 15.2112 62.712 13.1493 69.9091ZM61.9339 160.515C50.3797 160.554 38.7087 160.554 29.8388 160.554H11.9822C11.671 160.554 11.3986 160.515 11.2041 160.476C11.0874 160.476 11.0096 160.437 10.8929 160.437L7.66393 159.931L11.8266 152.15C13.655 148.766 15.4446 145.42 17.1952 142.075L19.2571 138.184C21.5913 133.827 24.0033 129.353 26.4153 124.918C27.1155 123.595 27.1933 122.545 26.6098 121.222C26.143 120.211 25.7539 119.161 25.4038 118.149C24.8592 116.749 24.3923 115.465 23.7699 114.259C21.0077 108.657 20.6187 102.782 20.2686 97.1024C20.2297 96.4022 20.1908 95.7408 20.1519 95.0406C19.9573 92.2784 19.7628 89.5163 19.5683 86.7931V86.6764C19.2571 82.1247 18.9459 77.4174 18.5957 72.7879C18.2845 68.314 21.0855 64.8127 25.326 64.5015C27.2322 64.3459 29.0607 64.9684 30.4612 66.2133C32.0173 67.5749 32.951 69.5978 33.0677 71.8931C33.1844 73.955 33.3011 76.0558 33.4179 78.0787C33.5346 79.7127 33.6124 81.3855 33.6902 83.0194C33.7291 83.9531 34.0792 85.5871 35.7131 86.015C36.18 86.1317 37.6583 86.5207 38.9421 84.42C43.6494 76.756 48.3567 69.0921 53.064 61.4282L58.0825 53.2196C58.7049 52.2081 59.3274 51.1966 59.9109 50.224L59.9498 50.1462C61.2726 48.0066 62.5564 45.8669 63.918 43.7272C65.124 41.782 66.9135 40.4204 68.8976 39.9925C70.726 39.5646 72.5934 39.9147 74.1884 40.9651C77.7286 43.2215 78.5456 47.5008 76.1725 51.3911C74.3829 54.3089 72.5934 57.1877 70.8428 60.1055C67.3415 65.7853 63.7235 71.6986 60.2222 77.4952C59.5997 78.5067 59.483 79.6349 59.9498 80.5296C60.3389 81.3077 61.1169 81.7745 62.0895 81.8913C63.101 82.008 64.0347 81.6967 65.0462 80.0239C69.4422 72.7879 74.0328 65.2796 78.1176 58.7049L83.1362 50.5353C83.4863 49.9517 83.8364 49.4071 84.1865 48.8235L84.3033 48.629C84.9257 47.5786 85.5482 46.5671 86.2095 45.5168C88.5826 41.7431 92.7453 40.576 96.3243 42.6768C97.9972 43.6883 99.2032 45.2444 99.67 47.1118C100.176 49.0958 99.7867 51.2355 98.6585 53.1418C90.9557 65.7853 83.3307 78.1955 77.5341 87.61C76.7171 88.9327 76.6393 89.633 76.7949 90.2165C77.1062 91.4225 77.7675 92.0839 78.9735 92.2784C80.1017 92.4729 80.9576 92.1228 81.6189 91.1891C82.3581 90.1387 83.0195 89.0105 83.6808 87.8823C83.9531 87.4544 84.1865 87.0265 84.4589 86.6375C86.1317 83.9531 87.7656 81.2299 89.4385 78.5456L89.8275 77.8842C92.862 72.9046 95.9353 67.925 99.0087 62.9454C100.876 59.872 103.872 58.5882 107.178 59.4052C110.368 60.1833 112.586 62.9065 112.586 66.0576C112.586 67.6527 112.041 69.4811 111.146 70.9594C108.54 75.2777 105.895 79.6349 103.327 83.8364L103.249 83.992C100.409 88.6215 97.4914 93.4066 94.6515 98.1139C94.2236 98.8531 93.9513 99.9034 93.9902 100.72C94.0291 101.771 95.0016 102.51 95.8964 102.666C97.1802 102.938 98.1917 102.51 98.892 101.343C100.798 98.3084 102.743 95.0795 104.494 92.2784C105.233 91.0724 105.972 89.8275 106.75 88.6215C106.945 88.3103 107.139 87.9602 107.334 87.6489C107.762 86.9098 108.229 86.1317 108.734 85.3925C110.952 82.2025 115.037 81.3466 118.421 83.3307C121.65 85.2369 122.856 89.244 121.261 92.6674C120.989 93.2121 120.717 93.7178 120.405 94.1847L120.289 94.3403C117.488 98.9309 114.687 103.56 111.886 108.151C105.467 118.694 98.8531 129.548 92.2784 140.402C89.0884 145.654 84.3811 148.61 78.2344 149.233C76.3281 149.427 74.4218 149.661 72.5934 149.894L72.2044 149.933C71.1151 150.05 70.4148 150.517 69.8702 151.45L69.2088 152.578C68.0028 154.562 66.7968 156.585 65.4741 158.608C64.6571 159.698 63.2177 160.515 61.9339 160.515Z" fill="#03FBF3"/>
</svg>
