<svg width="186" height="186" viewBox="0 0 186 186" fill="none" xmlns="http://www.w3.org/2000/svg">
<g filter="url(#filter0_d)">
<path d="M83.8771 118.311C83.2866 118.311 82.6962 118.54 82.237 118.967C81.3513 119.852 81.3513 121.328 82.237 122.214C83.1226 123.1 84.5987 123.1 85.4843 122.214C86.37 121.328 86.37 119.852 85.4843 118.967C85.0579 118.54 84.4675 118.311 83.8771 118.311Z" fill="#03FBF3"/>
<path d="M106.74 10C87.3868 10 71.6421 25.7447 71.6421 45.0975C71.6421 64.4504 87.3868 80.195 106.74 80.195C126.092 80.195 141.837 64.4504 141.837 45.0975C141.837 25.7447 126.092 10 106.74 10ZM106.74 75.57C89.9125 75.57 76.2343 61.8918 76.2343 45.0647C76.2343 28.2376 89.9125 14.5594 106.74 14.5594C123.567 14.5594 137.245 28.2376 137.245 45.0647C137.245 61.8918 123.567 75.57 106.74 75.57Z" fill="#03FBF3"/>
<path d="M143.509 134.94C143.509 134.94 143.477 134.973 143.444 134.973L143.509 134.94Z" fill="#03FBF3"/>
<path d="M173.064 99.6132C177.394 94.4962 176.738 86.8206 171.621 82.5236C166.569 78.2594 158.927 78.8499 154.597 83.8685L154.564 83.9013L134.457 104.566L133.768 103.713C131.439 100.827 127.995 99.1867 124.321 99.1867H87.5508L87.354 99.1212C82.2697 96.9891 76.8903 95.9066 71.3141 95.9066C55.4054 95.9066 42.2192 103.353 35.1997 116.342L34.8717 116.965L34.15 116.834C33.5924 116.736 33.0676 116.67 32.51 116.67C30.1811 116.67 27.9506 117.588 26.2449 119.261L10.6642 134.973C9.77859 135.859 9.77859 137.302 10.6642 138.22L47.5002 175.319C48.3859 176.204 49.8291 176.237 50.7476 175.352L66.6563 159.673C69.018 157.311 69.838 153.703 68.7555 150.521L68.5587 149.931L72.4293 146.191C74.463 144.223 77.1199 143.141 79.9408 143.141H123.534C131.013 143.141 138.065 140.254 143.444 135.071L143.51 135.039C143.707 134.809 144.756 133.563 148.857 128.675C152.924 123.689 160.206 114.997 173.064 99.6132ZM63.4089 156.392L49.1403 170.431L15.5516 136.58L29.525 122.541C30.9355 121.131 33.1004 120.901 34.8061 121.951L34.8389 121.984C35.1997 122.181 35.1997 122.181 40.7759 127.79C44.8105 131.824 51.5676 138.581 63.3761 150.39C65.049 152.03 65.049 154.752 63.4089 156.392ZM140.099 131.857L140.066 131.89C135.572 136.187 129.701 138.548 123.501 138.548H79.908C75.9063 138.548 72.1013 140.09 69.2148 142.878L65.7378 146.224L38.8407 119.327L39.1687 118.671C45.3353 107.125 57.0454 100.466 71.3141 100.466C76.4639 100.466 81.4497 101.516 86.1403 103.549C86.4355 103.681 86.7307 103.746 87.0587 103.746H124.321C128.487 103.746 131.865 107.125 131.865 111.29C131.865 115.456 128.487 118.835 124.321 118.835H97.5552C96.2759 118.835 95.2591 119.852 95.2591 121.131C95.2591 122.41 96.2759 123.427 97.5552 123.427H124.321C131.013 123.427 136.458 117.982 136.458 111.29C136.458 110.766 136.425 110.241 136.359 109.716L136.294 109.257L150.267 94.8898C156.303 88.6903 157.91 87.0174 158.041 86.8862C160.731 83.7373 165.487 83.3109 168.669 86.0006C171.85 88.6903 172.244 93.4465 169.554 96.6282L140.099 131.857Z" fill="#03FBF3"/>
<path d="M114.94 51.6578C114.94 46.7704 110.971 42.8015 106.084 42.8015C103.722 42.8015 101.819 40.899 101.819 38.5373C101.819 36.1756 103.722 34.2731 106.084 34.2731C107.494 34.2731 108.97 34.9619 110.315 36.274C111.233 37.1596 112.677 37.1268 113.562 36.2084C114.448 35.2899 114.415 33.8467 113.497 32.961C112.119 31.649 110.61 30.6977 109.036 30.1729L108.347 29.9433V25.4167C108.347 24.1374 107.33 23.1206 106.051 23.1206C104.772 23.1206 103.755 24.1374 103.755 25.4167V29.9433L103.099 30.1729C99.5561 31.4194 97.1944 34.7651 97.1944 38.5045C97.1944 43.3919 101.163 47.3609 106.051 47.3609C108.413 47.3609 110.315 49.2633 110.315 51.625C110.315 53.9867 108.413 55.8892 106.051 55.8892C104.345 55.8892 102.574 54.8724 101.032 53.0683C100.573 52.5435 99.917 52.2483 99.2609 52.2483C98.7361 52.2483 98.2113 52.4123 97.7849 52.7731C97.3256 53.1667 97.0304 53.7243 96.9648 54.3476C96.8992 54.9708 97.096 55.5612 97.4896 56.0204C99.0969 57.9557 101.032 59.3006 103.033 59.9894L103.689 60.219V64.7784C103.689 66.0577 104.706 67.0745 105.985 67.0745C107.264 67.0745 108.281 66.0577 108.281 64.7784V60.2518L108.937 60.0222C112.578 58.7429 114.94 55.3972 114.94 51.6578Z" fill="#03FBF3"/>
</g>
<defs>
<filter id="filter0_d" x="0" y="0" width="185.929" height="186" filterUnits="userSpaceOnUse" color-interpolation-filters="sRGB">
<feFlood flood-opacity="0" result="BackgroundImageFix"/>
<feColorMatrix in="SourceAlpha" type="matrix" values="0 0 0 0 0 0 0 0 0 0 0 0 0 0 0 0 0 0 127 0"/>
<feOffset/>
<feGaussianBlur stdDeviation="5"/>
<feColorMatrix type="matrix" values="0 0 0 0 0.0117647 0 0 0 0 0.984314 0 0 0 0 0.952941 0 0 0 0.3 0"/>
<feBlend mode="normal" in2="BackgroundImageFix" result="effect1_dropShadow"/>
<feBlend mode="normal" in="SourceGraphic" in2="effect1_dropShadow" result="shape"/>
</filter>
</defs>
</svg>
