<svg width="100" height="100" viewBox="0 0 100 100" fill="none" xmlns="http://www.w3.org/2000/svg">
<path d="M44.5043 65.2473C44.1487 65.2473 43.793 65.3856 43.5163 65.6425C42.9828 66.176 42.9828 67.0652 43.5163 67.5987C44.0499 68.1323 44.9391 68.1323 45.4726 67.5987C46.0061 67.0652 46.0061 66.176 45.4726 65.6425C45.2157 65.3856 44.86 65.2473 44.5043 65.2473Z" fill="#03FBF3"/>
<path d="M58.277 0C46.6187 0 37.1339 9.48476 37.1339 21.1431C37.1339 32.8015 46.6187 42.2862 58.277 42.2862C69.9354 42.2862 79.4201 32.8015 79.4201 21.1431C79.4201 9.48476 69.9354 0 58.277 0ZM58.277 39.5001C48.1402 39.5001 39.9003 31.2602 39.9003 21.1234C39.9003 10.9865 48.1402 2.74663 58.277 2.74663C68.4139 2.74663 76.6537 10.9865 76.6537 21.1234C76.6537 31.2602 68.4139 39.5001 58.277 39.5001Z" fill="#03FBF3"/>
<path d="M80.4274 75.2651C80.4274 75.2651 80.4078 75.2847 80.3883 75.2847L80.4274 75.2651Z" fill="#03FBF3"/>
<path d="M98.2315 53.9837C100.84 50.9012 100.445 46.2774 97.3621 43.6888C94.319 41.12 89.715 41.4757 87.1067 44.499L87.0869 44.5187L74.9741 56.9675L74.5591 56.4537C73.1562 54.7148 71.0814 53.7268 68.8683 53.7268H46.7174L46.5988 53.6873C43.536 52.4029 40.2954 51.7509 36.9362 51.7509C27.3527 51.7509 19.4092 56.2364 15.1806 64.0613L14.983 64.4367L14.5482 64.3577C14.2123 64.2984 13.8962 64.2589 13.5602 64.2589C12.1573 64.2589 10.8136 64.8122 9.7861 65.8199L0.400138 75.2849C-0.133379 75.8184 -0.133379 76.6879 0.400138 77.2411L22.5905 99.5896C23.124 100.123 23.9935 100.143 24.5468 99.6094L34.1303 90.1641C35.553 88.7414 36.047 86.5678 35.395 84.6511L35.2764 84.2954L37.6081 82.0428C38.8332 80.8572 40.4337 80.2051 42.1331 80.2051H68.394C72.8993 80.2051 77.1477 78.4663 80.3883 75.3442L80.4278 75.3244C80.5464 75.1861 81.1787 74.4352 83.6487 71.491C86.0989 68.4875 90.4856 63.2511 98.2315 53.9837ZM32.1741 88.1881L23.5785 96.6454L3.34437 76.2532L11.7621 67.7959C12.6118 66.9462 13.9159 66.8079 14.9434 67.4402L14.9632 67.46C15.1806 67.5786 15.1806 67.5786 18.5397 70.9575C20.9702 73.388 25.0408 77.4585 32.1543 84.5721C33.1621 85.5601 33.1621 87.2001 32.1741 88.1881ZM78.3728 73.4077L78.353 73.4275C75.6459 76.016 72.1089 77.4388 68.3743 77.4388H42.1133C39.7026 77.4388 37.4105 78.3675 35.6716 80.0471L33.577 82.0626L17.3739 65.8594L17.5715 65.4642C21.2864 58.5087 28.3407 54.4975 36.9362 54.4975C40.0385 54.4975 43.042 55.1298 45.8677 56.3549C46.0456 56.434 46.2234 56.4735 46.421 56.4735H68.8683C71.3778 56.4735 73.413 58.5087 73.413 61.0183C73.413 63.5278 71.3778 65.563 68.8683 65.563H52.7442C51.9735 65.563 51.361 66.1756 51.361 66.9462C51.361 67.7169 51.9735 68.3294 52.7442 68.3294H68.8683C72.8993 68.3294 76.1794 65.0493 76.1794 61.0183C76.1794 60.7021 76.1597 60.3859 76.1201 60.0698L76.0806 59.7931L84.4984 51.1383C88.1342 47.4037 89.1024 46.3959 89.1814 46.3169C90.8018 44.4199 93.667 44.1631 95.5837 45.7834C97.5004 47.4037 97.7375 50.2689 96.1172 52.1856L78.3728 73.4077Z" fill="#03FBF3"/>
<path d="M63.2169 25.0952C63.2169 22.151 60.8259 19.76 57.8817 19.76C56.459 19.76 55.3129 18.6139 55.3129 17.1912C55.3129 15.7685 56.459 14.6224 57.8817 14.6224C58.7314 14.6224 59.6206 15.0374 60.4308 15.8278C60.984 16.3613 61.8535 16.3415 62.387 15.7883C62.9205 15.235 62.9007 14.3655 62.3475 13.832C61.5175 13.0416 60.6086 12.4686 59.6601 12.1524L59.2452 12.0141V9.28725C59.2452 8.51661 58.6326 7.90405 57.862 7.90405C57.0913 7.90405 56.4788 8.51661 56.4788 9.28725V12.0141L56.0836 12.1524C53.9495 12.9033 52.5268 14.9188 52.5268 17.1715C52.5268 20.1157 54.9177 22.5066 57.862 22.5066C59.2847 22.5066 60.4308 23.6527 60.4308 25.0754C60.4308 26.4981 59.2847 27.6442 57.862 27.6442C56.8344 27.6442 55.7674 27.0317 54.8387 25.9449C54.5621 25.6287 54.1669 25.4509 53.7717 25.4509C53.4555 25.4509 53.1393 25.5497 52.8825 25.767C52.6058 26.0041 52.428 26.3401 52.3885 26.7155C52.349 27.0909 52.4675 27.4466 52.7046 27.7232C53.6729 28.8891 54.8387 29.6992 56.0441 30.1142L56.4393 30.2525V32.9991C56.4393 33.7698 57.0518 34.3823 57.8224 34.3823C58.5931 34.3823 59.2056 33.7698 59.2056 32.9991V30.2723L59.6008 30.134C61.7942 29.3633 63.2169 27.3478 63.2169 25.0952Z" fill="#03FBF3"/>
</svg>
