<svg width="285" height="68" viewBox="0 0 285 68" fill="none" xmlns="http://www.w3.org/2000/svg">
<path d="M23.7243 3L24.1655 3.23525L24.5575 2.5H23.7243V3ZM15.2943 18.81L14.8531 18.5747L14.8528 18.5752L15.2943 18.81ZM11.6043 23.1L11.3256 22.6848L11.3229 22.6866L11.6043 23.1ZM2.75426 23.73L2.27854 23.5761L2.13541 24.0185L2.56625 24.1933L2.75426 23.73ZM4.40426 18.63L4.53582 18.1476L4.07543 18.0221L3.92854 18.4761L4.40426 18.63ZM7.88426 18.72L7.67017 18.268L7.66065 18.2728L7.88426 18.72ZM8.96426 17.82L9.35288 18.1346L9.56297 17.8751L9.40375 17.5816L8.96426 17.82ZM0.924257 3V2.5H0.0841618L0.484768 3.23843L0.924257 3ZM8.39426 3L8.84657 2.78688L8.71139 2.5H8.39426V3ZM12.5643 11.85L12.112 12.0631L12.5563 13.0061L13.0136 12.0693L12.5643 11.85ZM16.8843 3V2.5H16.5719L16.4349 2.78067L16.8843 3ZM23.2831 2.76475L14.8531 18.5747L15.7355 19.0452L24.1655 3.23525L23.2831 2.76475ZM14.8528 18.5752C13.8834 20.3978 12.7044 21.7594 11.3256 22.6849L11.8829 23.5151C13.4242 22.4806 14.7052 20.9822 15.7357 19.0448L14.8528 18.5752ZM11.3229 22.6866C9.96581 23.6103 8.4738 24.07 6.83426 24.07V25.07C8.67471 25.07 10.3627 24.5497 11.8856 23.5134L11.3229 22.6866ZM6.83426 24.07C5.56552 24.07 4.2692 23.8052 2.94227 23.2667L2.56625 24.1933C3.99932 24.7748 5.423 25.07 6.83426 25.07V24.07ZM3.22998 23.8839L4.87998 18.7839L3.92854 18.4761L2.27854 23.5761L3.22998 23.8839ZM4.2727 19.1124C5.17231 19.3577 5.94086 19.49 6.56426 19.49V18.49C6.06766 18.49 5.3962 18.3823 4.53582 18.1476L4.2727 19.1124ZM6.56426 19.49C7.13998 19.49 7.66119 19.3905 8.10786 19.1672L7.66065 18.2728C7.38732 18.4095 7.02853 18.49 6.56426 18.49V19.49ZM8.0983 19.1719C8.56251 18.952 8.9787 18.5968 9.35288 18.1346L8.57563 17.5054C8.26982 17.8832 7.96601 18.128 7.67022 18.2681L8.0983 19.1719ZM9.40375 17.5816L1.36375 2.76157L0.484768 3.23843L8.52477 18.0584L9.40375 17.5816ZM0.924257 3.5H8.39426V2.5H0.924257V3.5ZM7.94195 3.21312L12.112 12.0631L13.0166 11.6369L8.84657 2.78688L7.94195 3.21312ZM13.0136 12.0693L17.3336 3.21933L16.4349 2.78067L12.1149 11.6307L13.0136 12.0693ZM16.8843 3.5H23.7243V2.5H16.8843V3.5ZM34.3586 7.59V7.09H33.8586V7.59H34.3586ZM41.1086 7.59H41.6086V7.09H41.1086V7.59ZM41.1086 13.35H40.6086V13.85H41.1086V13.35ZM45.7286 13.35V13.85H46.2286V13.35H45.7286ZM45.7286 7.59V7.09H45.2286V7.59H45.7286ZM52.4786 7.59H52.9786V7.09H52.4786V7.59ZM52.4786 24V24.5H52.9786V24H52.4786ZM45.7286 24H45.2286V24.5H45.7286V24ZM45.7286 18.66H46.2286V18.16H45.7286V18.66ZM41.1086 18.66V18.16H40.6086V18.66H41.1086ZM41.1086 24V24.5H41.6086V24H41.1086ZM34.3586 24H33.8586V24.5H34.3586V24ZM34.3586 8.09H41.1086V7.09H34.3586V8.09ZM40.6086 7.59V13.35H41.6086V7.59H40.6086ZM41.1086 13.85H45.7286V12.85H41.1086V13.85ZM46.2286 13.35V7.59H45.2286V13.35H46.2286ZM45.7286 8.09H52.4786V7.09H45.7286V8.09ZM51.9786 7.59V24H52.9786V7.59H51.9786ZM52.4786 23.5H45.7286V24.5H52.4786V23.5ZM46.2286 24V18.66H45.2286V24H46.2286ZM45.7286 18.16H41.1086V19.16H45.7286V18.16ZM40.6086 18.66V24H41.6086V18.66H40.6086ZM41.1086 23.5H34.3586V24.5H41.1086V23.5ZM34.8586 24V7.59H33.8586V24H34.8586ZM69.2474 9.24L68.9224 9.61999L68.9253 9.62246L69.2474 9.24ZM71.5274 24V24.5H72.0274V24H71.5274ZM65.2274 24H64.7274V24.5H65.2274V24ZM65.2274 21.84H65.7274L64.7758 21.6252L65.2274 21.84ZM57.2474 23.64L57.0197 24.0854L57.0317 24.0911L57.2474 23.64ZM55.1774 21.81L54.7467 22.064L54.7506 22.0706L54.7546 22.077L55.1774 21.81ZM56.3474 15.51L56.067 15.096L56.3474 15.51ZM64.7174 14.25V14.75H65.3107L65.2102 14.1653L64.7174 14.25ZM59.3774 12.69L59.5164 13.1704L59.5279 13.1668L59.3774 12.69ZM57.4274 13.62L56.9772 13.8375L57.2399 14.3811L57.725 14.0218L57.4274 13.62ZM55.2674 9.15L55.0048 8.72448L54.6209 8.96136L54.8172 9.36754L55.2674 9.15ZM58.6574 7.8L58.7752 8.28595L58.7803 8.28464L58.6574 7.8ZM63.9074 19.83L63.625 19.4173V19.4173L63.9074 19.83ZM64.7474 18.66L65.2199 18.8236L65.2474 18.7441V18.66H64.7474ZM64.7474 17.52H65.2474V17.02H64.7474V17.52ZM61.4174 19.86L61.0772 20.2264L61.0907 20.2389L61.105 20.2504L61.4174 19.86ZM62.6474 7.79C65.4597 7.79 67.5256 8.42536 68.9224 9.61998L69.5724 8.86002C67.9292 7.45464 65.5951 6.79 62.6474 6.79V7.79ZM68.9253 9.62246C70.2966 10.7772 71.0274 12.5931 71.0274 15.18H72.0274C72.0274 12.4069 71.2381 10.2628 69.5695 8.85754L68.9253 9.62246ZM71.0274 15.18V24H72.0274V15.18H71.0274ZM71.5274 23.5H65.2274V24.5H71.5274V23.5ZM65.7274 24V21.84H64.7274V24H65.7274ZM64.7758 21.6252C64.1031 23.0397 62.7686 23.8 60.5774 23.8V24.8C63.0261 24.8 64.7916 23.9203 65.6789 22.0548L64.7758 21.6252ZM60.5774 23.8C59.3322 23.8 58.2999 23.5891 57.4631 23.1889L57.0317 24.0911C58.0349 24.5709 59.2226 24.8 60.5774 24.8V23.8ZM57.4749 23.1948C56.6446 22.7704 56.0265 22.2181 55.6001 21.543L54.7546 22.077C55.2883 22.9219 56.0501 23.5896 57.0198 24.0852L57.4749 23.1948ZM55.6081 21.556C55.1962 20.8576 54.9874 20.0763 54.9874 19.2H53.9874C53.9874 20.2437 54.2386 21.2024 54.7467 22.064L55.6081 21.556ZM54.9874 19.2C54.9874 17.7299 55.5379 16.6623 56.6278 15.924L56.067 15.096C54.6769 16.0377 53.9874 17.4301 53.9874 19.2H54.9874ZM56.6278 15.924C57.7458 15.1666 59.5062 14.75 61.9874 14.75V13.75C59.4286 13.75 57.429 14.1734 56.067 15.096L56.6278 15.924ZM61.9874 14.75H64.7174V13.75H61.9874V14.75ZM65.2102 14.1653C65.0779 13.3958 64.6895 12.7866 64.0438 12.3853C63.4186 11.9969 62.5959 11.83 61.6274 11.83V12.83C62.4989 12.83 63.1112 12.9831 63.516 13.2347C63.9002 13.4734 64.1369 13.8242 64.2246 14.3347L65.2102 14.1653ZM61.6274 11.83C60.8325 11.83 60.0318 11.959 59.2268 12.2132L59.5279 13.1668C60.243 12.941 60.9422 12.83 61.6274 12.83V11.83ZM59.2384 12.2097C58.4312 12.4434 57.7252 12.7772 57.1298 13.2182L57.725 14.0218C58.2096 13.6628 58.8036 13.3766 59.5164 13.1703L59.2384 12.2097ZM57.8776 13.4025L55.7176 8.93246L54.8172 9.36754L56.9772 13.8375L57.8776 13.4025ZM55.5299 9.57552C56.4163 9.02864 57.495 8.59626 58.7752 8.28592L58.5396 7.31407C57.1797 7.64373 55.9985 8.11135 55.0048 8.72448L55.5299 9.57552ZM58.7803 8.28464C60.0821 7.95436 61.3708 7.79 62.6474 7.79V6.79C61.284 6.79 59.9127 6.96564 58.5344 7.31536L58.7803 8.28464ZM62.6174 20.72C63.1936 20.72 63.7229 20.5621 64.1897 20.2427L63.625 19.4173C63.3319 19.6179 63.0012 19.72 62.6174 19.72V20.72ZM64.1897 20.2427C64.6744 19.911 65.0119 19.4245 65.2199 18.8236L64.2749 18.4964C64.1229 18.9355 63.9004 19.229 63.625 19.4173L64.1897 20.2427ZM65.2474 18.66V17.52H64.2474V18.66H65.2474ZM64.7474 17.02H63.0674V18.02H64.7474V17.02ZM63.0674 17.02C62.3376 17.02 61.7029 17.1388 61.2375 17.449C60.7364 17.783 60.4974 18.2943 60.4974 18.9H61.4974C61.4974 18.5857 61.6033 18.407 61.7922 18.281C62.0169 18.1312 62.4171 18.02 63.0674 18.02V17.02ZM60.4974 18.9C60.4974 19.4199 60.6959 19.8724 61.0772 20.2264L61.7576 19.4936C61.5788 19.3276 61.4974 19.1401 61.4974 18.9H60.4974ZM61.105 20.2504C61.5174 20.5803 62.0384 20.72 62.6174 20.72V19.72C62.1964 19.72 61.9174 19.6197 61.7297 19.4696L61.105 20.2504ZM77.8902 23.22L77.669 23.6684L77.6715 23.6696L77.8902 23.22ZM74.4402 20.19L74.0173 20.4568L74.0202 20.4614L74.4402 20.19ZM74.4402 11.4L74.0202 11.1286L74.0192 11.1303L74.4402 11.4ZM77.8902 8.37L77.6715 7.92037L77.6691 7.92156L77.8902 8.37ZM88.0302 8.58L87.7712 9.00768L88.0302 8.58ZM90.9702 12.15L91.1907 12.5987L91.5904 12.4023L91.4413 11.9826L90.9702 12.15ZM85.7202 14.73L85.2633 14.9331L85.4743 15.4079L85.9407 15.1787L85.7202 14.73ZM80.8602 13.41L80.5002 13.0629L80.4938 13.0698L80.8602 13.41ZM80.8602 18.18L80.4937 18.5203L80.5003 18.5271L80.8602 18.18ZM85.7202 16.86L85.9407 16.4113L85.4743 16.1821L85.2633 16.6569L85.7202 16.86ZM90.9702 19.44L91.4413 19.6074L91.5904 19.1877L91.1907 18.9913L90.9702 19.44ZM88.0302 23.01L88.2892 23.4377L88.0302 23.01ZM82.9002 23.8C81.1061 23.8 79.5124 23.4531 78.1089 22.7704L77.6715 23.6696C79.228 24.4269 80.9743 24.8 82.9002 24.8V23.8ZM78.1113 22.7716C76.728 22.0894 75.6485 21.1387 74.8602 19.9186L74.0202 20.4614C74.9119 21.8413 76.1324 22.9106 77.6691 23.6684L78.1113 22.7716ZM74.8631 19.9232C74.0969 18.7085 73.7102 17.3322 73.7102 15.78H72.7102C72.7102 17.5078 73.1435 19.0715 74.0173 20.4568L74.8631 19.9232ZM73.7102 15.78C73.7102 14.2277 74.0969 12.8628 74.8612 11.6697L74.0192 11.1303C73.1435 12.4972 72.7102 14.0523 72.7102 15.78H73.7102ZM74.8602 11.6714C75.6485 10.4513 76.728 9.50062 78.1113 8.81843L77.6691 7.92156C76.1324 8.67938 74.9119 9.74874 74.0202 11.1286L74.8602 11.6714ZM78.1089 8.81962C79.5124 8.13685 81.1061 7.79 82.9002 7.79V6.79C80.9743 6.79 79.228 7.16315 77.6715 7.92038L78.1089 8.81962ZM82.9002 7.79C84.8276 7.79 86.4439 8.20385 87.7712 9.00768L88.2892 8.15232C86.7765 7.23615 84.9727 6.79 82.9002 6.79V7.79ZM87.7712 9.00768C89.0957 9.80985 89.9988 10.9094 90.499 12.3174L91.4413 11.9826C90.8615 10.3506 89.8047 9.07014 88.2892 8.15232L87.7712 9.00768ZM90.7497 11.7013L85.4997 14.2813L85.9407 15.1787L91.1907 12.5987L90.7497 11.7013ZM86.1771 14.5269C85.8335 13.7538 85.3902 13.1363 84.8297 12.7115C84.2626 12.2817 83.6026 12.07 82.8702 12.07V13.07C83.3978 13.07 83.8427 13.2183 84.2257 13.5085C84.6152 13.8037 84.9669 14.2662 85.2633 14.9331L86.1771 14.5269ZM82.8702 12.07C81.9388 12.07 81.1375 12.4021 80.5003 13.0629L81.2201 13.7571C81.6629 13.2979 82.2016 13.07 82.8702 13.07V12.07ZM80.4938 13.0698C79.8625 13.7496 79.5802 14.6769 79.5802 15.78H80.5802C80.5802 14.8431 80.8179 14.1904 81.2266 13.7502L80.4938 13.0698ZM79.5802 15.78C79.5802 16.9 79.8609 17.8387 80.4938 18.5202L81.2266 17.8398C80.8194 17.4013 80.5802 16.74 80.5802 15.78H79.5802ZM80.5003 18.5271C81.1375 19.1879 81.9388 19.52 82.8702 19.52V18.52C82.2016 18.52 81.6629 18.2921 81.2201 17.8329L80.5003 18.5271ZM82.8702 19.52C83.6026 19.52 84.2626 19.3083 84.8297 18.8785C85.3902 18.4537 85.8335 17.8362 86.1771 17.0631L85.2633 16.6569C84.9669 17.3238 84.6152 17.7863 84.2257 18.0815C83.8427 18.3717 83.3978 18.52 82.8702 18.52V19.52ZM85.4997 17.3087L90.7497 19.8887L91.1907 18.9913L85.9407 16.4113L85.4997 17.3087ZM90.499 19.2726C89.9988 20.6806 89.0957 21.7801 87.7712 22.5823L88.2892 23.4377C89.8047 22.5199 90.8615 21.2394 91.4413 19.6074L90.499 19.2726ZM87.7712 22.5823C86.4439 23.3861 84.8276 23.8 82.9002 23.8V24.8C84.9727 24.8 86.7765 24.3539 88.2892 23.4377L87.7712 22.5823ZM122.229 18.69H122.729V18.19H122.229V18.69ZM122.229 27.24V27.74H122.729V27.24H122.229ZM115.959 27.24H115.459V27.74H115.959V27.24ZM115.959 24H116.459V23.5H115.959V24ZM106.899 24V23.5H106.399V24H106.899ZM106.899 27.24V27.74H107.399V27.24H106.899ZM100.629 27.24H100.129V27.74H100.629V27.24ZM100.629 18.69V18.19H100.129V18.69H100.629ZM103.119 17.34L103.58 17.5345L103.581 17.5309L103.119 17.34ZM103.779 13.38L103.28 13.3619L103.28 13.3626L103.779 13.38ZM103.989 7.59V7.09H103.507L103.49 7.57188L103.989 7.59ZM120.039 7.59H120.539V7.09H120.039V7.59ZM120.039 18.69H119.539V19.19H120.039V18.69ZM109.869 13.89L110.369 13.9059L110.369 13.9047L109.869 13.89ZM109.599 16.89L109.108 16.797L109.106 16.8078L109.599 16.89ZM108.849 18.69L108.457 18.3796L107.816 19.19H108.849V18.69ZM113.289 18.69V19.19H113.789V18.69H113.289ZM113.289 12.87H113.789V12.37H113.289V12.87ZM109.899 12.87V12.37H109.414L109.399 12.8553L109.899 12.87ZM121.729 18.69V27.24H122.729V18.69H121.729ZM122.229 26.74H115.959V27.74H122.229V26.74ZM116.459 27.24V24H115.459V27.24H116.459ZM115.959 23.5H106.899V24.5H115.959V23.5ZM106.399 24V27.24H107.399V24H106.399ZM106.899 26.74H100.629V27.74H106.899V26.74ZM101.129 27.24V18.69H100.129V27.24H101.129ZM100.629 19.19H101.109V18.19H100.629V19.19ZM101.109 19.19C101.669 19.19 102.179 19.0577 102.611 18.7676C103.042 18.4778 103.36 18.0551 103.58 17.5345L102.659 17.1455C102.498 17.5249 102.292 17.7772 102.053 17.9374C101.815 18.0973 101.509 18.19 101.109 18.19V19.19ZM103.581 17.5309C103.995 16.5297 104.218 15.1401 104.279 13.3974L103.28 13.3626C103.22 15.0599 103.004 16.3103 102.657 17.1491L103.581 17.5309ZM104.279 13.3981L104.489 7.60812L103.49 7.57188L103.28 13.3619L104.279 13.3981ZM103.989 8.09H120.039V7.09H103.989V8.09ZM119.539 7.59V18.69H120.539V7.59H119.539ZM120.039 19.19H122.229V18.19H120.039V19.19ZM109.37 13.8741C109.33 15.123 109.241 16.0937 109.108 16.7971L110.091 16.9829C110.237 16.2063 110.329 15.177 110.369 13.9059L109.37 13.8741ZM109.106 16.8078C108.997 17.4604 108.776 17.9776 108.457 18.3796L109.241 19.0004C109.683 18.4424 109.961 17.7596 110.092 16.9722L109.106 16.8078ZM108.849 19.19H113.289V18.19H108.849V19.19ZM113.789 18.69V12.87H112.789V18.69H113.789ZM113.289 12.37H109.899V13.37H113.289V12.37ZM109.399 12.8553L109.369 13.8753L110.369 13.9047L110.399 12.8847L109.399 12.8553ZM141.372 17.37V17.87H141.842L141.871 17.4012L141.372 17.37ZM129.972 17.37V16.87H129.242L129.506 17.5505L129.972 17.37ZM131.172 18.81L130.912 19.2375L130.924 19.2441L131.172 18.81ZM135.072 19.02L134.903 18.5495L134.897 18.5518L135.072 19.02ZM136.692 18.09L137.047 17.7379L136.739 17.427L136.39 17.6917L136.692 18.09ZM140.232 21.66L140.602 21.9963L140.921 21.6451L140.587 21.3079L140.232 21.66ZM127.842 23.22L127.621 23.6684L127.626 23.6708L127.842 23.22ZM124.362 20.16L124.785 19.8932L124.362 20.16ZM124.332 11.4L123.909 11.1332L123.908 11.135L124.332 11.4ZM127.662 8.37L127.436 7.92404L127.433 7.92535L127.662 8.37ZM136.962 8.28L136.744 8.72983L136.746 8.73107L136.962 8.28ZM140.232 11.19L139.808 11.455L139.811 11.4597L140.232 11.19ZM130.752 12.48L131.071 12.8655L130.752 12.48ZM129.852 14.1L129.362 14.0019L129.242 14.6H129.852V14.1ZM135.132 14.1V14.6H135.745L135.622 13.9992L135.132 14.1ZM134.232 12.51L133.904 12.8874L133.914 12.8955L134.232 12.51ZM140.962 15.78C140.962 15.7801 140.962 15.78 140.962 15.78C140.962 15.7801 140.962 15.78 140.962 15.7801C140.962 15.7801 140.962 15.7802 140.962 15.7802C140.962 15.7804 140.962 15.7806 140.962 15.7809C140.962 15.7814 140.962 15.7822 140.962 15.7832C140.962 15.7853 140.962 15.7881 140.962 15.7916C140.962 15.7987 140.961 15.808 140.961 15.8196C140.96 15.8429 140.959 15.8735 140.957 15.9118C140.953 15.9884 140.948 16.0924 140.94 16.2242C140.925 16.4878 140.903 16.8591 140.873 17.3388L141.871 17.4012C141.93 16.4545 141.962 15.9004 141.962 15.78H140.962ZM141.372 16.87H129.972V17.87H141.372V16.87ZM129.506 17.5505C129.785 18.2717 130.257 18.8392 130.913 19.2374L131.432 18.3826C130.967 18.1008 130.639 17.7083 130.438 17.1895L129.506 17.5505ZM130.924 19.2441C131.579 19.6184 132.371 19.79 133.272 19.79V18.79C132.493 18.79 131.885 18.6416 131.42 18.3759L130.924 19.2441ZM133.272 19.79C134.03 19.79 134.694 19.6959 135.248 19.4882L134.897 18.5518C134.49 18.7041 133.955 18.79 133.272 18.79V19.79ZM135.241 19.4904C135.803 19.2883 136.388 18.9485 136.994 18.4883L136.39 17.6917C135.836 18.1115 135.341 18.3917 134.903 18.5496L135.241 19.4904ZM136.337 18.4421L139.877 22.0121L140.587 21.3079L137.047 17.7379L136.337 18.4421ZM139.862 21.3237C138.386 22.9476 136.151 23.8 133.062 23.8V24.8C136.333 24.8 138.878 23.8924 140.602 21.9963L139.862 21.3237ZM133.062 23.8C131.143 23.8 129.479 23.4512 128.058 22.7692L127.626 23.6708C129.205 24.4288 131.021 24.8 133.062 24.8V23.8ZM128.063 22.7716C126.638 22.0687 125.551 21.1084 124.785 19.8932L123.939 20.4268C124.813 21.8116 126.046 22.8913 127.621 23.6684L128.063 22.7716ZM124.785 19.8932C124.018 18.6775 123.632 17.3109 123.632 15.78H122.632C122.632 17.4891 123.066 19.0425 123.939 20.4268L124.785 19.8932ZM123.632 15.78C123.632 14.2253 124.01 12.8587 124.756 11.665L123.908 11.135C123.054 12.5013 122.632 14.0547 122.632 15.78H123.632ZM124.755 11.6668C125.526 10.4442 126.568 9.49481 127.891 8.81464L127.433 7.92535C125.956 8.68519 124.778 9.75576 123.909 11.1332L124.755 11.6668ZM127.888 8.81595C129.231 8.1351 130.742 7.79 132.432 7.79V6.79C130.602 6.79 128.933 7.1649 127.436 7.92405L127.888 8.81595ZM132.432 7.79C134.024 7.79 135.458 8.10598 136.744 8.72983L137.18 7.83017C135.746 7.13402 134.16 6.79 132.432 6.79V7.79ZM136.746 8.73107C138.042 9.35067 139.059 10.2567 139.808 11.455L140.656 10.925C139.805 9.56332 138.642 8.52933 137.178 7.82893L136.746 8.73107ZM139.811 11.4597C140.571 12.6463 140.962 14.079 140.962 15.78H141.962C141.962 13.921 141.533 12.2937 140.653 10.9203L139.811 11.4597ZM132.492 11.41C131.697 11.41 130.998 11.6281 130.434 12.0945L131.071 12.8655C131.426 12.5719 131.887 12.41 132.492 12.41V11.41ZM130.434 12.0945C129.868 12.5614 129.52 13.2123 129.362 14.0019L130.342 14.1981C130.464 13.5877 130.716 13.1586 131.071 12.8655L130.434 12.0945ZM129.852 14.6H135.132V13.6H129.852V14.6ZM135.622 13.9992C135.463 13.2267 135.112 12.5886 134.551 12.1245L133.914 12.8955C134.272 13.1914 134.521 13.6133 134.642 14.2008L135.622 13.9992ZM134.56 12.1327C133.996 11.6419 133.294 11.41 132.492 11.41V12.41C133.09 12.41 133.548 12.5781 133.904 12.8873L134.56 12.1327ZM143.9 7.59V7.09H143.4V7.59H143.9ZM150.65 7.59H151.15V7.09H150.65V7.59ZM150.65 15H150.15V16.4762L151.047 15.3038L150.65 15ZM156.32 7.59V7.09H156.073L155.922 7.28615L156.32 7.59ZM162.56 7.59H163.06V7.09H162.56V7.59ZM162.56 24V24.5H163.06V24H162.56ZM155.81 24H155.31V24.5H155.81V24ZM155.81 16.56H156.31V15.0728L155.411 16.2579L155.81 16.56ZM150.17 24V24.5H150.418L150.568 24.3021L150.17 24ZM143.9 24H143.4V24.5H143.9V24ZM148.22 4.98L147.886 5.35244L147.89 5.35629L148.22 4.98ZM146.78 0.989999V0.489999H146.28V0.989999H146.78ZM151.13 0.989999H151.63V0.489999H151.13V0.989999ZM151.46 2.49L151.04 2.76163L151.049 2.77615L151.06 2.79L151.46 2.49ZM154.43 0.989999V0.489999H153.93V0.989999H154.43ZM158.84 0.989999H159.34V0.489999H158.84V0.989999ZM157.37 4.98L157.699 5.35629L157.699 5.35581L157.37 4.98ZM143.9 8.09H150.65V7.09H143.9V8.09ZM150.15 7.59V15H151.15V7.59H150.15ZM151.047 15.3038L156.717 7.89384L155.922 7.28615L150.252 14.6962L151.047 15.3038ZM156.32 8.09H162.56V7.09H156.32V8.09ZM162.06 7.59V24H163.06V7.59H162.06ZM162.56 23.5H155.81V24.5H162.56V23.5ZM156.31 24V16.56H155.31V24H156.31ZM155.411 16.2579L149.771 23.6979L150.568 24.3021L156.208 16.8621L155.411 16.2579ZM150.17 23.5H143.9V24.5H150.17V23.5ZM144.4 24V7.59H143.4V24H144.4ZM152.78 5.74C150.749 5.74 149.375 5.32692 148.549 4.60371L147.89 5.35629C148.984 6.31308 150.65 6.74 152.78 6.74V5.74ZM148.553 4.60758C147.736 3.87538 147.28 2.70613 147.28 0.989999H146.28C146.28 2.87387 146.783 4.36462 147.886 5.35242L148.553 4.60758ZM146.78 1.49H151.13V0.489999H146.78V1.49ZM150.63 0.989999C150.63 1.69148 150.744 2.30446 151.04 2.76163L151.879 2.21837C151.735 1.99554 151.63 1.60852 151.63 0.989999H150.63ZM151.06 2.79C151.437 3.29296 152.061 3.47 152.75 3.47V2.47C152.198 2.47 151.962 2.32704 151.86 2.19L151.06 2.79ZM152.75 3.47C153.41 3.47 153.989 3.2715 154.391 2.79849C154.779 2.3412 154.93 1.70884 154.93 0.989999H153.93C153.93 1.59116 153.8 1.9488 153.628 2.15151C153.47 2.33849 153.209 2.47 152.75 2.47V3.47ZM154.43 1.49H158.84V0.489999H154.43V1.49ZM158.34 0.989999C158.34 2.70313 157.875 3.87119 157.04 4.60419L157.699 5.35581C158.824 4.3688 159.34 2.87686 159.34 0.989999H158.34ZM157.04 4.60371C156.214 5.32633 154.831 5.74 152.78 5.74V6.74C154.928 6.74 156.605 6.31367 157.699 5.35629L157.04 4.60371ZM169.326 23.22L169.105 23.6684L169.107 23.6696L169.326 23.22ZM165.876 20.19L165.453 20.4568L165.456 20.4614L165.876 20.19ZM165.876 11.4L165.456 11.1286L165.455 11.1303L165.876 11.4ZM169.326 8.37L169.107 7.92037L169.105 7.92156L169.326 8.37ZM179.466 8.58L179.207 9.00768L179.466 8.58ZM182.406 12.15L182.626 12.5987L183.026 12.4023L182.877 11.9826L182.406 12.15ZM177.156 14.73L176.699 14.9331L176.91 15.4079L177.376 15.1787L177.156 14.73ZM172.296 13.41L171.936 13.0629L171.929 13.0698L172.296 13.41ZM172.296 18.18L171.929 18.5203L171.936 18.5271L172.296 18.18ZM177.156 16.86L177.376 16.4113L176.91 16.1821L176.699 16.6569L177.156 16.86ZM182.406 19.44L182.877 19.6074L183.026 19.1877L182.626 18.9913L182.406 19.44ZM179.466 23.01L179.725 23.4377L179.466 23.01ZM174.336 23.8C172.542 23.8 170.948 23.4531 169.544 22.7704L169.107 23.6696C170.664 24.4269 172.41 24.8 174.336 24.8V23.8ZM169.547 22.7716C168.164 22.0894 167.084 21.1387 166.296 19.9186L165.456 20.4614C166.347 21.8413 167.568 22.9106 169.105 23.6684L169.547 22.7716ZM166.299 19.9232C165.532 18.7085 165.146 17.3322 165.146 15.78H164.146C164.146 17.5078 164.579 19.0715 165.453 20.4568L166.299 19.9232ZM165.146 15.78C165.146 14.2277 165.532 12.8628 166.297 11.6697L165.455 11.1303C164.579 12.4972 164.146 14.0523 164.146 15.78H165.146ZM166.296 11.6714C167.084 10.4513 168.164 9.50062 169.547 8.81843L169.105 7.92156C167.568 8.67938 166.347 9.74874 165.456 11.1286L166.296 11.6714ZM169.544 8.81962C170.948 8.13685 172.542 7.79 174.336 7.79V6.79C172.41 6.79 170.664 7.16315 169.107 7.92038L169.544 8.81962ZM174.336 7.79C176.263 7.79 177.879 8.20385 179.207 9.00768L179.725 8.15232C178.212 7.23615 176.408 6.79 174.336 6.79V7.79ZM179.207 9.00768C180.531 9.80985 181.434 10.9094 181.935 12.3174L182.877 11.9826C182.297 10.3506 181.24 9.07014 179.725 8.15232L179.207 9.00768ZM182.185 11.7013L176.935 14.2813L177.376 15.1787L182.626 12.5987L182.185 11.7013ZM177.613 14.5269C177.269 13.7538 176.826 13.1363 176.265 12.7115C175.698 12.2817 175.038 12.07 174.306 12.07V13.07C174.833 13.07 175.278 13.2183 175.661 13.5085C176.051 13.8037 176.402 14.2662 176.699 14.9331L177.613 14.5269ZM174.306 12.07C173.374 12.07 172.573 12.4021 171.936 13.0629L172.656 13.7571C173.098 13.2979 173.637 13.07 174.306 13.07V12.07ZM171.929 13.0698C171.298 13.7496 171.016 14.6769 171.016 15.78H172.016C172.016 14.8431 172.253 14.1904 172.662 13.7502L171.929 13.0698ZM171.016 15.78C171.016 16.9 171.296 17.8387 171.929 18.5202L172.662 17.8398C172.255 17.4013 172.016 16.74 172.016 15.78H171.016ZM171.936 18.5271C172.573 19.1879 173.374 19.52 174.306 19.52V18.52C173.637 18.52 173.098 18.2921 172.656 17.8329L171.936 18.5271ZM174.306 19.52C175.038 19.52 175.698 19.3083 176.265 18.8785C176.826 18.4537 177.269 17.8362 177.613 17.0631L176.699 16.6569C176.402 17.3238 176.051 17.7863 175.661 18.0815C175.278 18.3717 174.833 18.52 174.306 18.52V19.52ZM176.935 17.3087L182.185 19.8887L182.626 18.9913L177.376 16.4113L176.935 17.3087ZM181.935 19.2726C181.434 20.6806 180.531 21.7801 179.207 22.5823L179.725 23.4377C181.24 22.5199 182.297 21.2394 182.877 19.6074L181.935 19.2726ZM179.207 22.5823C177.879 23.3861 176.263 23.8 174.336 23.8V24.8C176.408 24.8 178.212 24.3539 179.725 23.4377L179.207 22.5823ZM199.957 12.87V13.37H200.457V12.87H199.957ZM194.947 12.87V12.37H194.447V12.87H194.947ZM194.947 24V24.5H195.447V24H194.947ZM188.197 24H187.697V24.5H188.197V24ZM188.197 12.87H188.697V12.37H188.197V12.87ZM183.187 12.87H182.687V13.37H183.187V12.87ZM183.187 7.59V7.09H182.687V7.59H183.187ZM199.957 7.59H200.457V7.09H199.957V7.59ZM199.957 12.37H194.947V13.37H199.957V12.37ZM194.447 12.87V24H195.447V12.87H194.447ZM194.947 23.5H188.197V24.5H194.947V23.5ZM188.697 24V12.87H187.697V24H188.697ZM188.197 12.37H183.187V13.37H188.197V12.37ZM183.687 12.87V7.59H182.687V12.87H183.687ZM183.187 8.09H199.957V7.09H183.187V8.09ZM199.457 7.59V12.87H200.457V7.59H199.457ZM215.857 15.39L215.624 14.9478L214.643 15.4657L215.681 15.8577L215.857 15.39ZM216.787 22.74L217.077 23.1474L217.082 23.1441L216.787 22.74ZM201.907 24H201.407V24.5H201.907V24ZM201.907 7.59V7.09H201.407V7.59H201.907ZM216.247 8.73L215.983 9.15442L215.988 9.15751L216.247 8.73ZM207.847 14.07H207.347V14.57H207.847V14.07ZM211.627 12.06L211.311 12.447L211.319 12.4537L211.327 12.46L211.627 12.06ZM207.847 11.79V11.29H207.347V11.79H207.847ZM207.847 17.4V16.9H207.347V17.4H207.847ZM207.847 19.8H207.347V20.3H207.847V19.8ZM215.681 15.8577C216.51 16.1709 217.094 16.6052 217.474 17.1416C217.854 17.6767 218.057 18.3529 218.057 19.2H219.057C219.057 18.1871 218.811 17.2983 218.29 16.5634C217.77 15.8298 217.005 15.2891 216.034 14.9223L215.681 15.8577ZM218.057 19.2C218.057 20.5454 217.54 21.573 216.493 22.3359L217.082 23.1441C218.395 22.187 219.057 20.8546 219.057 19.2H218.057ZM216.497 22.3327C215.438 23.0867 213.829 23.5 211.597 23.5V24.5C213.926 24.5 215.777 24.0733 217.077 23.1473L216.497 22.3327ZM211.597 23.5H201.907V24.5H211.597V23.5ZM202.407 24V7.59H201.407V24H202.407ZM201.907 8.09H211.117V7.09H201.907V8.09ZM211.117 8.09C213.27 8.09 214.874 8.46345 215.983 9.15439L216.512 8.30561C215.181 7.47655 213.365 7.09 211.117 7.09V8.09ZM215.988 9.15751C217.068 9.81229 217.577 10.705 217.577 11.88H218.577C218.577 10.335 217.867 9.12771 216.507 8.3025L215.988 9.15751ZM217.577 11.88C217.577 12.5522 217.411 13.1382 217.085 13.6525L217.93 14.1875C218.364 13.5018 218.577 12.7278 218.577 11.88H217.577ZM217.085 13.6525C216.758 14.1685 216.278 14.6025 215.624 14.9478L216.091 15.8322C216.876 15.4175 217.497 14.8715 217.93 14.1875L217.085 13.6525ZM207.847 14.57H210.517V13.57H207.847V14.57ZM210.517 14.57C211.06 14.57 211.56 14.4642 211.931 14.1687C212.324 13.8559 212.487 13.4012 212.487 12.9H211.487C211.487 13.1788 211.406 13.3091 211.309 13.3863C211.19 13.4808 210.954 13.57 210.517 13.57V14.57ZM212.487 12.9C212.487 12.409 212.326 11.9591 211.927 11.66L211.327 12.46C211.409 12.5209 211.487 12.631 211.487 12.9H212.487ZM211.944 11.673C211.586 11.3801 211.068 11.29 210.517 11.29V12.29C211.006 12.29 211.229 12.3799 211.311 12.447L211.944 11.673ZM210.517 11.29H207.847V12.29H210.517V11.29ZM207.347 11.79V14.07H208.347V11.79H207.347ZM210.997 20.3C211.545 20.3 212.049 20.1873 212.421 19.876C212.81 19.5503 212.967 19.0828 212.967 18.57H211.967C211.967 18.8772 211.88 19.0247 211.779 19.109C211.661 19.2077 211.43 19.3 210.997 19.3V20.3ZM212.967 18.57C212.967 18.0688 212.804 17.6141 212.411 17.3013C212.04 17.0058 211.54 16.9 210.997 16.9V17.9C211.434 17.9 211.67 17.9892 211.789 18.0837C211.886 18.1609 211.967 18.2912 211.967 18.57H212.967ZM210.997 16.9H207.847V17.9H210.997V16.9ZM207.347 17.4V19.8H208.347V17.4H207.347ZM207.847 20.3H210.997V19.3H207.847V20.3ZM239.315 7.59L239.778 7.77698L240.055 7.09H239.315V7.59ZM232.565 24.33L232.101 24.143L232.101 24.1436L232.565 24.33ZM229.355 28.83L229.633 29.245L229.355 28.83ZM221.855 29.7L221.997 29.2208L221.991 29.2188L221.855 29.7ZM219.665 28.65L219.214 28.4322L219.042 28.788L219.349 29.0376L219.665 28.65ZM221.915 24L222.218 23.6028L221.731 23.2305L221.464 23.7822L221.915 24ZM223.055 24.63L222.877 25.0973L222.884 25.0999L223.055 24.63ZM225.995 24.21L226.373 24.5368L226.575 24.3033L226.456 24.0183L225.995 24.21ZM219.095 7.59V7.09H218.346L218.633 7.78171L219.095 7.59ZM226.055 7.59L226.521 7.41008L226.398 7.09H226.055V7.59ZM229.445 16.38L228.978 16.5599L229.44 17.7589L229.91 16.5627L229.445 16.38ZM232.895 7.59V7.09H232.554L232.429 7.40732L232.895 7.59ZM238.851 7.40301L232.101 24.143L233.028 24.517L239.778 7.77698L238.851 7.40301ZM232.101 24.1436C231.261 26.2339 230.241 27.6323 229.076 28.415L229.633 29.245C231.028 28.3077 232.149 26.7061 233.029 24.5164L232.101 24.1436ZM229.076 28.415C227.894 29.209 226.426 29.62 224.645 29.62V30.62C226.583 30.62 228.255 30.171 229.633 29.245L229.076 28.415ZM224.645 29.62C223.776 29.62 222.894 29.4879 221.997 29.2208L221.712 30.1792C222.695 30.4721 223.673 30.62 224.645 30.62V29.62ZM221.991 29.2188C221.113 28.9709 220.452 28.6464 219.98 28.2624L219.349 29.0376C219.957 29.5336 220.756 29.9091 221.719 30.1812L221.991 29.2188ZM220.115 28.8678L222.365 24.2178L221.464 23.7822L219.214 28.4322L220.115 28.8678ZM221.611 24.3972C221.991 24.6879 222.414 24.9209 222.877 25.0972L223.233 24.1628C222.855 24.0191 222.518 23.8321 222.218 23.6028L221.611 24.3972ZM222.884 25.0999C223.369 25.2765 223.847 25.37 224.315 25.37V24.37C223.982 24.37 223.62 24.3035 223.225 24.1601L222.884 25.0999ZM224.315 25.37C225.157 25.37 225.873 25.1154 226.373 24.5368L225.616 23.8832C225.356 24.1846 224.952 24.37 224.315 24.37V25.37ZM226.456 24.0183L219.556 7.39828L218.633 7.78171L225.533 24.4017L226.456 24.0183ZM219.095 8.09H226.055V7.09H219.095V8.09ZM225.588 7.76991L228.978 16.5599L229.911 16.2001L226.521 7.41008L225.588 7.76991ZM229.91 16.5627L233.36 7.77268L232.429 7.40732L228.979 16.1973L229.91 16.5627ZM232.895 8.09H239.315V7.09H232.895V8.09ZM265.504 11.4L265.075 11.6573L265.08 11.665L265.504 11.4ZM265.504 20.19L265.078 19.9279L265.077 19.9298L265.504 20.19ZM262.234 23.22L262.462 23.6647L262.467 23.662L262.234 23.22ZM251.884 22.74L251.603 23.1536L251.609 23.1576L251.884 22.74ZM248.704 18.48L249.181 18.3299L249.07 17.98H248.704V18.48ZM247.564 18.48V17.98H247.064V18.48H247.564ZM247.564 24V24.5H248.064V24H247.564ZM240.814 24H240.314V24.5H240.814V24ZM240.814 7.59V7.09H240.314V7.59H240.814ZM247.564 7.59H248.064V7.09H247.564V7.59ZM247.564 12.87H247.064V13.37H247.564V12.87ZM248.764 12.87V13.37H249.119L249.236 13.0347L248.764 12.87ZM251.974 8.79L251.704 8.36905L251.701 8.37065L251.974 8.79ZM259.294 18.18L258.908 17.8612L258.907 17.8626L259.294 18.18ZM259.294 13.41L258.907 13.7274L258.914 13.7354L259.294 13.41ZM255.664 13.41L255.284 13.0845L255.277 13.0926L255.664 13.41ZM255.664 18.18L255.272 18.4907L255.278 18.4982L255.284 18.5054L255.664 18.18ZM257.494 7.79C259.184 7.79 260.684 8.13513 262.005 8.81464L262.462 7.92535C260.984 7.16486 259.324 6.79 257.494 6.79V7.79ZM262.005 8.81464C263.325 9.49376 264.345 10.4403 265.075 11.6572L265.932 11.1428C265.103 9.7597 263.942 8.68624 262.462 7.92535L262.005 8.81464ZM265.08 11.665C265.826 12.8587 266.204 14.2253 266.204 15.78H267.204C267.204 14.0547 266.782 12.5013 265.928 11.135L265.08 11.665ZM266.204 15.78C266.204 17.3346 265.826 18.7126 265.078 19.928L265.929 20.452C266.782 19.0674 267.204 17.5054 267.204 15.78H266.204ZM265.077 19.9298C264.346 21.1285 263.325 22.0776 262 22.778L262.467 23.662C263.942 22.8824 265.101 21.8115 265.931 20.4502L265.077 19.9298ZM262.005 22.7754C260.684 23.4549 259.184 23.8 257.494 23.8V24.8C259.324 24.8 260.984 24.4251 262.462 23.6646L262.005 22.7754ZM257.494 23.8C255.417 23.8 253.646 23.3013 252.159 22.3224L251.609 23.1576C253.281 24.2587 255.25 24.8 257.494 24.8V23.8ZM252.165 22.3264C250.697 21.329 249.706 20.0013 249.181 18.3299L248.227 18.6301C248.821 20.5187 249.951 22.031 251.603 23.1536L252.165 22.3264ZM248.704 17.98H247.564V18.98H248.704V17.98ZM247.064 18.48V24H248.064V18.48H247.064ZM247.564 23.5H240.814V24.5H247.564V23.5ZM241.314 24V7.59H240.314V24H241.314ZM240.814 8.09H247.564V7.09H240.814V8.09ZM247.064 7.59V12.87H248.064V7.59H247.064ZM247.564 13.37H248.764V12.37H247.564V13.37ZM249.236 13.0347C249.799 11.4203 250.798 10.1495 252.246 9.20934L251.701 8.37065C250.069 9.43052 248.928 10.8797 248.292 12.7053L249.236 13.0347ZM252.243 9.21094C253.712 8.26969 255.455 7.79 257.494 7.79V6.79C255.292 6.79 253.355 7.3103 251.704 8.36906L252.243 9.21094ZM257.494 19.52C258.38 19.52 259.123 19.1758 259.68 18.4974L258.907 17.8626C258.545 18.3042 258.088 18.52 257.494 18.52V19.52ZM259.679 18.4988C260.256 17.8018 260.514 16.8751 260.514 15.78H259.514C259.514 16.7249 259.292 17.3982 258.908 17.8612L259.679 18.4988ZM260.514 15.78C260.514 14.6862 260.256 13.7647 259.673 13.0846L258.914 13.7354C259.291 14.1753 259.514 14.8338 259.514 15.78H260.514ZM259.68 13.0926C259.123 12.4142 258.38 12.07 257.494 12.07V13.07C258.088 13.07 258.545 13.2858 258.907 13.7274L259.68 13.0926ZM257.494 12.07C256.608 12.07 255.859 12.4134 255.284 13.0846L256.043 13.7354C256.428 13.2866 256.899 13.07 257.494 13.07V12.07ZM255.277 13.0926C254.719 13.7724 254.474 14.6907 254.474 15.78H255.474C255.474 14.8293 255.688 14.1676 256.05 13.7274L255.277 13.0926ZM254.474 15.78C254.474 16.8707 254.719 17.7942 255.272 18.4907L256.055 17.8693C255.688 17.4058 255.474 16.7293 255.474 15.78H254.474ZM255.284 18.5054C255.859 19.1766 256.608 19.52 257.494 19.52V18.52C256.899 18.52 256.428 18.3034 256.043 17.8546L255.284 18.5054ZM283.776 12.87V13.37H284.276V12.87H283.776ZM278.766 12.87V12.37H278.266V12.87H278.766ZM278.766 24V24.5H279.266V24H278.766ZM272.016 24H271.516V24.5H272.016V24ZM272.016 12.87H272.516V12.37H272.016V12.87ZM267.005 12.87H266.505V13.37H267.005V12.87ZM267.005 7.59V7.09H266.505V7.59H267.005ZM283.776 7.59H284.276V7.09H283.776V7.59ZM283.776 12.37H278.766V13.37H283.776V12.37ZM278.266 12.87V24H279.266V12.87H278.266ZM278.766 23.5H272.016V24.5H278.766V23.5ZM272.516 24V12.87H271.516V24H272.516ZM272.016 12.37H267.005V13.37H272.016V12.37ZM267.505 12.87V7.59H266.505V12.87H267.505ZM267.005 8.09H283.776V7.09H267.005V8.09ZM283.276 7.59V12.87H284.276V7.59H283.276ZM73.282 44.59H73.782V44.09H73.282V44.59ZM73.282 61V61.5H73.782V61H73.282ZM66.532 61H66.032V61.5H66.532V61ZM66.532 49.87H67.032V49.37H66.532V49.87ZM62.422 49.87V49.37H61.922V49.87H62.422ZM62.422 61V61.5H62.922V61H62.422ZM55.672 61H55.172V61.5H55.672V61ZM55.672 44.59V44.09H55.172V44.59H55.672ZM72.782 44.59V61H73.782V44.59H72.782ZM73.282 60.5H66.532V61.5H73.282V60.5ZM67.032 61V49.87H66.032V61H67.032ZM66.532 49.37H62.422V50.37H66.532V49.37ZM61.922 49.87V61H62.922V49.87H61.922ZM62.422 60.5H55.672V61.5H62.422V60.5ZM56.172 61V44.59H55.172V61H56.172ZM55.672 45.09H73.282V44.09H55.672V45.09ZM91.3828 45.34L91.1308 45.772L91.1394 45.7767L91.3828 45.34ZM94.2628 48.31L93.8225 48.5471L93.8254 48.5522L94.2628 48.31ZM94.2628 57.31L93.8254 57.0677L93.8241 57.0701L94.2628 57.31ZM91.3828 60.28L91.6293 60.715L91.6316 60.7137L91.3828 60.28ZM83.2528 59.89L83.6026 59.5327L82.7528 58.7006V59.89H83.2528ZM83.2528 66.82V67.32H83.7528V66.82H83.2528ZM76.4728 66.82H75.9728V67.32H76.4728V66.82ZM76.4728 44.59V44.09H75.9728V44.59H76.4728ZM82.9228 44.59H83.4228V44.09H82.9228V44.59ZM82.9228 45.94H82.4228V47.2529L83.2961 46.2726L82.9228 45.94ZM87.7228 55.18L88.0958 55.513L87.7228 55.18ZM87.7228 50.44L87.344 50.7665L87.3498 50.773L87.7228 50.44ZM83.8828 50.44L84.2558 50.7731L84.2615 50.7665L83.8828 50.44ZM83.8828 55.18L83.5098 55.513L83.8828 55.18ZM87.4228 44.79C88.7777 44.79 90.0102 45.1182 91.1309 45.7719L91.6348 44.9081C90.3554 44.1618 88.948 43.79 87.4228 43.79V44.79ZM91.1394 45.7767C92.2712 46.4076 93.1651 47.326 93.8226 48.5471L94.703 48.0729C93.9605 46.694 92.9344 45.6324 91.6262 44.9033L91.1394 45.7767ZM93.8254 48.5522C94.4988 49.768 94.8428 51.1824 94.8428 52.81H95.8428C95.8428 51.0376 95.4669 49.452 94.7002 48.0677L93.8254 48.5522ZM94.8428 52.81C94.8428 54.4376 94.4988 55.852 93.8254 57.0677L94.7002 57.5522C95.4669 56.168 95.8428 54.5824 95.8428 52.81H94.8428ZM93.8241 57.0701C93.1666 58.2724 92.271 59.1939 91.134 59.8463L91.6316 60.7137C92.9346 59.9661 93.959 58.9076 94.7015 57.5499L93.8241 57.0701ZM91.1363 59.845C90.0148 60.4805 88.7804 60.8 87.4228 60.8V61.8C88.9453 61.8 90.3508 61.4395 91.6293 60.715L91.1363 59.845ZM87.4228 60.8C85.6861 60.8 84.44 60.3527 83.6026 59.5327L82.903 60.2473C83.9856 61.3073 85.5195 61.8 87.4228 61.8V60.8ZM82.7528 59.89V66.82H83.7528V59.89H82.7528ZM83.2528 66.32H76.4728V67.32H83.2528V66.32ZM76.9728 66.82V44.59H75.9728V66.82H76.9728ZM76.4728 45.09H82.9228V44.09H76.4728V45.09ZM82.4228 44.59V45.94H83.4228V44.59H82.4228ZM83.2961 46.2726C84.1499 45.3143 85.4903 44.79 87.4228 44.79V43.79C85.3153 43.79 83.6557 44.3657 82.5495 45.6074L83.2961 46.2726ZM85.8028 56.52C86.7189 56.52 87.4968 56.1839 88.0958 55.513L87.3498 54.847C86.9488 55.2961 86.4467 55.52 85.8028 55.52V56.52ZM88.0958 55.513C88.703 54.8329 88.9728 53.9084 88.9728 52.81H87.9728C87.9728 53.7516 87.7426 54.4071 87.3498 54.847L88.0958 55.513ZM88.9728 52.81C88.9728 51.7116 88.703 50.7871 88.0958 50.107L87.3498 50.773C87.7426 51.2129 87.9728 51.8684 87.9728 52.81H88.9728ZM88.1015 50.1135C87.5045 49.421 86.7252 49.07 85.8028 49.07V50.07C86.4405 50.07 86.9411 50.299 87.3441 50.7665L88.1015 50.1135ZM85.8028 49.07C84.8805 49.07 84.1011 49.421 83.5041 50.1135L84.2615 50.7665C84.6645 50.299 85.1652 50.07 85.8028 50.07V49.07ZM83.5098 50.107C82.9026 50.7871 82.6328 51.7116 82.6328 52.81H83.6328C83.6328 51.8684 83.863 51.2129 84.2558 50.773L83.5098 50.107ZM82.6328 52.81C82.6328 53.9084 82.9026 54.8329 83.5098 55.513L84.2558 54.847C83.863 54.4071 83.6328 53.7516 83.6328 52.81H82.6328ZM83.5098 55.513C84.1088 56.1839 84.8867 56.52 85.8028 56.52V55.52C85.1589 55.52 84.6568 55.2961 84.2558 54.847L83.5098 55.513ZM97.5373 44.59V44.09H97.0373V44.59H97.5373ZM104.287 44.59H104.787V44.09H104.287V44.59ZM104.287 52H103.787V53.4762L104.684 52.3038L104.287 52ZM109.957 44.59V44.09H109.71L109.56 44.2862L109.957 44.59ZM116.197 44.59H116.697V44.09H116.197V44.59ZM116.197 61V61.5H116.697V61H116.197ZM109.447 61H108.947V61.5H109.447V61ZM109.447 53.56H109.947V52.0728L109.049 53.2579L109.447 53.56ZM103.807 61V61.5H104.056L104.206 61.3021L103.807 61ZM97.5373 61H97.0373V61.5H97.5373V61ZM97.5373 45.09H104.287V44.09H97.5373V45.09ZM103.787 44.59V52H104.787V44.59H103.787ZM104.684 52.3038L110.354 44.8938L109.56 44.2862L103.89 51.6962L104.684 52.3038ZM109.957 45.09H116.197V44.09H109.957V45.09ZM115.697 44.59V61H116.697V44.59H115.697ZM116.197 60.5H109.447V61.5H116.197V60.5ZM109.947 61V53.56H108.947V61H109.947ZM109.049 53.2579L103.409 60.6979L104.206 61.3021L109.846 53.8621L109.049 53.2579ZM103.807 60.5H97.5373V61.5H103.807V60.5ZM98.0373 61V44.59H97.0373V61H98.0373ZM119.363 44.59V44.09H118.863V44.59H119.363ZM126.113 44.59H126.613V44.09H126.113V44.59ZM126.113 50.35H125.613V50.85H126.113V50.35ZM130.733 50.35V50.85H131.233V50.35H130.733ZM130.733 44.59V44.09H130.233V44.59H130.733ZM137.483 44.59H137.983V44.09H137.483V44.59ZM137.483 61V61.5H137.983V61H137.483ZM130.733 61H130.233V61.5H130.733V61ZM130.733 55.66H131.233V55.16H130.733V55.66ZM126.113 55.66V55.16H125.613V55.66H126.113ZM126.113 61V61.5H126.613V61H126.113ZM119.363 61H118.863V61.5H119.363V61ZM119.363 45.09H126.113V44.09H119.363V45.09ZM125.613 44.59V50.35H126.613V44.59H125.613ZM126.113 50.85H130.733V49.85H126.113V50.85ZM131.233 50.35V44.59H130.233V50.35H131.233ZM130.733 45.09H137.483V44.09H130.733V45.09ZM136.983 44.59V61H137.983V44.59H136.983ZM137.483 60.5H130.733V61.5H137.483V60.5ZM131.233 61V55.66H130.233V61H131.233ZM130.733 55.16H126.113V56.16H130.733V55.16ZM125.613 55.66V61H126.613V55.66H125.613ZM126.113 60.5H119.363V61.5H126.113V60.5ZM119.863 61V44.59H118.863V61H119.863ZM160.312 55.69H160.812V55.19H160.312V55.69ZM160.312 64.24V64.74H160.812V64.24H160.312ZM154.042 64.24H153.542V64.74H154.042V64.24ZM154.042 61H154.542V60.5H154.042V61ZM140.662 61H140.162V61.5H140.662V61ZM140.662 44.59V44.09H140.162V44.59H140.662ZM147.412 44.59H147.912V44.09H147.412V44.59ZM147.412 55.69H146.912V56.19H147.412V55.69ZM151.372 55.69V56.19H151.872V55.69H151.372ZM151.372 44.59V44.09H150.872V44.59H151.372ZM158.122 44.59H158.622V44.09H158.122V44.59ZM158.122 55.69H157.622V56.19H158.122V55.69ZM159.812 55.69V64.24H160.812V55.69H159.812ZM160.312 63.74H154.042V64.74H160.312V63.74ZM154.542 64.24V61H153.542V64.24H154.542ZM154.042 60.5H140.662V61.5H154.042V60.5ZM141.162 61V44.59H140.162V61H141.162ZM140.662 45.09H147.412V44.09H140.662V45.09ZM146.912 44.59V55.69H147.912V44.59H146.912ZM147.412 56.19H151.372V55.19H147.412V56.19ZM151.872 55.69V44.59H150.872V55.69H151.872ZM151.372 45.09H158.122V44.09H151.372V45.09ZM157.622 44.59V55.69H158.622V44.59H157.622ZM158.122 56.19H160.312V55.19H158.122V56.19ZM162.283 44.59V44.09H161.783V44.59H162.283ZM169.033 44.59H169.533V44.09H169.033V44.59ZM169.033 52H168.533V53.4762L169.43 52.3038L169.033 52ZM174.703 44.59V44.09H174.456L174.306 44.2862L174.703 44.59ZM180.943 44.59H181.443V44.09H180.943V44.59ZM180.943 61V61.5H181.443V61H180.943ZM174.193 61H173.693V61.5H174.193V61ZM174.193 53.56H174.693V52.0728L173.795 53.2579L174.193 53.56ZM168.553 61V61.5H168.802L168.952 61.3021L168.553 61ZM162.283 61H161.783V61.5H162.283V61ZM162.283 45.09H169.033V44.09H162.283V45.09ZM168.533 44.59V52H169.533V44.59H168.533ZM169.43 52.3038L175.1 44.8938L174.306 44.2862L168.636 51.6962L169.43 52.3038ZM174.703 45.09H180.943V44.09H174.703V45.09ZM180.443 44.59V61H181.443V44.59H180.443ZM180.943 60.5H174.193V61.5H180.943V60.5ZM174.693 61V53.56H173.693V61H174.693ZM173.795 53.2579L168.155 60.6979L168.952 61.3021L174.592 53.8621L173.795 53.2579ZM168.553 60.5H162.283V61.5H168.553V60.5ZM162.783 61V44.59H161.783V61H162.783ZM201.72 44.59H202.22V44.09H201.72V44.59ZM201.72 61V61.5H202.22V61H201.72ZM194.97 61H194.47V61.5H194.97V61ZM194.97 49.87H195.47V49.37H194.97V49.87ZM190.86 49.87V49.37H190.36V49.87H190.86ZM190.86 61V61.5H191.36V61H190.86ZM184.11 61H183.61V61.5H184.11V61ZM184.11 44.59V44.09H183.61V44.59H184.11ZM201.22 44.59V61H202.22V44.59H201.22ZM201.72 60.5H194.97V61.5H201.72V60.5ZM195.47 61V49.87H194.47V61H195.47ZM194.97 49.37H190.86V50.37H194.97V49.37ZM190.36 49.87V61H191.36V49.87H190.36ZM190.86 60.5H184.11V61.5H190.86V60.5ZM184.61 61V44.59H183.61V61H184.61ZM184.11 45.09H201.72V44.09H184.11V45.09ZM219.94 50.98L219.608 51.3538L219.615 51.3601L219.94 50.98ZM219.67 59.44L219.986 59.8281L219.989 59.8251L219.67 59.44ZM204.91 61H204.41V61.5H204.91V61ZM204.91 44.59V44.09H204.41V44.59H204.91ZM211.66 44.59H212.16V44.09H211.66V44.59ZM211.66 49.54H211.16V50.04H211.66V49.54ZM222.58 44.59V44.09H222.08V44.59H222.58ZM229.33 44.59H229.83V44.09H229.33V44.59ZM229.33 61V61.5H229.83V61H229.33ZM222.58 61H222.08V61.5H222.58V61ZM211.66 53.5V53H211.16V53.5H211.66ZM211.66 56.44H211.16V56.94H211.66V56.44ZM215.05 50.04C217.168 50.04 218.656 50.5078 219.608 51.3537L220.272 50.6063C219.064 49.5322 217.292 49.04 215.05 49.04V50.04ZM219.615 51.3601C220.579 52.1836 221.09 53.3895 221.09 55.06H222.09C222.09 53.1705 221.501 51.6564 220.265 50.5999L219.615 51.3601ZM221.09 55.06C221.09 56.7911 220.502 58.102 219.351 59.0549L219.989 59.8251C221.398 58.658 222.09 57.0489 222.09 55.06H221.09ZM219.355 59.0519C218.196 59.994 216.504 60.5 214.21 60.5V61.5C216.637 61.5 218.585 60.966 219.986 59.8281L219.355 59.0519ZM214.21 60.5H204.91V61.5H214.21V60.5ZM205.41 61V44.59H204.41V61H205.41ZM204.91 45.09H211.66V44.09H204.91V45.09ZM211.16 44.59V49.54H212.16V44.59H211.16ZM211.66 50.04H215.05V49.04H211.66V50.04ZM222.58 45.09H229.33V44.09H222.58V45.09ZM228.83 44.59V61H229.83V44.59H228.83ZM229.33 60.5H222.58V61.5H229.33V60.5ZM223.08 61V44.59H222.08V61H223.08ZM213.52 56.94C214.09 56.94 214.608 56.794 214.98 56.415C215.35 56.0378 215.49 55.5146 215.49 54.94H214.49C214.49 55.3654 214.386 55.5922 214.266 55.715C214.147 55.836 213.931 55.94 213.52 55.94V56.94ZM215.49 54.94C215.49 54.3803 215.347 53.8693 214.973 53.5028C214.601 53.1383 214.085 53 213.52 53V54C213.936 54 214.155 54.1017 214.273 54.2172C214.389 54.3307 214.49 54.5397 214.49 54.94H215.49ZM213.52 53H211.66V54H213.52V53ZM211.16 53.5V56.44H212.16V53.5H211.16ZM211.66 56.94H213.52V55.94H211.66V56.94Z" fill="white"/>
</svg>
