<svg width="750" height="49" viewBox="0 0 750 49" fill="none" xmlns="http://www.w3.org/2000/svg">
<path d="M37.7948 4.4L38.236 4.63525L38.628 3.9H37.7948V4.4ZM24.3068 29.696L23.8656 29.4608L23.8653 29.4612L24.3068 29.696ZM18.4028 36.56L18.1241 36.1448L18.1214 36.1466L18.4028 36.56ZM4.24275 37.568L3.76703 37.4141L3.6239 37.8565L4.05474 38.0313L4.24275 37.568ZM6.88275 29.408L7.01431 28.9256L6.55392 28.8001L6.40703 29.2541L6.88275 29.408ZM12.4508 29.552L12.2367 29.1L12.2271 29.1048L12.4508 29.552ZM14.1788 28.112L14.5674 28.4266L14.7775 28.1671L14.6182 27.8736L14.1788 28.112ZM1.31475 4.4V3.9H0.474655L0.875259 4.63843L1.31475 4.4ZM13.2668 4.4L13.7191 4.18688L13.5839 3.9H13.2668V4.4ZM19.9388 18.56L19.4864 18.7731L19.9308 19.7161L20.3881 18.7793L19.9388 18.56ZM26.8508 4.4V3.9H26.5384L26.4014 4.18067L26.8508 4.4ZM37.3535 4.16475L23.8656 29.4608L24.748 29.9313L38.236 4.63525L37.3535 4.16475ZM23.8653 29.4612C22.2958 32.4118 20.3788 34.6314 18.1241 36.1449L18.6814 36.9751C21.0987 35.3526 23.1177 32.9962 24.7482 29.9308L23.8653 29.4612ZM18.1214 36.1466C15.9003 37.6583 13.4543 38.412 10.7708 38.412V39.412C13.6552 39.412 16.2972 38.5977 18.6841 36.9734L18.1214 36.1466ZM10.7708 38.412C8.69801 38.412 6.58569 37.9792 4.43076 37.1047L4.05474 38.0313C6.31581 38.9488 8.55549 39.412 10.7708 39.412V38.412ZM4.71847 37.7219L7.35847 29.5619L6.40703 29.2541L3.76703 37.4141L4.71847 37.7219ZM6.75119 29.8904C8.17881 30.2797 9.37935 30.484 10.3388 30.484V29.484C9.50615 29.484 8.40269 29.3043 7.01431 28.9256L6.75119 29.8904ZM10.3388 30.484C11.2265 30.484 12.0117 30.3305 12.6744 29.9992L12.2271 29.1048C11.7378 29.3494 11.115 29.484 10.3388 29.484V30.484ZM12.6648 30.0039C13.357 29.676 13.9892 29.1408 14.5674 28.4266L13.7901 27.7974C13.2803 28.4272 12.7605 28.852 12.2367 29.1001L12.6648 30.0039ZM14.6182 27.8736L1.75424 4.16157L0.875259 4.63843L13.7393 28.3504L14.6182 27.8736ZM1.31475 4.9H13.2668V3.9H1.31475V4.9ZM12.8144 4.61312L19.4864 18.7731L20.3911 18.3469L13.7191 4.18688L12.8144 4.61312ZM20.3881 18.7793L27.3001 4.61933L26.4014 4.18067L19.4894 18.3407L20.3881 18.7793ZM26.8508 4.9H37.7948V3.9H26.8508V4.9ZM54.8096 11.744V11.244H54.3096V11.744H54.8096ZM65.6096 11.744H66.1096V11.244H65.6096V11.744ZM65.6096 20.96H65.1096V21.46H65.6096V20.96ZM73.0016 20.96V21.46H73.5016V20.96H73.0016ZM73.0016 11.744V11.244H72.5016V11.744H73.0016ZM83.8016 11.744H84.3016V11.244H83.8016V11.744ZM83.8016 38V38.5H84.3016V38H83.8016ZM73.0016 38H72.5016V38.5H73.0016V38ZM73.0016 29.456H73.5016V28.956H73.0016V29.456ZM65.6096 29.456V28.956H65.1096V29.456H65.6096ZM65.6096 38V38.5H66.1096V38H65.6096ZM54.8096 38H54.3096V38.5H54.8096V38ZM54.8096 12.244H65.6096V11.244H54.8096V12.244ZM65.1096 11.744V20.96H66.1096V11.744H65.1096ZM65.6096 21.46H73.0016V20.46H65.6096V21.46ZM73.5016 20.96V11.744H72.5016V20.96H73.5016ZM73.0016 12.244H83.8016V11.244H73.0016V12.244ZM83.3016 11.744V38H84.3016V11.744H83.3016ZM83.8016 37.5H73.0016V38.5H83.8016V37.5ZM73.5016 38V29.456H72.5016V38H73.5016ZM73.0016 28.956H65.6096V29.956H73.0016V28.956ZM65.1096 29.456V38H66.1096V29.456H65.1096ZM65.6096 37.5H54.8096V38.5H65.6096V37.5ZM55.3096 38V11.744H54.3096V38H55.3096ZM110.632 14.384L110.307 14.764L110.31 14.7665L110.632 14.384ZM114.28 38V38.5H114.78V38H114.28ZM104.2 38H103.7V38.5H104.2V38ZM104.2 34.544H104.7L103.748 34.3292L104.2 34.544ZM91.4317 37.424L91.2041 37.8694L91.216 37.8751L91.4317 37.424ZM88.1198 34.496L87.6891 34.75L87.6929 34.7566L87.697 34.763L88.1198 34.496ZM89.9918 24.416L89.7113 24.002L89.9918 24.416ZM103.384 22.4V22.9H103.977L103.877 22.3153L103.384 22.4ZM94.8398 19.904L94.9788 20.3844L94.9903 20.3808L94.8398 19.904ZM91.7197 21.392L91.2696 21.6095L91.5322 22.1531L92.0174 21.7938L91.7197 21.392ZM88.2637 14.24L88.0012 13.8145L87.6173 14.0514L87.8136 14.4575L88.2637 14.24ZM93.6878 12.08L93.8056 12.566L93.8107 12.5646L93.6878 12.08ZM102.088 31.328L101.805 30.9153L102.088 31.328ZM103.432 29.456L103.904 29.6196L103.932 29.5401V29.456H103.432ZM103.432 27.632H103.932V27.132H103.432V27.632ZM98.1038 31.376L97.7635 31.7424L97.777 31.7549L97.7914 31.7664L98.1038 31.376ZM100.072 11.764C104.612 11.764 107.998 12.7894 110.307 14.764L110.957 14.004C108.402 11.8186 104.747 10.764 100.072 10.764V11.764ZM110.31 14.7665C112.593 16.6892 113.78 19.6931 113.78 23.888H114.78C114.78 19.5069 113.535 16.1748 110.954 14.0015L110.31 14.7665ZM113.78 23.888V38H114.78V23.888H113.78ZM114.28 37.5H104.2V38.5H114.28V37.5ZM104.7 38V34.544H103.7V38H104.7ZM103.748 34.3292C102.607 36.7277 100.343 37.98 96.7598 37.98V38.98C100.6 38.98 103.296 37.6083 104.651 34.7588L103.748 34.3292ZM96.7598 37.98C94.7346 37.98 93.0363 37.6371 91.6475 36.9729L91.216 37.8751C92.7712 38.6189 94.6249 38.98 96.7598 38.98V37.98ZM91.6593 36.9788C90.289 36.2784 89.2568 35.3601 88.5425 34.229L87.697 34.763C88.5187 36.0639 89.6945 37.0976 91.2042 37.8692L91.6593 36.9788ZM88.5504 34.242C87.8626 33.0756 87.5157 31.7723 87.5157 30.32H86.5157C86.5157 31.9398 86.9049 33.4204 87.6891 34.75L88.5504 34.242ZM87.5157 30.32C87.5157 27.8779 88.4382 26.0723 90.2722 24.83L89.7113 24.002C87.5773 25.4477 86.5157 27.5781 86.5157 30.32H87.5157ZM90.2722 24.83C92.1342 23.5686 95.0226 22.9 99.0157 22.9V21.9C94.9449 21.9 91.8173 22.5754 89.7113 24.002L90.2722 24.83ZM99.0157 22.9H103.384V21.9H99.0157V22.9ZM103.877 22.3153C103.678 21.1618 103.102 20.2646 102.148 19.6713C101.213 19.0909 99.9603 18.828 98.4398 18.828V19.828C99.8632 19.828 100.906 20.0771 101.62 20.5207C102.313 20.9514 102.737 21.5902 102.891 22.4847L103.877 22.3153ZM98.4398 18.828C97.2009 18.828 95.9501 19.029 94.6892 19.4272L94.9903 20.3808C96.1614 20.011 97.3106 19.828 98.4398 19.828V18.828ZM94.7007 19.4237C93.4375 19.7894 92.3416 20.3092 91.4221 20.9902L92.0174 21.7938C92.8259 21.1948 93.81 20.7226 94.9788 20.3843L94.7007 19.4237ZM92.1699 21.1745L88.7139 14.0225L87.8136 14.4575L91.2696 21.6095L92.1699 21.1745ZM88.5263 14.6655C89.9766 13.7706 91.7334 13.0683 93.8055 12.5659L93.57 11.5941C91.4181 12.1157 89.5589 12.8534 88.0012 13.8145L88.5263 14.6655ZM93.8107 12.5646C95.9164 12.0304 98.0031 11.764 100.072 11.764V10.764C97.9164 10.764 95.7471 11.0416 93.5648 11.5954L93.8107 12.5646ZM100.024 32.452C100.888 32.452 101.675 32.2161 102.37 31.7407L101.805 30.9153C101.284 31.2719 100.696 31.452 100.024 31.452V32.452ZM102.37 31.7407C103.083 31.253 103.588 30.5325 103.904 29.6196L102.959 29.2924C102.699 30.0435 102.309 30.571 101.805 30.9153L102.37 31.7407ZM103.932 29.456V27.632H102.932V29.456H103.932ZM103.432 27.132H100.744V28.132H103.432V27.132ZM100.744 27.132C99.6 27.132 98.6547 27.3198 97.9824 27.768C97.2743 28.24 96.9317 28.9583 96.9317 29.84H97.9317C97.9317 29.2497 98.1412 28.864 98.5371 28.6C98.9688 28.3122 99.6795 28.132 100.744 28.132V27.132ZM96.9317 29.84C96.9317 30.5879 97.2143 31.2324 97.7635 31.7424L98.444 31.0096C98.0972 30.6876 97.9317 30.3081 97.9317 29.84H96.9317ZM97.7914 31.7664C98.3837 32.2403 99.1448 32.452 100.024 32.452V31.452C99.3027 31.452 98.7838 31.2797 98.4161 30.9856L97.7914 31.7664ZM124.46 36.752L124.239 37.2004L124.242 37.2016L124.46 36.752ZM118.94 31.904L118.517 32.1708L118.52 32.1754L118.94 31.904ZM118.94 17.84L118.52 17.5686L118.519 17.5703L118.94 17.84ZM124.46 12.992L124.242 12.5424L124.239 12.5436L124.46 12.992ZM140.684 13.328L140.425 13.7557L140.684 13.328ZM145.388 19.04L145.609 19.4887L146.008 19.2923L145.859 18.8726L145.388 19.04ZM136.988 23.168L136.531 23.3711L136.742 23.8459L137.209 23.6167L136.988 23.168ZM129.212 21.056L128.852 20.7089L128.846 20.7158L129.212 21.056ZM129.212 28.688L128.846 29.0283L128.852 29.0351L129.212 28.688ZM136.988 26.576L137.209 26.1273L136.742 25.8981L136.531 26.3729L136.988 26.576ZM145.388 30.704L145.859 30.8714L146.008 30.4517L145.609 30.2553L145.388 30.704ZM140.684 36.416L140.943 36.8437L140.684 36.416ZM132.476 37.98C129.566 37.98 126.97 37.4171 124.679 36.3024L124.242 37.2016C126.686 38.3909 129.434 38.98 132.476 38.98V37.98ZM124.681 36.3036C122.422 35.1894 120.653 33.6327 119.36 31.6326L118.52 32.1754C119.916 34.3353 121.826 36.0106 124.239 37.2004L124.681 36.3036ZM119.363 31.6372C118.105 29.6425 117.472 27.3842 117.472 24.848H116.472C116.472 27.5598 117.152 30.0055 118.517 32.1707L119.363 31.6372ZM117.472 24.848C117.472 22.3117 118.105 20.0708 119.361 18.1097L118.519 17.5703C117.152 19.7052 116.472 22.1363 116.472 24.848H117.472ZM119.36 18.1114C120.653 16.1113 122.422 14.5546 124.681 13.4404L124.239 12.5436C121.826 13.7334 119.916 15.4087 118.52 17.5686L119.36 18.1114ZM124.679 13.4416C126.97 12.3269 129.566 11.764 132.476 11.764V10.764C129.434 10.764 126.686 11.3531 124.242 12.5424L124.679 13.4416ZM132.476 11.764C135.604 11.764 138.246 12.4359 140.425 13.7557L140.943 12.9003C138.579 11.4681 135.749 10.764 132.476 10.764V11.764ZM140.425 13.7557C142.602 15.0739 144.093 16.8874 144.917 19.2074L145.859 18.8726C144.956 16.3286 143.311 14.3341 140.943 12.9003L140.425 13.7557ZM145.168 18.5913L136.768 22.7193L137.209 23.6167L145.609 19.4887L145.168 18.5913ZM137.445 22.9649C136.91 21.7598 136.228 20.8183 135.382 20.1775C134.53 19.5317 133.539 19.212 132.428 19.212V20.212C133.334 20.212 134.11 20.4683 134.778 20.9745C135.453 21.4857 136.043 22.2722 136.531 23.3711L137.445 22.9649ZM132.428 19.212C131.017 19.212 129.814 19.7121 128.852 20.7089L129.572 21.4031C130.339 20.6079 131.28 20.212 132.428 20.212V19.212ZM128.846 20.7158C127.903 21.7316 127.464 23.1329 127.464 24.848H128.464C128.464 23.2991 128.858 22.1724 129.579 21.3962L128.846 20.7158ZM127.464 24.848C127.464 26.592 127.901 28.0107 128.846 29.0282L129.579 28.3478C128.859 27.5733 128.464 26.432 128.464 24.848H127.464ZM128.852 29.0351C129.814 30.0319 131.017 30.532 132.428 30.532V29.532C131.28 29.532 130.339 29.1361 129.572 28.3409L128.852 29.0351ZM132.428 30.532C133.539 30.532 134.53 30.2123 135.382 29.5665C136.228 28.9257 136.91 27.9842 137.445 26.7791L136.531 26.3729C136.043 27.4718 135.453 28.2583 134.778 28.7695C134.11 29.2757 133.334 29.532 132.428 29.532V30.532ZM136.768 27.0247L145.168 31.1527L145.609 30.2553L137.209 26.1273L136.768 27.0247ZM144.917 30.5366C144.093 32.8566 142.602 34.6701 140.425 35.9883L140.943 36.8437C143.311 35.4099 144.956 33.4154 145.859 30.8714L144.917 30.5366ZM140.425 35.9883C138.246 37.3081 135.604 37.98 132.476 37.98V38.98C135.749 38.98 138.579 38.2759 140.943 36.8437L140.425 35.9883ZM195.403 29.504H195.903V29.004H195.403V29.504ZM195.403 43.184V43.684H195.903V43.184H195.403ZM185.371 43.184H184.871V43.684H185.371V43.184ZM185.371 38H185.871V37.5H185.371V38ZM170.875 38V37.5H170.375V38H170.875ZM170.875 43.184V43.684H171.375V43.184H170.875ZM160.843 43.184H160.343V43.684H160.843V43.184ZM160.843 29.504V29.004H160.343V29.504H160.843ZM164.827 27.344L165.287 27.5385L165.289 27.5349L164.827 27.344ZM165.883 21.008L165.383 20.9899L165.383 20.9906L165.883 21.008ZM166.219 11.744V11.244H165.737L165.719 11.7259L166.219 11.744ZM191.899 11.744H192.399V11.244H191.899V11.744ZM191.899 29.504H191.399V30.004H191.899V29.504ZM175.627 21.824L176.126 21.8399L176.127 21.8387L175.627 21.824ZM175.195 26.624L174.703 26.531L174.702 26.5418L175.195 26.624ZM173.995 29.504L173.603 29.1936L172.961 30.004H173.995V29.504ZM181.099 29.504V30.004H181.599V29.504H181.099ZM181.099 20.192H181.599V19.692H181.099V20.192ZM175.675 20.192V19.692H175.189L175.175 20.1773L175.675 20.192ZM194.903 29.504V43.184H195.903V29.504H194.903ZM195.403 42.684H185.371V43.684H195.403V42.684ZM185.871 43.184V38H184.871V43.184H185.871ZM185.371 37.5H170.875V38.5H185.371V37.5ZM170.375 38V43.184H171.375V38H170.375ZM170.875 42.684H160.843V43.684H170.875V42.684ZM161.343 43.184V29.504H160.343V43.184H161.343ZM160.843 30.004H161.611V29.004H160.843V30.004ZM161.611 30.004C162.459 30.004 163.213 29.8042 163.846 29.3791C164.478 28.9543 164.954 28.3291 165.287 27.5385L164.366 27.1495C164.092 27.7989 163.728 28.2537 163.288 28.5489C162.849 28.8438 162.299 29.004 161.611 29.004V30.004ZM165.289 27.5349C165.93 25.9817 166.286 23.8001 166.382 21.0254L165.383 20.9906C165.288 23.7199 164.939 25.7623 164.365 27.1531L165.289 27.5349ZM166.382 21.0261L166.718 11.7621L165.719 11.7259L165.383 20.9899L166.382 21.0261ZM166.219 12.244H191.899V11.244H166.219V12.244ZM191.399 11.744V29.504H192.399V11.744H191.399ZM191.899 30.004H195.403V29.004H191.899V30.004ZM175.127 21.8081C175.063 23.813 174.921 25.3837 174.703 26.5311L175.686 26.7169C175.917 25.4963 176.062 23.867 176.126 21.8399L175.127 21.8081ZM174.702 26.5418C174.521 27.6264 174.149 28.5036 173.603 29.1936L174.387 29.8144C175.056 28.9684 175.485 27.9256 175.688 26.7062L174.702 26.5418ZM173.995 30.004H181.099V29.004H173.995V30.004ZM181.599 29.504V20.192H180.599V29.504H181.599ZM181.099 19.692H175.675V20.692H181.099V19.692ZM175.175 20.1773L175.127 21.8093L176.127 21.8387L176.175 20.2067L175.175 20.1773ZM226.031 27.392V27.892H226.501L226.53 27.4232L226.031 27.392ZM207.791 27.392V26.892H207.062L207.325 27.5725L207.791 27.392ZM209.711 29.696L209.452 30.1235L209.463 30.1301L209.711 29.696ZM215.951 30.032L215.782 29.5615L215.776 29.5638L215.951 30.032ZM218.543 28.544L218.898 28.1919L218.59 27.881L218.241 28.1457L218.543 28.544ZM224.207 34.256L224.577 34.5923L224.897 34.2411L224.562 33.9039L224.207 34.256ZM204.383 36.752L204.162 37.2004L204.167 37.2028L204.383 36.752ZM198.815 31.856L199.238 31.5892L198.815 31.856ZM198.767 17.84L198.344 17.5732L198.343 17.575L198.767 17.84ZM204.095 12.992L203.869 12.546L203.867 12.5474L204.095 12.992ZM218.975 12.848L218.757 13.2978L218.76 13.2991L218.975 12.848ZM224.207 17.504L223.783 17.769L223.786 17.7737L224.207 17.504ZM209.039 19.568L209.358 19.9535V19.9535L209.039 19.568ZM207.599 22.16L207.109 22.0619L206.989 22.66H207.599V22.16ZM216.047 22.16V22.66H216.661L216.537 22.0592L216.047 22.16ZM214.607 19.616L214.279 19.9934L214.289 20.0015L214.607 19.616ZM225.675 24.848C225.675 24.9876 225.629 25.8115 225.532 27.3608L226.53 27.4232C226.625 25.9005 226.675 25.0284 226.675 24.848H225.675ZM226.031 26.892H207.791V27.892H226.031V26.892ZM207.325 27.5725C207.748 28.6657 208.46 29.5212 209.452 30.1234L209.971 29.2686C209.171 28.7828 208.602 28.1023 208.258 27.2115L207.325 27.5725ZM209.463 30.1301C210.454 30.6964 211.666 30.964 213.071 30.964V29.964C211.789 29.964 210.76 29.7196 209.959 29.2619L209.463 30.1301ZM213.071 30.964C214.261 30.964 215.285 30.8159 216.127 30.5002L215.776 29.5638C215.082 29.8241 214.186 29.964 213.071 29.964V30.964ZM216.121 30.5024C216.982 30.1923 217.891 29.6665 218.845 28.9423L218.241 28.1457C217.34 28.8295 216.52 29.2957 215.782 29.5616L216.121 30.5024ZM218.188 28.8961L223.852 34.6081L224.562 33.9039L218.898 28.1919L218.188 28.8961ZM223.837 33.9197C221.401 36.5996 217.732 37.98 212.735 37.98V38.98C217.914 38.98 221.893 37.5444 224.577 34.5923L223.837 33.9197ZM212.735 37.98C209.628 37.98 206.92 37.4152 204.6 36.3012L204.167 37.2028C206.646 38.3928 209.506 38.98 212.735 38.98V37.98ZM204.604 36.3036C202.28 35.1567 200.497 33.5844 199.238 31.5892L198.392 32.1228C199.758 34.2876 201.687 35.9793 204.162 37.2004L204.604 36.3036ZM199.238 31.5892C197.979 29.5935 197.347 27.3509 197.347 24.848H196.347C196.347 27.5291 197.027 29.9585 198.392 32.1228L199.238 31.5892ZM197.347 24.848C197.347 22.3093 197.965 20.0667 199.191 18.105L198.343 17.575C197.009 19.7093 196.347 22.1387 196.347 24.848H197.347ZM199.19 18.1068C200.453 16.1042 202.161 14.5488 204.324 13.4366L203.867 12.5474C201.549 13.7392 199.705 15.4158 198.344 17.5732L199.19 18.1068ZM204.321 13.4379C206.516 12.3251 208.981 11.764 211.727 11.764V10.764C208.841 10.764 206.218 11.3549 203.869 12.546L204.321 13.4379ZM211.727 11.764C214.315 11.764 216.655 12.278 218.757 13.2978L219.194 12.3982C216.943 11.306 214.451 10.764 211.727 10.764V11.764ZM218.76 13.2991C220.883 14.3147 222.554 15.8027 223.783 17.769L224.631 17.239C223.3 15.1093 221.483 13.4933 219.191 12.3969L218.76 13.2991ZM223.786 17.7737C225.038 19.7283 225.675 22.079 225.675 24.848H226.675C226.675 21.921 226 19.3757 224.628 17.2343L223.786 17.7737ZM211.823 18.156C210.608 18.156 209.561 18.4881 208.721 19.1825L209.358 19.9535C209.989 19.4319 210.798 19.156 211.823 19.156V18.156ZM208.721 19.1825C207.88 19.8774 207.351 20.8523 207.109 22.0619L208.09 22.2581C208.296 21.2277 208.727 20.4746 209.358 19.9535L208.721 19.1825ZM207.599 22.66H216.047V21.66H207.599V22.66ZM216.537 22.0592C216.294 20.8787 215.764 19.9226 214.926 19.2305L214.289 20.0015C214.923 20.5254 215.353 21.2653 215.558 22.2608L216.537 22.0592ZM214.935 19.2387C214.095 18.5079 213.045 18.156 211.823 18.156V19.156C212.842 19.156 213.648 19.4441 214.279 19.9933L214.935 19.2387ZM230.075 11.744V11.244H229.575V11.744H230.075ZM240.875 11.744H241.375V11.244H240.875V11.744ZM240.875 23.6H240.375V25.0762L241.272 23.9038L240.875 23.6ZM249.947 11.744V11.244H249.7L249.55 11.4402L249.947 11.744ZM259.931 11.744H260.431V11.244H259.931V11.744ZM259.931 38V38.5H260.431V38H259.931ZM249.131 38H248.631V38.5H249.131V38ZM249.131 26.096H249.631V24.6088L248.733 25.7939L249.131 26.096ZM240.107 38V38.5H240.356L240.506 38.3021L240.107 38ZM230.075 38H229.575V38.5H230.075V38ZM236.987 7.568L236.654 7.94044L236.658 7.94429L236.987 7.568ZM234.683 1.184V0.683999H234.183V1.184H234.683ZM241.643 1.184H242.143V0.683999H241.643V1.184ZM242.171 3.584L241.751 3.85563L241.761 3.87016L241.771 3.884L242.171 3.584ZM246.923 1.184V0.683999H246.423V1.184H246.923ZM253.979 1.184H254.479V0.683999H253.979V1.184ZM251.627 7.568L251.956 7.94429L251.957 7.94381L251.627 7.568ZM230.075 12.244H240.875V11.244H230.075V12.244ZM240.375 11.744V23.6H241.375V11.744H240.375ZM241.272 23.9038L250.344 12.0478L249.55 11.4402L240.478 23.2962L241.272 23.9038ZM249.947 12.244H259.931V11.244H249.947V12.244ZM259.431 11.744V38H260.431V11.744H259.431ZM259.931 37.5H249.131V38.5H259.931V37.5ZM249.631 38V26.096H248.631V38H249.631ZM248.733 25.7939L239.709 37.6979L240.506 38.3021L249.53 26.3981L248.733 25.7939ZM240.107 37.5H230.075V38.5H240.107V37.5ZM230.575 38V11.744H229.575V38H230.575ZM244.283 9.084C241.005 9.084 238.719 8.41892 237.316 7.19171L236.658 7.94429C238.327 9.40508 240.906 10.084 244.283 10.084V9.084ZM237.321 7.19558C235.928 5.94738 235.183 3.98013 235.183 1.184H234.183C234.183 4.14787 234.975 6.43662 236.654 7.94042L237.321 7.19558ZM234.683 1.684H241.643V0.683999H234.683V1.684ZM241.143 1.184C241.143 2.28148 241.324 3.19446 241.751 3.85563L242.591 3.31237C242.315 2.88554 242.143 2.19852 242.143 1.184H241.143ZM241.771 3.884C242.292 4.57896 243.174 4.852 244.235 4.852V3.852C243.312 3.852 242.818 3.61304 242.571 3.284L241.771 3.884ZM244.235 4.852C245.232 4.852 246.063 4.5545 246.633 3.88349C247.189 3.2282 247.423 2.29884 247.423 1.184H246.423C246.423 2.18116 246.21 2.83579 245.87 3.23651C245.543 3.62149 245.031 3.852 244.235 3.852V4.852ZM246.923 1.684H253.979V0.683999H246.923V1.684ZM253.479 1.184C253.479 3.97713 252.721 5.94319 251.297 7.19219L251.957 7.94381C253.67 6.4408 254.479 4.15086 254.479 1.184H253.479ZM251.298 7.19171C249.896 8.41833 247.595 9.084 244.283 9.084V10.084C247.691 10.084 250.286 9.40567 251.956 7.94429L251.298 7.19171ZM270.757 36.752L270.536 37.2004L270.538 37.2016L270.757 36.752ZM265.237 31.904L264.814 32.1708L264.817 32.1754L265.237 31.904ZM265.237 17.84L264.817 17.5686L264.816 17.5703L265.237 17.84ZM270.757 12.992L270.538 12.5424L270.536 12.5436L270.757 12.992ZM286.981 13.328L286.722 13.7557L286.981 13.328ZM291.685 19.04L291.906 19.4887L292.305 19.2923L292.156 18.8726L291.685 19.04ZM283.285 23.168L282.828 23.3711L283.039 23.8459L283.506 23.6167L283.285 23.168ZM275.509 21.056L275.149 20.7089L275.143 20.7158L275.509 21.056ZM275.509 28.688L275.143 29.0283L275.149 29.0351L275.509 28.688ZM283.285 26.576L283.506 26.1273L283.039 25.8981L282.828 26.3729L283.285 26.576ZM291.685 30.704L292.156 30.8714L292.305 30.4517L291.906 30.2553L291.685 30.704ZM286.981 36.416L287.24 36.8437L286.981 36.416ZM278.773 37.98C275.863 37.98 273.267 37.4171 270.976 36.3024L270.538 37.2016C272.983 38.3909 275.731 38.98 278.773 38.98V37.98ZM270.978 36.3036C268.719 35.1894 266.949 33.6327 265.657 31.6326L264.817 32.1754C266.213 34.3353 268.123 36.0106 270.536 37.2004L270.978 36.3036ZM265.66 31.6372C264.402 29.6425 263.769 27.3842 263.769 24.848H262.769C262.769 27.5598 263.448 30.0055 264.814 32.1707L265.66 31.6372ZM263.769 24.848C263.769 22.3117 264.402 20.0708 265.658 18.1097L264.816 17.5703C263.448 19.7052 262.769 22.1363 262.769 24.848H263.769ZM265.657 18.1114C266.949 16.1113 268.719 14.5546 270.978 13.4404L270.536 12.5436C268.123 13.7334 266.213 15.4087 264.817 17.5686L265.657 18.1114ZM270.976 13.4416C273.267 12.3269 275.863 11.764 278.773 11.764V10.764C275.731 10.764 272.983 11.3531 270.538 12.5424L270.976 13.4416ZM278.773 11.764C281.901 11.764 284.543 12.4359 286.722 13.7557L287.24 12.9003C284.875 11.4681 282.046 10.764 278.773 10.764V11.764ZM286.722 13.7557C288.899 15.0739 290.39 16.8874 291.214 19.2074L292.156 18.8726C291.252 16.3286 289.608 14.3341 287.24 12.9003L286.722 13.7557ZM291.465 18.5913L283.065 22.7193L283.506 23.6167L291.906 19.4887L291.465 18.5913ZM283.742 22.9649C283.206 21.7598 282.525 20.8183 281.679 20.1775C280.827 19.5317 279.836 19.212 278.725 19.212V20.212C279.631 20.212 280.407 20.4683 281.075 20.9745C281.75 21.4857 282.34 22.2722 282.828 23.3711L283.742 22.9649ZM278.725 19.212C277.314 19.212 276.11 19.7121 275.149 20.7089L275.869 21.4031C276.636 20.6079 277.577 20.212 278.725 20.212V19.212ZM275.143 20.7158C274.199 21.7316 273.761 23.1329 273.761 24.848H274.761C274.761 23.2991 275.155 22.1724 275.876 21.3962L275.143 20.7158ZM273.761 24.848C273.761 26.592 274.198 28.0107 275.143 29.0282L275.876 28.3478C275.156 27.5733 274.761 26.432 274.761 24.848H273.761ZM275.149 29.0351C276.11 30.0319 277.314 30.532 278.725 30.532V29.532C277.577 29.532 276.636 29.1361 275.869 28.3409L275.149 29.0351ZM278.725 30.532C279.836 30.532 280.827 30.2123 281.679 29.5665C282.525 28.9257 283.206 27.9842 283.742 26.7791L282.828 26.3729C282.34 27.4718 281.75 28.2583 281.075 28.7695C280.407 29.2757 279.631 29.532 278.725 29.532V30.532ZM283.065 27.0247L291.465 31.1527L291.906 30.2553L283.506 26.1273L283.065 27.0247ZM291.214 30.5366C290.39 32.8566 288.899 34.6701 286.722 35.9883L287.24 36.8437C289.608 35.4099 291.252 33.4154 292.156 30.8714L291.214 30.5366ZM286.722 35.9883C284.543 37.3081 281.901 37.98 278.773 37.98V38.98C282.046 38.98 284.875 38.2759 287.24 36.8437L286.722 35.9883ZM319.767 20.192V20.692H320.267V20.192H319.767ZM311.751 20.192V19.692H311.251V20.192H311.751ZM311.751 38V38.5H312.251V38H311.751ZM300.951 38H300.451V38.5H300.951V38ZM300.951 20.192H301.451V19.692H300.951V20.192ZM292.935 20.192H292.435V20.692H292.935V20.192ZM292.935 11.744V11.244H292.435V11.744H292.935ZM319.767 11.744H320.267V11.244H319.767V11.744ZM319.767 19.692H311.751V20.692H319.767V19.692ZM311.251 20.192V38H312.251V20.192H311.251ZM311.751 37.5H300.951V38.5H311.751V37.5ZM301.451 38V20.192H300.451V38H301.451ZM300.951 19.692H292.935V20.692H300.951V19.692ZM293.435 20.192V11.744H292.435V20.192H293.435ZM292.935 12.244H319.767V11.244H292.935V12.244ZM319.267 11.744V20.192H320.267V11.744H319.267ZM345.208 24.224L344.974 23.7818L343.993 24.2997L345.031 24.6917L345.208 24.224ZM346.696 35.984L346.986 36.3914L346.99 36.3881L346.696 35.984ZM322.888 38H322.388V38.5H322.888V38ZM322.888 11.744V11.244H322.388V11.744H322.888ZM345.832 13.568L345.567 13.9924L345.572 13.9955L345.832 13.568ZM332.392 22.112H331.892V22.612H332.392V22.112ZM338.44 18.896L338.123 19.283L338.131 19.2897L338.14 19.296L338.44 18.896ZM332.392 18.464V17.964H331.892V18.464H332.392ZM332.392 27.44V26.94H331.892V27.44H332.392ZM332.392 31.28H331.892V31.78H332.392V31.28ZM345.031 24.6917C346.4 25.2089 347.39 25.9357 348.04 26.8531C348.689 27.7692 349.028 28.9149 349.028 30.32H350.028C350.028 28.7491 349.647 27.3908 348.856 26.2749C348.066 25.1603 346.895 24.3271 345.384 23.7563L345.031 24.6917ZM349.028 30.32C349.028 32.5654 348.156 34.301 346.401 35.5799L346.99 36.3881C349.012 34.915 350.028 32.8746 350.028 30.32H349.028ZM346.406 35.5767C344.638 36.8347 341.991 37.5 338.392 37.5V38.5C342.088 38.5 344.977 37.8213 346.986 36.3913L346.406 35.5767ZM338.392 37.5H322.888V38.5H338.392V37.5ZM323.388 38V11.744H322.388V38H323.388ZM322.888 12.244H337.624V11.244H322.888V12.244ZM337.624 12.244C341.096 12.244 343.726 12.8455 345.567 13.9924L346.096 13.1436C344.033 11.8585 341.191 11.244 337.624 11.244V12.244ZM345.572 13.9955C347.384 15.0943 348.26 16.617 348.26 18.608H349.26C349.26 16.247 348.184 14.4097 346.091 13.1405L345.572 13.9955ZM348.26 18.608C348.26 19.7362 347.979 20.7302 347.425 21.6045L348.27 22.1395C348.932 21.0938 349.26 19.9118 349.26 18.608H348.26ZM347.425 21.6045C346.871 22.4805 346.061 23.2085 344.974 23.7818L345.441 24.6662C346.659 24.0235 347.609 23.1835 348.27 22.1395L347.425 21.6045ZM332.392 22.612H336.664V21.612H332.392V22.612ZM336.664 22.612C337.501 22.612 338.221 22.4477 338.739 22.0352C339.279 21.6054 339.516 20.9752 339.516 20.24H338.516C338.516 20.7528 338.36 21.0586 338.116 21.2528C337.851 21.4643 337.395 21.612 336.664 21.612V22.612ZM339.516 20.24C339.516 19.521 339.283 18.9031 338.74 18.496L338.14 19.296C338.365 19.4649 338.516 19.743 338.516 20.24H339.516ZM338.756 18.509C338.266 18.1081 337.527 17.964 336.664 17.964V18.964C337.465 18.964 337.909 19.1079 338.123 19.283L338.756 18.509ZM336.664 17.964H332.392V18.964H336.664V17.964ZM331.892 18.464V22.112H332.892V18.464H331.892ZM337.432 31.78C338.273 31.78 338.997 31.6058 339.517 31.1715C340.053 30.7228 340.284 30.0708 340.284 29.312H339.284C339.284 29.8652 339.123 30.1972 338.875 30.4045C338.61 30.6262 338.158 30.78 337.432 30.78V31.78ZM340.284 29.312C340.284 28.5768 340.047 27.9466 339.507 27.5168C338.989 27.1043 338.269 26.94 337.432 26.94V27.94C338.163 27.94 338.619 28.0877 338.884 28.2992C339.128 28.4934 339.284 28.7992 339.284 29.312H340.284ZM337.432 26.94H332.392V27.94H337.432V26.94ZM331.892 27.44V31.28H332.892V27.44H331.892ZM332.392 31.78H337.432V30.78H332.392V31.78ZM382.739 11.744L383.203 11.931L383.48 11.244H382.739V11.744ZM371.939 38.528L371.476 38.341L371.475 38.3416L371.939 38.528ZM366.803 45.728L367.082 46.143L366.803 45.728ZM354.803 47.12L354.946 46.6408L354.939 46.6388L354.803 47.12ZM351.299 45.44L350.849 45.2222L350.677 45.578L350.983 45.8276L351.299 45.44ZM354.899 38L355.203 37.6028L354.716 37.2305L354.449 37.7822L354.899 38ZM356.723 39.008L356.545 39.4753L356.552 39.4779L356.723 39.008ZM361.427 38.336L361.806 38.6628L362.007 38.4293L361.889 38.1443L361.427 38.336ZM350.387 11.744V11.244H349.638L349.925 11.9357L350.387 11.744ZM361.523 11.744L361.99 11.5641L361.866 11.244H361.523V11.744ZM366.947 25.808L366.481 25.9879L366.943 27.1869L367.413 25.9907L366.947 25.808ZM372.467 11.744V11.244H372.126L372.002 11.5613L372.467 11.744ZM382.276 11.557L371.476 38.341L372.403 38.715L383.203 11.931L382.276 11.557ZM371.475 38.3416C370.119 41.7159 368.457 44.0143 366.524 45.313L367.082 46.143C369.245 44.6897 371.007 42.1881 372.403 38.7144L371.475 38.3416ZM366.524 45.313C364.575 46.623 362.165 47.292 359.267 47.292V48.292C362.322 48.292 364.936 47.585 367.082 46.143L366.524 45.313ZM359.267 47.292C357.847 47.292 356.407 47.0759 354.946 46.6408L354.661 47.5992C356.208 48.0601 357.744 48.292 359.267 48.292V47.292ZM354.939 46.6388C353.51 46.2349 352.41 45.7004 351.615 45.0524L350.983 45.8276C351.916 46.5876 353.153 47.1731 354.667 47.6012L354.939 46.6388ZM351.749 45.6578L355.349 38.2178L354.449 37.7822L350.849 45.2222L351.749 45.6578ZM354.596 38.3972C355.18 38.8439 355.83 39.2029 356.545 39.4752L356.901 38.5408C356.272 38.3011 355.707 37.9881 355.203 37.6028L354.596 38.3972ZM356.552 39.4779C357.302 39.7505 358.032 39.892 358.739 39.892V38.892C358.167 38.892 357.552 38.7775 356.894 38.5381L356.552 39.4779ZM358.739 39.892C360.026 39.892 361.078 39.5054 361.806 38.6628L361.049 38.0092C360.561 38.5746 359.821 38.892 358.739 38.892V39.892ZM361.889 38.1443L350.849 11.5523L349.925 11.9357L360.965 38.5277L361.889 38.1443ZM350.387 12.244H361.523V11.244H350.387V12.244ZM361.057 11.9239L366.481 25.9879L367.414 25.6281L361.99 11.5641L361.057 11.9239ZM367.413 25.9907L372.933 11.9267L372.002 11.5613L366.482 25.6253L367.413 25.9907ZM372.467 12.244H382.739V11.244H372.467V12.244ZM424.642 17.84L424.213 18.0973L424.218 18.105L424.642 17.84ZM424.642 31.904L424.216 31.6419L424.215 31.6438L424.642 31.904ZM419.41 36.752L419.638 37.1967L419.643 37.194L419.41 36.752ZM402.85 35.984L402.569 36.3976L402.575 36.4016L402.85 35.984ZM397.762 29.168L398.239 29.0179L398.129 28.668H397.762V29.168ZM395.938 29.168V28.668H395.438V29.168H395.938ZM395.938 38V38.5H396.438V38H395.938ZM385.138 38H384.638V38.5H385.138V38ZM385.138 11.744V11.244H384.638V11.744H385.138ZM395.938 11.744H396.438V11.244H395.938V11.744ZM395.938 20.192H395.438V20.692H395.938V20.192ZM397.858 20.192V20.692H398.213L398.33 20.3567L397.858 20.192ZM402.994 13.664L402.724 13.2431L402.721 13.2447L402.994 13.664ZM414.706 28.688L414.321 28.3692L414.319 28.3706L414.706 28.688ZM414.706 21.056L414.319 21.3734L414.326 21.3814L414.706 21.056ZM408.898 21.056L408.518 20.7305L408.511 20.7386L408.898 21.056ZM408.898 28.688L408.506 28.9987L408.512 29.0062L408.518 29.0134L408.898 28.688ZM411.826 11.764C414.572 11.764 417.02 12.3251 419.181 13.4366L419.638 12.5474C417.32 11.3549 414.712 10.764 411.826 10.764V11.764ZM419.181 13.4366C421.342 14.5478 423.015 16.1003 424.213 18.0972L425.07 17.5828C423.773 15.4197 421.958 13.7402 419.638 12.5474L419.181 13.4366ZM424.218 18.105C425.444 20.0667 426.062 22.3093 426.062 24.848H427.062C427.062 22.1387 426.4 19.7093 425.066 17.575L424.218 18.105ZM426.062 24.848C426.062 27.3866 425.444 29.6466 424.216 31.642L425.068 32.166C426.4 30.0014 427.062 27.5574 427.062 24.848H426.062ZM424.215 31.6438C423.016 33.6105 421.341 35.1656 419.176 36.31L419.643 37.194C421.958 35.9704 423.771 34.2935 425.069 32.1642L424.215 31.6438ZM419.181 36.3074C417.02 37.4189 414.572 37.98 411.826 37.98V38.98C414.712 38.98 417.32 38.3891 419.638 37.1966L419.181 36.3074ZM411.826 37.98C408.453 37.98 405.56 37.1693 403.125 35.5664L402.575 36.4016C405.196 38.1267 408.286 38.98 411.826 38.98V37.98ZM403.131 35.5704C400.727 33.937 399.101 31.7573 398.239 29.0179L397.285 29.3181C398.215 32.2747 399.981 34.639 402.569 36.3976L403.131 35.5704ZM397.762 28.668H395.938V29.668H397.762V28.668ZM395.438 29.168V38H396.438V29.168H395.438ZM395.938 37.5H385.138V38.5H395.938V37.5ZM385.638 38V11.744H384.638V38H385.638ZM385.138 12.244H395.938V11.244H385.138V12.244ZM395.438 11.744V20.192H396.438V11.744H395.438ZM395.938 20.692H397.858V19.692H395.938V20.692ZM398.33 20.3567C399.253 17.7103 400.894 15.6235 403.266 14.0833L402.721 13.2447C400.165 14.9045 398.382 17.1697 397.386 20.0273L398.33 20.3567ZM403.264 14.0849C405.668 12.5437 408.515 11.764 411.826 11.764V10.764C408.352 10.764 405.312 11.5843 402.724 13.2431L403.264 14.0849ZM411.826 30.532C413.156 30.532 414.259 30.0198 415.092 29.0054L414.319 28.3706C413.681 29.1482 412.864 29.532 411.826 29.532V30.532ZM415.091 29.0068C415.956 27.9618 416.358 26.5551 416.358 24.848H415.358C415.358 26.4049 414.992 27.5582 414.321 28.3692L415.091 29.0068ZM416.358 24.848C416.358 23.1422 415.956 21.7467 415.085 20.7306L414.326 21.3814C414.991 22.1573 415.358 23.2898 415.358 24.848H416.358ZM415.092 20.7386C414.259 19.7242 413.156 19.212 411.826 19.212V20.212C412.864 20.212 413.681 20.5958 414.319 21.3734L415.092 20.7386ZM411.826 19.212C410.496 19.212 409.381 19.7234 408.518 20.7306L409.277 21.3814C409.95 20.5966 410.787 20.212 411.826 20.212V19.212ZM408.511 20.7386C407.677 21.7544 407.294 23.1467 407.294 24.848H408.294C408.294 23.2853 408.646 22.1496 409.284 21.3734L408.511 20.7386ZM407.294 24.848C407.294 26.5507 407.678 27.9542 408.506 28.9987L409.289 28.3773C408.646 27.5658 408.294 26.4093 408.294 24.848H407.294ZM408.518 29.0134C409.381 30.0206 410.496 30.532 411.826 30.532V29.532C410.787 29.532 409.95 29.1474 409.277 28.3626L408.518 29.0134ZM453.877 20.192V20.692H454.377V20.192H453.877ZM445.861 20.192V19.692H445.361V20.192H445.861ZM445.861 38V38.5H446.361V38H445.861ZM435.061 38H434.561V38.5H435.061V38ZM435.061 20.192H435.561V19.692H435.061V20.192ZM427.045 20.192H426.545V20.692H427.045V20.192ZM427.045 11.744V11.244H426.545V11.744H427.045ZM453.877 11.744H454.377V11.244H453.877V11.744ZM453.877 19.692H445.861V20.692H453.877V19.692ZM445.361 20.192V38H446.361V20.192H445.361ZM445.861 37.5H435.061V38.5H445.861V37.5ZM435.561 38V20.192H434.561V38H435.561ZM435.061 19.692H427.045V20.692H435.061V19.692ZM427.545 20.192V11.744H426.545V20.192H427.545ZM427.045 12.244H453.877V11.244H427.045V12.244ZM453.377 11.744V20.192H454.377V11.744H453.377ZM499.564 11.744H500.064V11.244H499.564V11.744ZM499.564 38V38.5H500.064V38H499.564ZM488.764 38H488.264V38.5H488.764V38ZM488.764 20.192H489.264V19.692H488.764V20.192ZM482.188 20.192V19.692H481.688V20.192H482.188ZM482.188 38V38.5H482.688V38H482.188ZM471.388 38H470.888V38.5H471.388V38ZM471.388 11.744V11.244H470.888V11.744H471.388ZM499.064 11.744V38H500.064V11.744H499.064ZM499.564 37.5H488.764V38.5H499.564V37.5ZM489.264 38V20.192H488.264V38H489.264ZM488.764 19.692H482.188V20.692H488.764V19.692ZM481.688 20.192V38H482.688V20.192H481.688ZM482.188 37.5H471.388V38.5H482.188V37.5ZM471.888 38V11.744H470.888V38H471.888ZM471.388 12.244H499.564V11.244H471.388V12.244ZM528.525 12.944L528.273 13.376L528.282 13.3807L528.525 12.944ZM533.133 17.696L532.693 17.9331L532.696 17.9382L533.133 17.696ZM533.133 32.096L532.696 31.8537L532.694 31.8561L533.133 32.096ZM528.525 36.848L528.771 37.283L528.774 37.2817L528.525 36.848ZM515.517 36.224L515.867 35.8667L515.017 35.0346V36.224H515.517ZM515.517 47.312V47.812H516.017V47.312H515.517ZM504.669 47.312H504.169V47.812H504.669V47.312ZM504.669 11.744V11.244H504.169V11.744H504.669ZM514.989 11.744H515.489V11.244H514.989V11.744ZM514.989 13.904H514.489V15.2169L515.362 14.2366L514.989 13.904ZM522.669 28.688L523.042 29.021L522.669 28.688ZM522.669 21.104L522.29 21.4305L522.296 21.437L522.669 21.104ZM516.525 21.104L516.898 21.4371L516.904 21.4305L516.525 21.104ZM516.525 28.688L516.152 29.021L516.525 28.688ZM522.189 11.764C524.408 11.764 526.432 12.3022 528.273 13.3759L528.777 12.5121C526.778 11.3458 524.578 10.764 522.189 10.764V11.764ZM528.282 13.3807C530.145 14.4196 531.615 15.932 532.693 17.9331L533.573 17.459C532.411 15.3 530.809 13.6444 528.768 12.5073L528.282 13.3807ZM532.696 17.9382C533.801 19.934 534.361 22.2484 534.361 24.896H535.361C535.361 22.1036 534.769 19.618 533.57 17.4537L532.696 17.9382ZM534.361 24.896C534.361 27.5436 533.801 29.858 532.696 31.8537L533.57 32.3382C534.769 30.174 535.361 27.6884 535.361 24.896H534.361ZM532.694 31.8561C531.617 33.8264 530.145 35.3419 528.276 36.4143L528.774 37.2817C530.809 36.1141 532.409 34.4616 533.572 32.3359L532.694 31.8561ZM528.279 36.413C526.437 37.4565 524.411 37.98 522.189 37.98V38.98C524.575 38.98 526.773 38.4155 528.771 37.283L528.279 36.413ZM522.189 37.98C519.36 37.98 517.28 37.2507 515.867 35.8667L515.167 36.5813C516.826 38.2053 519.194 38.98 522.189 38.98V37.98ZM515.017 36.224V47.312H516.017V36.224H515.017ZM515.517 46.812H504.669V47.812H515.517V46.812ZM505.169 47.312V11.744H504.169V47.312H505.169ZM504.669 12.244H514.989V11.244H504.669V12.244ZM514.489 11.744V13.904H515.489V11.744H514.489ZM515.362 14.2366C516.804 12.6183 519.044 11.764 522.189 11.764V10.764C518.87 10.764 516.31 11.6697 514.616 13.5714L515.362 14.2366ZM519.597 30.532C520.981 30.532 522.143 30.0279 523.042 29.021L522.296 28.355C521.595 29.1401 520.709 29.532 519.597 29.532V30.532ZM523.042 29.021C523.949 28.0049 524.369 26.6064 524.369 24.896H523.369C523.369 26.4496 522.989 27.5791 522.296 28.355L523.042 29.021ZM524.369 24.896C524.369 23.1856 523.949 21.7871 523.042 20.771L522.296 21.437C522.989 22.2129 523.369 23.3424 523.369 24.896H524.369ZM523.048 20.7775C522.151 19.737 520.987 19.212 519.597 19.212V20.212C520.703 20.212 521.587 20.615 522.29 21.4305L523.048 20.7775ZM519.597 19.212C518.207 19.212 517.043 19.737 516.146 20.7775L516.904 21.4305C517.607 20.615 518.491 20.212 519.597 20.212V19.212ZM516.152 20.771C515.245 21.7871 514.825 23.1856 514.825 24.896H515.825C515.825 23.3424 516.205 22.2129 516.898 21.437L516.152 20.771ZM514.825 24.896C514.825 26.6064 515.245 28.0049 516.152 29.021L516.898 28.355C516.205 27.5791 515.825 26.4496 515.825 24.896H514.825ZM516.152 29.021C517.051 30.0279 518.213 30.532 519.597 30.532V29.532C518.485 29.532 517.599 29.1401 516.898 28.355L516.152 29.021ZM538.372 11.744V11.244H537.872V11.744H538.372ZM549.172 11.744H549.672V11.244H549.172V11.744ZM549.172 23.6H548.672V25.0762L549.569 23.9038L549.172 23.6ZM558.244 11.744V11.244H557.997L557.847 11.4402L558.244 11.744ZM568.228 11.744H568.728V11.244H568.228V11.744ZM568.228 38V38.5H568.728V38H568.228ZM557.428 38H556.928V38.5H557.428V38ZM557.428 26.096H557.928V24.6088L557.03 25.7939L557.428 26.096ZM548.404 38V38.5H548.653L548.803 38.3021L548.404 38ZM538.372 38H537.872V38.5H538.372V38ZM538.372 12.244H549.172V11.244H538.372V12.244ZM548.672 11.744V23.6H549.672V11.744H548.672ZM549.569 23.9038L558.641 12.0478L557.847 11.4402L548.775 23.2962L549.569 23.9038ZM558.244 12.244H568.228V11.244H558.244V12.244ZM567.728 11.744V38H568.728V11.744H567.728ZM568.228 37.5H557.428V38.5H568.228V37.5ZM557.928 38V26.096H556.928V38H557.928ZM557.03 25.7939L548.006 37.6979L548.803 38.3021L557.827 26.3981L557.03 25.7939ZM548.404 37.5H538.372V38.5H548.404V37.5ZM538.872 38V11.744H537.872V38H538.872ZM573.294 11.744V11.244H572.794V11.744H573.294ZM584.094 11.744H584.594V11.244H584.094V11.744ZM584.094 20.96H583.594V21.46H584.094V20.96ZM591.486 20.96V21.46H591.986V20.96H591.486ZM591.486 11.744V11.244H590.986V11.744H591.486ZM602.286 11.744H602.786V11.244H602.286V11.744ZM602.286 38V38.5H602.786V38H602.286ZM591.486 38H590.986V38.5H591.486V38ZM591.486 29.456H591.986V28.956H591.486V29.456ZM584.094 29.456V28.956H583.594V29.456H584.094ZM584.094 38V38.5H584.594V38H584.094ZM573.294 38H572.794V38.5H573.294V38ZM573.294 12.244H584.094V11.244H573.294V12.244ZM583.594 11.744V20.96H584.594V11.744H583.594ZM584.094 21.46H591.486V20.46H584.094V21.46ZM591.986 20.96V11.744H590.986V20.96H591.986ZM591.486 12.244H602.286V11.244H591.486V12.244ZM601.786 11.744V38H602.786V11.744H601.786ZM602.286 37.5H591.486V38.5H602.286V37.5ZM591.986 38V29.456H590.986V38H591.986ZM591.486 28.956H584.094V29.956H591.486V28.956ZM583.594 29.456V38H584.594V29.456H583.594ZM584.094 37.5H573.294V38.5H584.094V37.5ZM573.794 38V11.744H572.794V38H573.794ZM638.812 29.504H639.312V29.004H638.812V29.504ZM638.812 43.184V43.684H639.312V43.184H638.812ZM628.78 43.184H628.28V43.684H628.78V43.184ZM628.78 38H629.28V37.5H628.78V38ZM607.372 38H606.872V38.5H607.372V38ZM607.372 11.744V11.244H606.872V11.744H607.372ZM618.172 11.744H618.672V11.244H618.172V11.744ZM618.172 29.504H617.672V30.004H618.172V29.504ZM624.508 29.504V30.004H625.008V29.504H624.508ZM624.508 11.744V11.244H624.008V11.744H624.508ZM635.308 11.744H635.808V11.244H635.308V11.744ZM635.308 29.504H634.808V30.004H635.308V29.504ZM638.312 29.504V43.184H639.312V29.504H638.312ZM638.812 42.684H628.78V43.684H638.812V42.684ZM629.28 43.184V38H628.28V43.184H629.28ZM628.78 37.5H607.372V38.5H628.78V37.5ZM607.872 38V11.744H606.872V38H607.872ZM607.372 12.244H618.172V11.244H607.372V12.244ZM617.672 11.744V29.504H618.672V11.744H617.672ZM618.172 30.004H624.508V29.004H618.172V30.004ZM625.008 29.504V11.744H624.008V29.504H625.008ZM624.508 12.244H635.308V11.244H624.508V12.244ZM634.808 11.744V29.504H635.808V11.744H634.808ZM635.308 30.004H638.812V29.004H635.308V30.004ZM641.966 11.744V11.244H641.466V11.744H641.966ZM652.766 11.744H653.266V11.244H652.766V11.744ZM652.766 23.6H652.266V25.0762L653.163 23.9038L652.766 23.6ZM661.838 11.744V11.244H661.591L661.441 11.4402L661.838 11.744ZM671.822 11.744H672.322V11.244H671.822V11.744ZM671.822 38V38.5H672.322V38H671.822ZM661.022 38H660.522V38.5H661.022V38ZM661.022 26.096H661.522V24.6088L660.623 25.7939L661.022 26.096ZM651.998 38V38.5H652.246L652.396 38.3021L651.998 38ZM641.966 38H641.466V38.5H641.966V38ZM641.966 12.244H652.766V11.244H641.966V12.244ZM652.266 11.744V23.6H653.266V11.744H652.266ZM653.163 23.9038L662.235 12.0478L661.441 11.4402L652.369 23.2962L653.163 23.9038ZM661.838 12.244H671.822V11.244H661.838V12.244ZM671.322 11.744V38H672.322V11.744H671.322ZM671.822 37.5H661.022V38.5H671.822V37.5ZM661.522 38V26.096H660.522V38H661.522ZM660.623 25.7939L651.599 37.6979L652.396 38.3021L661.42 26.3981L660.623 25.7939ZM651.998 37.5H641.966V38.5H651.998V37.5ZM642.466 38V11.744H641.466V38H642.466ZM705.064 11.744H705.564V11.244H705.064V11.744ZM705.064 38V38.5H705.564V38H705.064ZM694.264 38H693.764V38.5H694.264V38ZM694.264 20.192H694.764V19.692H694.264V20.192ZM687.688 20.192V19.692H687.188V20.192H687.688ZM687.688 38V38.5H688.188V38H687.688ZM676.888 38H676.388V38.5H676.888V38ZM676.888 11.744V11.244H676.388V11.744H676.888ZM704.564 11.744V38H705.564V11.744H704.564ZM705.064 37.5H694.264V38.5H705.064V37.5ZM694.764 38V20.192H693.764V38H694.764ZM694.264 19.692H687.688V20.692H694.264V19.692ZM687.188 20.192V38H688.188V20.192H687.188ZM687.688 37.5H676.888V38.5H687.688V37.5ZM677.388 38V11.744H676.388V38H677.388ZM676.888 12.244H705.064V11.244H676.888V12.244ZM734.217 21.968L733.885 22.3418L733.892 22.3481L734.217 21.968ZM733.785 35.504L734.1 35.8921L734.104 35.8891L733.785 35.504ZM710.169 38H709.669V38.5H710.169V38ZM710.169 11.744V11.244H709.669V11.744H710.169ZM720.969 11.744H721.469V11.244H720.969V11.744ZM720.969 19.664H720.469V20.164H720.969V19.664ZM738.441 11.744V11.244H737.941V11.744H738.441ZM749.241 11.744H749.741V11.244H749.241V11.744ZM749.241 38V38.5H749.741V38H749.241ZM738.441 38H737.941V38.5H738.441V38ZM720.969 26V25.5H720.469V26H720.969ZM720.969 30.704H720.469V31.204H720.969V30.704ZM726.393 20.164C729.819 20.164 732.285 20.9198 733.885 22.3417L734.549 21.5943C732.693 19.9442 729.943 19.164 726.393 19.164V20.164ZM733.892 22.3481C735.516 23.7356 736.357 25.7575 736.357 28.496H737.357C737.357 25.5385 736.438 23.2084 734.542 21.5879L733.892 22.3481ZM736.357 28.496C736.357 31.3431 735.385 33.53 733.466 35.1189L734.104 35.8891C736.281 34.086 737.357 31.6009 737.357 28.496H736.357ZM733.47 35.1159C731.542 36.682 728.759 37.5 725.049 37.5V38.5C728.891 38.5 731.932 37.654 734.1 35.8921L733.47 35.1159ZM725.049 37.5H710.169V38.5H725.049V37.5ZM710.669 38V11.744H709.669V38H710.669ZM710.169 12.244H720.969V11.244H710.169V12.244ZM720.469 11.744V19.664H721.469V11.744H720.469ZM720.969 20.164H726.393V19.164H720.969V20.164ZM738.441 12.244H749.241V11.244H738.441V12.244ZM748.741 11.744V38H749.741V11.744H748.741ZM749.241 37.5H738.441V38.5H749.241V37.5ZM738.941 38V11.744H737.941V38H738.941ZM723.945 31.204C724.809 31.204 725.548 30.983 726.066 30.454C726.583 29.9268 726.797 29.1786 726.797 28.304H725.797C725.797 29.0294 725.619 29.4812 725.352 29.754C725.086 30.025 724.649 30.204 723.945 30.204V31.204ZM726.797 28.304C726.797 27.4563 726.58 26.7293 726.059 26.2188C725.54 25.7103 724.804 25.5 723.945 25.5V26.5C724.654 26.5 725.094 26.6737 725.359 26.9332C725.622 27.1907 725.797 27.6157 725.797 28.304H726.797ZM723.945 25.5H720.969V26.5H723.945V25.5ZM720.469 26V30.704H721.469V26H720.469ZM720.969 31.204H723.945V30.204H720.969V31.204Z" fill="white"/>
</svg>
