<svg width="88" height="100" viewBox="0 0 88 100" fill="none" xmlns="http://www.w3.org/2000/svg">
<path d="M19.3316 21.8674C24.1476 21.8619 28.0506 17.9588 28.0561 13.1429V10.2154C28.071 7.08805 26.4114 4.19268 23.7056 2.62471C20.9999 1.05674 17.6625 1.05674 14.9568 2.62471C12.2511 4.19268 10.5914 7.08805 10.6063 10.2154V13.1444C10.6126 17.9604 14.5156 21.8627 19.3316 21.8674ZM13.4147 10.2154C13.4022 8.0934 14.5274 6.12736 16.3626 5.06246C18.1985 3.99834 20.4639 3.99834 22.2991 5.06246C24.135 6.12736 25.2603 8.0934 25.2477 10.2154V13.1444C25.2438 16.4104 22.5976 19.0574 19.3316 19.0613C16.0648 19.0574 13.4186 16.4104 13.4147 13.1444V10.2154Z" fill="#03FBF3"/>
<path d="M78.7084 47.4641C75.2167 47.4688 72.0878 49.6213 70.8356 52.8818L63.922 51.5059C63.9432 51.0882 63.9541 50.6682 63.9541 50.2458C63.9557 43.0783 60.8143 36.2705 55.3597 31.6206L63.3335 20.3557C68.3666 23.0191 74.6032 21.3195 77.5887 16.4699C80.5741 11.621 79.2836 5.28723 74.6392 1.99301C69.9949 -1.302 63.5906 -0.426725 60.0001 3.99274C56.4097 8.41298 56.8665 14.8604 61.0431 18.7313L53.1257 29.9163C49.0847 27.1832 44.3173 25.7249 39.4394 25.7312C38.7374 25.7312 38.0337 25.7649 37.3332 25.8244C37.1796 25.6222 37.0197 25.4248 36.8481 25.2351C35.1391 23.3467 32.7115 22.2685 30.1641 22.2669H26.3104C25.953 22.2669 25.6098 22.4032 25.3497 22.6477L19.6044 28.0388L14.0816 22.665C13.8191 22.4095 13.4681 22.2669 13.1021 22.2669H9.01177C6.47607 22.2669 4.05868 23.3341 2.35123 25.2077C0.643002 27.0813 -0.196225 29.588 0.0388526 32.1119V54.547C0.0396364 57.5521 2.47504 59.9875 5.47934 59.9882H5.54281C6.57715 59.9757 7.58485 59.6623 8.44288 59.0855L9.45137 93.008C9.53443 95.3862 11.0679 97.4698 13.3129 98.2573C15.5579 99.0441 18.0568 98.3749 19.6075 96.5703C21.159 98.3764 23.6595 99.0456 25.906 98.2558C28.1518 97.4659 29.6837 95.3792 29.7636 92.9994L30.3568 73.0233C37.1412 75.7228 44.7749 75.2597 51.1824 71.7601L59.0543 83.3847C55.4114 86.9015 55.1011 92.6343 58.3428 96.524C61.5846 100.413 67.2789 101.14 71.3944 98.1907C75.5098 95.2405 76.6507 89.6143 74.0084 85.2951C71.3661 80.9752 65.8379 79.4276 61.3377 81.7478L53.5653 70.2705C58.907 66.4999 62.5241 60.7554 63.6156 54.3088L70.2832 55.6346C70.2801 55.7216 70.2762 55.8086 70.2762 55.8955C70.2762 60.5524 74.0515 64.3278 78.7084 64.3278C83.3653 64.3278 87.1406 60.5524 87.1406 55.8955C87.1406 51.2387 83.3653 47.4641 78.7084 47.4641ZM60.3888 10.8272C60.3888 6.42736 63.9557 2.86045 68.3556 2.86045C72.7555 2.86045 76.3224 6.42736 76.3224 10.8272C76.3224 15.2271 72.7555 18.794 68.3556 18.794C63.9581 18.7885 60.3943 15.2247 60.3888 10.8272ZM72.6222 90.3462C72.6222 94.1372 69.5498 97.2097 65.7588 97.2097C61.9685 97.2097 58.8953 94.1372 58.8953 90.3462C58.8953 86.5559 61.9685 83.4827 65.7588 83.4827C69.5482 83.4866 72.6183 86.5575 72.6222 90.3462ZM8.11534 54.4334C8.11534 55.9316 6.947 57.1634 5.51146 57.1798H5.4809C4.02734 57.1783 2.84882 56.0005 2.84803 54.547V32.0438C2.84803 31.996 2.84568 31.949 2.84098 31.9019C2.66389 30.1569 3.23434 28.4189 4.41052 27.1181C5.58669 25.8174 7.25887 25.0753 9.01255 25.0753H12.5325L18.6092 30.9867C18.6155 30.9922 18.6225 30.9969 18.6296 31.0024C18.6711 31.0423 18.7158 31.08 18.762 31.1144C18.7659 31.1168 18.7691 31.1199 18.773 31.1223C18.8231 31.1583 18.8764 31.1904 18.9321 31.2194C18.943 31.2257 18.954 31.2312 18.9657 31.2367C19.0159 31.2618 19.0684 31.2845 19.1217 31.3033C19.1264 31.3048 19.1319 31.308 19.1366 31.3095C19.1938 31.3284 19.2525 31.344 19.3113 31.3558C19.3254 31.3581 19.3395 31.3605 19.3536 31.3628C19.4061 31.3722 19.4586 31.3777 19.5111 31.3809C19.5197 31.3809 19.5284 31.3824 19.5362 31.3832C19.5958 31.3848 19.6553 31.3832 19.7149 31.3777C19.729 31.3762 19.7439 31.3746 19.758 31.373C19.8159 31.366 19.8739 31.3558 19.9303 31.3417L19.9382 31.3401C20.0001 31.3244 20.0604 31.3041 20.1192 31.2798C20.1247 31.2774 20.1302 31.2766 20.1356 31.2743C20.1411 31.2719 20.1466 31.268 20.1521 31.2657C20.2665 31.2155 20.3739 31.1505 20.4702 31.0721C20.4836 31.0612 20.4961 31.0502 20.5094 31.0392C20.522 31.0282 20.5368 31.0173 20.5494 31.0047L26.8683 25.0761H30.1672C31.9201 25.0761 33.5915 25.8181 34.7677 27.1197C35.9431 28.4204 36.5135 30.1585 36.3364 31.9027C36.3317 31.9497 36.3294 31.9968 36.3294 32.0446V54.5438C36.3294 56.0005 35.1485 57.1814 33.6918 57.1814C32.2343 57.1814 31.0534 56.0005 31.0534 54.5438V39.484C31.0534 38.7082 30.425 38.0798 29.6492 38.0798C28.8735 38.0798 28.245 38.7082 28.245 39.484V51.0765L28.2012 51.0749L28.1949 51.27H11.0209L10.9943 50.3947L10.9237 50.3971V39.484C10.9237 38.7082 10.2945 38.0798 9.51954 38.0798C8.74378 38.0798 8.11534 38.7082 8.11534 39.484V54.4334ZM26.9568 92.9054C26.9004 94.5274 25.5542 95.8047 23.9314 95.7749C22.3085 95.7459 21.0094 94.4209 21.0117 92.7988V59.7257H18.2033V92.7988C18.2041 94.4185 16.908 95.7412 15.2876 95.7733C13.6679 95.8047 12.3209 94.5337 12.2582 92.9148L11.104 54.0784H28.1103L26.9568 92.9054ZM39.4394 71.9529C36.3364 71.9615 33.2687 71.2978 30.4462 70.008L30.769 59.1396C32.4467 60.2053 34.571 60.2727 36.3121 59.3159C38.0541 58.3599 39.1362 56.5303 39.1362 54.5431V32.1119C39.2475 30.9107 39.1158 29.7008 38.7499 28.5521C38.9795 28.5443 39.2106 28.5403 39.4402 28.5403C51.4284 28.5403 61.1465 38.2584 61.1465 50.2466C61.1465 62.234 51.4284 71.9529 39.4402 71.9529H39.4394ZM78.7084 61.5194C75.6022 61.5194 73.0846 59.0017 73.0846 55.8963C73.0846 52.7902 75.6022 50.2725 78.7076 50.2725C81.8138 50.2725 84.3315 52.7902 84.3315 55.8955C84.3283 59.0001 81.813 61.5162 78.7084 61.5194Z" fill="#03FBF3"/>
</svg>
