<svg width="101" height="100" viewBox="0 0 101 100" fill="none" xmlns="http://www.w3.org/2000/svg">
<path d="M41.3171 98.6642C41.7389 97.8908 42.2076 97.1643 42.6295 96.4378C42.9576 95.8988 43.3091 95.3363 43.6372 94.7738C44.1762 93.8364 44.9027 93.3677 45.9573 93.274C48.5821 93.0396 51.3241 92.6881 53.5739 91.1179C55.0269 90.1102 56.48 89.1024 57.933 88.0947L58.097 87.9775C62.8779 84.6731 67.8463 81.2515 72.4865 77.6424C80.7359 71.2444 87.4385 63.745 92.4068 55.3551C97.633 46.5198 100.117 37.6377 100 28.1697C99.8125 14.577 90.3914 3.18725 77.0799 0.492149C76.4237 0.351535 75.7441 0.257792 75.0644 0.140614C74.7598 0.0937423 74.4786 0.0468713 74.1973 0H69.6274C69.1118 0.0937427 68.5962 0.187485 68.0806 0.281227L68.0103 0.304663C66.7917 0.515584 65.5496 0.749941 64.3778 1.05461C60.0187 2.22639 55.9644 4.3356 51.9334 7.54628C51.8397 7.61659 51.746 7.6869 51.6522 7.78064L51.5819 7.82751C51.4179 7.96813 51.2304 8.10874 51.0663 8.24935C50.832 8.43684 50.621 8.50715 50.5039 8.53058L49.8242 8.78838L49.1915 8.36653C48.7931 8.08531 48.4181 7.78064 48.0197 7.49941L47.9494 7.45254C47.1057 6.81978 46.2151 6.16358 45.348 5.57769C40.6843 2.43731 35.6691 0.609327 30.4898 0.164049C30.2086 0.140613 29.9508 0.0703067 29.7633 0.0234353H29.7399H26.4354C25.8027 0.140614 25.1699 0.234357 24.5606 0.3281C23.1544 0.539021 21.8186 0.749942 20.5765 1.14835C9.35083 4.71057 2.55449 12.4912 0.37497 24.3262C0.281228 24.8184 0.210921 25.3105 0.117178 25.8027L0.093743 25.873C0.0703074 26.0605 0.0234357 26.2479 0 26.4354V31.8491C0.070307 32.3881 0.140614 32.9271 0.210921 33.4427C0.374971 34.6379 0.515584 35.8566 0.726505 37.0518C1.80455 43.5903 4.24186 49.9648 8.17905 56.5268C8.53058 57.1127 8.95242 58.0267 8.95242 59.011C8.92899 63.2529 9.96016 67.5182 12.2334 72.3928C12.7021 73.424 12.6553 74.3614 12.1162 75.3925C8.88212 81.3921 5.60112 87.5088 2.41387 93.4146L2.39044 93.438L0 97.8908V98.8282C0.398406 99.5782 1.00773 100 2.62479 100H2.64823C13.124 99.9531 24.3028 99.9531 38.8798 100C40.1453 99.9766 40.8015 99.625 41.3171 98.6642ZM7.92126 42.1139L6.51512 46.9885L5.22615 42.067C3.18725 34.2629 1.87485 25.8964 5.81205 17.5299C8.7415 11.3897 13.7802 6.81978 20.0375 4.6637C26.2714 2.50762 33.1849 2.95289 39.4657 5.90579C42.6295 7.38224 45.5589 9.42114 48.4415 12.0928C49.7774 13.3349 50.3164 13.3349 51.6756 12.0694C56.7378 7.3588 62.0108 4.59339 67.776 3.63253C80.6656 1.47645 92.7584 9.42114 95.9222 22.0998C97.3518 27.865 97.0705 33.9817 95.0082 41.3171C92.5943 49.8945 87.79 57.9798 80.3375 66.0417C76.2597 70.4476 71.5725 74.502 66.4636 78.0877L61.5655 81.5327L64.4481 76.2831C64.495 76.1894 64.5418 76.0956 64.5887 76.0253C64.7059 75.8144 64.8231 75.58 64.9637 75.3691C65.9714 73.7286 66.9791 72.0412 67.94 70.4007L67.9634 70.3539C70.2601 66.5339 72.6271 62.5732 75.1113 58.7532C76.6581 56.3862 77.0096 53.6442 76.0956 51.2069C75.1816 48.8399 73.1896 47.1057 70.6585 46.4261L68.8774 45.9573L69.8148 44.3637C71.2444 41.9498 71.4319 39.1844 70.307 36.8174C69.2055 34.4739 67.026 32.8334 64.495 32.435L63.206 32.224L63.3232 30.9116C63.6981 27.1151 62.3623 24.3731 59.386 22.756C56.3862 21.139 53.3864 21.5139 50.457 23.8575L49.5196 24.6075L48.629 23.7638C48.4884 23.6232 48.3478 23.4825 48.2072 23.3419C47.9259 23.0607 47.6681 22.8029 47.3869 22.5685C45.6292 21.0687 43.4732 20.4359 41.2936 20.764C39.0673 21.1155 37.0518 22.4748 35.7863 24.5137C33.5599 28.0994 31.31 31.7553 29.154 35.2941L28.9899 35.5519C28.0056 37.169 27.0213 38.786 26.037 40.3797C25.8964 40.614 25.7558 40.8249 25.5917 41.0593C25.5214 41.1765 25.4511 41.2702 25.3808 41.364L23.9044 43.5903L22.9201 41.1062C21.4671 37.3799 18.936 35.5285 15.4207 35.5988C11.5538 35.716 9.16335 37.7783 7.92126 42.1139ZM37.3096 96.6956C30.3492 96.719 23.3185 96.719 17.9752 96.719H7.21819C7.0307 96.719 6.86665 96.6956 6.74947 96.6721C6.67917 96.6721 6.63229 96.6487 6.56199 96.6487L4.61683 96.344L7.12444 91.6569C8.22592 89.618 9.30396 87.6025 10.3586 85.5871L11.6007 83.2435C13.0068 80.6187 14.4598 77.9236 15.9128 75.2519C16.3347 74.4551 16.3815 73.8224 16.03 73.0255C15.7488 72.4162 15.5144 71.7835 15.3035 71.1741C14.9754 70.3304 14.6942 69.5571 14.3192 68.8306C12.6553 65.4558 12.4209 61.917 12.21 58.4954C12.1865 58.0736 12.1631 57.6752 12.1397 57.2533C12.0225 55.5894 11.9053 53.9255 11.7881 52.285V52.2147C11.6007 49.4727 11.4132 46.637 11.2022 43.8481C11.0148 41.153 12.7021 39.0438 15.2566 38.8563C16.405 38.7626 17.5064 39.1376 18.3501 39.8875C19.2876 40.7078 19.85 41.9264 19.9203 43.3091C19.9906 44.5512 20.0609 45.8167 20.1312 47.0354C20.2015 48.0197 20.2484 49.0274 20.2953 50.0117C20.3187 50.5742 20.5296 51.5585 21.5139 51.8163C21.7952 51.8866 22.6857 52.1209 23.4591 50.8554C26.2948 46.2386 29.1305 41.6217 31.9662 37.0049L34.9895 32.06C35.3644 31.4507 35.7394 30.8413 36.0909 30.2554L36.1144 30.2086C36.9112 28.9196 37.6846 27.6307 38.5048 26.3417C39.2313 25.1699 40.3093 24.3497 41.5046 24.0919C42.606 23.8341 43.731 24.045 44.6918 24.6778C46.8245 26.037 47.3166 28.615 45.887 30.9585C44.809 32.7162 43.731 34.4504 42.6763 36.2081C40.5671 39.6297 38.3876 43.1919 36.2784 46.6839C35.9034 47.2932 35.8331 47.9728 36.1144 48.5118C36.3487 48.9805 36.8174 49.2618 37.4033 49.3321C38.0127 49.4024 38.5751 49.2149 39.1844 48.2072C41.8327 43.8481 44.5981 39.3251 47.0588 35.3644L50.082 30.4429C50.2929 30.0914 50.5039 29.7633 50.7148 29.4118L50.7851 29.2946C51.1601 28.6618 51.535 28.0525 51.9334 27.4197C53.363 25.1465 55.8706 24.4434 58.0267 25.7089C59.0344 26.3183 59.761 27.2557 60.0422 28.3806C60.3468 29.5758 60.1125 30.8648 59.4329 32.0131C54.7926 39.6297 50.1992 47.1057 46.7073 52.7771C46.2151 53.5739 46.1683 53.9958 46.262 54.3473C46.4495 55.0738 46.8479 55.4722 47.5744 55.5894C48.254 55.7066 48.7696 55.4957 49.168 54.9332C49.6133 54.3004 50.0117 53.6208 50.4101 52.9412C50.5742 52.6834 50.7148 52.4256 50.8788 52.1912C51.8866 50.5742 52.8709 48.9337 53.8786 47.3166L54.113 46.9182C55.9409 43.9184 57.7924 40.9187 59.6438 37.9189C60.7687 36.0675 62.5732 35.2941 64.5653 35.7863C66.487 36.255 67.8228 37.8955 67.8228 39.7938C67.8228 40.7546 67.4947 41.8561 66.9557 42.7467C65.3855 45.348 63.7919 47.9728 62.2451 50.5039L62.1983 50.5976C60.4875 53.3865 58.7298 56.269 57.019 59.1048C56.7612 59.55 56.5971 60.1828 56.6206 60.6749C56.644 61.3077 57.2299 61.753 57.7689 61.8467C58.5423 62.0108 59.1516 61.753 59.5735 61.0499C60.7218 59.2219 61.8936 57.2768 62.9482 55.5894C63.3935 54.8629 63.8388 54.113 64.3075 53.3865C64.4246 53.199 64.5418 52.9881 64.659 52.8006C64.9168 52.3553 65.198 51.8866 65.5027 51.4413C66.8385 49.5196 69.2993 49.004 71.3382 50.1992C73.2833 51.3476 74.0098 53.7614 73.049 55.8238C72.8849 56.1519 72.7209 56.4565 72.5334 56.7378L72.4631 56.8315C70.7757 59.5969 69.0883 62.3857 67.401 65.1512C63.5341 71.5022 59.55 78.0408 55.5894 84.5793C53.6677 87.7431 50.832 89.5243 47.1291 89.8992C45.9808 90.0164 44.8324 90.157 43.731 90.2976L43.4966 90.3211C42.8404 90.3914 42.4186 90.6726 42.0905 91.2351L41.6921 91.9147C40.9655 93.1099 40.239 94.3286 39.4422 95.5472C38.9501 96.2034 38.083 96.6956 37.3096 96.6956Z" fill="#03FBF3"/>
</svg>
