<svg width="92" height="100" viewBox="0 0 92 100" fill="none" xmlns="http://www.w3.org/2000/svg">
<path d="M64.5499 42.3608C63.7404 42.3608 63.0851 43.017 63.0851 43.8257V47.0773C63.0851 47.886 63.7404 48.5422 64.5499 48.5422C65.3586 48.5422 66.0148 47.886 66.0148 47.0773V43.8257C66.0148 43.017 65.3586 42.3608 64.5499 42.3608Z" fill="#03FBF3"/>
<path d="M26.937 48.5422C27.7457 48.5422 28.4018 47.886 28.4018 47.0773V43.8257C28.4018 43.017 27.7457 42.3608 26.937 42.3608C26.1283 42.3608 25.4722 43.017 25.4722 43.8257V47.0773C25.4722 47.886 26.1283 48.5422 26.937 48.5422Z" fill="#03FBF3"/>
<path d="M45.7435 49.2922C44.0101 49.2922 42.382 50.017 41.2772 51.2812C40.7439 51.89 40.8065 52.8154 41.4153 53.348C42.002 53.8607 42.9481 53.8202 43.4829 53.2091C44.0314 52.582 44.8554 52.2219 45.7435 52.2219C46.6315 52.2219 47.4555 52.5812 48.004 53.2091C48.5366 53.8179 49.462 53.8805 50.0708 53.348C50.6804 52.8154 50.7422 51.89 50.2097 51.2812C49.105 50.017 47.4768 49.2922 45.7435 49.2922Z" fill="#03FBF3"/>
<path d="M65.6409 100C66.4496 100 67.1057 99.3439 67.1057 98.5352C67.1057 96.788 66.9356 95.0173 66.6006 93.2724C65.5531 87.8052 62.9744 82.9522 59.3855 79.5723C69.2641 75.8706 77.2024 68.2717 81.249 58.6946C81.6992 58.764 82.1554 58.7998 82.6132 58.7998C87.5067 58.7998 91.4869 54.8188 91.4869 49.9261C91.4869 46.9476 89.9992 44.301 87.7302 42.6897C88.1124 40.6877 88.8304 35.9743 88.5328 29.9989C88.1727 22.7457 86.1708 12.2156 78.6863 3.2351C77.9043 2.29669 76.7065 1.80078 75.4843 1.90759C74.9655 1.9526 74.3223 2.03653 73.509 2.14181C68.4515 2.79794 57.9268 4.1636 43.1579 0.842528C35.2874 -0.927487 26.7303 0.120026 19.6785 3.71499C18.9582 4.08272 18.6714 4.96468 19.0391 5.68566C19.4068 6.40663 20.2888 6.69273 21.0098 6.325C27.4619 3.03521 35.3004 2.07849 42.5147 3.70126C57.7902 7.136 68.6621 5.72533 73.8859 5.04708C74.6657 4.94561 75.2813 4.86626 75.7383 4.82659C76.0061 4.80294 76.2671 4.90899 76.4357 5.11116C83.3792 13.4424 85.2529 23.2729 85.6024 30.0531C85.8602 35.0633 85.3483 39.2007 84.9844 41.3774C84.9707 41.3736 84.9562 41.3705 84.9417 41.3667C84.8265 41.3354 84.7097 41.3072 84.593 41.2805C84.5632 41.2736 84.5343 41.2652 84.5045 41.2591C84.355 41.2263 84.2039 41.1973 84.0521 41.1722C83.5714 35.2235 81.6885 29.5481 78.5185 24.4806C77.7838 23.3065 77.0369 22.0583 76.0466 21.0573C74.7015 19.6833 72.8399 18.9852 70.928 19.1202C69.9942 19.1843 69.1054 19.4948 68.2028 19.7176C61.4867 21.3778 54.4257 21.2267 47.7958 19.2392C47.7851 19.2362 47.7736 19.2331 47.7622 19.2293C44.226 18.146 40.7859 17.0794 37.0765 16.7826C29.9697 16.2142 22.6669 18.014 17.0074 22.4474C12.4504 26.0179 9.19264 31.1647 8.04899 36.8501C7.77281 38.2211 7.57826 39.6066 7.45314 40.9997C7.45161 41.0188 7.4478 41.1691 7.44322 41.1706C7.28911 41.1958 6.50786 41.3644 6.51015 41.3751C4.09392 27.6537 7.5096 16.3469 16.2124 9.40803C16.8449 8.90296 16.9487 7.98133 16.4444 7.34886C15.9401 6.71638 15.0184 6.61262 14.386 7.11693C4.63103 14.8958 0.883482 27.4973 3.77425 42.6774C1.49459 44.2872 0 46.94 0 49.9261C0 54.8188 3.98101 58.7998 8.87373 58.7998C9.33225 58.7998 9.78773 58.764 10.2379 58.6946C14.2845 68.2717 22.2228 75.8706 32.1014 79.5723C28.5125 82.9514 25.9338 87.8052 24.887 93.2709C24.5513 95.0165 24.382 96.788 24.382 98.5352C24.382 99.3439 25.0373 100 25.8468 100H65.6409ZM9.16746 55.8625C9.0698 55.8671 8.97215 55.8702 8.87373 55.8702C5.59615 55.8702 2.92968 53.2037 2.92968 49.9261C2.92968 47.1994 4.78972 44.8854 7.31199 44.1926V44.2323C7.31199 45.8513 7.41728 47.4702 7.62632 49.0754C7.92616 51.381 8.43962 53.6493 9.16746 55.8625ZM27.7641 93.8232C28.7612 88.6193 31.2858 84.0683 34.7747 81.1097V97.0703H27.3559C27.4207 95.9877 27.5573 94.9005 27.7641 93.8232ZM37.7044 81.205C38.9594 81.4675 40.2297 81.6658 41.5038 81.8039L41.3772 83.9234C41.3207 84.8687 41.6869 85.7949 42.3514 86.451L41.233 97.0703H37.7051V81.205H37.7044ZM50.9497 81.6872C51.8996 81.5613 52.8441 81.4019 53.7818 81.205V97.0703H50.2539L49.153 86.6135C49.9282 85.952 50.3646 84.9495 50.3035 83.9234L50.1754 81.7826C50.434 81.7536 50.6919 81.7215 50.9497 81.6872ZM45.8403 85.3691L44.4487 84.4017C44.3511 84.3338 44.2946 84.2179 44.3015 84.0981L44.4266 82.013C44.4793 82.0145 47.1358 82.0115 47.2541 82.0069L47.3792 84.0981C47.3861 84.2179 47.3296 84.3338 47.2319 84.4017L45.8403 85.3691ZM44.1787 97.0703L45.1117 88.208C45.3261 88.2645 45.5497 88.2973 45.7709 88.2973C45.9754 88.3019 46.1783 88.2881 46.3797 88.25L47.3082 97.0703H44.1787ZM63.7228 93.824C63.9296 94.9005 64.0662 95.9877 64.131 97.0703H56.7122V81.1097C60.2011 84.0683 62.7257 88.6193 63.7228 93.824ZM54.6134 78.0037C48.8211 79.4724 42.6658 79.4724 36.8735 78.0037C23.0026 74.4866 12.3909 62.9189 10.5316 48.6978C10.5278 48.6673 10.524 48.636 10.5201 48.6055C9.9983 44.4963 10.0868 39.9904 11.2426 35.9872C11.2449 35.9804 11.2465 35.9743 11.2488 35.9674C13.4269 28.4235 19.7685 22.587 27.2842 20.5423C34.0354 18.7052 40.3853 20.1456 46.9275 22.0377C46.9321 22.0385 46.9359 22.04 46.9397 22.0415C54.1617 24.2166 61.537 24.3914 68.907 22.5618C69.7203 22.3597 70.526 22.0346 71.3743 22.0346C72.5165 22.0346 73.5899 22.5733 74.2788 23.4819C78.4475 28.9759 80.8783 35.7027 81.2048 42.5882C81.3017 44.626 81.2201 46.6729 80.9553 48.6955C79.0976 62.9174 68.4851 74.4858 54.6134 78.0037ZM82.6132 55.8702C82.5148 55.8702 82.4171 55.8679 82.3194 55.8625C83.0473 53.6477 83.5615 51.3772 83.8613 49.0701C83.8644 49.0495 83.8667 49.0289 83.8697 49.0083C83.9079 48.7115 83.9422 48.4147 83.9735 48.1172C83.9743 48.105 83.9758 48.0935 83.9773 48.0813C84.0391 47.4786 84.0864 46.8736 84.1192 46.2663C84.123 46.19 84.1268 46.1145 84.1307 46.0382C84.1413 45.8139 84.1497 45.5896 84.1566 45.3645C84.1589 45.2821 84.1619 45.1997 84.1635 45.1166C84.1703 44.8221 84.1749 44.5276 84.1749 44.2315C84.1749 44.2186 84.1749 44.2056 84.1749 44.1926H84.1764C86.6957 44.8831 88.5572 47.1978 88.5572 49.9261C88.5572 53.2037 85.8908 55.8702 82.6132 55.8702Z" fill="#03FBF3"/>
<path d="M19.282 29.4374C19.0126 29.2986 18.9872 29.2985 18.7179 29.4373C16.7505 30.4529 15.3333 32.9382 15.3333 35.3273C15.3333 37.5361 16.9778 39.3332 18.9997 39.3332C21.0215 39.3332 22.6666 37.5361 22.6666 35.3273C22.6666 32.9382 21.2493 30.453 19.282 29.4374ZM18.9997 38.0087C18.0357 38.0087 16.6174 36.4397 16.6174 35.3273C16.6174 33.8709 17.7456 31.5652 18.9999 31.1516C20.284 31.4373 21.3226 33.8709 21.3226 35.3273C21.3226 36.4397 19.9636 38.0087 18.9997 38.0087Z" fill="#03FBF3"/>
</svg>
