<svg width="154" height="166" viewBox="0 0 154 166" fill="none" xmlns="http://www.w3.org/2000/svg">
<g filter="url(#filter0_d)">
<path d="M104.825 71.5414C103.611 71.5414 102.628 72.5256 102.628 73.7386V78.6161C102.628 79.8292 103.611 80.8134 104.825 80.8134C106.038 80.8134 107.022 79.8292 107.022 78.6161V73.7386C107.022 72.5256 106.038 71.5414 104.825 71.5414Z" fill="#03FBF3"/>
<path d="M48.4055 80.8134C49.6186 80.8134 50.6028 79.8292 50.6028 78.6161V73.7386C50.6028 72.5256 49.6186 71.5414 48.4055 71.5414C47.1924 71.5414 46.2083 72.5256 46.2083 73.7386V78.6161C46.2083 79.8292 47.1924 80.8134 48.4055 80.8134Z" fill="#03FBF3"/>
<path d="M76.6153 81.9384C74.0152 81.9384 71.573 83.0255 69.9159 84.9218C69.116 85.8351 69.2098 87.2233 70.123 88.0221C71.0031 88.7911 72.4221 88.7304 73.2244 87.8138C74.0472 86.8731 75.2832 86.3329 76.6153 86.3329C77.9473 86.3329 79.1833 86.8719 80.0061 87.8138C80.8049 88.727 82.1931 88.8209 83.1063 88.0221C84.0207 87.2233 84.1134 85.8351 83.3146 84.9218C81.6575 83.0255 79.2154 81.9384 76.6153 81.9384Z" fill="#03FBF3"/>
<path d="M106.462 158C107.675 158 108.659 157.016 108.659 155.803C108.659 153.182 108.404 150.526 107.901 147.909C106.33 139.708 102.462 132.429 97.0785 127.359C111.896 121.806 123.804 110.408 129.874 96.042C130.549 96.1462 131.233 96.2 131.92 96.2C139.26 96.2 145.231 90.2284 145.231 82.8894C145.231 78.4216 142.999 74.4516 139.596 72.0346C140.169 69.0317 141.246 61.9615 140.8 52.9985C140.259 42.1186 137.256 26.3235 126.03 12.8527C124.857 11.445 123.06 10.7012 121.227 10.8614C120.449 10.9289 119.484 11.0548 118.264 11.2127C110.678 12.1969 94.8904 14.2454 72.7369 9.2638C60.9312 6.60877 48.0955 8.18004 37.5177 13.5725C36.4374 14.1241 36.0071 15.447 36.5587 16.5285C37.1103 17.61 38.4333 18.0391 39.5147 17.4875C49.193 12.5528 60.9507 11.1177 71.7722 13.5519C94.6856 18.704 110.993 16.588 118.829 15.5706C119.999 15.4184 120.922 15.2994 121.608 15.2399C122.009 15.2044 122.401 15.3635 122.654 15.6668C133.069 28.1637 135.88 42.9094 136.404 53.0798C136.791 60.5951 136.023 66.8013 135.477 70.0662C135.456 70.0605 135.435 70.0559 135.413 70.0502C135.24 70.0033 135.065 69.961 134.89 69.9209C134.845 69.9106 134.802 69.898 134.757 69.8889C134.533 69.8397 134.306 69.7962 134.078 69.7584C133.357 60.8354 130.533 52.3222 125.778 44.721C124.676 42.9598 123.556 41.0875 122.07 39.5861C120.053 37.525 117.26 36.4778 114.392 36.6804C112.992 36.7765 111.658 37.2423 110.304 37.5765C100.23 40.0667 89.6387 39.8401 79.6938 36.8589C79.6778 36.8544 79.6606 36.8498 79.6435 36.8441C74.3391 35.219 69.179 33.6191 63.6149 33.1739C52.9547 32.3214 42.0004 35.021 33.5112 41.6712C26.6756 47.027 21.789 54.7472 20.0735 63.2753C19.6592 65.3318 19.3674 67.4101 19.1797 69.4998C19.1774 69.5284 19.1717 69.7538 19.1649 69.7561C18.9337 69.7939 17.7618 70.0468 17.7652 70.0628C14.1409 49.4806 19.2644 32.5205 32.3187 22.1121C33.2674 21.3545 33.4231 19.972 32.6666 19.0233C31.9101 18.0746 30.5277 17.919 29.579 18.6754C14.9466 30.3438 9.32523 49.246 13.6614 72.0163C10.2419 74.431 8 78.4101 8 82.8894C8 90.2284 13.9715 96.2 21.3106 96.2C21.9984 96.2 22.6816 96.1462 23.3568 96.042C29.4268 110.408 41.3344 121.806 56.1522 127.359C50.7689 132.427 46.9008 139.708 45.3306 147.907C44.8271 150.525 44.573 153.182 44.573 155.803C44.573 157.016 45.5561 158 46.7703 158H106.462ZM21.7512 91.794C21.6047 91.8009 21.4583 91.8054 21.3106 91.8054C16.3942 91.8054 12.3945 87.8057 12.3945 82.8894C12.3945 78.7992 15.1846 75.3282 18.968 74.2891V74.3486C18.968 76.7771 19.1259 79.2055 19.4395 81.6133C19.8893 85.0717 20.6595 88.4741 21.7512 91.794ZM49.6462 148.735C51.1419 140.929 54.9288 134.103 60.1622 129.665V153.606H49.0339C49.1312 151.982 49.3361 150.351 49.6462 148.735ZM64.5567 129.808C66.4393 130.202 68.3447 130.499 70.2559 130.706L70.0659 133.885C69.9812 135.303 70.5305 136.693 71.5273 137.677L69.8496 153.606H64.5579V129.808H64.5567ZM84.4248 130.531C85.8496 130.342 87.2664 130.103 88.6728 129.808V153.606H83.3811L81.7297 137.921C82.8924 136.928 83.547 135.425 83.4555 133.885L83.2632 130.674C83.6512 130.631 84.038 130.583 84.4248 130.531ZM76.7607 136.054L74.6733 134.603C74.5268 134.501 74.4421 134.327 74.4524 134.147L74.6401 131.02C74.7191 131.022 78.7039 131.017 78.8813 131.011L79.069 134.147C79.0793 134.327 78.9946 134.501 78.8481 134.603L76.7607 136.054ZM74.2682 153.606L75.6678 140.312C75.9894 140.397 76.3247 140.446 76.6565 140.446C76.9632 140.453 77.2677 140.433 77.5698 140.375L78.9625 153.606H74.2682ZM103.584 148.736C103.895 150.351 104.099 151.982 104.197 153.606H93.0685V129.665C98.3019 134.103 102.089 140.929 103.584 148.736ZM89.9202 125.006C81.2319 127.209 71.9988 127.209 63.3104 125.006C42.5039 119.73 26.5864 102.379 23.7974 81.0469C23.7917 81.0011 23.786 80.9542 23.7803 80.9084C22.9975 74.7446 23.1302 67.9857 24.864 61.981C24.8674 61.9707 24.8697 61.9615 24.8732 61.9512C28.1405 50.6353 37.6528 41.8806 48.9264 38.8136C59.0532 36.0578 68.5782 38.2185 78.3915 41.0566C78.3983 41.0578 78.4041 41.0601 78.4098 41.0623C89.2428 44.3251 100.306 44.5871 111.361 41.8428C112.581 41.5396 113.789 41.052 115.062 41.052C116.775 41.052 118.385 41.86 119.419 43.223C125.672 51.4639 129.318 61.5541 129.807 71.8824C129.953 74.9391 129.83 78.0096 129.433 81.0434C126.647 102.376 110.728 119.729 89.9202 125.006ZM131.92 91.8054C131.772 91.8054 131.626 91.802 131.479 91.794C132.571 88.4718 133.343 85.066 133.792 81.6053C133.797 81.5744 133.8 81.5435 133.805 81.5126C133.862 81.0675 133.914 80.6223 133.961 80.176C133.962 80.1576 133.964 80.1405 133.966 80.1222C134.059 79.2181 134.13 78.3106 134.179 77.3996C134.185 77.2852 134.191 77.1719 134.196 77.0574C134.212 76.721 134.225 76.3845 134.235 76.0469C134.239 75.9233 134.243 75.7997 134.246 75.675C134.256 75.2333 134.263 74.7915 134.263 74.3475C134.263 74.328 134.263 74.3086 134.263 74.2891H134.265C138.044 75.3248 140.836 78.7969 140.836 82.8894C140.836 87.8057 136.836 91.8054 131.92 91.8054Z" fill="#03FBF3"/>
<path d="M36.9231 52.1562C36.5191 51.948 36.4809 51.9479 36.0769 52.1561C33.1258 53.6795 31 57.4074 31 60.991C31 64.3043 33.4668 67 36.4996 67C39.5324 67 42 64.3043 42 60.991C42 57.4074 39.8742 53.6796 36.9231 52.1562ZM36.4996 65.0132C35.0537 65.0132 32.9262 62.6597 32.9262 60.991C32.9262 58.8065 34.6185 55.3479 36.5 54.7275C38.4262 55.1561 39.9841 58.8065 39.9841 60.991C39.9841 62.6597 37.9456 65.0132 36.4996 65.0132Z" fill="#03FBF3"/>
</g>
<defs>
<filter id="filter0_d" x="0" y="0" width="153.231" height="166" filterUnits="userSpaceOnUse" color-interpolation-filters="sRGB">
<feFlood flood-opacity="0" result="BackgroundImageFix"/>
<feColorMatrix in="SourceAlpha" type="matrix" values="0 0 0 0 0 0 0 0 0 0 0 0 0 0 0 0 0 0 127 0"/>
<feOffset/>
<feGaussianBlur stdDeviation="4"/>
<feColorMatrix type="matrix" values="0 0 0 0 0.0117647 0 0 0 0 0.984314 0 0 0 0 0.952941 0 0 0 0.5 0"/>
<feBlend mode="normal" in2="BackgroundImageFix" result="effect1_dropShadow"/>
<feBlend mode="normal" in="SourceGraphic" in2="effect1_dropShadow" result="shape"/>
</filter>
</defs>
</svg>
