<svg width="164" height="164" viewBox="0 0 164 164" fill="none" xmlns="http://www.w3.org/2000/svg">
<g filter="url(#filter0_d)">
<path d="M81.5148 8C40.9703 8 8 40.9703 8 81.5148C8 122.059 40.9703 155.03 81.5148 155.03C122.059 155.03 155.03 122.059 155.03 81.5148C155.03 40.9703 122.059 8 81.5148 8ZM75.8713 74.2079C75.8713 71.0891 78.396 68.5644 81.5148 68.5644C84.6337 68.5644 87.1584 71.0891 87.1584 74.2079C87.1584 75.7228 86.5643 77.1188 85.495 78.1881C84.4257 79.2574 83 79.8515 81.5148 79.8515C78.396 79.8812 75.8713 77.3267 75.8713 74.2079ZM149.653 81.5148C149.653 106.406 136.109 129.248 114.307 141.158L112.109 142.347V94.6436L124.762 81.9901L125.713 82.4653C127.139 83.1782 128.772 83.5643 130.465 83.5643C136.525 83.5643 141.485 78.6337 141.485 72.5445C141.485 66.4554 136.554 61.5247 130.465 61.5247C124.376 61.5247 119.446 66.4554 119.446 72.5445C119.446 74.2376 119.832 75.8713 120.545 77.297L121.02 78.2475L107.564 91.703C107.03 92.2376 106.762 92.8911 106.762 93.5742V144.812L105.782 145.168C99.3366 147.545 92.802 149 85.8218 149.624L84.1881 149.772V85.0198L85.198 84.6634C89.594 83.1485 92.5346 79.0198 92.5346 74.3861C92.5346 68.3267 87.604 63.3663 81.5148 63.3663C75.4257 63.3663 70.495 68.297 70.495 74.3861C70.495 78.9901 73.4356 83.1188 77.8317 84.6634L78.8416 85.0198V149.743L77.2673 149.653C70.1089 149.208 63.3366 147.723 57.2178 145.168L56.297 144.782V109.644C56.297 108.96 56 108.307 55.495 107.772L47.2079 99.5148L47.6832 98.5643C48.396 97.1386 48.7822 95.4752 48.7822 93.8119C48.7822 87.7525 43.8515 82.7921 37.7624 82.7921C31.6733 82.7921 26.7426 87.7228 26.7426 93.8119C26.7426 99.901 31.703 104.832 37.7624 104.832C39.4554 104.832 41.0891 104.446 42.5148 103.733L43.4653 103.257L50.9208 110.713V142.406L48.7228 141.188C26.9208 129.069 13.3762 106.228 13.3762 81.5445C13.3762 48.7525 36.8416 20.5347 69.1584 14.4752L70.9109 14.1485V49.495H62.7426L62.3861 48.4851C60.8713 44.0891 56.7426 41.1485 52.1089 41.1485C46.0495 41.1485 41.0891 46.0792 41.0891 52.1683C41.0891 58.2277 46.0198 63.1881 52.1089 63.1881C56.7129 63.1881 60.8416 60.2475 62.3861 55.8515L62.7426 54.8416H73.5842C75.0693 54.8416 76.2574 53.6535 76.2574 52.1683V13.5842H77.7426C78.3069 13.5842 78.8713 13.5248 79.495 13.495C80.1485 13.4356 80.802 13.3762 81.4851 13.3762C89.3267 13.3762 96.8713 14.6535 103.881 17.2079L104.861 17.5644V37.3762L103.851 37.7327C99.4554 39.2475 96.5148 43.3762 96.5148 48.0099C96.5148 54.0693 101.446 59.0297 107.535 59.0297C113.624 59.0297 118.554 54.099 118.554 48.0099C118.554 43.4059 115.614 39.2772 111.218 37.7327L110.208 37.3762V19.703L112.376 20.802C123.426 26.4158 132.723 34.9703 139.317 45.4851C146.089 56.297 149.653 68.7426 149.653 81.5148ZM125.03 72.5445C125.03 69.4257 127.554 66.901 130.673 66.901C133.792 66.901 136.317 69.4257 136.317 72.5445C136.317 75.6634 133.792 78.1881 130.673 78.1881C129.158 78.1881 127.762 77.5941 126.693 76.5247C125.624 75.4851 125.03 74.0594 125.03 72.5445ZM43.4059 94.0198C43.4059 97.1386 40.8812 99.6634 37.7624 99.6634C34.6436 99.6634 32.1188 97.1386 32.1188 94.0198C32.1188 90.901 34.6436 88.3762 37.7624 88.3762C40.8812 88.3762 43.4059 90.901 43.4059 94.0198ZM57.5742 52.1386C57.5742 55.2574 55.0495 57.7822 51.9307 57.7822C48.8119 57.7822 46.2871 55.2574 46.2871 52.1386C46.2871 49.0198 48.8119 46.495 51.9307 46.495C55.1386 46.495 57.5742 48.9307 57.5742 52.1386ZM107.564 42.3069C110.683 42.3069 113.208 44.8317 113.208 47.9505C113.208 51.0693 110.683 53.5941 107.564 53.5941C104.446 53.5941 101.921 51.0693 101.921 47.9505C101.921 44.8317 104.446 42.3069 107.564 42.3069Z" fill="#03FBF3"/>
</g>
<defs>
<filter id="filter0_d" x="0" y="0" width="163.03" height="163.03" filterUnits="userSpaceOnUse" color-interpolation-filters="sRGB">
<feFlood flood-opacity="0" result="BackgroundImageFix"/>
<feColorMatrix in="SourceAlpha" type="matrix" values="0 0 0 0 0 0 0 0 0 0 0 0 0 0 0 0 0 0 127 0"/>
<feOffset/>
<feGaussianBlur stdDeviation="4"/>
<feColorMatrix type="matrix" values="0 0 0 0 0.0117647 0 0 0 0 0.984314 0 0 0 0 0.952941 0 0 0 0.5 0"/>
<feBlend mode="normal" in2="BackgroundImageFix" result="effect1_dropShadow"/>
<feBlend mode="normal" in="SourceGraphic" in2="effect1_dropShadow" result="shape"/>
</filter>
</defs>
</svg>
