<svg width="100" height="100" viewBox="0 0 100 100" fill="none" xmlns="http://www.w3.org/2000/svg">
<path d="M50 0C22.4242 0 0 22.4242 0 50C0 77.5758 22.4242 100 50 100C77.5758 100 100 77.5758 100 50C100 22.4242 77.5758 0 50 0ZM46.1616 45.0303C46.1616 42.9091 47.8788 41.1919 50 41.1919C52.1212 41.1919 53.8384 42.9091 53.8384 45.0303C53.8384 46.0606 53.4343 47.0101 52.7071 47.7374C51.9798 48.4646 51.0101 48.8687 50 48.8687C47.8788 48.8889 46.1616 47.1515 46.1616 45.0303ZM96.3434 50C96.3434 66.9293 87.1313 82.4646 72.303 90.5657L70.8081 91.3737V58.9293L79.4141 50.3232L80.0606 50.6465C81.0303 51.1313 82.1414 51.3939 83.2929 51.3939C87.4141 51.3939 90.7879 48.0404 90.7879 43.899C90.7879 39.7576 87.4343 36.404 83.2929 36.404C79.1515 36.404 75.798 39.7576 75.798 43.899C75.798 45.0505 76.0606 46.1616 76.5454 47.1313L76.8687 47.7778L67.7172 56.9293C67.3535 57.2929 67.1717 57.7374 67.1717 58.202V93.0505L66.5051 93.2929C62.1212 94.9091 57.6768 95.899 52.9293 96.3232L51.8182 96.4242V52.3838L52.505 52.1414C55.4949 51.1111 57.4949 48.303 57.4949 45.1515C57.4949 41.0303 54.1414 37.6566 50 37.6566C45.8586 37.6566 42.505 41.0101 42.505 45.1515C42.505 48.2828 44.5051 51.0909 47.4949 52.1414L48.1818 52.3838V96.404L47.1111 96.3434C42.2424 96.0404 37.6364 95.0303 33.4747 93.2929L32.8485 93.0303V69.1313C32.8485 68.6667 32.6465 68.2222 32.303 67.8586L26.6667 62.2424L26.9899 61.596C27.4747 60.6263 27.7374 59.4949 27.7374 58.3636C27.7374 54.2424 24.3838 50.8687 20.2424 50.8687C16.101 50.8687 12.7475 54.2222 12.7475 58.3636C12.7475 62.505 16.1212 65.8586 20.2424 65.8586C21.3939 65.8586 22.505 65.596 23.4747 65.1111L24.1212 64.7879L29.1919 69.8586V91.4141L27.697 90.5859C12.8687 82.3434 3.65657 66.8081 3.65657 50.0202C3.65657 27.7172 19.6162 8.52525 41.596 4.40404L42.7879 4.18182V28.2222H37.2323L36.9899 27.5354C35.9596 24.5455 33.1515 22.5455 30 22.5455C25.8788 22.5455 22.5051 25.899 22.5051 30.0404C22.5051 34.1616 25.8586 37.5354 30 37.5354C33.1313 37.5354 35.9394 35.5354 36.9899 32.5455L37.2323 31.8586H44.6061C45.6162 31.8586 46.4242 31.0505 46.4242 30.0404V3.79798H47.4343C47.8182 3.79798 48.202 3.75758 48.6263 3.73737C49.0707 3.69697 49.5151 3.65657 49.9798 3.65657C55.3131 3.65657 60.4444 4.52525 65.2121 6.26263L65.8788 6.50505V19.9798L65.1919 20.2222C62.202 21.2525 60.202 24.0606 60.202 27.2121C60.202 31.3333 63.5556 34.7071 67.697 34.7071C71.8384 34.7071 75.1919 31.3535 75.1919 27.2121C75.1919 24.0808 73.1919 21.2727 70.202 20.2222L69.5152 19.9798V7.9596L70.9899 8.70707C78.5051 12.5253 84.8283 18.3434 89.3131 25.4949C93.9192 32.8485 96.3434 41.3131 96.3434 50ZM79.596 43.899C79.596 41.7778 81.3131 40.0606 83.4343 40.0606C85.5556 40.0606 87.2727 41.7778 87.2727 43.899C87.2727 46.0202 85.5556 47.7374 83.4343 47.7374C82.404 47.7374 81.4545 47.3333 80.7273 46.6061C80 45.899 79.596 44.9293 79.596 43.899ZM24.0808 58.5051C24.0808 60.6263 22.3636 62.3434 20.2424 62.3434C18.1212 62.3434 16.404 60.6263 16.404 58.5051C16.404 56.3838 18.1212 54.6667 20.2424 54.6667C22.3636 54.6667 24.0808 56.3838 24.0808 58.5051ZM33.7172 30.0202C33.7172 32.1414 32 33.8586 29.8788 33.8586C27.7576 33.8586 26.0404 32.1414 26.0404 30.0202C26.0404 27.899 27.7576 26.1818 29.8788 26.1818C32.0606 26.1818 33.7172 27.8384 33.7172 30.0202ZM67.7172 23.3333C69.8384 23.3333 71.5556 25.0505 71.5556 27.1717C71.5556 29.2929 69.8384 31.0101 67.7172 31.0101C65.596 31.0101 63.8788 29.2929 63.8788 27.1717C63.8788 25.0505 65.596 23.3333 67.7172 23.3333Z" fill="#03FBF3"/>
</svg>
