<svg width="190" height="46" viewBox="0 0 190 46" fill="none" xmlns="http://www.w3.org/2000/svg">
<path d="M37.576 1.4L38.0172 1.63525L38.4092 0.899998H37.576V1.4ZM24.088 26.696L23.6468 26.4608L23.6466 26.4612L24.088 26.696ZM18.184 33.56L17.9053 33.1448L17.9027 33.1466L18.184 33.56ZM4.024 34.568L3.54828 34.4141L3.40515 34.8565L3.83599 35.0313L4.024 34.568ZM6.664 26.408L6.79556 25.9256L6.33517 25.8001L6.18828 26.2541L6.664 26.408ZM12.232 26.552L12.0179 26.1L12.0084 26.1048L12.232 26.552ZM13.96 25.112L14.3486 25.4266L14.5587 25.1671L14.3995 24.8736L13.96 25.112ZM1.096 1.4V0.899998H0.255905L0.656509 1.63843L1.096 1.4ZM13.048 1.4L13.5003 1.18688L13.3651 0.899998H13.048V1.4ZM19.72 15.56L19.2677 15.7731L19.712 16.7161L20.1693 15.7793L19.72 15.56ZM26.632 1.4V0.899998H26.3197L26.1827 1.18067L26.632 1.4ZM37.1348 1.16475L23.6468 26.4608L24.5292 26.9313L38.0172 1.63525L37.1348 1.16475ZM23.6466 26.4612C22.0771 29.4118 20.1601 31.6314 17.9053 33.1449L18.4627 33.9751C20.8799 32.3526 22.8989 29.9962 24.5294 26.9308L23.6466 26.4612ZM17.9027 33.1466C15.6815 34.6583 13.2355 35.412 10.552 35.412V36.412C13.4365 36.412 16.0785 35.5977 18.4653 33.9734L17.9027 33.1466ZM10.552 35.412C8.47926 35.412 6.36694 34.9792 4.21201 34.1047L3.83599 35.0313C6.09706 35.9488 8.33674 36.412 10.552 36.412V35.412ZM4.49972 34.7219L7.13972 26.5619L6.18828 26.2541L3.54828 34.4141L4.49972 34.7219ZM6.53244 26.8904C7.96006 27.2797 9.1606 27.484 10.12 27.484V26.484C9.2874 26.484 8.18394 26.3043 6.79556 25.9256L6.53244 26.8904ZM10.12 27.484C11.0077 27.484 11.7929 27.3305 12.4556 26.9992L12.0084 26.1048C11.5191 26.3494 10.8963 26.484 10.12 26.484V27.484ZM12.446 27.0039C13.1383 26.676 13.7704 26.1408 14.3486 25.4266L13.5714 24.7974C13.0616 25.4272 12.5417 25.852 12.018 26.1001L12.446 27.0039ZM14.3995 24.8736L1.53549 1.16157L0.656509 1.63843L13.5205 25.3504L14.3995 24.8736ZM1.096 1.9H13.048V0.899998H1.096V1.9ZM12.5957 1.61312L19.2677 15.7731L20.1723 15.3469L13.5003 1.18688L12.5957 1.61312ZM20.1693 15.7793L27.0813 1.61933L26.1827 1.18067L19.2707 15.3407L20.1693 15.7793ZM26.632 1.9H37.576V0.899998H26.632V1.9ZM43.3353 33.752L43.1141 34.2004L43.1165 34.2016L43.3353 33.752ZM37.8153 28.904L37.3923 29.1708L37.3953 29.1754L37.8153 28.904ZM37.8153 14.84L37.3953 14.5686L37.3942 14.5703L37.8153 14.84ZM43.3353 9.992L43.1165 9.54238L43.1141 9.54356L43.3353 9.992ZM59.5592 10.328L59.3002 10.7557L59.5592 10.328ZM64.2633 16.04L64.4838 16.4887L64.8835 16.2923L64.7344 15.8726L64.2633 16.04ZM55.8633 20.168L55.4063 20.3711L55.6174 20.8459L56.0838 20.6167L55.8633 20.168ZM48.0872 18.056L47.7273 17.7089L47.7209 17.7158L48.0872 18.056ZM48.0872 25.688L47.7208 26.0283L47.7273 26.0351L48.0872 25.688ZM55.8633 23.576L56.0838 23.1273L55.6174 22.8981L55.4063 23.3729L55.8633 23.576ZM64.2633 27.704L64.7344 27.8714L64.8835 27.4517L64.4838 27.2553L64.2633 27.704ZM59.5592 33.416L59.8183 33.8437L59.5592 33.416ZM51.3512 34.98C48.4411 34.98 45.8454 34.4171 43.554 33.3024L43.1165 34.2016C45.5611 35.3909 48.3094 35.98 51.3512 35.98V34.98ZM43.5564 33.3036C41.2971 32.1894 39.5276 30.6327 38.2352 28.6326L37.3953 29.1754C38.7909 31.3353 40.7014 33.0106 43.1141 34.2004L43.5564 33.3036ZM38.2381 28.6372C36.9799 26.6425 36.3473 24.3842 36.3473 21.848H35.3473C35.3473 24.5598 36.0266 27.0055 37.3923 29.1707L38.2381 28.6372ZM36.3473 21.848C36.3473 19.3117 36.9799 17.0708 38.2363 15.1097L37.3942 14.5703C36.0266 16.7052 35.3473 19.1363 35.3473 21.848H36.3473ZM38.2352 15.1114C39.5276 13.1113 41.2971 11.5546 43.5564 10.4404L43.1141 9.54356C40.7014 10.7334 38.7909 12.4087 37.3953 14.5686L38.2352 15.1114ZM43.554 10.4416C45.8454 9.32685 48.4411 8.764 51.3512 8.764V7.764C48.3094 7.764 45.5611 8.35314 43.1165 9.54238L43.554 10.4416ZM51.3512 8.764C54.4787 8.764 57.121 9.43585 59.3002 10.7557L59.8183 9.90032C57.4535 8.46815 54.6238 7.764 51.3512 7.764V8.764ZM59.3002 10.7557C61.4768 12.0739 62.9679 13.8874 63.7921 16.2074L64.7344 15.8726C63.8306 13.3286 62.1857 11.3341 59.8183 9.90032L59.3002 10.7557ZM64.0427 15.5913L55.6427 19.7193L56.0838 20.6167L64.4838 16.4887L64.0427 15.5913ZM56.3202 19.9649C55.7845 18.7598 55.1028 17.8183 54.2573 17.1775C53.4052 16.5317 52.4137 16.212 51.3032 16.212V17.212C52.2089 17.212 52.9853 17.4683 53.6532 17.9745C54.3277 18.4857 54.918 19.2722 55.4063 20.3711L56.3202 19.9649ZM51.3032 16.212C49.8918 16.212 48.6885 16.7121 47.7273 17.7089L48.4472 18.4031C49.214 17.6079 50.1547 17.212 51.3032 17.212V16.212ZM47.7209 17.7158C46.7775 18.7316 46.3392 20.1329 46.3392 21.848H47.3392C47.3392 20.2991 47.733 19.1724 48.4536 18.3962L47.7209 17.7158ZM46.3392 21.848C46.3392 23.592 46.776 25.0107 47.7209 26.0282L48.4536 25.3478C47.7345 24.5733 47.3392 23.432 47.3392 21.848H46.3392ZM47.7273 26.0351C48.6885 27.0319 49.8918 27.532 51.3032 27.532V26.532C50.1547 26.532 49.214 26.1361 48.4472 25.3409L47.7273 26.0351ZM51.3032 27.532C52.4137 27.532 53.4052 27.2123 54.2573 26.5665C55.1028 25.9257 55.7845 24.9842 56.3202 23.7791L55.4063 23.3729C54.918 24.4718 54.3277 25.2583 53.6532 25.7695C52.9853 26.2757 52.2089 26.532 51.3032 26.532V27.532ZM55.6427 24.0247L64.0427 28.1527L64.4838 27.2553L56.0838 23.1273L55.6427 24.0247ZM63.7921 27.5366C62.9679 29.8566 61.4768 31.6701 59.3002 32.9883L59.8183 33.8437C62.1857 32.4099 63.8306 30.4154 64.7344 27.8714L63.7921 27.5366ZM59.3002 32.9883C57.121 34.3081 54.4787 34.98 51.3512 34.98V35.98C54.6238 35.98 57.4535 35.2759 59.8183 33.8437L59.3002 32.9883ZM95.5671 8.744H96.0671V8.244H95.5671V8.744ZM95.5671 35V35.5H96.0671V35H95.5671ZM84.7191 35H84.2191V35.5H84.7191V35ZM84.7191 17.192H85.2191V16.692H84.7191V17.192ZM79.7751 17.192V16.692H79.2958L79.2756 17.1709L79.7751 17.192ZM79.6311 20.6L79.1316 20.5789L79.1315 20.5811L79.6311 20.6ZM78.5751 28.952L78.0918 28.8241L78.5751 28.952ZM75.6951 33.992L76.025 34.3677L76.0256 34.3672L75.6951 33.992ZM65.2311 35L64.7317 34.9754L64.7116 35.3855L65.1099 35.4851L65.2311 35ZM65.6631 26.216L65.7251 25.7199L65.1902 25.653L65.1637 26.1914L65.6631 26.216ZM69.3591 24.92L69.8154 25.1245L69.8179 25.1188L69.3591 24.92ZM70.1271 20.168L70.6267 20.1897L70.6268 20.1848L70.1271 20.168ZM70.5111 8.744V8.244H70.0276L70.0114 8.7272L70.5111 8.744ZM95.0671 8.744V35H96.0671V8.744H95.0671ZM95.5671 34.5H84.7191V35.5H95.5671V34.5ZM85.2191 35V17.192H84.2191V35H85.2191ZM84.7191 16.692H79.7751V17.692H84.7191V16.692ZM79.2756 17.1709L79.1316 20.5789L80.1307 20.6211L80.2747 17.2131L79.2756 17.1709ZM79.1315 20.5811C79.0042 23.9529 78.6549 26.6968 78.0918 28.8241L79.0585 29.0799C79.6474 26.8552 80.002 24.0311 80.1308 20.6189L79.1315 20.5811ZM78.0918 28.8241C77.5346 30.9289 76.6173 32.5133 75.3646 33.6168L76.0256 34.3672C77.461 33.1027 78.4636 31.3271 79.0585 29.0799L78.0918 28.8241ZM75.3652 33.6163C74.1703 34.6655 72.4932 35.22 70.2711 35.22V36.22C72.6571 36.22 74.596 35.6225 76.025 34.3677L75.3652 33.6163ZM70.2711 35.22C68.884 35.22 67.2464 34.9884 65.3524 34.5149L65.1099 35.4851C67.0559 35.9716 68.7782 36.22 70.2711 36.22V35.22ZM65.7305 35.0246L66.1625 26.2406L65.1637 26.1914L64.7317 34.9754L65.7305 35.0246ZM65.6011 26.7121C66.1142 26.7763 66.5092 26.812 66.7671 26.812V25.812C66.577 25.812 66.2361 25.7837 65.7251 25.7199L65.6011 26.7121ZM66.7671 26.812C67.4789 26.812 68.1105 26.6865 68.6357 26.4045C69.1688 26.1182 69.564 25.6853 69.8154 25.1245L68.9029 24.7155C68.7382 25.0827 68.4935 25.3458 68.1626 25.5235C67.8237 25.7055 67.3673 25.812 66.7671 25.812V26.812ZM69.8179 25.1188C70.2728 24.0691 70.5303 22.4061 70.6267 20.1897L69.6276 20.1463C69.532 22.3459 69.2775 23.8509 68.9003 24.7212L69.8179 25.1188ZM70.6268 20.1848L71.0108 8.7608L70.0114 8.7272L69.6274 20.1512L70.6268 20.1848ZM70.5111 9.244H95.5671V8.244H70.5111V9.244ZM130.333 8.744L130.797 8.93098L131.074 8.244H130.333V8.744ZM119.533 35.528L119.069 35.341L119.069 35.3416L119.533 35.528ZM114.397 42.728L114.676 43.143L114.397 42.728ZM102.397 44.12L102.54 43.6408L102.533 43.6388L102.397 44.12ZM98.893 42.44L98.4429 42.2222L98.2708 42.578L98.5772 42.8276L98.893 42.44ZM102.493 35L102.797 34.6028L102.31 34.2305L102.043 34.7822L102.493 35ZM104.317 36.008L104.139 36.4753L104.146 36.4779L104.317 36.008ZM109.021 35.336L109.399 35.6628L109.601 35.4293L109.483 35.1443L109.021 35.336ZM97.981 8.744V8.244H97.232L97.5192 8.93571L97.981 8.744ZM109.117 8.744L109.584 8.56408L109.46 8.244H109.117V8.744ZM114.541 22.808L114.074 22.9879L114.537 24.1869L115.006 22.9907L114.541 22.808ZM120.061 8.744V8.244H119.72L119.596 8.56132L120.061 8.744ZM129.869 8.55701L119.069 35.341L119.997 35.715L130.797 8.93098L129.869 8.55701ZM119.069 35.3416C117.713 38.7159 116.051 41.0143 114.118 42.313L114.676 43.143C116.839 41.6897 118.601 39.1881 119.997 35.7144L119.069 35.3416ZM114.118 42.313C112.168 43.623 109.758 44.292 106.861 44.292V45.292C109.916 45.292 112.53 44.585 114.676 43.143L114.118 42.313ZM106.861 44.292C105.44 44.292 104 44.0759 102.54 43.6408L102.254 44.5992C103.802 45.0601 105.338 45.292 106.861 45.292V44.292ZM102.533 43.6388C101.104 43.2349 100.004 42.7004 99.2088 42.0524L98.5772 42.8276C99.5099 43.5876 100.746 44.1731 102.261 44.6012L102.533 43.6388ZM99.3431 42.6578L102.943 35.2178L102.043 34.7822L98.4429 42.2222L99.3431 42.6578ZM102.189 35.3972C102.773 35.8439 103.424 36.2029 104.139 36.4752L104.495 35.5408C103.866 35.3011 103.301 34.9881 102.797 34.6028L102.189 35.3972ZM104.146 36.4779C104.896 36.7505 105.626 36.892 106.333 36.892V35.892C105.76 35.892 105.146 35.7775 104.488 35.5381L104.146 36.4779ZM106.333 36.892C107.62 36.892 108.672 36.5054 109.399 35.6628L108.643 35.0092C108.154 35.5746 107.414 35.892 106.333 35.892V36.892ZM109.483 35.1443L98.4428 8.55228L97.5192 8.93571L108.559 35.5277L109.483 35.1443ZM97.981 9.244H109.117V8.244H97.981V9.244ZM108.65 8.92391L114.074 22.9879L115.008 22.6281L109.584 8.56408L108.65 8.92391ZM115.006 22.9907L120.526 8.92668L119.596 8.56132L114.076 22.6253L115.006 22.9907ZM120.061 9.244H130.333V8.244H120.061V9.244ZM155.676 17.192V17.692H156.176V17.192H155.676ZM143.531 17.192V16.692H143.031V17.192H143.531ZM143.531 35V35.5H144.031V35H143.531ZM132.732 35H132.232V35.5H132.732V35ZM132.732 8.744V8.244H132.232V8.744H132.732ZM155.676 8.744H156.176V8.244H155.676V8.744ZM155.676 16.692H143.531V17.692H155.676V16.692ZM143.031 17.192V35H144.031V17.192H143.031ZM143.531 34.5H132.732V35.5H143.531V34.5ZM133.232 35V8.744H132.232V35H133.232ZM132.732 9.244H155.676V8.244H132.732V9.244ZM155.176 8.744V17.192H156.176V8.744H155.176ZM158.794 8.744V8.244H158.294V8.744H158.794ZM169.594 8.744H170.094V8.244H169.594V8.744ZM169.594 20.6H169.094V22.0762L169.991 20.9038L169.594 20.6ZM178.666 8.744V8.244H178.419L178.269 8.44015L178.666 8.744ZM188.65 8.744H189.15V8.244H188.65V8.744ZM188.65 35V35.5H189.15V35H188.65ZM177.85 35H177.35V35.5H177.85V35ZM177.85 23.096H178.35V21.6088L177.452 22.7939L177.85 23.096ZM168.826 35V35.5H169.074L169.224 35.3021L168.826 35ZM158.794 35H158.294V35.5H158.794V35ZM158.794 9.244H169.594V8.244H158.794V9.244ZM169.094 8.744V20.6H170.094V8.744H169.094ZM169.991 20.9038L179.063 9.04784L178.269 8.44015L169.197 20.2962L169.991 20.9038ZM178.666 9.244H188.65V8.244H178.666V9.244ZM188.15 8.744V35H189.15V8.744H188.15ZM188.65 34.5H177.85V35.5H188.65V34.5ZM178.35 35V23.096H177.35V35H178.35ZM177.452 22.7939L168.428 34.6979L169.224 35.3021L178.248 23.3981L177.452 22.7939ZM168.826 34.5H158.794V35.5H168.826V34.5ZM159.294 35V8.744H158.294V35H159.294Z" fill="white"/>
</svg>
