<svg width="119" height="29" viewBox="0 0 119 29" fill="none" xmlns="http://www.w3.org/2000/svg">
<path d="M23.86 0.999999L24.3012 1.23525L24.6932 0.499999H23.86V0.999999ZM15.43 16.81L14.9888 16.5747L14.9886 16.5752L15.43 16.81ZM11.74 21.1L11.4613 20.6848L11.4587 20.6866L11.74 21.1ZM2.89 21.73L2.41428 21.5761L2.27115 22.0185L2.70199 22.1933L2.89 21.73ZM4.54 16.63L4.67156 16.1476L4.21117 16.0221L4.06428 16.4761L4.54 16.63ZM8.02 16.72L7.80591 16.268L7.79639 16.2728L8.02 16.72ZM9.1 15.82L9.48862 16.1346L9.69872 15.8751L9.53949 15.5816L9.1 15.82ZM1.06 0.999999V0.499999H0.219905L0.620509 1.23843L1.06 0.999999ZM8.53 0.999999L8.98231 0.786879L8.84713 0.499999H8.53V0.999999ZM12.7 9.85L12.2477 10.0631L12.692 11.0061L13.1493 10.0693L12.7 9.85ZM17.02 0.999999V0.499999H16.7077L16.5707 0.780667L17.02 0.999999ZM23.4188 0.764748L14.9888 16.5747L15.8712 17.0452L24.3012 1.23525L23.4188 0.764748ZM14.9886 16.5752C14.0191 18.3978 12.8401 19.7594 11.4613 20.6849L12.0187 21.5151C13.5599 20.4806 14.8409 18.9822 15.8714 17.0448L14.9886 16.5752ZM11.4587 20.6866C10.1015 21.6103 8.60955 22.07 6.97 22.07V23.07C8.81045 23.07 10.4985 22.5497 12.0213 21.5134L11.4587 20.6866ZM6.97 22.07C5.70126 22.07 4.40494 21.8052 3.07801 21.2667L2.70199 22.1933C4.13506 22.7748 5.55874 23.07 6.97 23.07V22.07ZM3.36572 21.8839L5.01572 16.7839L4.06428 16.4761L2.41428 21.5761L3.36572 21.8839ZM4.40844 17.1124C5.30806 17.3577 6.0766 17.49 6.7 17.49V16.49C6.2034 16.49 5.53194 16.3823 4.67156 16.1476L4.40844 17.1124ZM6.7 17.49C7.27572 17.49 7.79694 17.3905 8.24361 17.1672L7.79639 16.2728C7.52306 16.4095 7.16428 16.49 6.7 16.49V17.49ZM8.23404 17.1719C8.69825 16.952 9.11444 16.5968 9.48862 16.1346L8.71138 15.5054C8.40556 15.8832 8.10175 16.128 7.80596 16.2681L8.23404 17.1719ZM9.53949 15.5816L1.49949 0.76157L0.620509 1.23843L8.66051 16.0584L9.53949 15.5816ZM1.06 1.5H8.53V0.499999H1.06V1.5ZM8.0777 1.21312L12.2477 10.0631L13.1523 9.63688L8.98231 0.786879L8.0777 1.21312ZM13.1493 10.0693L17.4693 1.21933L16.5707 0.780667L12.2507 9.63067L13.1493 10.0693ZM17.02 1.5H23.86V0.499999H17.02V1.5ZM27.4595 21.22L27.2384 21.6684L27.2408 21.6696L27.4595 21.22ZM24.0095 18.19L23.5866 18.4568L23.5896 18.4614L24.0095 18.19ZM24.0095 9.4L23.5896 9.12864L23.5885 9.13029L24.0095 9.4ZM27.4595 6.37L27.2408 5.92037L27.2384 5.92156L27.4595 6.37ZM37.5995 6.58L37.3405 7.00768L37.5995 6.58ZM40.5395 10.15L40.7601 10.5987L41.1598 10.4023L41.0107 9.98262L40.5395 10.15ZM35.2895 12.73L34.8326 12.9331L35.0437 13.4079L35.5101 13.1787L35.2895 12.73ZM30.4295 11.41L30.0695 11.0629L30.0631 11.0698L30.4295 11.41ZM30.4295 16.18L30.0631 16.5203L30.0696 16.5271L30.4295 16.18ZM35.2895 14.86L35.5101 14.4113L35.0437 14.1821L34.8326 14.6569L35.2895 14.86ZM40.5395 17.44L41.0107 17.6074L41.1598 17.1877L40.7601 16.9913L40.5395 17.44ZM37.5995 21.01L37.8586 21.4377L37.5995 21.01ZM32.4695 21.8C30.6754 21.8 29.0817 21.4531 27.6783 20.7704L27.2408 21.6696C28.7973 22.4269 30.5437 22.8 32.4695 22.8V21.8ZM27.6807 20.7716C26.2974 20.0894 25.2179 19.1387 24.4295 17.9186L23.5896 18.4614C24.4812 19.8413 25.7017 20.9106 27.2384 21.6684L27.6807 20.7716ZM24.4324 17.9232C23.6662 16.7085 23.2795 15.3322 23.2795 13.78H22.2795C22.2795 15.5078 22.7129 17.0715 23.5866 18.4568L24.4324 17.9232ZM23.2795 13.78C23.2795 12.2277 23.6662 10.8628 24.4305 9.66971L23.5885 9.13029C22.7129 10.4972 22.2795 12.0523 22.2795 13.78H23.2795ZM24.4295 9.67136C25.2179 8.45126 26.2974 7.50062 27.6807 6.81843L27.2384 5.92156C25.7017 6.67938 24.4812 7.74874 23.5896 9.12864L24.4295 9.67136ZM27.6783 6.81962C29.0817 6.13685 30.6754 5.79 32.4695 5.79V4.79C30.5437 4.79 28.7973 5.16315 27.2408 5.92038L27.6783 6.81962ZM32.4695 5.79C34.397 5.79 36.0133 6.20385 37.3405 7.00768L37.8586 6.15232C36.3458 5.23615 34.5421 4.79 32.4695 4.79V5.79ZM37.3405 7.00768C38.665 7.80985 39.5682 8.9094 40.0684 10.3174L41.0107 9.98262C40.4309 8.3506 39.374 7.07014 37.8586 6.15232L37.3405 7.00768ZM40.319 9.70126L35.069 12.2813L35.5101 13.1787L40.7601 10.5987L40.319 9.70126ZM35.7464 12.5269C35.4028 11.7538 34.9596 11.1363 34.399 10.7115C33.832 10.2817 33.1719 10.07 32.4395 10.07V11.07C32.9671 11.07 33.4121 11.2183 33.795 11.5085C34.1845 11.8037 34.5363 12.2662 34.8326 12.9331L35.7464 12.5269ZM32.4395 10.07C31.5081 10.07 30.7068 10.4021 30.0696 11.0629L30.7895 11.7571C31.2323 11.2979 31.771 11.07 32.4395 11.07V10.07ZM30.0631 11.0698C29.4318 11.7496 29.1495 12.6769 29.1495 13.78H30.1495C30.1495 12.8431 30.3872 12.1904 30.7959 11.7502L30.0631 11.0698ZM29.1495 13.78C29.1495 14.9 29.4303 15.8387 30.0631 16.5202L30.7959 15.8398C30.3888 15.4013 30.1495 14.74 30.1495 13.78H29.1495ZM30.0696 16.5271C30.7068 17.1879 31.5081 17.52 32.4395 17.52V16.52C31.771 16.52 31.2323 16.2921 30.7895 15.8329L30.0696 16.5271ZM32.4395 17.52C33.1719 17.52 33.832 17.3083 34.399 16.8785C34.9596 16.4537 35.4028 15.8362 35.7464 15.0631L34.8326 14.6569C34.5363 15.3238 34.1845 15.7863 33.795 16.0815C33.4121 16.3717 32.9671 16.52 32.4395 16.52V17.52ZM35.069 15.3087L40.319 17.8887L40.7601 16.9913L35.5101 14.4113L35.069 15.3087ZM40.0684 17.2726C39.5682 18.6806 38.665 19.7801 37.3405 20.5823L37.8586 21.4377C39.374 20.5199 40.4309 19.2394 41.0107 17.6074L40.0684 17.2726ZM37.3405 20.5823C36.0133 21.3861 34.397 21.8 32.4695 21.8V22.8C34.5421 22.8 36.3458 22.3539 37.8586 21.4377L37.3405 20.5823ZM60.1045 5.59H60.6045V5.09H60.1045V5.59ZM60.1045 22V22.5H60.6045V22H60.1045ZM53.3245 22H52.8245V22.5H53.3245V22ZM53.3245 10.87H53.8245V10.37H53.3245V10.87ZM50.2345 10.87V10.37H49.7551L49.7349 10.8489L50.2345 10.87ZM50.1445 13L49.6449 12.9789L49.6448 12.9811L50.1445 13ZM49.4845 18.22L49.0011 18.0921L49.4845 18.22ZM47.6845 21.37L48.0144 21.7457L48.015 21.7452L47.6845 21.37ZM41.1445 22L40.6451 21.9754L40.6249 22.3855L41.0232 22.4851L41.1445 22ZM41.4145 16.51L41.4765 16.0139L40.9415 15.947L40.9151 16.4854L41.4145 16.51ZM43.7245 15.7L44.1807 15.9045L44.1832 15.8988L43.7245 15.7ZM44.2045 12.73L44.704 12.7517L44.7042 12.7468L44.2045 12.73ZM44.4445 5.59V5.09H43.961L43.9447 5.5732L44.4445 5.59ZM59.6045 5.59V22H60.6045V5.59H59.6045ZM60.1045 21.5H53.3245V22.5H60.1045V21.5ZM53.8245 22V10.87H52.8245V22H53.8245ZM53.3245 10.37H50.2345V11.37H53.3245V10.37ZM49.7349 10.8489L49.6449 12.9789L50.644 13.0211L50.734 10.8911L49.7349 10.8489ZM49.6448 12.9811C49.5656 15.0809 49.3482 16.7808 49.0011 18.0921L49.9678 18.3479C50.3407 16.9392 50.5633 15.1591 50.6441 13.0189L49.6448 12.9811ZM49.0011 18.0921C48.6599 19.3809 48.1026 20.3353 47.3539 20.9948L48.015 21.7452C48.9463 20.9247 49.589 19.7791 49.9678 18.3479L49.0011 18.0921ZM47.3546 20.9943C46.6516 21.6115 45.6525 21.95 44.2945 21.95V22.95C45.8164 22.95 47.0773 22.5685 48.0144 21.7457L47.3546 20.9943ZM44.2945 21.95C43.4473 21.95 42.4397 21.8084 41.2657 21.5149L41.0232 22.4851C42.2492 22.7916 43.3416 22.95 44.2945 22.95V21.95ZM41.6438 22.0246L41.9138 16.5346L40.9151 16.4854L40.6451 21.9754L41.6438 22.0246ZM41.3524 17.0061C41.6735 17.0463 41.9306 17.07 42.1045 17.07V16.07C41.9984 16.07 41.7954 16.0537 41.4765 16.0139L41.3524 17.0061ZM42.1045 17.07C42.5702 17.07 42.9979 16.988 43.361 16.793C43.7321 16.5937 44.0073 16.2913 44.1807 15.9045L43.2682 15.4955C43.1816 15.6887 43.0568 15.8213 42.8879 15.912C42.711 16.007 42.4587 16.07 42.1045 16.07V17.07ZM44.1832 15.8988C44.4821 15.2091 44.6436 14.1401 44.704 12.7517L43.7049 12.7083C43.6453 14.0799 43.4868 14.9909 43.2657 15.5012L44.1832 15.8988ZM44.7042 12.7468L44.9442 5.6068L43.9447 5.5732L43.7047 12.7132L44.7042 12.7468ZM44.4445 6.09H60.1045V5.09H44.4445V6.09ZM81.8331 5.59L82.2968 5.77698L82.5739 5.09H81.8331V5.59ZM75.0831 22.33L74.6194 22.143L74.6192 22.1436L75.0831 22.33ZM71.8731 26.83L72.152 27.245L71.8731 26.83ZM64.3731 27.7L64.5159 27.2208L64.5091 27.2188L64.3731 27.7ZM62.1831 26.65L61.733 26.4322L61.5609 26.788L61.8673 27.0376L62.1831 26.65ZM64.4331 22L64.7369 21.6028L64.25 21.2305L63.983 21.7822L64.4331 22ZM65.5731 22.63L65.3951 23.0973L65.4023 23.0999L65.5731 22.63ZM68.5131 22.21L68.8915 22.5368L69.0932 22.3033L68.9749 22.0183L68.5131 22.21ZM61.6131 5.59V5.09H60.8642L61.1513 5.78171L61.6131 5.59ZM68.5731 5.59L69.0396 5.41008L68.9162 5.09H68.5731V5.59ZM71.9631 14.38L71.4966 14.5599L71.959 15.7589L72.4286 14.5627L71.9631 14.38ZM75.4131 5.59V5.09H75.0722L74.9477 5.40732L75.4131 5.59ZM81.3694 5.40301L74.6194 22.143L75.5468 22.517L82.2968 5.77698L81.3694 5.40301ZM74.6192 22.1436C73.7791 24.2339 72.7592 25.6323 71.5943 26.415L72.152 27.245C73.547 26.3077 74.6671 24.7061 75.5471 22.5164L74.6192 22.1436ZM71.5943 26.415C70.4124 27.209 68.9446 27.62 67.1631 27.62V28.62C69.1017 28.62 70.7738 28.171 72.152 27.245L71.5943 26.415ZM67.1631 27.62C66.2946 27.62 65.4126 27.4879 64.5159 27.2208L64.2304 28.1792C65.2137 28.4721 66.1917 28.62 67.1631 28.62V27.62ZM64.5091 27.2188C63.6319 26.9709 62.9702 26.6464 62.499 26.2624L61.8673 27.0376C62.476 27.5336 63.2744 27.9091 64.2371 28.1812L64.5091 27.2188ZM62.6332 26.8678L64.8832 22.2178L63.983 21.7822L61.733 26.4322L62.6332 26.8678ZM64.1294 22.3972C64.5096 22.6879 64.9323 22.9209 65.3951 23.0972L65.7511 22.1628C65.3739 22.0191 65.0367 21.8321 64.7369 21.6028L64.1294 22.3972ZM65.4023 23.0999C65.8879 23.2765 66.3659 23.37 66.8331 23.37V22.37C66.5004 22.37 66.1384 22.3035 65.744 22.1601L65.4023 23.0999ZM66.8331 23.37C67.6758 23.37 68.3918 23.1154 68.8915 22.5368L68.1347 21.8832C67.8744 22.1846 67.4704 22.37 66.8331 22.37V23.37ZM68.9749 22.0183L62.0749 5.39828L61.1513 5.78171L68.0513 22.4017L68.9749 22.0183ZM61.6131 6.09H68.5731V5.09H61.6131V6.09ZM68.1066 5.76991L71.4966 14.5599L72.4296 14.2001L69.0396 5.41008L68.1066 5.76991ZM72.4286 14.5627L75.8786 5.77268L74.9477 5.40732L71.4977 14.1973L72.4286 14.5627ZM75.4131 6.09H81.8331V5.09H75.4131V6.09ZM97.6722 10.87V11.37H98.1722V10.87H97.6722ZM90.0822 10.87V10.37H89.5822V10.87H90.0822ZM90.0822 22V22.5H90.5822V22H90.0822ZM83.3322 22H82.8322V22.5H83.3322V22ZM83.3322 5.59V5.09H82.8322V5.59H83.3322ZM97.6722 5.59H98.1722V5.09H97.6722V5.59ZM97.6722 10.37H90.0822V11.37H97.6722V10.37ZM89.5822 10.87V22H90.5822V10.87H89.5822ZM90.0822 21.5H83.3322V22.5H90.0822V21.5ZM83.8322 22V5.59H82.8322V22H83.8322ZM83.3322 6.09H97.6722V5.09H83.3322V6.09ZM97.1722 5.59V10.87H98.1722V5.59H97.1722ZM99.6212 5.59V5.09H99.1212V5.59H99.6212ZM106.371 5.59H106.871V5.09H106.371V5.59ZM106.371 13H105.871V14.4762L106.768 13.3038L106.371 13ZM112.041 5.59V5.09H111.794L111.644 5.28615L112.041 5.59ZM118.281 5.59H118.781V5.09H118.281V5.59ZM118.281 22V22.5H118.781V22H118.281ZM111.531 22H111.031V22.5H111.531V22ZM111.531 14.56H112.031V13.0728L111.133 14.2579L111.531 14.56ZM105.891 22V22.5H106.14L106.29 22.3021L105.891 22ZM99.6212 22H99.1212V22.5H99.6212V22ZM99.6212 6.09H106.371V5.09H99.6212V6.09ZM105.871 5.59V13H106.871V5.59H105.871ZM106.768 13.3038L112.438 5.89384L111.644 5.28615L105.974 12.6962L106.768 13.3038ZM112.041 6.09H118.281V5.09H112.041V6.09ZM117.781 5.59V22H118.781V5.59H117.781ZM118.281 21.5H111.531V22.5H118.281V21.5ZM112.031 22V14.56H111.031V22H112.031ZM111.133 14.2579L105.493 21.6979L106.29 22.3021L111.93 14.8621L111.133 14.2579ZM105.891 21.5H99.6212V22.5H105.891V21.5ZM100.121 22V5.59H99.1212V22H100.121Z" fill="white"/>
</svg>
