<svg width="304" height="97" viewBox="0 0 304 97" fill="none" xmlns="http://www.w3.org/2000/svg">
<path d="M21.5167 0.999999H22.0167V0.499999H21.5167V0.999999ZM21.5167 22V22.5H22.0167V22H21.5167ZM14.5567 22H14.0567V22.5H14.5567V22ZM14.5567 6.49H15.0567V5.99H14.5567V6.49ZM8.16668 6.49V5.99H7.66668V6.49H8.16668ZM8.16668 22V22.5H8.66668V22H8.16668ZM1.20668 22H0.70668V22.5H1.20668V22ZM1.20668 0.999999V0.499999H0.70668V0.999999H1.20668ZM21.0167 0.999999V22H22.0167V0.999999H21.0167ZM21.5167 21.5H14.5567V22.5H21.5167V21.5ZM15.0567 22V6.49H14.0567V22H15.0567ZM14.5567 5.99H8.16668V6.99H14.5567V5.99ZM7.66668 6.49V22H8.66668V6.49H7.66668ZM8.16668 21.5H1.20668V22.5H8.16668V21.5ZM1.70668 22V0.999999H0.70668V22H1.70668ZM1.20668 1.5H21.5167V0.499999H1.20668V1.5ZM28.5001 21.22L28.2716 21.6648L28.279 21.6684L28.5001 21.22ZM25.1101 18.19L24.6872 18.4568L24.6891 18.4597L25.1101 18.19ZM25.1101 9.4L25.5311 9.66972L25.533 9.66675L25.1101 9.4ZM28.5001 6.37L28.279 5.92156L28.2765 5.92279L28.5001 6.37ZM38.3401 6.37L38.1165 6.81722L38.119 6.81843L38.3401 6.37ZM41.7301 9.4L41.3042 9.66209L41.3091 9.66971L41.7301 9.4ZM41.7301 18.19L41.3072 17.9232L41.3061 17.925L41.7301 18.19ZM38.3401 21.22L38.5637 21.6672L38.5662 21.666L38.3401 21.22ZM35.3401 16.18L35.7131 16.5131L35.7188 16.5065L35.3401 16.18ZM31.5001 11.41L31.8731 11.743H31.8731L31.5001 11.41ZM31.5001 16.18L31.1214 16.5065L31.1271 16.513L31.5001 16.18ZM33.4201 21.8C31.6677 21.8 30.1047 21.4538 28.7213 20.7716L28.279 21.6684C29.8155 22.4262 31.5326 22.8 33.4201 22.8V21.8ZM28.7287 20.7753C27.3618 20.0729 26.3004 19.1211 25.5311 17.9203L24.6891 18.4597C25.5598 19.8189 26.7584 20.8871 28.2716 21.6647L28.7287 20.7753ZM25.533 17.9232C24.7668 16.7085 24.3801 15.3322 24.3801 13.78H23.3801C23.3801 15.5078 23.8134 17.0715 24.6872 18.4568L25.533 17.9232ZM24.3801 13.78C24.3801 12.2277 24.7668 10.8628 25.5311 9.66971L24.6891 9.13029C23.8134 10.4972 23.3801 12.0523 23.3801 13.78H24.3801ZM25.533 9.66675C26.3019 8.44772 27.3613 7.49841 28.7237 6.81721L28.2765 5.92279C26.7589 6.68159 25.5583 7.75228 24.6872 9.13325L25.533 9.66675ZM28.7213 6.81843C30.1047 6.13618 31.6677 5.79 33.4201 5.79V4.79C31.5326 4.79 29.8155 5.16382 28.279 5.92156L28.7213 6.81843ZM33.4201 5.79C35.1936 5.79 36.7553 6.13659 38.1165 6.81721L38.5637 5.92279C37.045 5.16341 35.3266 4.79 33.4201 4.79V5.79ZM38.119 6.81843C39.5004 7.4997 40.5569 8.44759 41.3043 9.66205L42.1559 9.13795C41.3033 7.75241 40.0998 6.6803 38.5613 5.92156L38.119 6.81843ZM41.3091 9.66971C42.0734 10.8628 42.4601 12.2277 42.4601 13.78H43.4601C43.4601 12.0523 43.0268 10.4972 42.1511 9.13029L41.3091 9.66971ZM42.4601 13.78C42.4601 15.3322 42.0734 16.7085 41.3072 17.9232L42.153 18.4568C43.0268 17.0715 43.4601 15.5078 43.4601 13.78H42.4601ZM41.3061 17.925C40.5584 19.1213 39.4999 20.0716 38.1141 20.774L38.5662 21.666C40.1003 20.8884 41.3018 19.8187 42.1541 18.455L41.3061 17.925ZM38.1165 20.7728C36.7553 21.4534 35.1936 21.8 33.4201 21.8V22.8C35.3266 22.8 37.045 22.4266 38.5637 21.6672L38.1165 20.7728ZM33.4201 17.52C34.3362 17.52 35.1141 17.1839 35.7131 16.513L34.9671 15.847C34.5661 16.2961 34.064 16.52 33.4201 16.52V17.52ZM35.7188 16.5065C36.3199 15.8093 36.5901 14.8796 36.5901 13.78H35.5901C35.5901 14.7204 35.3604 15.3907 34.9614 15.8535L35.7188 16.5065ZM36.5901 13.78C36.5901 12.6816 36.3203 11.7571 35.7131 11.077L34.9671 11.743C35.3599 12.1829 35.5901 12.8384 35.5901 13.78H36.5901ZM35.7131 11.077C35.1141 10.4061 34.3362 10.07 33.4201 10.07V11.07C34.064 11.07 34.5661 11.2939 34.9671 11.743L35.7131 11.077ZM33.4201 10.07C32.504 10.07 31.7261 10.4061 31.1271 11.077L31.8731 11.743C32.2741 11.2939 32.7762 11.07 33.4201 11.07V10.07ZM31.1271 11.077C30.5199 11.7571 30.2501 12.6816 30.2501 13.78H31.2501C31.2501 12.8384 31.4803 12.1829 31.8731 11.743L31.1271 11.077ZM30.2501 13.78C30.2501 14.8796 30.5204 15.8093 31.1214 16.5065L31.8788 15.8535C31.4799 15.3907 31.2501 14.7204 31.2501 13.78H30.2501ZM31.1271 16.513C31.7261 17.1839 32.504 17.52 33.4201 17.52V16.52C32.7762 16.52 32.2741 16.2961 31.8731 15.847L31.1271 16.513ZM61.7378 5.59H62.2378V5.09H61.7378V5.59ZM61.7378 22V22.5H62.2378V22H61.7378ZM54.9878 22H54.4878V22.5H54.9878V22ZM54.9878 16.45H55.4878V15.5795L54.7358 16.0181L54.9878 16.45ZM45.8978 15.7L45.557 16.066L45.5605 16.0691L45.8978 15.7ZM44.1578 5.59V5.09H43.6578V5.59H44.1578ZM50.9078 5.59H51.4078V5.09H50.9078V5.59ZM51.3578 11.86L50.993 12.202L50.9985 12.2079L51.0042 12.2136L51.3578 11.86ZM54.9878 11.89L55.2 12.3427L55.4878 12.2078V11.89H54.9878ZM54.9878 5.59V5.09H54.4878V5.59H54.9878ZM61.2378 5.59V22H62.2378V5.59H61.2378ZM61.7378 21.5H54.9878V22.5H61.7378V21.5ZM55.4878 22V16.45H54.4878V22H55.4878ZM54.7358 16.0181C53.8771 16.519 52.7132 16.79 51.2078 16.79V17.79C52.8223 17.79 54.1785 17.501 55.2397 16.8819L54.7358 16.0181ZM51.2078 16.79C48.8902 16.79 47.2654 16.2724 46.2351 15.3309L45.5605 16.0691C46.8502 17.2476 48.7654 17.79 51.2078 17.79V16.79ZM46.2385 15.3341C45.2194 14.3853 44.6578 12.8462 44.6578 10.6H43.6578C43.6578 12.9938 44.2561 14.8547 45.5571 16.0659L46.2385 15.3341ZM44.6578 10.6V5.59H43.6578V10.6H44.6578ZM44.1578 6.09H50.9078V5.09H44.1578V6.09ZM50.4078 5.59V10.15H51.4078V5.59H50.4078ZM50.4078 10.15C50.4078 10.9989 50.5566 11.7365 50.993 12.202L51.7225 11.518C51.559 11.3435 51.4078 10.9411 51.4078 10.15H50.4078ZM51.0042 12.2136C51.4536 12.663 52.0959 12.84 52.8278 12.84V11.84C52.2396 11.84 51.9019 11.697 51.7113 11.5064L51.0042 12.2136ZM52.8278 12.84C53.6914 12.84 54.4853 12.6777 55.2 12.3427L54.7756 11.4373C54.2102 11.7023 53.5641 11.84 52.8278 11.84V12.84ZM55.4878 11.89V5.59H54.4878V11.89H55.4878ZM54.9878 6.09H61.7378V5.09H54.9878V6.09ZM82.0811 15.37V15.87H82.5508L82.5801 15.4012L82.0811 15.37ZM70.6811 15.37V14.87H69.9514L70.2148 15.5505L70.6811 15.37ZM71.8811 16.81L71.6215 17.2375L71.633 17.2441L71.8811 16.81ZM75.7811 17.02L75.6117 16.5495L75.6055 16.5518L75.7811 17.02ZM77.4011 16.09L77.7561 15.7379L77.4477 15.427L77.0989 15.6917L77.4011 16.09ZM80.9411 19.66L81.311 19.9963L81.6304 19.6451L81.2961 19.3079L80.9411 19.66ZM68.5511 21.22L68.3298 21.6684L68.3347 21.6708L68.5511 21.22ZM65.0711 18.16L65.494 17.8932L65.0711 18.16ZM65.0411 9.4L64.6181 9.13325L64.6171 9.135L65.0411 9.4ZM68.3711 6.37L68.1449 5.92404L68.1424 5.92535L68.3711 6.37ZM77.6711 6.28L77.4528 6.72983L77.4553 6.73107L77.6711 6.28ZM80.9411 9.19L80.517 9.45502L80.52 9.45971L80.9411 9.19ZM71.4611 10.48L71.7795 10.8655L71.4611 10.48ZM70.5611 12.1L70.0708 12.0019L69.9512 12.6H70.5611V12.1ZM75.8411 12.1V12.6H76.4545L76.3308 11.9992L75.8411 12.1ZM74.9411 10.51L74.6129 10.8874L74.6226 10.8955L74.9411 10.51ZM81.6711 13.78C81.6711 13.7801 81.6711 13.78 81.6711 13.78C81.6711 13.7801 81.6711 13.78 81.6711 13.7801C81.6711 13.7801 81.6711 13.7802 81.6711 13.7802C81.6711 13.7804 81.6711 13.7806 81.6711 13.7809C81.671 13.7814 81.671 13.7822 81.671 13.7832C81.671 13.7853 81.6709 13.7881 81.6709 13.7916C81.6707 13.7987 81.6704 13.808 81.67 13.8196C81.6691 13.8429 81.6678 13.8735 81.666 13.9118C81.6623 13.9884 81.6568 14.0924 81.6494 14.2242C81.6344 14.4878 81.612 14.8591 81.582 15.3388L82.5801 15.4012C82.6393 14.4545 82.6711 13.9004 82.6711 13.78H81.6711ZM82.0811 14.87H70.6811V15.87H82.0811V14.87ZM70.2148 15.5505C70.4939 16.2717 70.9658 16.8392 71.6216 17.2374L72.1405 16.3826C71.6763 16.1008 71.3482 15.7083 71.1473 15.1895L70.2148 15.5505ZM71.633 17.2441C72.288 17.6184 73.0797 17.79 73.9811 17.79V16.79C73.2024 16.79 72.5941 16.6416 72.1291 16.3759L71.633 17.2441ZM73.9811 17.79C74.7386 17.79 75.4028 17.6959 75.9566 17.4882L75.6055 16.5518C75.1993 16.7041 74.6635 16.79 73.9811 16.79V17.79ZM75.9504 17.4904C76.512 17.2883 77.0967 16.9485 77.7032 16.4883L77.0989 15.6917C76.5454 16.1115 76.0501 16.3917 75.6117 16.5496L75.9504 17.4904ZM77.046 16.4421L80.586 20.0121L81.2961 19.3079L77.7561 15.7379L77.046 16.4421ZM80.5711 19.3237C79.0948 20.9476 76.8599 21.8 73.7711 21.8V22.8C77.0422 22.8 79.5873 21.8924 81.311 19.9963L80.5711 19.3237ZM73.7711 21.8C71.8519 21.8 70.1883 21.4512 68.7674 20.7692L68.3347 21.6708C69.9139 22.4288 71.7302 22.8 73.7711 22.8V21.8ZM68.7723 20.7716C67.3474 20.0687 66.2605 19.1084 65.494 17.8932L64.6482 18.4268C65.5217 19.8116 66.7547 20.8913 68.3298 21.6684L68.7723 20.7716ZM65.494 17.8932C64.7271 16.6775 64.3411 15.3109 64.3411 13.78H63.3411C63.3411 15.4891 63.775 17.0425 64.6482 18.4268L65.494 17.8932ZM64.3411 13.78C64.3411 12.2253 64.719 10.8587 65.4651 9.665L64.6171 9.135C63.7631 10.5013 63.3411 12.0547 63.3411 13.78H64.3411ZM65.464 9.66675C66.2351 8.44424 67.2772 7.49481 68.5997 6.81464L68.1424 5.92535C66.6649 6.68519 65.487 7.75576 64.6182 9.13325L65.464 9.66675ZM68.5972 6.81595C69.94 6.1351 71.4512 5.79 73.1411 5.79V4.79C71.3109 4.79 69.6422 5.1649 68.1449 5.92405L68.5972 6.81595ZM73.1411 5.79C74.733 5.79 76.1673 6.10598 77.4528 6.72983L77.8894 5.83017C76.4549 5.13402 74.8692 4.79 73.1411 4.79V5.79ZM77.4553 6.73107C78.7509 7.35067 79.7681 8.25668 80.5171 9.455L81.3651 8.925C80.514 7.56332 79.3512 6.52933 77.8868 5.82893L77.4553 6.73107ZM80.52 9.45971C81.2802 10.6463 81.6711 12.079 81.6711 13.78H82.6711C82.6711 11.921 82.2419 10.2937 81.3621 8.92029L80.52 9.45971ZM73.2011 9.41C72.4059 9.41 71.7073 9.62808 71.1426 10.0945L71.7795 10.8655C72.1349 10.5719 72.5962 10.41 73.2011 10.41V9.41ZM71.1426 10.0945C70.5774 10.5614 70.2287 11.2123 70.0708 12.0019L71.0513 12.1981C71.1734 11.5877 71.4247 11.1586 71.7795 10.8655L71.1426 10.0945ZM70.5611 12.6H75.8411V11.6H70.5611V12.6ZM76.3308 11.9992C76.1717 11.2267 75.8213 10.5886 75.2595 10.1245L74.6226 10.8955C74.9808 11.1914 75.2304 11.6133 75.3513 12.2008L76.3308 11.9992ZM75.2691 10.1327C74.7048 9.64194 74.0026 9.41 73.2011 9.41V10.41C73.7995 10.41 74.2573 10.5781 74.613 10.8873L75.2691 10.1327ZM100.419 22L99.9186 22.002L99.9206 22.5H100.419V22ZM100.389 14.65L100.889 14.648L100.881 12.7885L99.955 14.401L100.389 14.65ZM96.9086 20.71V21.21H97.198L97.3421 20.959L96.9086 20.71ZM94.0586 20.71L93.6188 20.9479L93.7606 21.21H94.0586V20.71ZM90.6986 14.5L91.1383 14.2621L90.1986 14.5H90.6986ZM90.6986 22V22.5H91.1986V22H90.6986ZM84.6086 22H84.1086V22.5H84.6086V22ZM84.6086 5.59V5.09H84.1086V5.59H84.6086ZM91.7786 5.59L92.224 5.3629L92.0849 5.09H91.7786V5.59ZM95.6786 13.24L95.2331 13.4671L95.6516 14.2879L96.1117 13.4897L95.6786 13.24ZM100.089 5.59V5.09H99.7997L99.6554 5.34028L100.089 5.59ZM106.449 5.59L106.949 5.58817L106.947 5.09H106.449V5.59ZM106.509 22V22.5H107.01L107.009 21.9982L106.509 22ZM100.919 21.998L100.889 14.648L99.8886 14.652L99.9186 22.002L100.919 21.998ZM99.955 14.401L96.475 20.461L97.3421 20.959L100.822 14.899L99.955 14.401ZM96.9086 20.21H94.0586V21.21H96.9086V20.21ZM94.4983 20.4721L91.1383 14.2621L90.2588 14.7379L93.6188 20.9479L94.4983 20.4721ZM90.1986 14.5V22H91.1986V14.5H90.1986ZM90.6986 21.5H84.6086V22.5H90.6986V21.5ZM85.1086 22V5.59H84.1086V22H85.1086ZM84.6086 6.09H91.7786V5.09H84.6086V6.09ZM91.3331 5.81709L95.2331 13.4671L96.124 13.0129L92.224 5.3629L91.3331 5.81709ZM96.1117 13.4897L100.522 5.83971L99.6554 5.34028L95.2454 12.9903L96.1117 13.4897ZM100.089 6.09H106.449V5.09H100.089V6.09ZM105.949 5.59183L106.009 22.0018L107.009 21.9982L106.949 5.58817L105.949 5.59183ZM106.509 21.5H100.419V22.5H106.509V21.5ZM128.197 5.59L128.661 5.77698L128.938 5.09H128.197V5.59ZM121.447 22.33L120.984 22.143L120.983 22.1436L121.447 22.33ZM118.237 26.83L118.516 27.245L118.237 26.83ZM110.737 27.7L110.88 27.2208L110.873 27.2188L110.737 27.7ZM108.547 26.65L108.097 26.4322L107.925 26.788L108.232 27.0376L108.547 26.65ZM110.797 22L111.101 21.6028L110.614 21.2305L110.347 21.7822L110.797 22ZM111.937 22.63L111.759 23.0973L111.767 23.0999L111.937 22.63ZM114.877 22.21L115.256 22.5368L115.457 22.3033L115.339 22.0183L114.877 22.21ZM107.977 5.59V5.09H107.228L107.516 5.78171L107.977 5.59ZM114.937 5.59L115.404 5.41008L115.28 5.09H114.937V5.59ZM118.327 14.38L117.861 14.5599L118.323 15.7589L118.793 14.5627L118.327 14.38ZM121.777 5.59V5.09H121.436L121.312 5.40732L121.777 5.59ZM127.734 5.40301L120.984 22.143L121.911 22.517L128.661 5.77698L127.734 5.40301ZM120.983 22.1436C120.143 24.2339 119.124 25.6323 117.959 26.415L118.516 27.245C119.911 26.3077 121.031 24.7061 121.911 22.5164L120.983 22.1436ZM117.959 26.415C116.777 27.209 115.309 27.62 113.527 27.62V28.62C115.466 28.62 117.138 28.171 118.516 27.245L117.959 26.415ZM113.527 27.62C112.659 27.62 111.777 27.4879 110.88 27.2208L110.595 28.1792C111.578 28.4721 112.556 28.62 113.527 28.62V27.62ZM110.873 27.2188C109.996 26.9709 109.334 26.6464 108.863 26.2624L108.232 27.0376C108.84 27.5336 109.639 27.9091 110.601 28.1812L110.873 27.2188ZM108.997 26.8678L111.247 22.2178L110.347 21.7822L108.097 26.4322L108.997 26.8678ZM110.494 22.3972C110.874 22.6879 111.297 22.9209 111.759 23.0972L112.115 22.1628C111.738 22.0191 111.401 21.8321 111.101 21.6028L110.494 22.3972ZM111.767 23.0999C112.252 23.2765 112.73 23.37 113.197 23.37V22.37C112.865 22.37 112.503 22.3035 112.108 22.1601L111.767 23.0999ZM113.197 23.37C114.04 23.37 114.756 23.1154 115.256 22.5368L114.499 21.8832C114.239 22.1846 113.835 22.37 113.197 22.37V23.37ZM115.339 22.0183L108.439 5.39828L107.516 5.78171L114.416 22.4017L115.339 22.0183ZM107.977 6.09H114.937V5.09H107.977V6.09ZM114.471 5.76991L117.861 14.5599L118.794 14.2001L115.404 5.41008L114.471 5.76991ZM118.793 14.5627L122.243 5.77268L121.312 5.40732L117.862 14.1973L118.793 14.5627ZM121.777 6.09H128.197V5.09H121.777V6.09ZM152.641 13.39L152.407 12.9478L151.426 13.4657L152.464 13.8577L152.641 13.39ZM153.571 20.74L153.861 21.1474L153.865 21.1441L153.571 20.74ZM138.691 22H138.191V22.5H138.691V22ZM138.691 5.59V5.09H138.191V5.59H138.691ZM153.031 6.73L152.766 7.15442L152.771 7.15751L153.031 6.73ZM144.631 12.07H144.131V12.57H144.631V12.07ZM148.411 10.06L148.094 10.447L148.102 10.4537L148.111 10.46L148.411 10.06ZM144.631 9.79V9.29H144.131V9.79H144.631ZM144.631 15.4V14.9H144.131V15.4H144.631ZM144.631 17.8H144.131V18.3H144.631V17.8ZM152.464 13.8577C153.293 14.1709 153.878 14.6052 154.258 15.1416C154.637 15.6767 154.841 16.3529 154.841 17.2H155.841C155.841 16.1871 155.594 15.2983 155.074 14.5634C154.554 13.8298 153.788 13.2891 152.817 12.9223L152.464 13.8577ZM154.841 17.2C154.841 18.5454 154.323 19.573 153.276 20.3359L153.865 21.1441C155.178 20.187 155.841 18.8546 155.841 17.2H154.841ZM153.281 20.3327C152.221 21.0867 150.612 21.5 148.381 21.5V22.5C150.709 22.5 152.56 22.0733 153.861 21.1473L153.281 20.3327ZM148.381 21.5H138.691V22.5H148.381V21.5ZM139.191 22V5.59H138.191V22H139.191ZM138.691 6.09H147.901V5.09H138.691V6.09ZM147.901 6.09C150.053 6.09 151.657 6.46345 152.766 7.15439L153.295 6.30561C151.964 5.47655 150.148 5.09 147.901 5.09V6.09ZM152.771 7.15751C153.851 7.81229 154.361 8.70499 154.361 9.88H155.361C155.361 8.33501 154.65 7.12771 153.29 6.3025L152.771 7.15751ZM154.361 9.88C154.361 10.5522 154.194 11.1382 153.868 11.6525L154.713 12.1875C155.147 11.5018 155.361 10.7278 155.361 9.88H154.361ZM153.868 11.6525C153.541 12.1685 153.061 12.6025 152.407 12.9478L152.874 13.8322C153.66 13.4175 154.28 12.8715 154.713 12.1875L153.868 11.6525ZM144.631 12.57H147.301V11.57H144.631V12.57ZM147.301 12.57C147.844 12.57 148.343 12.4642 148.714 12.1687C149.107 11.8559 149.271 11.4012 149.271 10.9H148.271C148.271 11.1788 148.189 11.3091 148.092 11.3863C147.973 11.4808 147.738 11.57 147.301 11.57V12.57ZM149.271 10.9C149.271 10.409 149.109 9.95914 148.711 9.66L148.111 10.46C148.192 10.5209 148.271 10.631 148.271 10.9H149.271ZM148.727 9.67302C148.369 9.3801 147.852 9.29 147.301 9.29V10.29C147.79 10.29 148.012 10.3799 148.094 10.447L148.727 9.67302ZM147.301 9.29H144.631V10.29H147.301V9.29ZM144.131 9.79V12.07H145.131V9.79H144.131ZM147.781 18.3C148.328 18.3 148.832 18.1873 149.204 17.876C149.593 17.5503 149.751 17.0828 149.751 16.57H148.751C148.751 16.8772 148.663 17.0247 148.562 17.109C148.444 17.2077 148.213 17.3 147.781 17.3V18.3ZM149.751 16.57C149.751 16.0688 149.587 15.6141 149.194 15.3013C148.823 15.0058 148.324 14.9 147.781 14.9V15.9C148.218 15.9 148.453 15.9892 148.572 16.0837C148.669 16.1609 148.751 16.2912 148.751 16.57H149.751ZM147.781 14.9H144.631V15.9H147.781V14.9ZM144.131 15.4V17.8H145.131V15.4H144.131ZM144.631 18.3H147.781V17.3H144.631V18.3ZM171.148 7.24L170.823 7.61999L170.826 7.62246L171.148 7.24ZM173.428 22V22.5H173.928V22H173.428ZM167.128 22H166.628V22.5H167.128V22ZM167.128 19.84H167.628L166.676 19.6252L167.128 19.84ZM159.148 21.64L158.92 22.0854L158.932 22.0911L159.148 21.64ZM157.078 19.81L156.647 20.064L156.651 20.0706L156.655 20.077L157.078 19.81ZM158.248 13.51L157.967 13.096L158.248 13.51ZM166.618 12.25V12.75H167.211L167.111 12.1653L166.618 12.25ZM161.278 10.69L161.417 11.1704L161.428 11.1668L161.278 10.69ZM159.328 11.62L158.878 11.8375L159.14 12.3811L159.625 12.0218L159.328 11.62ZM157.168 7.15L156.905 6.72448L156.521 6.96136L156.718 7.36754L157.168 7.15ZM160.558 5.8L160.676 6.28595L160.681 6.28464L160.558 5.8ZM165.808 17.83L165.525 17.4173V17.4173L165.808 17.83ZM166.648 16.66L167.12 16.8236L167.148 16.7441V16.66H166.648ZM166.648 15.52H167.148V15.02H166.648V15.52ZM163.318 17.86L162.978 18.2264L162.991 18.2389L163.005 18.2504L163.318 17.86ZM164.548 5.79C167.36 5.79 169.426 6.42536 170.823 7.61998L171.473 6.86002C169.83 5.45464 167.495 4.79 164.548 4.79V5.79ZM170.826 7.62246C172.197 8.77724 172.928 10.5931 172.928 13.18H173.928C173.928 10.4069 173.139 8.26276 171.47 6.85754L170.826 7.62246ZM172.928 13.18V22H173.928V13.18H172.928ZM173.428 21.5H167.128V22.5H173.428V21.5ZM167.628 22V19.84H166.628V22H167.628ZM166.676 19.6252C166.004 21.0397 164.669 21.8 162.478 21.8V22.8C164.927 22.8 166.692 21.9203 167.579 20.0548L166.676 19.6252ZM162.478 21.8C161.233 21.8 160.2 21.5891 159.363 21.1889L158.932 22.0911C159.935 22.5709 161.123 22.8 162.478 22.8V21.8ZM159.375 21.1948C158.545 20.7704 157.927 20.2181 157.501 19.543L156.655 20.077C157.189 20.9219 157.951 21.5896 158.92 22.0852L159.375 21.1948ZM157.508 19.556C157.097 18.8576 156.888 18.0763 156.888 17.2H155.888C155.888 18.2437 156.139 19.2024 156.647 20.064L157.508 19.556ZM156.888 17.2C156.888 15.7299 157.438 14.6623 158.528 13.924L157.967 13.096C156.577 14.0377 155.888 15.4301 155.888 17.2H156.888ZM158.528 13.924C159.646 13.1666 161.407 12.75 163.888 12.75V11.75C161.329 11.75 159.329 12.1734 157.967 13.096L158.528 13.924ZM163.888 12.75H166.618V11.75H163.888V12.75ZM167.111 12.1653C166.978 11.3958 166.59 10.7866 165.944 10.3853C165.319 9.99686 164.496 9.83 163.528 9.83V10.83C164.399 10.83 165.012 10.9831 165.416 11.2347C165.801 11.4734 166.037 11.8242 166.125 12.3347L167.111 12.1653ZM163.528 9.83C162.733 9.83 161.932 9.95901 161.127 10.2132L161.428 11.1668C162.143 10.941 162.843 10.83 163.528 10.83V9.83ZM161.139 10.2097C160.332 10.4434 159.626 10.7772 159.03 11.2182L159.625 12.0218C160.11 11.6628 160.704 11.3766 161.417 11.1703L161.139 10.2097ZM159.778 11.4025L157.618 6.93246L156.718 7.36754L158.878 11.8375L159.778 11.4025ZM157.43 7.57552C158.317 7.02864 159.395 6.59626 160.676 6.28592L160.44 5.31407C159.08 5.64373 157.899 6.11135 156.905 6.72448L157.43 7.57552ZM160.681 6.28464C161.982 5.95436 163.271 5.79 164.548 5.79V4.79C163.184 4.79 161.813 4.96564 160.435 5.31536L160.681 6.28464ZM164.518 18.72C165.094 18.72 165.623 18.5621 166.09 18.2427L165.525 17.4173C165.232 17.6179 164.902 17.72 164.518 17.72V18.72ZM166.09 18.2427C166.575 17.911 166.912 17.4245 167.12 16.8236L166.175 16.4964C166.023 16.9355 165.801 17.229 165.525 17.4173L166.09 18.2427ZM167.148 16.66V15.52H166.148V16.66H167.148ZM166.648 15.02H164.968V16.02H166.648V15.02ZM164.968 15.02C164.238 15.02 163.603 15.1388 163.138 15.449C162.637 15.783 162.398 16.2943 162.398 16.9H163.398C163.398 16.5857 163.504 16.407 163.693 16.281C163.917 16.1312 164.318 16.02 164.968 16.02V15.02ZM162.398 16.9C162.398 17.4199 162.596 17.8724 162.978 18.2264L163.658 17.4936C163.479 17.3276 163.398 17.1401 163.398 16.9H162.398ZM163.005 18.2504C163.418 18.5803 163.939 18.72 164.518 18.72V17.72C164.097 17.72 163.818 17.6197 163.63 17.4696L163.005 18.2504ZM192.001 22L191.501 22.002L191.503 22.5H192.001V22ZM191.971 14.65L192.471 14.648L192.463 12.7885L191.537 14.401L191.971 14.65ZM188.491 20.71V21.21H188.78L188.924 20.959L188.491 20.71ZM185.641 20.71L185.201 20.9479L185.343 21.21H185.641V20.71ZM182.281 14.5L182.72 14.2621L181.781 14.5H182.281ZM182.281 22V22.5H182.781V22H182.281ZM176.191 22H175.691V22.5H176.191V22ZM176.191 5.59V5.09H175.691V5.59H176.191ZM183.361 5.59L183.806 5.3629L183.667 5.09H183.361V5.59ZM187.261 13.24L186.815 13.4671L187.234 14.2879L187.694 13.4897L187.261 13.24ZM191.671 5.59V5.09H191.382L191.237 5.34028L191.671 5.59ZM198.031 5.59L198.531 5.58817L198.529 5.09H198.031V5.59ZM198.091 22V22.5H198.592L198.591 21.9982L198.091 22ZM192.501 21.998L192.471 14.648L191.471 14.652L191.501 22.002L192.501 21.998ZM191.537 14.401L188.057 20.461L188.924 20.959L192.404 14.899L191.537 14.401ZM188.491 20.21H185.641V21.21H188.491V20.21ZM186.08 20.4721L182.72 14.2621L181.841 14.7379L185.201 20.9479L186.08 20.4721ZM181.781 14.5V22H182.781V14.5H181.781ZM182.281 21.5H176.191V22.5H182.281V21.5ZM176.691 22V5.59H175.691V22H176.691ZM176.191 6.09H183.361V5.09H176.191V6.09ZM182.915 5.81709L186.815 13.4671L187.706 13.0129L183.806 5.3629L182.915 5.81709ZM187.694 13.4897L192.104 5.83971L191.237 5.34028L186.827 12.9903L187.694 13.4897ZM191.671 6.09H198.031V5.09H191.671V6.09ZM197.531 5.59183L197.591 22.0018L198.591 21.9982L198.531 5.58817L197.531 5.59183ZM198.091 21.5H192.001V22.5H198.091V21.5ZM213.834 21.22L213.612 21.6684L213.615 21.6696L213.834 21.22ZM210.384 18.19L209.961 18.4568L209.964 18.4614L210.384 18.19ZM210.384 9.4L209.964 9.12864L209.963 9.13029L210.384 9.4ZM213.834 6.37L213.615 5.92037L213.612 5.92156L213.834 6.37ZM223.974 6.58L223.715 7.00768L223.974 6.58ZM226.914 10.15L227.134 10.5987L227.534 10.4023L227.385 9.98262L226.914 10.15ZM221.664 12.73L221.207 12.9331L221.418 13.4079L221.884 13.1787L221.664 12.73ZM216.804 11.41L216.444 11.0629L216.437 11.0698L216.804 11.41ZM216.804 16.18L216.437 16.5203L216.444 16.5271L216.804 16.18ZM221.664 14.86L221.884 14.4113L221.418 14.1821L221.207 14.6569L221.664 14.86ZM226.914 17.44L227.385 17.6074L227.534 17.1877L227.134 16.9913L226.914 17.44ZM223.974 21.01L224.233 21.4377L223.974 21.01ZM218.844 21.8C217.049 21.8 215.456 21.4531 214.052 20.7704L213.615 21.6696C215.171 22.4269 216.918 22.8 218.844 22.8V21.8ZM214.055 20.7716C212.671 20.0894 211.592 19.1387 210.804 17.9186L209.964 18.4614C210.855 19.8413 212.076 20.9106 213.612 21.6684L214.055 20.7716ZM210.806 17.9232C210.04 16.7085 209.654 15.3322 209.654 13.78H208.654C208.654 15.5078 209.087 17.0715 209.961 18.4568L210.806 17.9232ZM209.654 13.78C209.654 12.2277 210.04 10.8628 210.805 9.66971L209.963 9.13029C209.087 10.4972 208.654 12.0523 208.654 13.78H209.654ZM210.804 9.67136C211.592 8.45126 212.671 7.50062 214.055 6.81843L213.612 5.92156C212.076 6.67938 210.855 7.74874 209.964 9.12864L210.804 9.67136ZM214.052 6.81962C215.456 6.13685 217.049 5.79 218.844 5.79V4.79C216.918 4.79 215.171 5.16315 213.615 5.92038L214.052 6.81962ZM218.844 5.79C220.771 5.79 222.387 6.20385 223.715 7.00768L224.233 6.15232C222.72 5.23615 220.916 4.79 218.844 4.79V5.79ZM223.715 7.00768C225.039 7.80985 225.942 8.9094 226.442 10.3174L227.385 9.98262C226.805 8.3506 225.748 7.07014 224.233 6.15232L223.715 7.00768ZM226.693 9.70126L221.443 12.2813L221.884 13.1787L227.134 10.5987L226.693 9.70126ZM222.12 12.5269C221.777 11.7538 221.334 11.1363 220.773 10.7115C220.206 10.2817 219.546 10.07 218.814 10.07V11.07C219.341 11.07 219.786 11.2183 220.169 11.5085C220.559 11.8037 220.91 12.2662 221.207 12.9331L222.12 12.5269ZM218.814 10.07C217.882 10.07 217.081 10.4021 216.444 11.0629L217.163 11.7571C217.606 11.2979 218.145 11.07 218.814 11.07V10.07ZM216.437 11.0698C215.806 11.7496 215.524 12.6769 215.524 13.78H216.524C216.524 12.8431 216.761 12.1904 217.17 11.7502L216.437 11.0698ZM215.524 13.78C215.524 14.9 215.804 15.8387 216.437 16.5202L217.17 15.8398C216.763 15.4013 216.524 14.74 216.524 13.78H215.524ZM216.444 16.5271C217.081 17.1879 217.882 17.52 218.814 17.52V16.52C218.145 16.52 217.606 16.2921 217.163 15.8329L216.444 16.5271ZM218.814 17.52C219.546 17.52 220.206 17.3083 220.773 16.8785C221.334 16.4537 221.777 15.8362 222.12 15.0631L221.207 14.6569C220.91 15.3238 220.559 15.7863 220.169 16.0815C219.786 16.3717 219.341 16.52 218.814 16.52V17.52ZM221.443 15.3087L226.693 17.8887L227.134 16.9913L221.884 14.4113L221.443 15.3087ZM226.442 17.2726C225.942 18.6806 225.039 19.7801 223.715 20.5823L224.233 21.4377C225.748 20.5199 226.805 19.2394 227.385 17.6074L226.442 17.2726ZM223.715 20.5823C222.387 21.3861 220.771 21.8 218.844 21.8V22.8C220.916 22.8 222.72 22.3539 224.233 21.4377L223.715 20.5823ZM244.465 10.87V11.37H244.965V10.87H244.465ZM239.455 10.87V10.37H238.955V10.87H239.455ZM239.455 22V22.5H239.955V22H239.455ZM232.705 22H232.205V22.5H232.705V22ZM232.705 10.87H233.205V10.37H232.705V10.87ZM227.695 10.87H227.195V11.37H227.695V10.87ZM227.695 5.59V5.09H227.195V5.59H227.695ZM244.465 5.59H244.965V5.09H244.465V5.59ZM244.465 10.37H239.455V11.37H244.465V10.37ZM238.955 10.87V22H239.955V10.87H238.955ZM239.455 21.5H232.705V22.5H239.455V21.5ZM233.205 22V10.87H232.205V22H233.205ZM232.705 10.37H227.695V11.37H232.705V10.37ZM228.195 10.87V5.59H227.195V10.87H228.195ZM227.695 6.09H244.465V5.09H227.695V6.09ZM243.965 5.59V10.87H244.965V5.59H243.965ZM249.369 21.22L249.141 21.6648L249.148 21.6684L249.369 21.22ZM245.979 18.19L245.556 18.4568L245.558 18.4597L245.979 18.19ZM245.979 9.4L246.4 9.66972L246.402 9.66675L245.979 9.4ZM249.369 6.37L249.148 5.92156L249.146 5.92279L249.369 6.37ZM259.209 6.37L258.986 6.81722L258.988 6.81843L259.209 6.37ZM262.599 9.4L262.173 9.66209L262.178 9.66971L262.599 9.4ZM262.599 18.19L262.176 17.9232L262.175 17.925L262.599 18.19ZM259.209 21.22L259.433 21.6672L259.435 21.666L259.209 21.22ZM256.209 16.18L256.582 16.5131L256.588 16.5065L256.209 16.18ZM252.369 11.41L252.742 11.743L252.369 11.41ZM252.369 16.18L251.991 16.5065L251.996 16.513L252.369 16.18ZM254.289 21.8C252.537 21.8 250.974 21.4538 249.59 20.7716L249.148 21.6684C250.685 22.4262 252.402 22.8 254.289 22.8V21.8ZM249.598 20.7753C248.231 20.0729 247.17 19.1211 246.4 17.9203L245.558 18.4597C246.429 19.8189 247.628 20.8871 249.141 21.6647L249.598 20.7753ZM246.402 17.9232C245.636 16.7085 245.249 15.3322 245.249 13.78H244.249C244.249 15.5078 244.683 17.0715 245.556 18.4568L246.402 17.9232ZM245.249 13.78C245.249 12.2277 245.636 10.8628 246.4 9.66971L245.558 9.13029C244.683 10.4972 244.249 12.0523 244.249 13.78H245.249ZM246.402 9.66675C247.171 8.44772 248.23 7.49841 249.593 6.81721L249.146 5.92279C247.628 6.68159 246.427 7.75228 245.556 9.13325L246.402 9.66675ZM249.59 6.81843C250.974 6.13618 252.537 5.79 254.289 5.79V4.79C252.402 4.79 250.685 5.16382 249.148 5.92156L249.59 6.81843ZM254.289 5.79C256.063 5.79 257.624 6.13659 258.986 6.81721L259.433 5.92279C257.914 5.16341 256.196 4.79 254.289 4.79V5.79ZM258.988 6.81843C260.37 7.4997 261.426 8.44759 262.173 9.66205L263.025 9.13795C262.172 7.75241 260.969 6.6803 259.43 5.92156L258.988 6.81843ZM262.178 9.66971C262.943 10.8628 263.329 12.2277 263.329 13.78H264.329C264.329 12.0523 263.896 10.4972 263.02 9.13029L262.178 9.66971ZM263.329 13.78C263.329 15.3322 262.943 16.7085 262.176 17.9232L263.022 18.4568C263.896 17.0715 264.329 15.5078 264.329 13.78H263.329ZM262.175 17.925C261.428 19.1213 260.369 20.0716 258.983 20.774L259.435 21.666C260.969 20.8884 262.171 19.8187 263.023 18.455L262.175 17.925ZM258.986 20.7728C257.624 21.4534 256.063 21.8 254.289 21.8V22.8C256.196 22.8 257.914 22.4266 259.433 21.6672L258.986 20.7728ZM254.289 17.52C255.205 17.52 255.983 17.1839 256.582 16.513L255.836 15.847C255.435 16.2961 254.933 16.52 254.289 16.52V17.52ZM256.588 16.5065C257.189 15.8093 257.459 14.8796 257.459 13.78H256.459C256.459 14.7204 256.23 15.3907 255.831 15.8535L256.588 16.5065ZM257.459 13.78C257.459 12.6816 257.189 11.7571 256.582 11.077L255.836 11.743C256.229 12.1829 256.459 12.8384 256.459 13.78H257.459ZM256.582 11.077C255.983 10.4061 255.205 10.07 254.289 10.07V11.07C254.933 11.07 255.435 11.2939 255.836 11.743L256.582 11.077ZM254.289 10.07C253.373 10.07 252.595 10.4061 251.996 11.077L252.742 11.743C253.143 11.2939 253.645 11.07 254.289 11.07V10.07ZM251.996 11.077C251.389 11.7571 251.119 12.6816 251.119 13.78H252.119C252.119 12.8384 252.349 12.1829 252.742 11.743L251.996 11.077ZM251.119 13.78C251.119 14.8796 251.39 15.8093 251.991 16.5065L252.748 15.8535C252.349 15.3907 252.119 14.7204 252.119 13.78H251.119ZM251.996 16.513C252.595 17.1839 253.373 17.52 254.289 17.52V16.52C253.645 16.52 253.143 16.2961 252.742 15.847L251.996 16.513ZM265.927 5.59V5.09H265.427V5.59H265.927ZM272.677 5.59H273.177V5.09H272.677V5.59ZM272.677 13H272.177V14.4762L273.074 13.3038L272.677 13ZM278.347 5.59V5.09H278.1L277.95 5.28615L278.347 5.59ZM284.587 5.59H285.087V5.09H284.587V5.59ZM284.587 22V22.5H285.087V22H284.587ZM277.837 22H277.337V22.5H277.837V22ZM277.837 14.56H278.337V13.0728L277.438 14.2579L277.837 14.56ZM272.197 22V22.5H272.445L272.595 22.3021L272.197 22ZM265.927 22H265.427V22.5H265.927V22ZM265.927 6.09H272.677V5.09H265.927V6.09ZM272.177 5.59V13H273.177V5.59H272.177ZM273.074 13.3038L278.744 5.89384L277.95 5.28615L272.28 12.6962L273.074 13.3038ZM278.347 6.09H284.587V5.09H278.347V6.09ZM284.087 5.59V22H285.087V5.59H284.087ZM284.587 21.5H277.837V22.5H284.587V21.5ZM278.337 22V14.56H277.337V22H278.337ZM277.438 14.2579L271.798 21.6979L272.595 22.3021L278.235 14.8621L277.438 14.2579ZM272.197 21.5H265.927V22.5H272.197V21.5ZM266.427 22V5.59H265.427V22H266.427ZM303.293 10.87V11.37H303.793V10.87H303.293ZM298.283 10.87V10.37H297.783V10.87H298.283ZM298.283 22V22.5H298.783V22H298.283ZM291.533 22H291.033V22.5H291.533V22ZM291.533 10.87H292.033V10.37H291.533V10.87ZM286.523 10.87H286.023V11.37H286.523V10.87ZM286.523 5.59V5.09H286.023V5.59H286.523ZM303.293 5.59H303.793V5.09H303.293V5.59ZM303.293 10.37H298.283V11.37H303.293V10.37ZM297.783 10.87V22H298.783V10.87H297.783ZM298.283 21.5H291.533V22.5H298.283V21.5ZM292.033 22V10.87H291.033V22H292.033ZM291.533 10.37H286.523V11.37H291.533V10.37ZM287.023 10.87V5.59H286.023V10.87H287.023ZM286.523 6.09H303.293V5.09H286.523V6.09ZM302.793 5.59V10.87H303.793V5.59H302.793ZM59.8185 58.22L59.5899 58.6648L59.5973 58.6684L59.8185 58.22ZM56.4285 55.19L56.0056 55.4568L56.0075 55.4597L56.4285 55.19ZM56.4285 46.4L56.8495 46.6697L56.8514 46.6668L56.4285 46.4ZM59.8185 43.37L59.5973 42.9216L59.5949 42.9228L59.8185 43.37ZM69.6585 43.37L69.4349 43.8172L69.4373 43.8184L69.6585 43.37ZM73.0485 46.4L72.6226 46.6621L72.6275 46.6697L73.0485 46.4ZM73.0485 55.19L72.6256 54.9232L72.6245 54.925L73.0485 55.19ZM69.6585 58.22L69.8821 58.6672L69.8845 58.666L69.6585 58.22ZM66.6585 53.18L67.0315 53.5131L67.0372 53.5065L66.6585 53.18ZM62.8185 48.41L63.1914 48.743L62.8185 48.41ZM62.8185 53.18L62.4397 53.5065L62.4455 53.513L62.8185 53.18ZM64.7385 58.8C62.986 58.8 61.4231 58.4538 60.0396 57.7716L59.5973 58.6684C61.1339 59.4262 62.8509 59.8 64.7385 59.8V58.8ZM60.047 57.7753C58.6802 57.0729 57.6188 56.1211 56.8495 54.9203L56.0075 55.4597C56.8782 56.8189 58.0768 57.8871 59.5899 58.6647L60.047 57.7753ZM56.8514 54.9232C56.0852 53.7085 55.6985 52.3322 55.6985 50.78H54.6985C54.6985 52.5078 55.1318 54.0715 56.0056 55.4568L56.8514 54.9232ZM55.6985 50.78C55.6985 49.2277 56.0852 47.8628 56.8495 46.6697L56.0075 46.1303C55.1318 47.4972 54.6985 49.0523 54.6985 50.78H55.6985ZM56.8514 46.6668C57.6203 45.4477 58.6797 44.4984 60.0421 43.8172L59.5949 42.9228C58.0773 43.6816 56.8766 44.7523 56.0056 46.1332L56.8514 46.6668ZM60.0396 43.8184C61.4231 43.1362 62.986 42.79 64.7385 42.79V41.79C62.8509 41.79 61.1339 42.1638 59.5973 42.9216L60.0396 43.8184ZM64.7385 42.79C66.512 42.79 68.0736 43.1366 69.4349 43.8172L69.8821 42.9228C68.3633 42.1634 66.645 41.79 64.7385 41.79V42.79ZM69.4373 43.8184C70.8188 44.4997 71.8753 45.4476 72.6227 46.662L73.4743 46.138C72.6217 44.7524 71.4182 43.6803 69.8796 42.9216L69.4373 43.8184ZM72.6275 46.6697C73.3918 47.8628 73.7785 49.2277 73.7785 50.78H74.7785C74.7785 49.0523 74.3452 47.4972 73.4695 46.1303L72.6275 46.6697ZM73.7785 50.78C73.7785 52.3322 73.3918 53.7085 72.6256 54.9232L73.4714 55.4568C74.3452 54.0715 74.7785 52.5078 74.7785 50.78H73.7785ZM72.6245 54.925C71.8768 56.1213 70.8183 57.0716 69.4324 57.774L69.8845 58.666C71.4187 57.8884 72.6202 56.8187 73.4725 55.455L72.6245 54.925ZM69.4349 57.7728C68.0736 58.4534 66.512 58.8 64.7385 58.8V59.8C66.645 59.8 68.3633 59.4266 69.8821 58.6672L69.4349 57.7728ZM64.7385 54.52C65.6546 54.52 66.4325 54.1839 67.0314 53.513L66.2855 52.847C65.8845 53.2961 65.3824 53.52 64.7385 53.52V54.52ZM67.0372 53.5065C67.6382 52.8093 67.9085 51.8796 67.9085 50.78H66.9085C66.9085 51.7204 66.6787 52.3907 66.2798 52.8535L67.0372 53.5065ZM67.9085 50.78C67.9085 49.6816 67.6387 48.7571 67.0314 48.077L66.2855 48.743C66.6783 49.1829 66.9085 49.8384 66.9085 50.78H67.9085ZM67.0314 48.077C66.4325 47.4061 65.6546 47.07 64.7385 47.07V48.07C65.3824 48.07 65.8845 48.2939 66.2855 48.743L67.0314 48.077ZM64.7385 47.07C63.8224 47.07 63.0445 47.4061 62.4455 48.077L63.1914 48.743C63.5925 48.2939 64.0946 48.07 64.7385 48.07V47.07ZM62.4455 48.077C61.8383 48.7571 61.5685 49.6816 61.5685 50.78H62.5685C62.5685 49.8384 62.7987 49.1829 63.1914 48.743L62.4455 48.077ZM61.5685 50.78C61.5685 51.8796 61.8387 52.8093 62.4398 53.5065L63.1972 52.8535C62.7982 52.3907 62.5685 51.7204 62.5685 50.78H61.5685ZM62.4455 53.513C63.0445 54.1839 63.8224 54.52 64.7385 54.52V53.52C64.0946 53.52 63.5925 53.2961 63.1914 52.847L62.4455 53.513ZM92.8461 46.37L93.1943 46.0111L92.8461 46.37ZM93.5961 55.82L93.1888 55.53L93.1878 55.5314L93.5961 55.82ZM90.2061 58.52L90.0031 58.0631L90.2061 58.52ZM78.2961 56.87L77.9466 57.2276L77.9486 57.2295L78.2961 56.87ZM84.7461 36.95L84.6575 36.4579L84.6571 36.458L84.7461 36.95ZM92.9061 35.48L93.3997 35.4L93.3182 34.8977L92.8175 34.9879L92.9061 35.48ZM93.8061 41.03L93.8939 41.5222L94.3785 41.4359L94.2997 40.95L93.8061 41.03ZM86.9061 42.26L86.9913 42.7527L86.9939 42.7522L86.9061 42.26ZM83.3961 43.55L83.0824 43.1606L83.0771 43.165L83.3961 43.55ZM82.1061 46.1L81.6112 46.0293L81.4326 47.2791L82.4185 46.4904L82.1061 46.1ZM87.2661 53.66L86.8854 53.3357L86.8785 53.3442L87.2661 53.66ZM87.2361 49.76L86.8825 50.1136L86.8902 50.121L87.2361 49.76ZM83.4561 49.79L83.8022 50.1511L83.8097 50.1436L83.4561 49.79ZM83.4561 53.72L83.0887 54.0591L83.0955 54.0665L83.1026 54.0736L83.4561 53.72ZM87.2061 44.92C89.5361 44.92 91.2765 45.5438 92.498 46.7289L93.1943 46.0111C91.7358 44.5961 89.7161 43.92 87.2061 43.92V44.92ZM92.498 46.7289C93.7201 47.9145 94.3561 49.5632 94.3561 51.74H95.3561C95.3561 49.3568 94.6521 47.4255 93.1943 46.0111L92.498 46.7289ZM94.3561 51.74C94.3561 53.183 93.9646 54.4402 93.1888 55.53L94.0035 56.11C94.9077 54.8398 95.3561 53.377 95.3561 51.74H94.3561ZM93.1878 55.5314C92.4254 56.61 91.37 57.4556 90.0031 58.0631L90.4092 58.9769C91.9223 58.3044 93.1269 57.35 94.0044 56.1086L93.1878 55.5314ZM90.0031 58.0631C88.6348 58.6712 87.0952 58.98 85.3761 58.98V59.98C87.217 59.98 88.8975 59.6488 90.4092 58.9769L90.0031 58.0631ZM85.3761 58.98C82.5626 58.98 80.335 58.1455 78.6436 56.5105L77.9486 57.2295C79.8573 59.0745 82.3496 59.98 85.3761 59.98V58.98ZM78.6456 56.5125C76.9983 54.9022 76.1261 52.3768 76.1261 48.83H75.1261C75.1261 52.5232 76.0339 55.3578 77.9466 57.2275L78.6456 56.5125ZM76.1261 48.83C76.1261 45.4903 76.8705 42.9151 78.3027 41.0495C79.7302 39.19 81.8871 37.9754 84.8352 37.442L84.6571 36.458C81.5252 37.0246 79.1221 38.34 77.5095 40.4405C75.9017 42.5349 75.1261 45.3497 75.1261 48.83H76.1261ZM84.8348 37.4421L92.9948 35.9721L92.8175 34.9879L84.6575 36.4579L84.8348 37.4421ZM92.4126 35.56L93.3126 41.11L94.2997 40.95L93.3997 35.4L92.4126 35.56ZM93.7184 40.5378L86.8184 41.7678L86.9939 42.7522L93.8939 41.5222L93.7184 40.5378ZM86.821 41.7673C85.1732 42.0521 83.902 42.5004 83.0825 43.1606L83.7098 43.9394C84.3303 43.4396 85.399 43.0279 86.9913 42.7527L86.821 41.7673ZM83.0771 43.165C82.2596 43.8424 81.7842 44.8177 81.6112 46.0293L82.6011 46.1707C82.748 45.1423 83.1327 44.4176 83.7151 43.935L83.0771 43.165ZM82.4185 46.4904C83.7195 45.4496 85.3058 44.92 87.2061 44.92V43.92C85.1065 43.92 83.2927 44.5104 81.7938 45.7096L82.4185 46.4904ZM85.3761 54.97C86.3168 54.97 87.1015 54.6536 87.6537 53.9758L86.8785 53.3442C86.5508 53.7464 86.0755 53.97 85.3761 53.97V54.97ZM87.6468 53.9842C88.1896 53.347 88.4561 52.5797 88.4561 51.71H87.4561C87.4561 52.3603 87.2627 52.893 86.8855 53.3358L87.6468 53.9842ZM88.4561 51.71C88.4561 50.7718 88.1849 49.9767 87.5821 49.399L86.8902 50.121C87.2473 50.4633 87.4561 50.9682 87.4561 51.71H88.4561ZM87.5897 49.4064C87.0177 48.8344 86.2605 48.57 85.3761 48.57V49.57C86.0518 49.57 86.5346 49.7656 86.8826 50.1136L87.5897 49.4064ZM85.3761 48.57C84.469 48.57 83.6929 48.8461 83.1026 49.4364L83.8097 50.1436C84.1793 49.7739 84.6833 49.57 85.3761 49.57V48.57ZM83.1102 49.429C82.5073 50.0067 82.2361 50.8018 82.2361 51.74H83.2361C83.2361 50.9982 83.4449 50.4933 83.8021 50.151L83.1102 49.429ZM82.2361 51.74C82.2361 52.648 82.5122 53.4346 83.0887 54.0591L83.8235 53.3809C83.4401 52.9654 83.2361 52.432 83.2361 51.74H82.2361ZM83.1026 54.0736C83.7065 54.6774 84.4785 54.97 85.3761 54.97V53.97C84.7137 53.97 84.2058 53.7626 83.8097 53.3664L83.1026 54.0736ZM111.853 43.34L111.601 43.772L111.609 43.7767L111.853 43.34ZM114.733 46.31L114.292 46.5471L114.295 46.5522L114.733 46.31ZM114.733 55.31L114.295 55.0677L114.294 55.0701L114.733 55.31ZM111.853 58.28L112.099 58.715L112.101 58.7137L111.853 58.28ZM103.723 57.89L104.072 57.5327L103.223 56.7006V57.89H103.723ZM103.723 64.82V65.32H104.223V64.82H103.723ZM96.9425 64.82H96.4425V65.32H96.9425V64.82ZM96.9425 42.59V42.09H96.4425V42.59H96.9425ZM103.393 42.59H103.893V42.09H103.393V42.59ZM103.393 43.94H102.893V45.2529L103.766 44.2726L103.393 43.94ZM108.193 53.18L108.566 53.513L108.193 53.18ZM108.193 48.44L107.814 48.7665L107.82 48.773L108.193 48.44ZM104.353 48.44L104.726 48.7731L104.731 48.7665L104.353 48.44ZM104.353 53.18L103.98 53.513L104.353 53.18ZM107.893 42.79C109.247 42.79 110.48 43.1182 111.601 43.7719L112.104 42.9081C110.825 42.1618 109.418 41.79 107.893 41.79V42.79ZM111.609 43.7767C112.741 44.4076 113.635 45.326 114.292 46.5471L115.173 46.0729C114.43 44.694 113.404 43.6324 112.096 42.9033L111.609 43.7767ZM114.295 46.5522C114.968 47.768 115.313 49.1824 115.313 50.81H116.313C116.313 49.0376 115.937 47.452 115.17 46.0677L114.295 46.5522ZM115.313 50.81C115.313 52.4376 114.968 53.852 114.295 55.0677L115.17 55.5522C115.937 54.168 116.313 52.5824 116.313 50.81H115.313ZM114.294 55.0701C113.636 56.2724 112.741 57.1939 111.604 57.8463L112.101 58.7137C113.404 57.9661 114.429 56.9076 115.171 55.5499L114.294 55.0701ZM111.606 57.845C110.485 58.4805 109.25 58.8 107.893 58.8V59.8C109.415 59.8 110.82 59.4395 112.099 58.715L111.606 57.845ZM107.893 58.8C106.156 58.8 104.91 58.3527 104.072 57.5327L103.373 58.2473C104.455 59.3073 105.989 59.8 107.893 59.8V58.8ZM103.223 57.89V64.82H104.223V57.89H103.223ZM103.723 64.32H96.9425V65.32H103.723V64.32ZM97.4425 64.82V42.59H96.4425V64.82H97.4425ZM96.9425 43.09H103.393V42.09H96.9425V43.09ZM102.893 42.59V43.94H103.893V42.59H102.893ZM103.766 44.2726C104.62 43.3143 105.96 42.79 107.893 42.79V41.79C105.785 41.79 104.125 42.3657 103.019 43.6074L103.766 44.2726ZM106.273 54.52C107.189 54.52 107.967 54.1839 108.566 53.513L107.82 52.847C107.419 53.2961 106.916 53.52 106.273 53.52V54.52ZM108.566 53.513C109.173 52.8329 109.443 51.9084 109.443 50.81H108.443C108.443 51.7516 108.212 52.4071 107.82 52.847L108.566 53.513ZM109.443 50.81C109.443 49.7116 109.173 48.7871 108.566 48.107L107.82 48.773C108.212 49.2129 108.443 49.8684 108.443 50.81H109.443ZM108.571 48.1135C107.974 47.421 107.195 47.07 106.273 47.07V48.07C106.91 48.07 107.411 48.299 107.814 48.7665L108.571 48.1135ZM106.273 47.07C105.35 47.07 104.571 47.421 103.974 48.1135L104.731 48.7665C105.134 48.299 105.635 48.07 106.273 48.07V47.07ZM103.98 48.107C103.372 48.7871 103.103 49.7116 103.103 50.81H104.103C104.103 49.8684 104.333 49.2129 104.726 48.773L103.98 48.107ZM103.103 50.81C103.103 51.9084 103.372 52.8329 103.98 53.513L104.726 52.847C104.333 52.4071 104.103 51.7516 104.103 50.81H103.103ZM103.98 53.513C104.579 54.1839 105.356 54.52 106.273 54.52V53.52C105.629 53.52 105.127 53.2961 104.726 52.847L103.98 53.513ZM131.187 44.24L130.862 44.62L130.865 44.6225L131.187 44.24ZM133.467 59V59.5H133.967V59H133.467ZM127.167 59H126.667V59.5H127.167V59ZM127.167 56.84H127.667L126.715 56.6252L127.167 56.84ZM119.187 58.64L118.959 59.0854L118.971 59.0911L119.187 58.64ZM117.117 56.81L116.686 57.064L116.69 57.0706L116.694 57.077L117.117 56.81ZM118.287 50.51L118.006 50.096L118.287 50.51ZM126.657 49.25V49.75H127.25L127.15 49.1653L126.657 49.25ZM121.317 47.69L121.456 48.1704L121.467 48.1668L121.317 47.69ZM119.367 48.62L118.917 48.8375L119.179 49.3811L119.664 49.0218L119.367 48.62ZM117.207 44.15L116.944 43.7245L116.56 43.9614L116.757 44.3675L117.207 44.15ZM120.597 42.8L120.715 43.286L120.72 43.2846L120.597 42.8ZM125.847 54.83L125.564 54.4173L125.847 54.83ZM126.687 53.66L127.159 53.8236L127.187 53.7441V53.66H126.687ZM126.687 52.52H127.187V52.02H126.687V52.52ZM123.357 54.86L123.017 55.2264L123.03 55.2389L123.044 55.2504L123.357 54.86ZM124.587 42.79C127.399 42.79 129.465 43.4254 130.862 44.62L131.512 43.86C129.869 42.4546 127.535 41.79 124.587 41.79V42.79ZM130.865 44.6225C132.236 45.7772 132.967 47.5931 132.967 50.18H133.967C133.967 47.4069 133.178 45.2628 131.509 43.8575L130.865 44.6225ZM132.967 50.18V59H133.967V50.18H132.967ZM133.467 58.5H127.167V59.5H133.467V58.5ZM127.667 59V56.84H126.667V59H127.667ZM126.715 56.6252C126.043 58.0397 124.708 58.8 122.517 58.8V59.8C124.966 59.8 126.731 58.9203 127.618 57.0548L126.715 56.6252ZM122.517 58.8C121.272 58.8 120.239 58.5891 119.403 58.1889L118.971 59.0911C119.974 59.5709 121.162 59.8 122.517 59.8V58.8ZM119.414 58.1948C118.584 57.7704 117.966 57.2181 117.54 56.543L116.694 57.077C117.228 57.9219 117.99 58.5896 118.959 59.0852L119.414 58.1948ZM117.548 56.556C117.136 55.8576 116.927 55.0762 116.927 54.2H115.927C115.927 55.2438 116.178 56.2024 116.686 57.064L117.548 56.556ZM116.927 54.2C116.927 52.7299 117.477 51.6623 118.567 50.924L118.006 50.096C116.616 51.0377 115.927 52.4301 115.927 54.2H116.927ZM118.567 50.924C119.685 50.1666 121.446 49.75 123.927 49.75V48.75C121.368 48.75 119.368 49.1734 118.006 50.096L118.567 50.924ZM123.927 49.75H126.657V48.75H123.927V49.75ZM127.15 49.1653C127.017 48.3958 126.629 47.7866 125.983 47.3853C125.358 46.9969 124.535 46.83 123.567 46.83V47.83C124.438 47.83 125.051 47.9831 125.455 48.2347C125.84 48.4734 126.076 48.8242 126.164 49.3347L127.15 49.1653ZM123.567 46.83C122.772 46.83 121.971 46.959 121.166 47.2132L121.467 48.1668C122.182 47.941 122.882 47.83 123.567 47.83V46.83ZM121.178 47.2097C120.371 47.4434 119.665 47.7772 119.069 48.2182L119.664 49.0218C120.149 48.6628 120.743 48.3766 121.456 48.1703L121.178 47.2097ZM119.817 48.4025L117.657 43.9325L116.757 44.3675L118.917 48.8375L119.817 48.4025ZM117.469 44.5755C118.356 44.0286 119.434 43.5963 120.715 43.2859L120.479 42.3141C119.119 42.6437 117.938 43.1114 116.944 43.7245L117.469 44.5755ZM120.72 43.2846C122.022 42.9544 123.31 42.79 124.587 42.79V41.79C123.223 41.79 121.852 41.9656 120.474 42.3154L120.72 43.2846ZM124.557 55.72C125.133 55.72 125.662 55.5621 126.129 55.2427L125.564 54.4173C125.271 54.6179 124.941 54.72 124.557 54.72V55.72ZM126.129 55.2427C126.614 54.911 126.951 54.4245 127.159 53.8236L126.214 53.4964C126.062 53.9355 125.84 54.229 125.564 54.4173L126.129 55.2427ZM127.187 53.66V52.52H126.187V53.66H127.187ZM126.687 52.02H125.007V53.02H126.687V52.02ZM125.007 52.02C124.277 52.02 123.642 52.1388 123.177 52.449C122.676 52.783 122.437 53.2943 122.437 53.9H123.437C123.437 53.5857 123.543 53.407 123.732 53.281C123.956 53.1312 124.357 53.02 125.007 53.02V52.02ZM122.437 53.9C122.437 54.4199 122.635 54.8724 123.017 55.2264L123.697 54.4936C123.518 54.3276 123.437 54.1401 123.437 53.9H122.437ZM123.044 55.2504C123.457 55.5803 123.978 55.72 124.557 55.72V54.72C124.136 54.72 123.857 54.6197 123.669 54.4696L123.044 55.2504ZM151.77 47.87V48.37H152.27V47.87H151.77ZM146.76 47.87V47.37H146.26V47.87H146.76ZM146.76 59V59.5H147.26V59H146.76ZM140.01 59H139.51V59.5H140.01V59ZM140.01 47.87H140.51V47.37H140.01V47.87ZM135 47.87H134.5V48.37H135V47.87ZM135 42.59V42.09H134.5V42.59H135ZM151.77 42.59H152.27V42.09H151.77V42.59ZM151.77 47.37H146.76V48.37H151.77V47.37ZM146.26 47.87V59H147.26V47.87H146.26ZM146.76 58.5H140.01V59.5H146.76V58.5ZM140.51 59V47.87H139.51V59H140.51ZM140.01 47.37H135V48.37H140.01V47.37ZM135.5 47.87V42.59H134.5V47.87H135.5ZM135 43.09H151.77V42.09H135V43.09ZM151.27 42.59V47.87H152.27V42.59H151.27ZM153.72 42.59V42.09H153.22V42.59H153.72ZM160.47 42.59H160.97V42.09H160.47V42.59ZM160.47 50H159.97V51.4762L160.867 50.3038L160.47 50ZM166.14 42.59V42.09H165.893L165.743 42.2862L166.14 42.59ZM172.38 42.59H172.88V42.09H172.38V42.59ZM172.38 59V59.5H172.88V59H172.38ZM165.63 59H165.13V59.5H165.63V59ZM165.63 51.56H166.13V50.0728L165.231 51.2579L165.63 51.56ZM159.99 59V59.5H160.238L160.388 59.3021L159.99 59ZM153.72 59H153.22V59.5H153.72V59ZM153.72 43.09H160.47V42.09H153.72V43.09ZM159.97 42.59V50H160.97V42.59H159.97ZM160.867 50.3038L166.537 42.8938L165.743 42.2862L160.073 49.6962L160.867 50.3038ZM166.14 43.09H172.38V42.09H166.14V43.09ZM171.88 42.59V59H172.88V42.59H171.88ZM172.38 58.5H165.63V59.5H172.38V58.5ZM166.13 59V51.56H165.13V59H166.13ZM165.231 51.2579L159.591 58.6979L160.388 59.3021L166.028 51.8621L165.231 51.2579ZM159.99 58.5H153.72V59.5H159.99V58.5ZM154.22 59V42.59H153.22V59H154.22ZM191.086 47.87V48.37H191.586V47.87H191.086ZM186.076 47.87V47.37H185.576V47.87H186.076ZM186.076 59V59.5H186.576V59H186.076ZM179.326 59H178.826V59.5H179.326V59ZM179.326 47.87H179.826V47.37H179.326V47.87ZM174.316 47.87H173.816V48.37H174.316V47.87ZM174.316 42.59V42.09H173.816V42.59H174.316ZM191.086 42.59H191.586V42.09H191.086V42.59ZM191.086 47.37H186.076V48.37H191.086V47.37ZM185.576 47.87V59H186.576V47.87H185.576ZM186.076 58.5H179.326V59.5H186.076V58.5ZM179.826 59V47.87H178.826V59H179.826ZM179.326 47.37H174.316V48.37H179.326V47.37ZM174.816 47.87V42.59H173.816V47.87H174.816ZM174.316 43.09H191.086V42.09H174.316V43.09ZM190.586 42.59V47.87H191.586V42.59H190.586ZM208.186 57.41L207.882 57.0135L207.879 57.0156L208.186 57.41ZM193.036 59H192.536V59.5H193.036V59ZM193.036 42.59V42.09H192.536V42.59H193.036ZM199.786 42.59H200.286V42.09H199.786V42.59ZM199.786 47.54H199.286V48.04H199.786V47.54ZM199.786 51.5V51H199.286V51.5H199.786ZM199.786 54.44H199.286V54.94H199.786V54.44ZM203.416 48.04C205.551 48.04 207.112 48.5066 208.171 49.3679L208.802 48.5921C207.5 47.5333 205.681 47.04 203.416 47.04V48.04ZM208.171 49.3679C209.215 50.2174 209.756 51.424 209.756 53.06H210.756C210.756 51.176 210.118 49.6626 208.802 48.5921L208.171 49.3679ZM209.756 53.06C209.756 54.755 209.131 56.0542 207.882 57.0135L208.491 57.8065C210.002 56.6458 210.756 55.045 210.756 53.06H209.756ZM207.879 57.0156C206.635 57.9853 204.887 58.5 202.576 58.5V59.5C205.026 59.5 207.018 58.9547 208.494 57.8044L207.879 57.0156ZM202.576 58.5H193.036V59.5H202.576V58.5ZM193.536 59V42.59H192.536V59H193.536ZM193.036 43.09H199.786V42.09H193.036V43.09ZM199.286 42.59V47.54H200.286V42.59H199.286ZM199.786 48.04H203.416V47.04H199.786V48.04ZM201.886 54.94C202.456 54.94 202.974 54.794 203.346 54.415C203.716 54.0378 203.856 53.5146 203.856 52.94H202.856C202.856 53.3654 202.752 53.5922 202.632 53.715C202.513 53.836 202.297 53.94 201.886 53.94V54.94ZM203.856 52.94C203.856 52.3803 203.713 51.8693 203.339 51.5028C202.967 51.1383 202.451 51 201.886 51V52C202.302 52 202.521 52.1017 202.639 52.2172C202.755 52.3307 202.856 52.5397 202.856 52.94H203.856ZM201.886 51H199.786V52H201.886V51ZM199.286 51.5V54.44H200.286V51.5H199.286ZM199.786 54.94H201.886V53.94H199.786V54.94ZM215.796 58.22L215.575 58.6684L215.578 58.6696L215.796 58.22ZM212.346 55.19L211.924 55.4568L211.926 55.4614L212.346 55.19ZM212.346 46.4L211.926 46.1286L211.925 46.1303L212.346 46.4ZM215.796 43.37L215.578 42.9204L215.575 42.9216L215.796 43.37ZM225.936 43.58L225.677 44.0077L225.936 43.58ZM228.876 47.15L229.097 47.5987L229.497 47.4023L229.348 46.9826L228.876 47.15ZM223.626 49.73L223.17 49.9331L223.381 50.4079L223.847 50.1787L223.626 49.73ZM218.766 48.41L218.406 48.0629L218.4 48.0698L218.766 48.41ZM218.766 53.18L218.4 53.5203L218.407 53.5271L218.766 53.18ZM223.626 51.86L223.847 51.4113L223.381 51.1821L223.17 51.6569L223.626 51.86ZM228.876 54.44L229.348 54.6074L229.497 54.1877L229.097 53.9913L228.876 54.44ZM225.936 58.01L226.195 58.4377L225.936 58.01ZM220.806 58.8C219.012 58.8 217.419 58.4531 216.015 57.7704L215.578 58.6696C217.134 59.4269 218.881 59.8 220.806 59.8V58.8ZM216.018 57.7716C214.634 57.0894 213.555 56.1387 212.766 54.9186L211.926 55.4614C212.818 56.8413 214.039 57.9106 215.575 58.6684L216.018 57.7716ZM212.769 54.9232C212.003 53.7085 211.616 52.3322 211.616 50.78H210.616C210.616 52.5078 211.05 54.0715 211.924 55.4568L212.769 54.9232ZM211.616 50.78C211.616 49.2277 212.003 47.8628 212.767 46.6697L211.925 46.1303C211.05 47.4972 210.616 49.0523 210.616 50.78H211.616ZM212.766 46.6714C213.555 45.4513 214.634 44.5006 216.018 43.8184L215.575 42.9216C214.039 43.6794 212.818 44.7487 211.926 46.1286L212.766 46.6714ZM216.015 43.8196C217.419 43.1369 219.012 42.79 220.806 42.79V41.79C218.881 41.79 217.134 42.1631 215.578 42.9204L216.015 43.8196ZM220.806 42.79C222.734 42.79 224.35 43.2038 225.677 44.0077L226.195 43.1523C224.683 42.2361 222.879 41.79 220.806 41.79V42.79ZM225.677 44.0077C227.002 44.8099 227.905 45.9094 228.405 47.3174L229.348 46.9826C228.768 45.3506 227.711 44.0701 226.195 43.1523L225.677 44.0077ZM228.656 46.7013L223.406 49.2813L223.847 50.1787L229.097 47.5987L228.656 46.7013ZM224.083 49.5269C223.74 48.7538 223.296 48.1363 222.736 47.7115C222.169 47.2817 221.509 47.07 220.776 47.07V48.07C221.304 48.07 221.749 48.2183 222.132 48.5085C222.521 48.8037 222.873 49.2662 223.17 49.9331L224.083 49.5269ZM220.776 47.07C219.845 47.07 219.044 47.4021 218.407 48.0629L219.126 48.7571C219.569 48.2979 220.108 48.07 220.776 48.07V47.07ZM218.4 48.0698C217.769 48.7496 217.486 49.6769 217.486 50.78H218.486C218.486 49.8431 218.724 49.1904 219.133 48.7502L218.4 48.0698ZM217.486 50.78C217.486 51.9 217.767 52.8387 218.4 53.5202L219.133 52.8398C218.726 52.4013 218.486 51.74 218.486 50.78H217.486ZM218.407 53.5271C219.044 54.1879 219.845 54.52 220.776 54.52V53.52C220.108 53.52 219.569 53.2921 219.126 52.8329L218.407 53.5271ZM220.776 54.52C221.509 54.52 222.169 54.3083 222.736 53.8785C223.296 53.4537 223.74 52.8362 224.083 52.0631L223.17 51.6569C222.873 52.3238 222.521 52.7863 222.132 53.0815C221.749 53.3717 221.304 53.52 220.776 53.52V54.52ZM223.406 52.3087L228.656 54.8887L229.097 53.9913L223.847 51.4113L223.406 52.3087ZM228.405 54.2726C227.905 55.6806 227.002 56.7801 225.677 57.5823L226.195 58.4377C227.711 57.5199 228.768 56.2394 229.348 54.6074L228.405 54.2726ZM225.677 57.5823C224.35 58.3861 222.734 58.8 220.806 58.8V59.8C222.879 59.8 224.683 59.3539 226.195 58.4377L225.677 57.5823ZM246.708 42.59H247.208V42.09H246.708V42.59ZM246.708 59V59.5H247.208V59H246.708ZM240.708 59H240.208V59.5H240.708V59ZM240.708 54.83H241.208V54.33H240.708V54.83ZM239.058 54.83V54.33H238.785L238.637 54.5604L239.058 54.83ZM236.388 59V59.5H236.662L236.809 59.2696L236.388 59ZM229.218 59L228.807 58.716L228.266 59.5H229.218V59ZM232.758 53.87L233.17 54.154L233.502 53.6727L232.975 53.4194L232.758 53.87ZM230.358 51.86L229.938 52.1304L229.942 52.1373L230.358 51.86ZM231.828 44.27L232.125 44.6725L231.828 44.27ZM236.898 50.27L236.573 50.6496L236.587 50.662L236.603 50.6732L236.898 50.27ZM240.708 50.6V51.1H241.208V50.6H240.708ZM240.708 47.84H241.208V47.34H240.708V47.84ZM246.208 42.59V59H247.208V42.59H246.208ZM246.708 58.5H240.708V59.5H246.708V58.5ZM241.208 59V54.83H240.208V59H241.208ZM240.708 54.33H239.058V55.33H240.708V54.33ZM238.637 54.5604L235.967 58.7304L236.809 59.2696L239.479 55.0996L238.637 54.5604ZM236.388 58.5H229.218V59.5H236.388V58.5ZM229.63 59.284L233.17 54.154L232.347 53.586L228.807 58.716L229.63 59.284ZM232.975 53.4194C232.004 52.9526 231.278 52.3379 230.774 51.5826L229.942 52.1373C230.559 53.0621 231.433 53.7874 232.542 54.3206L232.975 53.4194ZM230.779 51.5896C230.297 50.8398 230.048 49.9562 230.048 48.92H229.048C229.048 50.1238 229.34 51.2002 229.938 52.1304L230.779 51.5896ZM230.048 48.92C230.048 47.0898 230.74 45.693 232.125 44.6725L231.532 43.8675C229.877 45.087 229.048 46.7902 229.048 48.92H230.048ZM232.125 44.6725C233.531 43.6366 235.494 43.09 238.068 43.09V42.09C235.363 42.09 233.166 42.6634 231.532 43.8675L232.125 44.6725ZM238.068 43.09H246.708V42.09H238.068V43.09ZM238.218 47.34C237.589 47.34 237.026 47.4568 236.611 47.7717C236.17 48.1063 235.978 48.6001 235.978 49.16H236.978C236.978 48.8399 237.077 48.6737 237.216 48.5683C237.381 48.4432 237.687 48.34 238.218 48.34V47.34ZM235.978 49.16C235.978 49.7513 236.146 50.284 236.573 50.6496L237.224 49.8904C237.09 49.776 236.978 49.5687 236.978 49.16H235.978ZM236.603 50.6732C237.024 50.9825 237.588 51.1 238.218 51.1V50.1C237.689 50.1 237.372 49.9975 237.194 49.8668L236.603 50.6732ZM238.218 51.1H240.708V50.1H238.218V51.1ZM241.208 50.6V47.84H240.208V50.6H241.208ZM240.708 47.34H238.218V48.34H240.708V47.34ZM113.758 90.54L114.187 90.2831L114.041 90.04H113.758V90.54ZM112.468 90.54V90.04H111.968V90.54H112.468ZM112.468 96V96.5H112.968V96H112.468ZM105.688 96H105.188V96.5H105.688V96ZM105.688 79.59V79.09H105.188V79.59H105.688ZM112.468 79.59H112.968V79.09H112.468V79.59ZM112.468 85.35H111.968V85.85H112.468V85.35ZM113.938 85.35V85.85H114.215L114.362 85.615L113.938 85.35ZM117.538 79.59V79.09H117.261L117.114 79.325L117.538 79.59ZM124.678 79.59L125.093 79.8688L125.616 79.09H124.678V79.59ZM119.398 87.45L118.983 87.1712L118.798 87.4467L118.98 87.7243L119.398 87.45ZM125.008 96V96.5H125.934L125.426 95.7257L125.008 96ZM117.028 96L116.599 96.2569L116.744 96.5H117.028V96ZM113.758 90.04H112.468V91.04H113.758V90.04ZM111.968 90.54V96H112.968V90.54H111.968ZM112.468 95.5H105.688V96.5H112.468V95.5ZM106.188 96V79.59H105.188V96H106.188ZM105.688 80.09H112.468V79.09H105.688V80.09ZM111.968 79.59V85.35H112.968V79.59H111.968ZM112.468 85.85H113.938V84.85H112.468V85.85ZM114.362 85.615L117.962 79.855L117.114 79.325L113.514 85.085L114.362 85.615ZM117.538 80.09H124.678V79.09H117.538V80.09ZM124.263 79.3112L118.983 87.1712L119.813 87.7288L125.093 79.8688L124.263 79.3112ZM118.98 87.7243L124.59 96.2743L125.426 95.7257L119.816 87.1757L118.98 87.7243ZM125.008 95.5H117.028V96.5H125.008V95.5ZM117.457 95.7431L114.187 90.2831L113.329 90.7969L116.599 96.2569L117.457 95.7431ZM135.512 79.59V79.09H135.012V79.59H135.512ZM142.262 79.59H142.762V79.09H142.262V79.59ZM142.262 85.35H141.762V85.85H142.262V85.35ZM146.882 85.35V85.85H147.382V85.35H146.882ZM146.882 79.59V79.09H146.382V79.59H146.882ZM153.632 79.59H154.132V79.09H153.632V79.59ZM153.632 96V96.5H154.132V96H153.632ZM146.882 96H146.382V96.5H146.882V96ZM146.882 90.66H147.382V90.16H146.882V90.66ZM142.262 90.66V90.16H141.762V90.66H142.262ZM142.262 96V96.5H142.762V96H142.262ZM135.512 96H135.012V96.5H135.512V96ZM135.512 80.09H142.262V79.09H135.512V80.09ZM141.762 79.59V85.35H142.762V79.59H141.762ZM142.262 85.85H146.882V84.85H142.262V85.85ZM147.382 85.35V79.59H146.382V85.35H147.382ZM146.882 80.09H153.632V79.09H146.882V80.09ZM153.132 79.59V96H154.132V79.59H153.132ZM153.632 95.5H146.882V96.5H153.632V95.5ZM147.382 96V90.66H146.382V96H147.382ZM146.882 90.16H142.262V91.16H146.882V90.16ZM141.762 90.66V96H142.762V90.66H141.762ZM142.262 95.5H135.512V96.5H142.262V95.5ZM136.012 96V79.59H135.012V96H136.012ZM170.401 81.24L170.076 81.62L170.079 81.6225L170.401 81.24ZM172.681 96V96.5H173.181V96H172.681ZM166.381 96H165.881V96.5H166.381V96ZM166.381 93.84H166.881L165.929 93.6252L166.381 93.84ZM158.401 95.64L158.173 96.0854L158.185 96.0911L158.401 95.64ZM156.331 93.81L155.9 94.064L155.904 94.0706L155.908 94.077L156.331 93.81ZM157.501 87.51L157.22 87.096L157.501 87.51ZM165.871 86.25V86.75H166.464L166.363 86.1653L165.871 86.25ZM160.531 84.69L160.67 85.1704L160.681 85.1668L160.531 84.69ZM158.581 85.62L158.131 85.8375L158.393 86.3811L158.878 86.0218L158.581 85.62ZM156.421 81.15L156.158 80.7245L155.774 80.9614L155.971 81.3675L156.421 81.15ZM159.811 79.8L159.929 80.2859L159.934 80.2846L159.811 79.8ZM165.061 91.83L164.778 91.4173L165.061 91.83ZM165.901 90.66L166.373 90.8236L166.401 90.7441V90.66H165.901ZM165.901 89.52H166.401V89.02H165.901V89.52ZM162.571 91.86L162.23 92.2264L162.244 92.2389L162.258 92.2504L162.571 91.86ZM163.801 79.79C166.613 79.79 168.679 80.4254 170.076 81.62L170.726 80.86C169.082 79.4546 166.748 78.79 163.801 78.79V79.79ZM170.079 81.6225C171.45 82.7772 172.181 84.5931 172.181 87.18H173.181C173.181 84.4069 172.391 82.2628 170.723 80.8575L170.079 81.6225ZM172.181 87.18V96H173.181V87.18H172.181ZM172.681 95.5H166.381V96.5H172.681V95.5ZM166.881 96V93.84H165.881V96H166.881ZM165.929 93.6252C165.256 95.0397 163.922 95.8 161.731 95.8V96.8C164.179 96.8 165.945 95.9203 166.832 94.0548L165.929 93.6252ZM161.731 95.8C160.486 95.8 159.453 95.5891 158.616 95.1889L158.185 96.0911C159.188 96.5709 160.376 96.8 161.731 96.8V95.8ZM158.628 95.1948C157.798 94.7704 157.18 94.2181 156.753 93.543L155.908 94.077C156.442 94.9219 157.203 95.5896 158.173 96.0852L158.628 95.1948ZM156.761 93.556C156.35 92.8576 156.141 92.0762 156.141 91.2H155.141C155.141 92.2438 155.392 93.2024 155.9 94.064L156.761 93.556ZM156.141 91.2C156.141 89.7299 156.691 88.6623 157.781 87.924L157.22 87.096C155.83 88.0377 155.141 89.4301 155.141 91.2H156.141ZM157.781 87.924C158.899 87.1666 160.66 86.75 163.141 86.75V85.75C160.582 85.75 158.582 86.1734 157.22 87.096L157.781 87.924ZM163.141 86.75H165.871V85.75H163.141V86.75ZM166.363 86.1653C166.231 85.3958 165.843 84.7866 165.197 84.3853C164.572 83.9969 163.749 83.83 162.781 83.83V84.83C163.652 84.83 164.264 84.9831 164.669 85.2347C165.054 85.4734 165.29 85.8242 165.378 86.3347L166.363 86.1653ZM162.781 83.83C161.986 83.83 161.185 83.959 160.38 84.2132L160.681 85.1668C161.396 84.941 162.096 84.83 162.781 84.83V83.83ZM160.392 84.2097C159.584 84.4434 158.879 84.7772 158.283 85.2182L158.878 86.0218C159.363 85.6628 159.957 85.3766 160.67 85.1703L160.392 84.2097ZM159.031 85.4025L156.871 80.9325L155.971 81.3675L158.131 85.8375L159.031 85.4025ZM156.683 81.5755C157.57 81.0286 158.648 80.5963 159.928 80.2859L159.693 79.3141C158.333 79.6437 157.152 80.1114 156.158 80.7245L156.683 81.5755ZM159.934 80.2846C161.235 79.9544 162.524 79.79 163.801 79.79V78.79C162.437 78.79 161.066 78.9656 159.688 79.3154L159.934 80.2846ZM163.771 92.72C164.347 92.72 164.876 92.5621 165.343 92.2427L164.778 91.4173C164.485 91.6179 164.154 91.72 163.771 91.72V92.72ZM165.343 92.2427C165.828 91.911 166.165 91.4245 166.373 90.8236L165.428 90.4964C165.276 90.9355 165.054 91.229 164.778 91.4173L165.343 92.2427ZM166.401 90.66V89.52H165.401V90.66H166.401ZM165.901 89.02H164.221V90.02H165.901V89.02ZM164.221 89.02C163.491 89.02 162.856 89.1388 162.391 89.449C161.89 89.783 161.651 90.2943 161.651 90.9H162.651C162.651 90.5857 162.757 90.407 162.946 90.281C163.17 90.1312 163.57 90.02 164.221 90.02V89.02ZM161.651 90.9C161.651 91.4199 161.849 91.8724 162.23 92.2264L162.911 91.4936C162.732 91.3276 162.651 91.1401 162.651 90.9H161.651ZM162.258 92.2504C162.671 92.5803 163.192 92.72 163.771 92.72V91.72C163.35 91.72 163.071 91.6197 162.883 91.4696L162.258 92.2504ZM191.254 96L190.754 96.002L190.756 96.5H191.254V96ZM191.224 88.65L191.724 88.648L191.716 86.7885L190.79 88.401L191.224 88.65ZM187.744 94.71V95.21H188.033L188.177 94.959L187.744 94.71ZM184.894 94.71L184.454 94.9479L184.596 95.21H184.894V94.71ZM181.534 88.5L181.973 88.2621L181.034 88.5H181.534ZM181.534 96V96.5H182.034V96H181.534ZM175.444 96H174.944V96.5H175.444V96ZM175.444 79.59V79.09H174.944V79.59H175.444ZM182.614 79.59L183.059 79.3629L182.92 79.09H182.614V79.59ZM186.514 87.24L186.068 87.4671L186.487 88.2879L186.947 87.4897L186.514 87.24ZM190.924 79.59V79.09H190.635L190.49 79.3403L190.924 79.59ZM197.284 79.59L197.784 79.5882L197.782 79.09H197.284V79.59ZM197.344 96V96.5H197.845L197.844 95.9982L197.344 96ZM191.754 95.998L191.724 88.648L190.724 88.652L190.754 96.002L191.754 95.998ZM190.79 88.401L187.31 94.461L188.177 94.959L191.657 88.899L190.79 88.401ZM187.744 94.21H184.894V95.21H187.744V94.21ZM185.333 94.4721L181.973 88.2621L181.094 88.7379L184.454 94.9479L185.333 94.4721ZM181.034 88.5V96H182.034V88.5H181.034ZM181.534 95.5H175.444V96.5H181.534V95.5ZM175.944 96V79.59H174.944V96H175.944ZM175.444 80.09H182.614V79.09H175.444V80.09ZM182.168 79.8171L186.068 87.4671L186.959 87.0129L183.059 79.3629L182.168 79.8171ZM186.947 87.4897L191.357 79.8397L190.49 79.3403L186.08 86.9903L186.947 87.4897ZM190.924 80.09H197.284V79.09H190.924V80.09ZM196.784 79.5918L196.844 96.0018L197.844 95.9982L197.784 79.5882L196.784 79.5918ZM197.344 95.5H191.254V96.5H197.344V95.5Z" fill="white"/>
</svg>
