<svg width="36" height="32" viewBox="0 0 36 32" fill="none" xmlns="http://www.w3.org/2000/svg">
<g filter="url(#filter0_d)">
<path d="M31.6897 23.3384C31.6511 22.4101 31.2049 21.5437 30.4333 20.899C28.9226 19.6365 27.6569 18.9077 26.45 18.6054C24.7871 18.1889 23.2467 18.5676 21.8721 19.7312C21.87 19.7329 21.8679 19.7347 21.8659 19.7365L20.4034 20.9945C19.4894 20.548 17.7121 19.5675 15.7919 17.9034L15.6495 17.7801C13.729 16.1157 12.5978 14.5751 12.083 13.7838L13.5347 12.5163C13.5368 12.5145 13.5388 12.5127 13.5409 12.5109C14.8834 11.3196 15.3204 9.98468 14.8398 8.54331C14.491 7.49738 13.6502 6.40041 12.1934 5.09114C11.4495 4.42256 10.4499 4.03584 9.3787 4.00237C8.30687 3.96885 7.27835 4.2922 6.48068 4.91273L6.44963 4.93692C6.43525 4.94812 6.42118 4.9597 6.40745 4.97156C4.81951 6.34777 3.98712 8.27439 4.00015 10.5432C4.02238 14.3974 6.46651 18.805 10.5381 22.3336C11.3059 22.999 12.1785 23.6575 13.1316 24.2909C13.6056 24.6059 14.2846 24.5283 14.6482 24.1174C15.0117 23.7065 14.9221 23.118 14.4479 22.8029C13.5698 22.2194 12.7691 21.6155 12.0679 21.0079C8.39021 17.8206 6.18299 13.9051 6.16357 10.5339C6.15356 8.78655 6.76004 7.32812 7.91766 6.31439L7.92593 6.30793C8.71219 5.69625 9.90259 5.73347 10.6361 6.39268C13.4367 8.90978 13.2339 10.0981 11.9964 11.1979L9.99118 12.9488C9.67672 13.2234 9.58916 13.6372 9.77073 13.9906C9.82162 14.0897 11.0531 16.4482 14.1201 19.1062L14.2625 19.2295C17.3291 21.8872 20.0505 22.9545 20.1648 22.9986C20.5725 23.1561 21.0501 23.0801 21.3669 22.8076L23.3872 21.0697C24.6563 19.9971 26.0275 19.8215 28.9317 22.2486C29.6923 22.8843 29.7352 23.916 29.0296 24.5973L29.0219 24.6047C27.8618 25.5998 26.1969 26.125 24.2028 26.125C24.1863 26.125 24.1699 26.125 24.1534 26.1249C22.5594 26.118 20.7136 25.7393 18.8156 25.0298C18.2672 24.8247 17.6305 25.0439 17.3939 25.5193C17.1573 25.9948 17.4102 26.5464 17.9588 26.7515C20.1526 27.5716 22.2331 27.9916 24.1426 27.9999C24.1629 28 24.183 28 24.2033 28C26.7948 28 28.9958 27.2791 30.5714 25.9136C30.5851 25.9017 30.5984 25.8895 30.6113 25.877L30.6394 25.85C31.3554 25.1587 31.7284 24.2668 31.6897 23.3384Z" fill="#03FBF3"/>
</g>
<defs>
<filter id="filter0_d" x="0" y="0" width="35.6925" height="32" filterUnits="userSpaceOnUse" color-interpolation-filters="sRGB">
<feFlood flood-opacity="0" result="BackgroundImageFix"/>
<feColorMatrix in="SourceAlpha" type="matrix" values="0 0 0 0 0 0 0 0 0 0 0 0 0 0 0 0 0 0 127 0"/>
<feOffset/>
<feGaussianBlur stdDeviation="2"/>
<feColorMatrix type="matrix" values="0 0 0 0 0.0117647 0 0 0 0 0.984314 0 0 0 0 0.952941 0 0 0 0.4 0"/>
<feBlend mode="normal" in2="BackgroundImageFix" result="effect1_dropShadow"/>
<feBlend mode="normal" in="SourceGraphic" in2="effect1_dropShadow" result="shape"/>
</filter>
</defs>
</svg>
