<svg width="135" height="135" viewBox="0 0 135 135" fill="none" xmlns="http://www.w3.org/2000/svg">
<g filter="url(#filter0_d)">
<path d="M67.3203 5C32.9681 5 5 32.9681 5 67.3203C5 101.672 32.9681 129.641 67.3203 129.641C101.672 129.641 129.641 101.672 129.641 67.3203C129.641 32.9681 101.672 5 67.3203 5ZM107.803 107.803C97.0111 118.621 82.6217 124.574 67.3203 124.574C52.0189 124.574 37.6295 118.621 26.8374 107.803C16.0201 97.0111 10.0667 82.6217 10.0667 67.3203C10.0667 52.0189 16.0201 37.6295 26.8374 26.8374C37.6295 16.0201 52.0189 10.0667 67.3203 10.0667C82.6217 10.0667 97.0111 16.0201 107.803 26.8374C118.621 37.6295 124.574 52.0189 124.574 67.3203C124.574 82.6217 118.621 97.0111 107.803 107.803Z" fill="#FF2222"/>
<path d="M67.3202 75.351C68.7136 75.351 69.8536 74.211 69.8536 72.8176V40.1881C69.8536 38.7948 68.7136 37.6548 67.3202 37.6548C65.9269 37.6548 64.7869 38.7948 64.7869 40.1881V72.8176C64.7869 74.211 65.9269 75.351 67.3202 75.351Z" fill="#FF2222"/>
<path d="M67.3204 95.2379C69.6989 95.2379 71.627 93.3097 71.627 90.9312C71.627 88.5527 69.6989 86.6245 67.3204 86.6245C64.9418 86.6245 63.0137 88.5527 63.0137 90.9312C63.0137 93.3097 64.9418 95.2379 67.3204 95.2379Z" fill="#FF2222"/>
</g>
<defs>
<filter id="filter0_d" x="0" y="0" width="134.641" height="134.641" filterUnits="userSpaceOnUse" color-interpolation-filters="sRGB">
<feFlood flood-opacity="0" result="BackgroundImageFix"/>
<feColorMatrix in="SourceAlpha" type="matrix" values="0 0 0 0 0 0 0 0 0 0 0 0 0 0 0 0 0 0 127 0"/>
<feOffset/>
<feGaussianBlur stdDeviation="2.5"/>
<feColorMatrix type="matrix" values="0 0 0 0 1 0 0 0 0 0 0 0 0 0 0 0 0 0 0.5 0"/>
<feBlend mode="normal" in2="BackgroundImageFix" result="effect1_dropShadow"/>
<feBlend mode="normal" in="SourceGraphic" in2="effect1_dropShadow" result="shape"/>
</filter>
</defs>
</svg>
