<svg width="808" height="99" viewBox="0 0 808 99" fill="none" xmlns="http://www.w3.org/2000/svg">
<path d="M33.9329 5.4H34.4329V4.9H33.9329V5.4ZM33.9329 39V39.5H34.4329V39H33.9329ZM22.7969 39H22.2969V39.5H22.7969V39ZM22.7969 14.184H23.2969V13.684H22.7969V14.184ZM12.5729 14.184V13.684H12.0729V14.184H12.5729ZM12.5729 39V39.5H13.0729V39H12.5729ZM1.43694 39H0.936938V39.5H1.43694V39ZM1.43694 5.4V4.9H0.936938V5.4H1.43694ZM33.4329 5.4V39H34.4329V5.4H33.4329ZM33.9329 38.5H22.7969V39.5H33.9329V38.5ZM23.2969 39V14.184H22.2969V39H23.2969ZM22.7969 13.684H12.5729V14.684H22.7969V13.684ZM12.0729 14.184V39H13.0729V14.184H12.0729ZM12.5729 38.5H1.43694V39.5H12.5729V38.5ZM1.93694 39V5.4H0.936938V39H1.93694ZM1.43694 5.9H33.9329V4.9H1.43694V5.9ZM45.1064 37.752L44.8779 38.1968L44.8853 38.2004L45.1064 37.752ZM39.6824 32.904L39.2595 33.1708L39.2614 33.1737L39.6824 32.904ZM39.6824 18.84L40.1035 19.1097L40.1053 19.1068L39.6824 18.84ZM45.1064 13.992L44.8853 13.5436L44.8828 13.5448L45.1064 13.992ZM60.8504 13.992L60.6268 14.4392L60.6293 14.4404L60.8504 13.992ZM66.2744 18.84L65.8485 19.1021L65.8534 19.1097L66.2744 18.84ZM66.2744 32.904L65.8515 32.6372L65.8504 32.639L66.2744 32.904ZM60.8504 37.752L61.074 38.1992L61.0765 38.198L60.8504 37.752ZM56.0504 29.688L56.4235 30.0211L56.4291 30.0145L56.0504 29.688ZM49.9064 22.056L50.2794 22.389L49.9064 22.056ZM49.9064 29.688L49.5277 30.0145L49.5335 30.021L49.9064 29.688ZM52.9784 38.98C50.134 38.98 47.587 38.4178 45.3276 37.3036L44.8853 38.2004C47.2978 39.3902 49.9989 39.98 52.9784 39.98V38.98ZM45.335 37.3073C43.1042 36.1609 41.3647 34.6031 40.1035 32.6343L39.2614 33.1737C40.6241 35.3009 42.5007 36.9751 44.8779 38.1967L45.335 37.3073ZM40.1053 32.6372C38.8471 30.6425 38.2144 28.3842 38.2144 25.848H37.2144C37.2144 28.5598 37.8938 31.0055 39.2595 33.1707L40.1053 32.6372ZM38.2144 25.848C38.2144 23.3117 38.8471 21.0708 40.1035 19.1097L39.2614 18.5703C37.8938 20.7052 37.2144 23.1363 37.2144 25.848H38.2144ZM40.1053 19.1068C41.3663 17.1077 43.1037 15.5524 45.33 14.4392L44.8828 13.5448C42.5012 14.7356 40.6226 16.4123 39.2595 18.5732L40.1053 19.1068ZM45.3276 14.4404C47.587 13.3262 50.134 12.764 52.9784 12.764V11.764C49.9989 11.764 47.2978 12.3538 44.8853 13.5436L45.3276 14.4404ZM52.9784 12.764C55.856 12.764 58.4016 13.3266 60.6268 14.4392L61.074 13.5448C58.6913 12.3534 55.9889 11.764 52.9784 11.764V12.764ZM60.6293 14.4404C62.8867 15.5537 64.6213 17.1076 65.8486 19.102L66.7003 18.5779C65.3676 16.4124 63.4861 14.7343 61.0716 13.5436L60.6293 14.4404ZM65.8534 19.1097C67.1098 21.0708 67.7424 23.3117 67.7424 25.848H68.7424C68.7424 23.1363 68.0631 20.7052 66.6955 18.5703L65.8534 19.1097ZM67.7424 25.848C67.7424 28.3842 67.1098 30.6425 65.8515 32.6372L66.6973 33.1707C68.0631 31.0055 68.7424 28.5598 68.7424 25.848H67.7424ZM65.8504 32.639C64.6228 34.6033 62.8863 36.1596 60.6244 37.306L61.0765 38.198C63.4866 36.9764 65.3661 35.3007 66.6984 33.169L65.8504 32.639ZM60.6268 37.3048C58.4016 38.4174 55.856 38.98 52.9784 38.98V39.98C55.9889 39.98 58.6913 39.3906 61.074 38.1992L60.6268 37.3048ZM52.9784 31.532C54.3626 31.532 55.5244 31.0279 56.4234 30.021L55.6775 29.355C54.9765 30.1401 54.0903 30.532 52.9784 30.532V31.532ZM56.4291 30.0145C57.3302 28.9693 57.7504 27.5596 57.7504 25.848H56.7504C56.7504 27.4004 56.3707 28.5507 55.6717 29.3615L56.4291 30.0145ZM57.7504 25.848C57.7504 24.1376 57.3307 22.7391 56.4234 21.723L55.6775 22.389C56.3702 23.1649 56.7504 24.2944 56.7504 25.848H57.7504ZM56.4234 21.723C55.5244 20.7161 54.3626 20.212 52.9784 20.212V21.212C54.0903 21.212 54.9765 21.6039 55.6775 22.389L56.4234 21.723ZM52.9784 20.212C51.5943 20.212 50.4325 20.7161 49.5335 21.723L50.2794 22.389C50.9804 21.6039 51.8666 21.212 52.9784 21.212V20.212ZM49.5335 21.723C48.6262 22.7391 48.2064 24.1376 48.2064 25.848H49.2064C49.2064 24.2944 49.5866 23.1649 50.2794 22.389L49.5335 21.723ZM48.2064 25.848C48.2064 27.5596 48.6267 28.9693 49.5277 30.0145L50.2851 29.3615C49.5862 28.5507 49.2064 27.4004 49.2064 25.848H48.2064ZM49.5335 30.021C50.4325 31.0279 51.5943 31.532 52.9784 31.532V30.532C51.8666 30.532 50.9804 30.1401 50.2794 29.355L49.5335 30.021ZM98.2867 12.744H98.7867V12.244H98.2867V12.744ZM98.2867 39V39.5H98.7867V39H98.2867ZM87.4867 39H86.9867V39.5H87.4867V39ZM87.4867 30.12H87.9867V29.2495L87.2347 29.6881L87.4867 30.12ZM72.9427 28.92L72.602 29.286L72.6054 29.2891L72.9427 28.92ZM70.1587 12.744V12.244H69.6587V12.744H70.1587ZM80.9587 12.744H81.4587V12.244H80.9587V12.744ZM81.6787 22.776L81.3139 23.118L81.3194 23.1239L81.3251 23.1296L81.6787 22.776ZM87.4867 22.824L87.6989 23.2767L87.9867 23.1418V22.824H87.4867ZM87.4867 12.744V12.244H86.9867V12.744H87.4867ZM97.7867 12.744V39H98.7867V12.744H97.7867ZM98.2867 38.5H87.4867V39.5H98.2867V38.5ZM87.9867 39V30.12H86.9867V39H87.9867ZM87.2347 29.6881C85.8 30.525 83.8801 30.964 81.4387 30.964V31.964C83.9893 31.964 86.1014 31.507 87.7386 30.5519L87.2347 29.6881ZM81.4387 30.964C77.6931 30.964 75.0063 30.1284 73.28 28.5509L72.6054 29.2891C74.5911 31.1036 77.5683 31.964 81.4387 31.964V30.964ZM73.2834 28.5541C71.5684 26.9573 70.6587 24.3982 70.6587 20.76H69.6587C69.6587 24.5458 70.605 27.4267 72.602 29.2859L73.2834 28.5541ZM70.6587 20.76V12.744H69.6587V20.76H70.6587ZM70.1587 13.244H80.9587V12.244H70.1587V13.244ZM80.4587 12.744V20.04H81.4587V12.744H80.4587ZM80.4587 20.04C80.4587 21.3809 80.6975 22.4605 81.3139 23.118L82.0435 22.434C81.6999 22.0675 81.4587 21.3231 81.4587 20.04H80.4587ZM81.3251 23.1296C81.9665 23.771 82.9028 24.044 84.0307 24.044V23.044C83.0466 23.044 82.4148 22.805 82.0322 22.4224L81.3251 23.1296ZM84.0307 24.044C85.3743 24.044 86.6002 23.7917 87.6989 23.2767L87.2745 22.3713C86.3251 22.8163 85.247 23.044 84.0307 23.044V24.044ZM87.9867 22.824V12.744H86.9867V22.824H87.9867ZM87.4867 13.244H98.2867V12.244H87.4867V13.244ZM130.836 28.392V28.892H131.306L131.335 28.4232L130.836 28.392ZM112.596 28.392V27.892H111.866L112.13 28.5725L112.596 28.392ZM114.516 30.696L114.256 31.1235L114.268 31.1301L114.516 30.696ZM120.756 31.032L120.587 30.5615L120.58 30.5638L120.756 31.032ZM123.348 29.544L123.703 29.1919L123.395 28.881L123.046 29.1457L123.348 29.544ZM129.012 35.256L129.382 35.5923L129.701 35.2411L129.367 34.9039L129.012 35.256ZM109.188 37.752L108.967 38.2004L108.972 38.2028L109.188 37.752ZM103.62 32.856L104.043 32.5892L103.62 32.856ZM103.572 18.84L103.149 18.5732L103.148 18.575L103.572 18.84ZM108.9 13.992L108.674 13.546L108.671 13.5474L108.9 13.992ZM123.78 13.848L123.562 14.2978L123.564 14.2991L123.78 13.848ZM129.012 18.504L128.588 18.769L128.591 18.7737L129.012 18.504ZM113.844 20.568L114.162 20.9535V20.9535L113.844 20.568ZM112.404 23.16L111.914 23.0619L111.794 23.66H112.404V23.16ZM120.852 23.16V23.66H121.465L121.342 23.0592L120.852 23.16ZM119.412 20.616L119.084 20.9934L119.093 21.0015L119.412 20.616ZM130.48 25.848C130.48 25.9876 130.434 26.8115 130.337 28.3608L131.335 28.4232C131.43 26.9005 131.48 26.0284 131.48 25.848H130.48ZM130.836 27.892H112.596V28.892H130.836V27.892ZM112.13 28.5725C112.553 29.6657 113.265 30.5212 114.256 31.1234L114.775 30.2686C113.975 29.7828 113.407 29.1023 113.062 28.2115L112.13 28.5725ZM114.268 31.1301C115.259 31.6964 116.471 31.964 117.876 31.964V30.964C116.593 30.964 115.565 30.7196 114.764 30.2619L114.268 31.1301ZM117.876 31.964C119.065 31.964 120.09 31.8159 120.932 31.5002L120.58 30.5638C119.886 30.8241 118.99 30.964 117.876 30.964V31.964ZM120.925 31.5024C121.787 31.1923 122.696 30.6665 123.65 29.9423L123.046 29.1457C122.144 29.8295 121.325 30.2957 120.587 30.5616L120.925 31.5024ZM122.993 29.8961L128.657 35.6081L129.367 34.9039L123.703 29.1919L122.993 29.8961ZM128.642 34.9197C126.206 37.5996 122.537 38.98 117.54 38.98V39.98C122.719 39.98 126.698 38.5444 129.382 35.5923L128.642 34.9197ZM117.54 38.98C114.433 38.98 111.725 38.4152 109.404 37.3012L108.972 38.2028C111.451 39.3928 114.311 39.98 117.54 39.98V38.98ZM109.409 37.3036C107.084 36.1567 105.301 34.5844 104.043 32.5892L103.197 33.1228C104.563 35.2876 106.492 36.9793 108.967 38.2004L109.409 37.3036ZM104.043 32.5892C102.784 30.5935 102.152 28.3509 102.152 25.848H101.152C101.152 28.5291 101.832 30.9585 103.197 33.1228L104.043 32.5892ZM102.152 25.848C102.152 23.3093 102.77 21.0667 103.996 19.105L103.148 18.575C101.814 20.7093 101.152 23.1387 101.152 25.848H102.152ZM103.995 19.1068C105.258 17.1042 106.966 15.5488 109.129 14.4366L108.671 13.5474C106.354 14.7392 104.51 16.4158 103.149 18.5732L103.995 19.1068ZM109.126 14.4379C111.321 13.3251 113.786 12.764 116.532 12.764V11.764C113.646 11.764 111.023 12.3549 108.674 13.546L109.126 14.4379ZM116.532 12.764C119.12 12.764 121.46 13.278 123.562 14.2978L123.998 13.3982C121.748 12.306 119.256 11.764 116.532 11.764V12.764ZM123.564 14.2991C125.688 15.3147 127.359 16.8027 128.588 18.769L129.436 18.239C128.105 16.1093 126.288 14.4933 123.996 13.3969L123.564 14.2991ZM128.591 18.7737C129.843 20.7283 130.48 23.079 130.48 25.848H131.48C131.48 22.921 130.805 20.3757 129.433 18.2343L128.591 18.7737ZM116.628 19.156C115.413 19.156 114.366 19.4881 113.525 20.1825L114.162 20.9535C114.794 20.4319 115.603 20.156 116.628 20.156V19.156ZM113.525 20.1825C112.684 20.8774 112.156 21.8523 111.914 23.0619L112.894 23.2581C113.1 22.2277 113.532 21.4746 114.162 20.9535L113.525 20.1825ZM112.404 23.66H120.852V22.66H112.404V23.66ZM121.342 23.0592C121.099 21.8787 120.568 20.9226 119.73 20.2305L119.093 21.0015C119.728 21.5254 120.157 22.2653 120.362 23.2608L121.342 23.0592ZM119.74 20.2387C118.9 19.5079 117.85 19.156 116.628 19.156V20.156C117.646 20.156 118.452 20.4441 119.084 20.9933L119.74 20.2387ZM160.176 39L159.676 39.002L159.678 39.5H160.176V39ZM160.128 27.24L160.628 27.238L160.62 25.3785L159.694 26.991L160.128 27.24ZM154.56 36.936V37.436H154.849L154.994 37.185L154.56 36.936ZM150 36.936L149.56 37.1739L149.702 37.436H150V36.936ZM144.624 27L145.064 26.7621L144.124 27H144.624ZM144.624 39V39.5H145.124V39H144.624ZM134.88 39H134.38V39.5H134.88V39ZM134.88 12.744V12.244H134.38V12.744H134.88ZM146.352 12.744L146.797 12.5169L146.658 12.244H146.352V12.744ZM152.592 24.984L152.146 25.2111L152.565 26.0319L153.025 25.2337L152.592 24.984ZM159.648 12.744V12.244H159.359L159.215 12.4943L159.648 12.744ZM169.824 12.744L170.324 12.7422L170.322 12.244H169.824V12.744ZM169.92 39V39.5H170.422L170.42 38.9982L169.92 39ZM160.676 38.998L160.628 27.238L159.628 27.242L159.676 39.002L160.676 38.998ZM159.694 26.991L154.126 36.687L154.994 37.185L160.562 27.489L159.694 26.991ZM154.56 36.436H150V37.436H154.56V36.436ZM150.44 36.6981L145.064 26.7621L144.184 27.2379L149.56 37.1739L150.44 36.6981ZM144.124 27V39H145.124V27H144.124ZM144.624 38.5H134.88V39.5H144.624V38.5ZM135.38 39V12.744H134.38V39H135.38ZM134.88 13.244H146.352V12.244H134.88V13.244ZM145.906 12.9711L152.146 25.2111L153.037 24.7569L146.797 12.5169L145.906 12.9711ZM153.025 25.2337L160.081 12.9937L159.215 12.4943L152.159 24.7343L153.025 25.2337ZM159.648 13.244H169.824V12.244H159.648V13.244ZM169.324 12.7458L169.42 39.0018L170.42 38.9982L170.324 12.7422L169.324 12.7458ZM169.92 38.5H160.176V39.5H169.92V38.5ZM204.622 12.744L205.086 12.931L205.363 12.244H204.622V12.744ZM193.822 39.528L193.358 39.341L193.358 39.3416L193.822 39.528ZM188.686 46.728L188.965 47.143L188.686 46.728ZM176.686 48.12L176.829 47.6408L176.822 47.6388L176.686 48.12ZM173.182 46.44L172.732 46.2222L172.56 46.578L172.866 46.8276L173.182 46.44ZM176.782 39L177.086 38.6028L176.599 38.2305L176.332 38.7822L176.782 39ZM178.606 40.008L178.428 40.4753L178.435 40.4779L178.606 40.008ZM183.31 39.336L183.688 39.6628L183.89 39.4293L183.772 39.1443L183.31 39.336ZM172.27 12.744V12.244H171.521L171.808 12.9357L172.27 12.744ZM183.406 12.744L183.873 12.5641L183.749 12.244H183.406V12.744ZM188.83 26.808L188.364 26.9879L188.826 28.1869L189.296 26.9907L188.83 26.808ZM194.35 12.744V12.244H194.009L193.885 12.5613L194.35 12.744ZM204.158 12.557L193.358 39.341L194.286 39.715L205.086 12.931L204.158 12.557ZM193.358 39.3416C192.002 42.7159 190.34 45.0143 188.407 46.313L188.965 47.143C191.128 45.6897 192.89 43.1881 194.286 39.7144L193.358 39.3416ZM188.407 46.313C186.457 47.623 184.048 48.292 181.15 48.292V49.292C184.205 49.292 186.819 48.585 188.965 47.143L188.407 46.313ZM181.15 48.292C179.729 48.292 178.29 48.0759 176.829 47.6408L176.543 48.5992C178.091 49.0601 179.627 49.292 181.15 49.292V48.292ZM176.822 47.6388C175.393 47.2349 174.293 46.7004 173.498 46.0524L172.866 46.8276C173.799 47.5876 175.035 48.1731 176.55 48.6012L176.822 47.6388ZM173.632 46.6578L177.232 39.2178L176.332 38.7822L172.732 46.2222L173.632 46.6578ZM176.478 39.3972C177.063 39.8439 177.713 40.2029 178.428 40.4752L178.784 39.5408C178.155 39.3011 177.59 38.9881 177.086 38.6028L176.478 39.3972ZM178.435 40.4779C179.185 40.7505 179.915 40.892 180.622 40.892V39.892C180.049 39.892 179.435 39.7775 178.777 39.5381L178.435 40.4779ZM180.622 40.892C181.909 40.892 182.961 40.5054 183.688 39.6628L182.932 39.0092C182.443 39.5746 181.703 39.892 180.622 39.892V40.892ZM183.772 39.1443L172.732 12.5523L171.808 12.9357L182.848 39.5277L183.772 39.1443ZM172.27 13.244H183.406V12.244H172.27V13.244ZM182.94 12.9239L188.364 26.9879L189.297 26.6281L183.873 12.5641L182.94 12.9239ZM189.296 26.9907L194.815 12.9267L193.885 12.5613L188.365 26.6253L189.296 26.9907ZM194.35 13.244H204.622V12.244H194.35V13.244ZM243.731 25.224L243.498 24.7818L242.517 25.2997L243.554 25.6917L243.731 25.224ZM245.219 36.984L245.509 37.3914L245.514 37.3881L245.219 36.984ZM221.411 39H220.911V39.5H221.411V39ZM221.411 12.744V12.244H220.911V12.744H221.411ZM244.355 14.568L244.091 14.9924L244.096 14.9955L244.355 14.568ZM230.915 23.112H230.415V23.612H230.915V23.112ZM236.963 19.896L236.647 20.283L236.655 20.2897L236.663 20.296L236.963 19.896ZM230.915 19.464V18.964H230.415V19.464H230.915ZM230.915 28.44V27.94H230.415V28.44H230.915ZM230.915 32.28H230.415V32.78H230.915V32.28ZM243.554 25.6917C244.923 26.2089 245.913 26.9357 246.563 27.8531C247.212 28.7692 247.551 29.9149 247.551 31.32H248.551C248.551 29.7491 248.17 28.3908 247.379 27.2749C246.589 26.1603 245.419 25.3271 243.908 24.7563L243.554 25.6917ZM247.551 31.32C247.551 33.5654 246.679 35.301 244.925 36.5799L245.514 37.3881C247.535 35.915 248.551 33.8746 248.551 31.32H247.551ZM244.929 36.5767C243.162 37.8347 240.515 38.5 236.915 38.5V39.5C240.612 39.5 243.5 38.8213 245.509 37.3913L244.929 36.5767ZM236.915 38.5H221.411V39.5H236.915V38.5ZM221.911 39V12.744H220.911V39H221.911ZM221.411 13.244H236.147V12.244H221.411V13.244ZM236.147 13.244C239.62 13.244 242.25 13.8455 244.091 14.9924L244.62 14.1436C242.557 12.8585 239.715 12.244 236.147 12.244V13.244ZM244.096 14.9955C245.907 16.0943 246.783 17.617 246.783 19.608H247.783C247.783 17.247 246.707 15.4097 244.615 14.1405L244.096 14.9955ZM246.783 19.608C246.783 20.7362 246.503 21.7302 245.949 22.6045L246.794 23.1395C247.456 22.0938 247.783 20.9118 247.783 19.608H246.783ZM245.949 22.6045C245.394 23.4805 244.584 24.2085 243.498 24.7818L243.965 25.6662C245.182 25.0235 246.132 24.1835 246.794 23.1395L245.949 22.6045ZM230.915 23.612H235.187V22.612H230.915V23.612ZM235.187 23.612C236.024 23.612 236.744 23.4477 237.263 23.0352C237.803 22.6054 238.039 21.9752 238.039 21.24H237.039C237.039 21.7528 236.884 22.0586 236.64 22.2528C236.374 22.4643 235.918 22.612 235.187 22.612V23.612ZM238.039 21.24C238.039 20.521 237.806 19.9031 237.263 19.496L236.663 20.296C236.888 20.4649 237.039 20.743 237.039 21.24H238.039ZM237.28 19.509C236.79 19.1081 236.05 18.964 235.187 18.964V19.964C235.988 19.964 236.433 20.1079 236.647 20.283L237.28 19.509ZM235.187 18.964H230.915V19.964H235.187V18.964ZM230.415 19.464V23.112H231.415V19.464H230.415ZM235.955 32.78C236.797 32.78 237.521 32.6058 238.04 32.1715C238.576 31.7228 238.807 31.0708 238.807 30.312H237.807C237.807 30.8652 237.646 31.1972 237.398 31.4045C237.133 31.6262 236.682 31.78 235.955 31.78V32.78ZM238.807 30.312C238.807 29.5768 238.571 28.9466 238.031 28.5168C237.512 28.1043 236.792 27.94 235.955 27.94V28.94C236.686 28.94 237.142 29.0877 237.408 29.2992C237.652 29.4934 237.807 29.7992 237.807 30.312H238.807ZM235.955 27.94H230.915V28.94H235.955V27.94ZM230.415 28.44V32.28H231.415V28.44H230.415ZM230.915 32.78H235.955V31.78H230.915V32.78ZM273.343 15.384L273.018 15.764L273.021 15.7665L273.343 15.384ZM276.991 39V39.5H277.491V39H276.991ZM266.911 39H266.411V39.5H266.911V39ZM266.911 35.544H267.411L266.459 35.3292L266.911 35.544ZM254.143 38.424L253.915 38.8694L253.927 38.8751L254.143 38.424ZM250.831 35.496L250.4 35.75L250.404 35.7566L250.408 35.763L250.831 35.496ZM252.703 25.416L252.422 25.002L252.703 25.416ZM266.095 23.4V23.9H266.688L266.587 23.3153L266.095 23.4ZM257.551 20.904L257.69 21.3844L257.701 21.3808L257.551 20.904ZM254.431 22.392L253.98 22.6095L254.243 23.1531L254.728 22.7938L254.431 22.392ZM250.975 15.24L250.712 14.8145L250.328 15.0514L250.524 15.4575L250.975 15.24ZM256.399 13.08L256.516 13.566L256.522 13.5646L256.399 13.08ZM264.799 32.328L264.516 31.9153L264.799 32.328ZM266.143 30.456L266.615 30.6196L266.643 30.5401V30.456H266.143ZM266.143 28.632H266.643V28.132H266.143V28.632ZM260.815 32.376L260.474 32.7424L260.488 32.7549L260.502 32.7664L260.815 32.376ZM262.783 12.764C267.323 12.764 270.709 13.7894 273.018 15.764L273.668 15.004C271.112 12.8186 267.458 11.764 262.783 11.764V12.764ZM273.021 15.7665C275.304 17.6892 276.491 20.6931 276.491 24.888H277.491C277.491 20.5069 276.245 17.1748 273.665 15.0015L273.021 15.7665ZM276.491 24.888V39H277.491V24.888H276.491ZM276.991 38.5H266.911V39.5H276.991V38.5ZM267.411 39V35.544H266.411V39H267.411ZM266.459 35.3292C265.318 37.7277 263.054 38.98 259.471 38.98V39.98C263.311 39.98 266.007 38.6083 267.362 35.7588L266.459 35.3292ZM259.471 38.98C257.445 38.98 255.747 38.6371 254.358 37.9729L253.927 38.8751C255.482 39.6189 257.336 39.98 259.471 39.98V38.98ZM254.37 37.9788C253 37.2784 251.968 36.3601 251.253 35.229L250.408 35.763C251.23 37.0639 252.405 38.0976 253.915 38.8692L254.37 37.9788ZM251.261 35.242C250.574 34.0756 250.227 32.7723 250.227 31.32H249.227C249.227 32.9398 249.616 34.4204 250.4 35.75L251.261 35.242ZM250.227 31.32C250.227 28.8779 251.149 27.0723 252.983 25.83L252.422 25.002C250.288 26.4477 249.227 28.5781 249.227 31.32H250.227ZM252.983 25.83C254.845 24.5686 257.733 23.9 261.727 23.9V22.9C257.656 22.9 254.528 23.5754 252.422 25.002L252.983 25.83ZM261.727 23.9H266.095V22.9H261.727V23.9ZM266.587 23.3153C266.389 22.1618 265.813 21.2646 264.859 20.6713C263.924 20.0909 262.671 19.828 261.151 19.828V20.828C262.574 20.828 263.617 21.0771 264.331 21.5207C265.024 21.9514 265.448 22.5902 265.602 23.4847L266.587 23.3153ZM261.151 19.828C259.912 19.828 258.661 20.029 257.4 20.4272L257.701 21.3808C258.872 21.011 260.022 20.828 261.151 20.828V19.828ZM257.412 20.4237C256.148 20.7894 255.052 21.3092 254.133 21.9902L254.728 22.7938C255.537 22.1948 256.521 21.7226 257.69 21.3843L257.412 20.4237ZM254.881 22.1745L251.425 15.0225L250.524 15.4575L253.98 22.6095L254.881 22.1745ZM251.237 15.6655C252.688 14.7706 254.444 14.0683 256.516 13.5659L256.281 12.5941C254.129 13.1157 252.27 13.8534 250.712 14.8145L251.237 15.6655ZM256.522 13.5646C258.627 13.0304 260.714 12.764 262.783 12.764V11.764C260.627 11.764 258.458 12.0416 256.276 12.5954L256.522 13.5646ZM262.735 33.452C263.599 33.452 264.386 33.2161 265.081 32.7407L264.516 31.9153C263.995 32.2719 263.406 32.452 262.735 32.452V33.452ZM265.081 32.7407C265.794 32.253 266.299 31.5325 266.615 30.6196L265.67 30.2924C265.41 31.0435 265.02 31.571 264.516 31.9153L265.081 32.7407ZM266.643 30.456V28.632H265.643V30.456H266.643ZM266.143 28.132H263.455V29.132H266.143V28.132ZM263.455 28.132C262.311 28.132 261.366 28.3198 260.693 28.768C259.985 29.24 259.643 29.9583 259.643 30.84H260.643C260.643 30.2497 260.852 29.864 261.248 29.6C261.68 29.3122 262.39 29.132 263.455 29.132V28.132ZM259.643 30.84C259.643 31.5879 259.925 32.2324 260.474 32.7424L261.155 32.0096C260.808 31.6876 260.643 31.3081 260.643 30.84H259.643ZM260.502 32.7664C261.095 33.2403 261.856 33.452 262.735 33.452V32.452C262.014 32.452 261.495 32.2797 261.127 31.9856L260.502 32.7664ZM306.707 39L306.207 39.002L306.209 39.5H306.707V39ZM306.659 27.24L307.159 27.238L307.152 25.3785L306.226 26.991L306.659 27.24ZM301.091 36.936V37.436H301.381L301.525 37.185L301.091 36.936ZM296.531 36.936L296.091 37.1739L296.233 37.436H296.531V36.936ZM291.155 27L291.595 26.7621L290.655 27H291.155ZM291.155 39V39.5H291.655V39H291.155ZM281.411 39H280.911V39.5H281.411V39ZM281.411 12.744V12.244H280.911V12.744H281.411ZM292.883 12.744L293.329 12.5169L293.19 12.244H292.883V12.744ZM299.123 24.984L298.678 25.2111L299.096 26.0319L299.556 25.2337L299.123 24.984ZM306.179 12.744V12.244H305.89L305.746 12.4943L306.179 12.744ZM316.355 12.744L316.855 12.7422L316.853 12.244H316.355V12.744ZM316.451 39V39.5H316.953L316.951 38.9982L316.451 39ZM307.207 38.998L307.159 27.238L306.159 27.242L306.207 39.002L307.207 38.998ZM306.226 26.991L300.658 36.687L301.525 37.185L307.093 27.489L306.226 26.991ZM301.091 36.436H296.531V37.436H301.091V36.436ZM296.971 36.6981L291.595 26.7621L290.715 27.2379L296.091 37.1739L296.971 36.6981ZM290.655 27V39H291.655V27H290.655ZM291.155 38.5H281.411V39.5H291.155V38.5ZM281.911 39V12.744H280.911V39H281.911ZM281.411 13.244H292.883V12.244H281.411V13.244ZM292.438 12.9711L298.678 25.2111L299.569 24.7569L293.329 12.5169L292.438 12.9711ZM299.556 25.2337L306.612 12.9937L305.746 12.4943L298.69 24.7343L299.556 25.2337ZM306.179 13.244H316.355V12.244H306.179V13.244ZM315.855 12.7458L315.951 39.0018L316.951 38.9982L316.855 12.7422L315.855 12.7458ZM316.451 38.5H306.707V39.5H316.451V38.5ZM341.64 37.752L341.419 38.2004L341.421 38.2016L341.64 37.752ZM336.12 32.904L335.697 33.1708L335.7 33.1754L336.12 32.904ZM336.12 18.84L335.7 18.5686L335.699 18.5703L336.12 18.84ZM341.64 13.992L341.421 13.5424L341.419 13.5436L341.64 13.992ZM357.864 14.328L357.605 14.7557L357.864 14.328ZM362.568 20.04L362.788 20.4887L363.188 20.2923L363.039 19.8726L362.568 20.04ZM354.168 24.168L353.711 24.3711L353.922 24.8459L354.388 24.6167L354.168 24.168ZM346.392 22.056L346.032 21.7089L346.026 21.7158L346.392 22.056ZM346.392 29.688L346.025 30.0283L346.032 30.0351L346.392 29.688ZM354.168 27.576L354.388 27.1273L353.922 26.8981L353.711 27.3729L354.168 27.576ZM362.568 31.704L363.039 31.8714L363.188 31.4517L362.788 31.2553L362.568 31.704ZM357.864 37.416L358.123 37.8437L357.864 37.416ZM349.656 38.98C346.746 38.98 344.15 38.4171 341.859 37.3024L341.421 38.2016C343.866 39.3909 346.614 39.98 349.656 39.98V38.98ZM341.861 37.3036C339.602 36.1894 337.832 34.6327 336.54 32.6326L335.7 33.1754C337.096 35.3353 339.006 37.0106 341.419 38.2004L341.861 37.3036ZM336.543 32.6372C335.285 30.6425 334.652 28.3842 334.652 25.848H333.652C333.652 28.5598 334.331 31.0055 335.697 33.1707L336.543 32.6372ZM334.652 25.848C334.652 23.3117 335.285 21.0708 336.541 19.1097L335.699 18.5703C334.331 20.7052 333.652 23.1363 333.652 25.848H334.652ZM336.54 19.1114C337.832 17.1113 339.602 15.5546 341.861 14.4404L341.419 13.5436C339.006 14.7334 337.096 16.4087 335.7 18.5686L336.54 19.1114ZM341.859 14.4416C344.15 13.3269 346.746 12.764 349.656 12.764V11.764C346.614 11.764 343.866 12.3531 341.421 13.5424L341.859 14.4416ZM349.656 12.764C352.783 12.764 355.426 13.4359 357.605 14.7557L358.123 13.9003C355.758 12.4681 352.928 11.764 349.656 11.764V12.764ZM357.605 14.7557C359.781 16.0739 361.273 17.8874 362.097 20.2074L363.039 19.8726C362.135 17.3286 360.49 15.3341 358.123 13.9003L357.605 14.7557ZM362.347 19.5913L353.947 23.7193L354.388 24.6167L362.788 20.4887L362.347 19.5913ZM354.625 23.9649C354.089 22.7598 353.407 21.8183 352.562 21.1775C351.71 20.5317 350.718 20.212 349.608 20.212V21.212C350.514 21.212 351.29 21.4683 351.958 21.9745C352.632 22.4857 353.223 23.2722 353.711 24.3711L354.625 23.9649ZM349.608 20.212C348.197 20.212 346.993 20.7121 346.032 21.7089L346.752 22.4031C347.519 21.6079 348.459 21.212 349.608 21.212V20.212ZM346.026 21.7158C345.082 22.7316 344.644 24.1329 344.644 25.848H345.644C345.644 24.2991 346.038 23.1724 346.758 22.3962L346.026 21.7158ZM344.644 25.848C344.644 27.592 345.081 29.0107 346.026 30.0282L346.758 29.3478C346.039 28.5733 345.644 27.432 345.644 25.848H344.644ZM346.032 30.0351C346.993 31.0319 348.197 31.532 349.608 31.532V30.532C348.459 30.532 347.519 30.1361 346.752 29.3409L346.032 30.0351ZM349.608 31.532C350.718 31.532 351.71 31.2123 352.562 30.5665C353.407 29.9257 354.089 28.9842 354.625 27.7791L353.711 27.3729C353.223 28.4718 352.632 29.2583 351.958 29.7695C351.29 30.2757 350.514 30.532 349.608 30.532V31.532ZM353.947 28.0247L362.347 32.1527L362.788 31.2553L354.388 27.1273L353.947 28.0247ZM362.097 31.5366C361.273 33.8566 359.781 35.6701 357.605 36.9883L358.123 37.8437C360.49 36.4099 362.135 34.4154 363.039 31.8714L362.097 31.5366ZM357.605 36.9883C355.426 38.3081 352.783 38.98 349.656 38.98V39.98C352.928 39.98 355.758 39.2759 358.123 37.8437L357.605 36.9883ZM390.65 21.192V21.692H391.15V21.192H390.65ZM382.634 21.192V20.692H382.134V21.192H382.634ZM382.634 39V39.5H383.134V39H382.634ZM371.834 39H371.334V39.5H371.834V39ZM371.834 21.192H372.334V20.692H371.834V21.192ZM363.818 21.192H363.318V21.692H363.818V21.192ZM363.818 12.744V12.244H363.318V12.744H363.818ZM390.65 12.744H391.15V12.244H390.65V12.744ZM390.65 20.692H382.634V21.692H390.65V20.692ZM382.134 21.192V39H383.134V21.192H382.134ZM382.634 38.5H371.834V39.5H382.634V38.5ZM372.334 39V21.192H371.334V39H372.334ZM371.834 20.692H363.818V21.692H371.834V20.692ZM364.318 21.192V12.744H363.318V21.192H364.318ZM363.818 13.244H390.65V12.244H363.818V13.244ZM390.15 12.744V21.192H391.15V12.744H390.15ZM398.497 37.752L398.268 38.1968L398.276 38.2004L398.497 37.752ZM393.073 32.904L392.65 33.1708L392.652 33.1737L393.073 32.904ZM393.073 18.84L393.494 19.1097L393.496 19.1068L393.073 18.84ZM398.497 13.992L398.276 13.5436L398.273 13.5448L398.497 13.992ZM414.241 13.992L414.017 14.4392L414.02 14.4404L414.241 13.992ZM419.665 18.84L419.239 19.1021L419.244 19.1097L419.665 18.84ZM419.665 32.904L419.242 32.6372L419.241 32.639L419.665 32.904ZM414.241 37.752L414.465 38.1992L414.467 38.198L414.241 37.752ZM409.441 29.688L409.814 30.0211L409.82 30.0145L409.441 29.688ZM403.297 22.056L403.67 22.389L403.297 22.056ZM403.297 29.688L402.918 30.0145L402.924 30.021L403.297 29.688ZM406.369 38.98C403.525 38.98 400.978 38.4178 398.718 37.3036L398.276 38.2004C400.688 39.3902 403.389 39.98 406.369 39.98V38.98ZM398.726 37.3073C396.495 36.1609 394.755 34.6031 393.494 32.6343L392.652 33.1737C394.015 35.3009 395.891 36.9751 398.269 38.1967L398.726 37.3073ZM393.496 32.6372C392.238 30.6425 391.605 28.3842 391.605 25.848H390.605C390.605 28.5598 391.284 31.0055 392.65 33.1707L393.496 32.6372ZM391.605 25.848C391.605 23.3117 392.238 21.0708 393.494 19.1097L392.652 18.5703C391.284 20.7052 390.605 23.1363 390.605 25.848H391.605ZM393.496 19.1068C394.757 17.1077 396.494 15.5524 398.721 14.4392L398.273 13.5448C395.892 14.7356 394.013 16.4123 392.65 18.5732L393.496 19.1068ZM398.718 14.4404C400.978 13.3262 403.525 12.764 406.369 12.764V11.764C403.389 11.764 400.688 12.3538 398.276 13.5436L398.718 14.4404ZM406.369 12.764C409.247 12.764 411.792 13.3266 414.017 14.4392L414.465 13.5448C412.082 12.3534 409.38 11.764 406.369 11.764V12.764ZM414.02 14.4404C416.277 15.5537 418.012 17.1076 419.239 19.102L420.091 18.5779C418.758 16.4124 416.877 14.7343 414.462 13.5436L414.02 14.4404ZM419.244 19.1097C420.5 21.0708 421.133 23.3117 421.133 25.848H422.133C422.133 23.1363 421.454 20.7052 420.086 18.5703L419.244 19.1097ZM421.133 25.848C421.133 28.3842 420.5 30.6425 419.242 32.6372L420.088 33.1707C421.454 31.0055 422.133 28.5598 422.133 25.848H421.133ZM419.241 32.639C418.013 34.6033 416.277 36.1596 414.015 37.306L414.467 38.198C416.877 36.9764 418.757 35.3007 420.089 33.169L419.241 32.639ZM414.017 37.3048C411.792 38.4174 409.247 38.98 406.369 38.98V39.98C409.38 39.98 412.082 39.3906 414.465 38.1992L414.017 37.3048ZM406.369 31.532C407.753 31.532 408.915 31.0279 409.814 30.021L409.068 29.355C408.367 30.1401 407.481 30.532 406.369 30.532V31.532ZM409.82 30.0145C410.721 28.9693 411.141 27.5596 411.141 25.848H410.141C410.141 27.4004 409.761 28.5507 409.062 29.3615L409.82 30.0145ZM411.141 25.848C411.141 24.1376 410.721 22.7391 409.814 21.723L409.068 22.389C409.761 23.1649 410.141 24.2944 410.141 25.848H411.141ZM409.814 21.723C408.915 20.7161 407.753 20.212 406.369 20.212V21.212C407.481 21.212 408.367 21.6039 409.068 22.389L409.814 21.723ZM406.369 20.212C404.985 20.212 403.823 20.7161 402.924 21.723L403.67 22.389C404.371 21.6039 405.257 21.212 406.369 21.212V20.212ZM402.924 21.723C402.017 22.7391 401.597 24.1376 401.597 25.848H402.597C402.597 24.2944 402.977 23.1649 403.67 22.389L402.924 21.723ZM401.597 25.848C401.597 27.5596 402.017 28.9693 402.918 30.0145L403.676 29.3615C402.977 28.5507 402.597 27.4004 402.597 25.848H401.597ZM402.924 30.021C403.823 31.0279 404.985 31.532 406.369 31.532V30.532C405.257 30.532 404.371 30.1401 403.67 29.355L402.924 30.021ZM424.989 12.744V12.244H424.489V12.744H424.989ZM435.789 12.744H436.289V12.244H435.789V12.744ZM435.789 24.6H435.289V26.0762L436.186 24.9038L435.789 24.6ZM444.861 12.744V12.244H444.614L444.464 12.4402L444.861 12.744ZM454.845 12.744H455.345V12.244H454.845V12.744ZM454.845 39V39.5H455.345V39H454.845ZM444.045 39H443.545V39.5H444.045V39ZM444.045 27.096H444.545V25.6088L443.647 26.7939L444.045 27.096ZM435.021 39V39.5H435.27L435.42 39.3021L435.021 39ZM424.989 39H424.489V39.5H424.989V39ZM424.989 13.244H435.789V12.244H424.989V13.244ZM435.289 12.744V24.6H436.289V12.744H435.289ZM436.186 24.9038L445.258 13.0478L444.464 12.4402L435.392 24.2962L436.186 24.9038ZM444.861 13.244H454.845V12.244H444.861V13.244ZM454.345 12.744V39H455.345V12.744H454.345ZM454.845 38.5H444.045V39.5H454.845V38.5ZM444.545 39V27.096H443.545V39H444.545ZM443.647 26.7939L434.623 38.6979L435.42 39.3021L444.444 27.3981L443.647 26.7939ZM435.021 38.5H424.989V39.5H435.021V38.5ZM425.489 39V12.744H424.489V39H425.489ZM484.775 21.192V21.692H485.275V21.192H484.775ZM476.759 21.192V20.692H476.259V21.192H476.759ZM476.759 39V39.5H477.259V39H476.759ZM465.959 39H465.459V39.5H465.959V39ZM465.959 21.192H466.459V20.692H465.959V21.192ZM457.943 21.192H457.443V21.692H457.943V21.192ZM457.943 12.744V12.244H457.443V12.744H457.943ZM484.775 12.744H485.275V12.244H484.775V12.744ZM484.775 20.692H476.759V21.692H484.775V20.692ZM476.259 21.192V39H477.259V21.192H476.259ZM476.759 38.5H465.959V39.5H476.759V38.5ZM466.459 39V21.192H465.459V39H466.459ZM465.959 20.692H457.943V21.692H465.959V20.692ZM458.443 21.192V12.744H457.443V21.192H458.443ZM457.943 13.244H484.775V12.244H457.943V13.244ZM484.275 12.744V21.192H485.275V12.744H484.275ZM507.95 37.752L507.722 38.1968L507.729 38.2004L507.95 37.752ZM502.526 32.904L502.103 33.1708L502.105 33.1737L502.526 32.904ZM502.526 18.84L502.947 19.1097L502.949 19.1068L502.526 18.84ZM507.95 13.992L507.729 13.5436L507.727 13.5448L507.95 13.992ZM523.694 13.992L523.471 14.4392L523.473 14.4404L523.694 13.992ZM529.118 18.84L528.692 19.1021L528.697 19.1097L529.118 18.84ZM529.118 32.904L528.695 32.6372L528.694 32.639L529.118 32.904ZM523.694 37.752L523.918 38.1992L523.92 38.198L523.694 37.752ZM518.894 29.688L519.267 30.0211L519.273 30.0145L518.894 29.688ZM512.75 22.056L513.123 22.389L512.75 22.056ZM512.75 29.688L512.371 30.0145L512.377 30.021L512.75 29.688ZM515.822 38.98C512.978 38.98 510.431 38.4178 508.171 37.3036L507.729 38.2004C510.142 39.3902 512.843 39.98 515.822 39.98V38.98ZM508.179 37.3073C505.948 36.1609 504.208 34.6031 502.947 32.6343L502.105 33.1737C503.468 35.3009 505.344 36.9751 507.722 38.1967L508.179 37.3073ZM502.949 32.6372C501.691 30.6425 501.058 28.3842 501.058 25.848H500.058C500.058 28.5598 500.738 31.0055 502.103 33.1707L502.949 32.6372ZM501.058 25.848C501.058 23.3117 501.691 21.0708 502.947 19.1097L502.105 18.5703C500.738 20.7052 500.058 23.1363 500.058 25.848H501.058ZM502.949 19.1068C504.21 17.1077 505.947 15.5524 508.174 14.4392L507.727 13.5448C505.345 14.7356 503.466 16.4123 502.103 18.5732L502.949 19.1068ZM508.171 14.4404C510.431 13.3262 512.978 12.764 515.822 12.764V11.764C512.843 11.764 510.142 12.3538 507.729 13.5436L508.171 14.4404ZM515.822 12.764C518.7 12.764 521.245 13.3266 523.471 14.4392L523.918 13.5448C521.535 12.3534 518.833 11.764 515.822 11.764V12.764ZM523.473 14.4404C525.73 15.5537 527.465 17.1076 528.692 19.102L529.544 18.5779C528.211 16.4124 526.33 14.7343 523.915 13.5436L523.473 14.4404ZM528.697 19.1097C529.953 21.0708 530.586 23.3117 530.586 25.848H531.586C531.586 23.1363 530.907 20.7052 529.539 18.5703L528.697 19.1097ZM530.586 25.848C530.586 28.3842 529.953 30.6425 528.695 32.6372L529.541 33.1707C530.907 31.0055 531.586 28.5598 531.586 25.848H530.586ZM528.694 32.639C527.466 34.6033 525.73 36.1596 523.468 37.306L523.92 38.198C526.33 36.9764 528.21 35.3007 529.542 33.169L528.694 32.639ZM523.471 37.3048C521.245 38.4174 518.7 38.98 515.822 38.98V39.98C518.833 39.98 521.535 39.3906 523.918 38.1992L523.471 37.3048ZM515.822 31.532C517.206 31.532 518.368 31.0279 519.267 30.021L518.521 29.355C517.82 30.1401 516.934 30.532 515.822 30.532V31.532ZM519.273 30.0145C520.174 28.9693 520.594 27.5596 520.594 25.848H519.594C519.594 27.4004 519.214 28.5507 518.516 29.3615L519.273 30.0145ZM520.594 25.848C520.594 24.1376 520.174 22.7391 519.267 21.723L518.521 22.389C519.214 23.1649 519.594 24.2944 519.594 25.848H520.594ZM519.267 21.723C518.368 20.7161 517.206 20.212 515.822 20.212V21.212C516.934 21.212 517.82 21.6039 518.521 22.389L519.267 21.723ZM515.822 20.212C514.438 20.212 513.276 20.7161 512.377 21.723L513.123 22.389C513.824 21.6039 514.71 21.212 515.822 21.212V20.212ZM512.377 21.723C511.47 22.7391 511.05 24.1376 511.05 25.848H512.05C512.05 24.2944 512.43 23.1649 513.123 22.389L512.377 21.723ZM511.05 25.848C511.05 27.5596 511.47 28.9693 512.371 30.0145L513.129 29.3615C512.43 28.5507 512.05 27.4004 512.05 25.848H511.05ZM512.377 30.021C513.276 31.0279 514.438 31.532 515.822 31.532V30.532C514.71 30.532 513.824 30.1401 513.123 29.355L512.377 30.021ZM560.794 18.792L561.143 18.4331V18.4331L560.794 18.792ZM561.994 33.912L561.587 33.622L561.586 33.6234L561.994 33.912ZM556.57 38.232L556.367 37.7751L556.57 38.232ZM537.514 35.592L537.165 35.9496L537.167 35.9515L537.514 35.592ZM547.834 3.72L547.746 3.22792L547.745 3.22799L547.834 3.72ZM560.89 1.368L561.384 1.28796L561.303 0.785709L560.802 0.875919L560.89 1.368ZM562.33 10.248L562.418 10.7402L562.903 10.6539L562.824 10.168L562.33 10.248ZM551.29 12.216L551.376 12.7087L551.378 12.7082L551.29 12.216ZM545.674 14.28L545.361 13.8906L545.355 13.895L545.674 14.28ZM543.61 18.36L543.115 18.2893L542.937 19.5391L543.923 18.7504L543.61 18.36ZM551.866 30.456L551.486 30.1317L551.479 30.1402L551.866 30.456ZM551.818 24.216L551.465 24.5696L551.472 24.577L551.818 24.216ZM545.77 24.264L546.116 24.6251L546.124 24.6176L545.77 24.264ZM545.77 30.552L545.403 30.8911L545.41 30.8985L545.417 30.9056L545.77 30.552ZM551.77 16.172C555.552 16.172 558.421 17.1859 560.446 19.1509L561.143 18.4331C558.88 16.2381 555.732 15.172 551.77 15.172V16.172ZM560.446 19.1509C562.472 21.1165 563.51 23.8392 563.51 27.384H564.51C564.51 23.6328 563.404 20.6275 561.143 18.4331L560.446 19.1509ZM563.51 27.384C563.51 29.751 562.867 31.8242 561.587 33.622L562.402 34.202C563.81 32.2238 564.51 29.945 564.51 27.384H563.51ZM561.586 33.6234C560.332 35.398 558.598 36.7836 556.367 37.7751L556.773 38.6889C559.151 37.6324 561.033 36.138 562.403 34.2006L561.586 33.6234ZM556.367 37.7751C554.135 38.7672 551.63 39.268 548.842 39.268V40.268C551.751 40.268 554.398 39.7448 556.773 38.6889L556.367 37.7751ZM548.842 39.268C544.277 39.268 540.633 37.9115 537.862 35.2325L537.167 35.9515C540.156 38.8405 544.064 40.268 548.842 40.268V39.268ZM537.864 35.2345C535.149 32.5802 533.742 28.4468 533.742 22.728H532.742C532.742 28.5932 534.184 33.0358 537.165 35.9495L537.864 35.2345ZM533.742 22.728C533.742 17.3423 534.943 13.1501 537.287 10.0965C539.626 7.04903 543.151 5.07538 547.923 4.21201L547.745 3.22799C542.789 4.12462 539.018 6.19897 536.494 9.48753C533.974 12.7699 532.742 17.2017 532.742 22.728H533.742ZM547.923 4.21208L560.979 1.86008L560.802 0.875919L547.746 3.22792L547.923 4.21208ZM560.397 1.44803L561.837 10.328L562.824 10.168L561.384 1.28796L560.397 1.44803ZM562.243 9.75576L551.203 11.7238L551.378 12.7082L562.418 10.7402L562.243 9.75576ZM551.205 11.7233C548.586 12.1761 546.612 12.8824 545.361 13.8906L545.988 14.6694C547.041 13.8216 548.811 13.1519 551.376 12.7087L551.205 11.7233ZM545.355 13.895C544.118 14.9204 543.385 16.4057 543.115 18.2893L544.105 18.4307C544.348 16.7303 544.991 15.4956 545.993 14.665L545.355 13.895ZM543.923 18.7504C546.064 17.0376 548.67 16.172 551.77 16.172V15.172C548.471 15.172 545.637 16.0984 543.298 17.9696L543.923 18.7504ZM548.842 32.252C550.275 32.252 551.438 31.7736 552.254 30.7718L551.479 30.1402C550.887 30.8664 550.034 31.252 548.842 31.252V32.252ZM552.247 30.7802C553.066 29.819 553.47 28.6617 553.47 27.336H552.47C552.47 28.4423 552.139 29.365 551.486 30.1318L552.247 30.7802ZM553.47 27.336C553.47 25.8938 553.055 24.7087 552.164 23.855L551.472 24.577C552.118 25.1953 552.47 26.0902 552.47 27.336H553.47ZM552.172 23.8624C551.324 23.0144 550.195 22.612 548.842 22.612V23.612C549.986 23.612 550.841 23.9456 551.465 24.5696L552.172 23.8624ZM548.842 22.612C547.455 22.612 546.295 23.0321 545.417 23.9104L546.124 24.6176C546.782 23.9599 547.67 23.612 548.842 23.612V22.612ZM545.424 23.903C544.534 24.7567 544.118 25.9418 544.118 27.384H545.118C545.118 26.1382 545.471 25.2433 546.116 24.625L545.424 23.903ZM544.118 27.384C544.118 28.772 544.539 29.9546 545.403 30.8911L546.138 30.2129C545.466 29.4854 545.118 28.556 545.118 27.384H544.118ZM545.417 30.9056C546.321 31.8094 547.477 32.252 548.842 32.252V31.252C547.712 31.252 546.82 30.8946 546.124 30.1984L545.417 30.9056ZM591.205 13.944L590.953 14.376L590.961 14.3807L591.205 13.944ZM595.813 18.696L595.372 18.9331L595.375 18.9382L595.813 18.696ZM595.813 33.096L595.375 32.8537L595.374 32.8561L595.813 33.096ZM591.205 37.848L591.451 38.283L591.454 38.2817L591.205 37.848ZM578.197 37.224L578.547 36.8667L577.697 36.0346V37.224H578.197ZM578.197 48.312V48.812H578.697V48.312H578.197ZM567.349 48.312H566.849V48.812H567.349V48.312ZM567.349 12.744V12.244H566.849V12.744H567.349ZM577.669 12.744H578.169V12.244H577.669V12.744ZM577.669 14.904H577.169V16.2169L578.042 15.2366L577.669 14.904ZM585.349 29.688L585.722 30.021L585.349 29.688ZM585.349 22.104L584.97 22.4305L584.976 22.437L585.349 22.104ZM579.205 22.104L579.578 22.4371L579.583 22.4305L579.205 22.104ZM579.205 29.688L578.832 30.021L579.205 29.688ZM584.869 12.764C587.088 12.764 589.112 13.3022 590.953 14.3759L591.457 13.5121C589.457 12.3458 587.258 11.764 584.869 11.764V12.764ZM590.961 14.3807C592.825 15.4196 594.295 16.932 595.372 18.9331L596.253 18.459C595.09 16.3 593.488 14.6444 591.448 13.5073L590.961 14.3807ZM595.375 18.9382C596.481 20.934 597.041 23.2484 597.041 25.896H598.041C598.041 23.1036 597.449 20.618 596.25 18.4537L595.375 18.9382ZM597.041 25.896C597.041 28.5436 596.481 30.858 595.375 32.8537L596.25 33.3382C597.449 31.174 598.041 28.6884 598.041 25.896H597.041ZM595.374 32.8561C594.297 34.8264 592.825 36.3419 590.956 37.4143L591.454 38.2817C593.489 37.1141 595.089 35.4616 596.251 33.3359L595.374 32.8561ZM590.958 37.413C589.117 38.4565 587.09 38.98 584.869 38.98V39.98C587.255 39.98 589.453 39.4155 591.451 38.283L590.958 37.413ZM584.869 38.98C582.04 38.98 579.96 38.2507 578.547 36.8667L577.847 37.5813C579.505 39.2053 581.873 39.98 584.869 39.98V38.98ZM577.697 37.224V48.312H578.697V37.224H577.697ZM578.197 47.812H567.349V48.812H578.197V47.812ZM567.849 48.312V12.744H566.849V48.312H567.849ZM567.349 13.244H577.669V12.244H567.349V13.244ZM577.169 12.744V14.904H578.169V12.744H577.169ZM578.042 15.2366C579.484 13.6183 581.724 12.764 584.869 12.764V11.764C581.549 11.764 578.99 12.6697 577.295 14.5714L578.042 15.2366ZM582.277 31.532C583.661 31.532 584.823 31.0279 585.722 30.021L584.976 29.355C584.275 30.1401 583.389 30.532 582.277 30.532V31.532ZM585.722 30.021C586.629 29.0049 587.049 27.6064 587.049 25.896H586.049C586.049 27.4496 585.668 28.5791 584.976 29.355L585.722 30.021ZM587.049 25.896C587.049 24.1856 586.629 22.7871 585.722 21.771L584.976 22.437C585.668 23.2129 586.049 24.3424 586.049 25.896H587.049ZM585.727 21.7775C584.83 20.737 583.667 20.212 582.277 20.212V21.212C583.382 21.212 584.267 21.615 584.97 22.4305L585.727 21.7775ZM582.277 20.212C580.886 20.212 579.723 20.737 578.826 21.7775L579.583 22.4305C580.286 21.615 581.171 21.212 582.277 21.212V20.212ZM578.832 21.771C577.924 22.7871 577.505 24.1856 577.505 25.896H578.505C578.505 24.3424 578.885 23.2129 579.578 22.437L578.832 21.771ZM577.505 25.896C577.505 27.6064 577.924 29.0049 578.832 30.021L579.578 29.355C578.885 28.5791 578.505 27.4496 578.505 25.896H577.505ZM578.832 30.021C579.731 31.0279 580.893 31.532 582.277 31.532V30.532C581.165 30.532 580.279 30.1401 579.578 29.355L578.832 30.021ZM622.14 15.384L621.815 15.764L621.818 15.7665L622.14 15.384ZM625.788 39V39.5H626.288V39H625.788ZM615.708 39H615.208V39.5H615.708V39ZM615.708 35.544H616.208L615.256 35.3292L615.708 35.544ZM602.94 38.424L602.712 38.8694L602.724 38.8751L602.94 38.424ZM599.628 35.496L599.197 35.75L599.201 35.7566L599.205 35.763L599.628 35.496ZM601.5 25.416L601.219 25.002L601.5 25.416ZM614.892 23.4V23.9H615.485L615.384 23.3153L614.892 23.4ZM606.348 20.904L606.487 21.3844L606.498 21.3808L606.348 20.904ZM603.228 22.392L602.777 22.6095L603.04 23.1531L603.525 22.7938L603.228 22.392ZM599.772 15.24L599.509 14.8145L599.125 15.0514L599.321 15.4575L599.772 15.24ZM605.196 13.08L605.313 13.566L605.319 13.5646L605.196 13.08ZM613.596 32.328L613.313 31.9153L613.596 32.328ZM614.94 30.456L615.412 30.6196L615.44 30.5401V30.456H614.94ZM614.94 28.632H615.44V28.132H614.94V28.632ZM609.612 32.376L609.271 32.7424L609.285 32.7549L609.299 32.7664L609.612 32.376ZM611.58 12.764C616.12 12.764 619.506 13.7894 621.815 15.764L622.465 15.004C619.909 12.8186 616.255 11.764 611.58 11.764V12.764ZM621.818 15.7665C624.101 17.6892 625.288 20.6931 625.288 24.888H626.288C626.288 20.5069 625.042 17.1748 622.462 15.0015L621.818 15.7665ZM625.288 24.888V39H626.288V24.888H625.288ZM625.788 38.5H615.708V39.5H625.788V38.5ZM616.208 39V35.544H615.208V39H616.208ZM615.256 35.3292C614.115 37.7277 611.851 38.98 608.268 38.98V39.98C612.108 39.98 614.804 38.6083 616.159 35.7588L615.256 35.3292ZM608.268 38.98C606.242 38.98 604.544 38.6371 603.155 37.9729L602.724 38.8751C604.279 39.6189 606.133 39.98 608.268 39.98V38.98ZM603.167 37.9788C601.797 37.2784 600.765 36.3601 600.05 35.229L599.205 35.763C600.026 37.0639 601.202 38.0976 602.712 38.8692L603.167 37.9788ZM600.058 35.242C599.37 34.0756 599.024 32.7723 599.024 31.32H598.024C598.024 32.9398 598.413 34.4204 599.197 35.75L600.058 35.242ZM599.024 31.32C599.024 28.8779 599.946 27.0723 601.78 25.83L601.219 25.002C599.085 26.4477 598.024 28.5781 598.024 31.32H599.024ZM601.78 25.83C603.642 24.5686 606.53 23.9 610.524 23.9V22.9C606.453 22.9 603.325 23.5754 601.219 25.002L601.78 25.83ZM610.524 23.9H614.892V22.9H610.524V23.9ZM615.384 23.3153C615.186 22.1618 614.61 21.2646 613.655 20.6713C612.721 20.0909 611.468 19.828 609.948 19.828V20.828C611.371 20.828 612.414 21.0771 613.128 21.5207C613.821 21.9514 614.245 22.5902 614.399 23.4847L615.384 23.3153ZM609.948 19.828C608.709 19.828 607.458 20.029 606.197 20.4272L606.498 21.3808C607.669 21.011 608.818 20.828 609.948 20.828V19.828ZM606.209 20.4237C604.945 20.7894 603.849 21.3092 602.93 21.9902L603.525 22.7938C604.334 22.1948 605.318 21.7226 606.487 21.3843L606.209 20.4237ZM603.678 22.1745L600.222 15.0225L599.321 15.4575L602.777 22.6095L603.678 22.1745ZM600.034 15.6655C601.484 14.7706 603.241 14.0683 605.313 13.5659L605.078 12.5941C602.926 13.1157 601.067 13.8534 599.509 14.8145L600.034 15.6655ZM605.319 13.5646C607.424 13.0304 609.511 12.764 611.58 12.764V11.764C609.424 11.764 607.255 12.0416 605.073 12.5954L605.319 13.5646ZM611.532 33.452C612.396 33.452 613.183 33.2161 613.878 32.7407L613.313 31.9153C612.792 32.2719 612.203 32.452 611.532 32.452V33.452ZM613.878 32.7407C614.591 32.253 615.096 31.5325 615.412 30.6196L614.467 30.2924C614.207 31.0435 613.817 31.571 613.313 31.9153L613.878 32.7407ZM615.44 30.456V28.632H614.44V30.456H615.44ZM614.94 28.132H612.252V29.132H614.94V28.132ZM612.252 28.132C611.108 28.132 610.163 28.3198 609.49 28.768C608.782 29.24 608.44 29.9583 608.44 30.84H609.44C609.44 30.2497 609.649 29.864 610.045 29.6C610.477 29.3122 611.187 29.132 612.252 29.132V28.132ZM608.44 30.84C608.44 31.5879 608.722 32.2324 609.271 32.7424L609.952 32.0096C609.605 31.6876 609.44 31.3081 609.44 30.84H608.44ZM609.299 32.7664C609.892 33.2403 610.653 33.452 611.532 33.452V32.452C610.811 32.452 610.292 32.2797 609.924 31.9856L609.299 32.7664ZM655.072 21.192V21.692H655.572V21.192H655.072ZM647.056 21.192V20.692H646.556V21.192H647.056ZM647.056 39V39.5H647.556V39H647.056ZM636.256 39H635.756V39.5H636.256V39ZM636.256 21.192H636.756V20.692H636.256V21.192ZM628.24 21.192H627.74V21.692H628.24V21.192ZM628.24 12.744V12.244H627.74V12.744H628.24ZM655.072 12.744H655.572V12.244H655.072V12.744ZM655.072 20.692H647.056V21.692H655.072V20.692ZM646.556 21.192V39H647.556V21.192H646.556ZM647.056 38.5H636.256V39.5H647.056V38.5ZM636.756 39V21.192H635.756V39H636.756ZM636.256 20.692H628.24V21.692H636.256V20.692ZM628.74 21.192V12.744H627.74V21.192H628.74ZM628.24 13.244H655.072V12.244H628.24V13.244ZM654.572 12.744V21.192H655.572V12.744H654.572ZM658.192 12.744V12.244H657.692V12.744H658.192ZM668.992 12.744H669.492V12.244H668.992V12.744ZM668.992 24.6H668.492V26.0762L669.39 24.9038L668.992 24.6ZM678.064 12.744V12.244H677.817L677.667 12.4402L678.064 12.744ZM688.048 12.744H688.548V12.244H688.048V12.744ZM688.048 39V39.5H688.548V39H688.048ZM677.248 39H676.748V39.5H677.248V39ZM677.248 27.096H677.748V25.6088L676.85 26.7939L677.248 27.096ZM668.224 39V39.5H668.473L668.623 39.3021L668.224 39ZM658.192 39H657.692V39.5H658.192V39ZM658.192 13.244H668.992V12.244H658.192V13.244ZM668.492 12.744V24.6H669.492V12.744H668.492ZM669.39 24.9038L678.462 13.0478L677.667 12.4402L668.595 24.2962L669.39 24.9038ZM678.064 13.244H688.048V12.244H678.064V13.244ZM687.548 12.744V39H688.548V12.744H687.548ZM688.048 38.5H677.248V39.5H688.048V38.5ZM677.748 39V27.096H676.748V39H677.748ZM676.85 26.7939L667.826 38.6979L668.623 39.3021L677.647 27.3981L676.85 26.7939ZM668.224 38.5H658.192V39.5H668.224V38.5ZM658.692 39V12.744H657.692V39H658.692ZM717.978 21.192V21.692H718.478V21.192H717.978ZM709.962 21.192V20.692H709.462V21.192H709.962ZM709.962 39V39.5H710.462V39H709.962ZM699.162 39H698.662V39.5H699.162V39ZM699.162 21.192H699.662V20.692H699.162V21.192ZM691.146 21.192H690.646V21.692H691.146V21.192ZM691.146 12.744V12.244H690.646V12.744H691.146ZM717.978 12.744H718.478V12.244H717.978V12.744ZM717.978 20.692H709.962V21.692H717.978V20.692ZM709.462 21.192V39H710.462V21.192H709.462ZM709.962 38.5H699.162V39.5H709.962V38.5ZM699.662 39V21.192H698.662V39H699.662ZM699.162 20.692H691.146V21.692H699.162V20.692ZM691.646 21.192V12.744H690.646V21.192H691.646ZM691.146 13.244H717.978V12.244H691.146V13.244ZM717.478 12.744V21.192H718.478V12.744H717.478ZM745.339 36.456L745.034 36.0595L745.031 36.0616L745.339 36.456ZM721.099 39H720.599V39.5H721.099V39ZM721.099 12.744V12.244H720.599V12.744H721.099ZM731.899 12.744H732.399V12.244H731.899V12.744ZM731.899 20.664H731.399V21.164H731.899V20.664ZM731.899 27V26.5H731.399V27H731.899ZM731.899 31.704H731.399V32.204H731.899V31.704ZM737.707 21.164C741.162 21.164 743.737 21.9186 745.503 23.3559L746.134 22.5801C744.125 20.9453 741.292 20.164 737.707 20.164V21.164ZM745.503 23.3559C747.255 24.7814 748.151 26.804 748.151 29.496H749.151C749.151 26.556 748.158 24.2266 746.134 22.5801L745.503 23.3559ZM748.151 29.496C748.151 32.295 747.111 34.4642 745.034 36.0595L745.643 36.8525C747.982 35.0558 749.151 32.585 749.151 29.496H748.151ZM745.031 36.0616C742.971 37.6673 740.101 38.5 736.363 38.5V39.5C740.24 39.5 743.354 38.6367 745.646 36.8504L745.031 36.0616ZM736.363 38.5H721.099V39.5H736.363V38.5ZM721.599 39V12.744H720.599V39H721.599ZM721.099 13.244H731.899V12.244H721.099V13.244ZM731.399 12.744V20.664H732.399V12.744H731.399ZM731.899 21.164H737.707V20.164H731.899V21.164ZM735.259 32.204C736.122 32.204 736.861 31.983 737.38 31.454C737.896 30.9268 738.111 30.1786 738.111 29.304H737.111C737.111 30.0294 736.933 30.4812 736.666 30.754C736.4 31.025 735.963 31.204 735.259 31.204V32.204ZM738.111 29.304C738.111 28.4563 737.894 27.7293 737.373 27.2188C736.853 26.7103 736.117 26.5 735.259 26.5V27.5C735.968 27.5 736.408 27.6737 736.673 27.9332C736.936 28.1907 737.111 28.6157 737.111 29.304H738.111ZM735.259 26.5H731.899V27.5H735.259V26.5ZM731.399 27V31.704H732.399V27H731.399ZM731.899 32.204H735.259V31.204H731.899V32.204ZM757.515 37.752L757.294 38.2004L757.296 38.2016L757.515 37.752ZM751.995 32.904L751.572 33.1708L751.575 33.1754L751.995 32.904ZM751.995 18.84L751.575 18.5686L751.574 18.5703L751.995 18.84ZM757.515 13.992L757.296 13.5424L757.294 13.5436L757.515 13.992ZM773.739 14.328L773.48 14.7557L773.739 14.328ZM778.443 20.04L778.663 20.4887L779.063 20.2923L778.914 19.8726L778.443 20.04ZM770.043 24.168L769.586 24.3711L769.797 24.8459L770.263 24.6167L770.043 24.168ZM762.267 22.056L761.907 21.7089L761.901 21.7158L762.267 22.056ZM762.267 29.688L761.9 30.0283L761.907 30.0351L762.267 29.688ZM770.043 27.576L770.263 27.1273L769.797 26.8981L769.586 27.3729L770.043 27.576ZM778.443 31.704L778.914 31.8714L779.063 31.4517L778.663 31.2553L778.443 31.704ZM773.739 37.416L773.998 37.8437L773.739 37.416ZM765.531 38.98C762.621 38.98 760.025 38.4171 757.734 37.3024L757.296 38.2016C759.741 39.3909 762.489 39.98 765.531 39.98V38.98ZM757.736 37.3036C755.477 36.1894 753.707 34.6327 752.415 32.6326L751.575 33.1754C752.971 35.3353 754.881 37.0106 757.294 38.2004L757.736 37.3036ZM752.418 32.6372C751.16 30.6425 750.527 28.3842 750.527 25.848H749.527C749.527 28.5598 750.206 31.0055 751.572 33.1707L752.418 32.6372ZM750.527 25.848C750.527 23.3117 751.16 21.0708 752.416 19.1097L751.574 18.5703C750.206 20.7052 749.527 23.1363 749.527 25.848H750.527ZM752.415 19.1114C753.707 17.1113 755.477 15.5546 757.736 14.4404L757.294 13.5436C754.881 14.7334 752.971 16.4087 751.575 18.5686L752.415 19.1114ZM757.734 14.4416C760.025 13.3269 762.621 12.764 765.531 12.764V11.764C762.489 11.764 759.741 12.3531 757.296 13.5424L757.734 14.4416ZM765.531 12.764C768.658 12.764 771.301 13.4359 773.48 14.7557L773.998 13.9003C771.633 12.4681 768.803 11.764 765.531 11.764V12.764ZM773.48 14.7557C775.656 16.0739 777.148 17.8874 777.972 20.2074L778.914 19.8726C778.01 17.3286 776.365 15.3341 773.998 13.9003L773.48 14.7557ZM778.222 19.5913L769.822 23.7193L770.263 24.6167L778.663 20.4887L778.222 19.5913ZM770.5 23.9649C769.964 22.7598 769.282 21.8183 768.437 21.1775C767.585 20.5317 766.593 20.212 765.483 20.212V21.212C766.389 21.212 767.165 21.4683 767.833 21.9745C768.507 22.4857 769.098 23.2722 769.586 24.3711L770.5 23.9649ZM765.483 20.212C764.072 20.212 762.868 20.7121 761.907 21.7089L762.627 22.4031C763.394 21.6079 764.334 21.212 765.483 21.212V20.212ZM761.901 21.7158C760.957 22.7316 760.519 24.1329 760.519 25.848H761.519C761.519 24.2991 761.913 23.1724 762.633 22.3962L761.901 21.7158ZM760.519 25.848C760.519 27.592 760.956 29.0107 761.901 30.0282L762.633 29.3478C761.914 28.5733 761.519 27.432 761.519 25.848H760.519ZM761.907 30.0351C762.868 31.0319 764.072 31.532 765.483 31.532V30.532C764.334 30.532 763.394 30.1361 762.627 29.3409L761.907 30.0351ZM765.483 31.532C766.593 31.532 767.585 31.2123 768.437 30.5665C769.282 29.9257 769.964 28.9842 770.5 27.7791L769.586 27.3729C769.098 28.4718 768.507 29.2583 767.833 29.7695C767.165 30.2757 766.389 30.532 765.483 30.532V31.532ZM769.822 28.0247L778.222 32.1527L778.663 31.2553L770.263 27.1273L769.822 28.0247ZM777.972 31.5366C777.148 33.8566 775.656 35.6701 773.48 36.9883L773.998 37.8437C776.365 36.4099 778.01 34.4154 778.914 31.8714L777.972 31.5366ZM773.48 36.9883C771.301 38.3081 768.658 38.98 765.531 38.98V39.98C768.803 39.98 771.633 39.2759 773.998 37.8437L773.48 36.9883ZM806.974 12.744H807.474V12.244H806.974V12.744ZM806.974 39V39.5H807.474V39H806.974ZM797.374 39H796.874V39.5H797.374V39ZM797.374 32.328H797.874V31.828H797.374V32.328ZM794.734 32.328V31.828H794.461L794.313 32.0584L794.734 32.328ZM790.462 39V39.5H790.736L790.883 39.2696L790.462 39ZM778.99 39L778.579 38.716L778.038 39.5H778.99V39ZM784.654 30.792L785.066 31.076L785.398 30.5947L784.871 30.3414L784.654 30.792ZM780.814 27.576L780.393 27.8464L780.398 27.8534L780.814 27.576ZM783.166 15.432L783.463 15.8345L783.166 15.432ZM791.278 25.032L790.953 25.4116L790.967 25.424L790.982 25.4352L791.278 25.032ZM797.374 25.56V26.06H797.874V25.56H797.374ZM797.374 21.144H797.874V20.644H797.374V21.144ZM806.474 12.744V39H807.474V12.744H806.474ZM806.974 38.5H797.374V39.5H806.974V38.5ZM797.874 39V32.328H796.874V39H797.874ZM797.374 31.828H794.734V32.828H797.374V31.828ZM794.313 32.0584L790.041 38.7304L790.883 39.2696L795.155 32.5976L794.313 32.0584ZM790.462 38.5H778.99V39.5H790.462V38.5ZM779.402 39.284L785.066 31.076L784.243 30.508L778.579 38.716L779.402 39.284ZM784.871 30.3414C783.276 29.5746 782.07 28.5579 781.23 27.2986L780.398 27.8534C781.351 29.2821 782.704 30.4094 784.437 31.2426L784.871 30.3414ZM781.235 27.3056C780.429 26.0518 780.018 24.5802 780.018 22.872H779.018C779.018 24.7478 779.471 26.4122 780.393 27.8464L781.235 27.3056ZM780.018 22.872C780.018 19.8538 781.166 17.527 783.463 15.8345L782.869 15.0295C780.302 16.921 779.018 19.5542 779.018 22.872H780.018ZM783.463 15.8345C785.781 14.1266 788.991 13.244 793.15 13.244V12.244C788.861 12.244 785.416 13.1534 782.869 15.0295L783.463 15.8345ZM793.15 13.244H806.974V12.244H793.15V13.244ZM793.39 20.644C792.413 20.644 791.589 20.8268 791 21.2737C790.385 21.7403 790.106 22.4321 790.106 23.256H791.106C791.106 22.6719 791.291 22.3077 791.604 22.0703C791.943 21.8132 792.511 21.644 793.39 21.644V20.644ZM790.106 23.256C790.106 24.1473 790.358 24.902 790.953 25.4116L791.603 24.6524C791.302 24.394 791.106 23.9647 791.106 23.256H790.106ZM790.982 25.4352C791.584 25.8765 792.411 26.06 793.39 26.06V25.06C792.513 25.06 791.932 24.8915 791.574 24.6288L790.982 25.4352ZM793.39 26.06H797.374V25.06H793.39V26.06ZM797.874 25.56V21.144H796.874V25.56H797.874ZM797.374 20.644H793.39V21.644H797.374V20.644ZM343.612 89.264L344.041 89.0071L343.896 88.764H343.612V89.264ZM341.548 89.264V88.764H341.048V89.264H341.548ZM341.548 98V98.5H342.048V98H341.548ZM330.7 98H330.2V98.5H330.7V98ZM330.7 71.744V71.244H330.2V71.744H330.7ZM341.548 71.744H342.048V71.244H341.548V71.744ZM341.548 80.96H341.048V81.46H341.548V80.96ZM343.9 80.96V81.46H344.177L344.324 81.225L343.9 80.96ZM349.66 71.744V71.244H349.383L349.236 71.479L349.66 71.744ZM361.084 71.744L361.499 72.0228L362.022 71.244H361.084V71.744ZM352.636 84.32L352.221 84.0412L352.036 84.3167L352.218 84.5943L352.636 84.32ZM361.612 98V98.5H362.538L362.03 97.7257L361.612 98ZM348.844 98L348.415 98.2569L348.561 98.5H348.844V98ZM343.612 88.764H341.548V89.764H343.612V88.764ZM341.048 89.264V98H342.048V89.264H341.048ZM341.548 97.5H330.7V98.5H341.548V97.5ZM331.2 98V71.744H330.2V98H331.2ZM330.7 72.244H341.548V71.244H330.7V72.244ZM341.048 71.744V80.96H342.048V71.744H341.048ZM341.548 81.46H343.9V80.46H341.548V81.46ZM344.324 81.225L350.084 72.009L349.236 71.479L343.476 80.695L344.324 81.225ZM349.66 72.244H361.084V71.244H349.66V72.244ZM360.669 71.4652L352.221 84.0412L353.051 84.5988L361.499 72.0228L360.669 71.4652ZM352.218 84.5943L361.194 98.2743L362.03 97.7257L353.054 84.0457L352.218 84.5943ZM361.612 97.5H348.844V98.5H361.612V97.5ZM349.273 97.7431L344.041 89.0071L343.183 89.5209L348.415 98.2569L349.273 97.7431ZM378.419 71.744V71.244H377.919V71.744H378.419ZM389.219 71.744H389.719V71.244H389.219V71.744ZM389.219 80.96H388.719V81.46H389.219V80.96ZM396.611 80.96V81.46H397.111V80.96H396.611ZM396.611 71.744V71.244H396.111V71.744H396.611ZM407.411 71.744H407.911V71.244H407.411V71.744ZM407.411 98V98.5H407.911V98H407.411ZM396.611 98H396.111V98.5H396.611V98ZM396.611 89.456H397.111V88.956H396.611V89.456ZM389.219 89.456V88.956H388.719V89.456H389.219ZM389.219 98V98.5H389.719V98H389.219ZM378.419 98H377.919V98.5H378.419V98ZM378.419 72.244H389.219V71.244H378.419V72.244ZM388.719 71.744V80.96H389.719V71.744H388.719ZM389.219 81.46H396.611V80.46H389.219V81.46ZM397.111 80.96V71.744H396.111V80.96H397.111ZM396.611 72.244H407.411V71.244H396.611V72.244ZM406.911 71.744V98H407.911V71.744H406.911ZM407.411 97.5H396.611V98.5H407.411V97.5ZM397.111 98V89.456H396.111V98H397.111ZM396.611 88.956H389.219V89.956H396.611V88.956ZM388.719 89.456V98H389.719V89.456H388.719ZM389.219 97.5H378.419V98.5H389.219V97.5ZM378.919 98V71.744H377.919V98H378.919ZM434.241 74.384L433.916 74.764L433.919 74.7665L434.241 74.384ZM437.889 98V98.5H438.389V98H437.889ZM427.809 98H427.309V98.5H427.809V98ZM427.809 94.544H428.309L427.358 94.3292L427.809 94.544ZM415.041 97.424L414.813 97.8694L414.825 97.8751L415.041 97.424ZM411.729 94.496L411.298 94.75L411.302 94.7566L411.306 94.763L411.729 94.496ZM413.601 84.416L413.321 84.002L413.601 84.416ZM426.993 82.4V82.9H427.586L427.486 82.3153L426.993 82.4ZM418.449 79.904L418.588 80.3844L418.6 80.3808L418.449 79.904ZM415.329 81.392L414.879 81.6095L415.142 82.1531L415.627 81.7938L415.329 81.392ZM411.873 74.24L411.611 73.8145L411.227 74.0514L411.423 74.4575L411.873 74.24ZM417.297 72.08L417.415 72.5659L417.42 72.5646L417.297 72.08ZM425.697 91.328L425.415 90.9153L425.697 91.328ZM427.041 89.456L427.514 89.6196L427.541 89.5401V89.456H427.041ZM427.041 87.632H427.541V87.132H427.041V87.632ZM421.713 91.376L421.373 91.7424L421.386 91.7549L421.401 91.7664L421.713 91.376ZM423.681 71.764C428.221 71.764 431.607 72.7894 433.916 74.764L434.566 74.004C432.011 71.8186 428.357 70.764 423.681 70.764V71.764ZM433.919 74.7665C436.202 76.6892 437.389 79.6931 437.389 83.888H438.389C438.389 79.5069 437.144 76.1748 434.563 74.0015L433.919 74.7665ZM437.389 83.888V98H438.389V83.888H437.389ZM437.889 97.5H427.809V98.5H437.889V97.5ZM428.309 98V94.544H427.309V98H428.309ZM427.358 94.3292C426.217 96.7277 423.952 97.98 420.369 97.98V98.98C424.21 98.98 426.905 97.6083 428.261 94.7588L427.358 94.3292ZM420.369 97.98C418.344 97.98 416.646 97.6371 415.257 96.9729L414.825 97.8751C416.381 98.6189 418.234 98.98 420.369 98.98V97.98ZM415.269 96.9788C413.898 96.2784 412.866 95.3601 412.152 94.229L411.306 94.763C412.128 96.0639 413.304 97.0976 414.814 97.8692L415.269 96.9788ZM412.16 94.242C411.472 93.0756 411.125 91.7722 411.125 90.32H410.125C410.125 91.9398 410.514 93.4204 411.298 94.75L412.16 94.242ZM411.125 90.32C411.125 87.8779 412.048 86.0723 413.882 84.83L413.321 84.002C411.187 85.4477 410.125 87.5781 410.125 90.32H411.125ZM413.882 84.83C415.744 83.5686 418.632 82.9 422.625 82.9V81.9C418.554 81.9 415.427 82.5754 413.321 84.002L413.882 84.83ZM422.625 82.9H426.993V81.9H422.625V82.9ZM427.486 82.3153C427.288 81.1618 426.712 80.2646 425.757 79.6713C424.823 79.0909 423.57 78.828 422.049 78.828V79.828C423.473 79.828 424.515 80.0771 425.229 80.5207C425.922 80.9514 426.347 81.5902 426.5 82.4847L427.486 82.3153ZM422.049 78.828C420.81 78.828 419.56 79.029 418.299 79.4272L418.6 80.3808C419.771 80.011 420.92 79.828 422.049 79.828V78.828ZM418.31 79.4237C417.047 79.7894 415.951 80.3092 415.032 80.9902L415.627 81.7938C416.435 81.1948 417.419 80.7226 418.588 80.3843L418.31 79.4237ZM415.779 81.1745L412.323 74.0225L411.423 74.4575L414.879 81.6095L415.779 81.1745ZM412.136 74.6655C413.586 73.7706 415.343 73.0683 417.415 72.5659L417.179 71.5941C415.027 72.1157 413.168 72.8534 411.611 73.8145L412.136 74.6655ZM417.42 72.5646C419.526 72.0304 421.613 71.764 423.681 71.764V70.764C421.526 70.764 419.356 71.0416 417.174 71.5954L417.42 72.5646ZM423.633 92.452C424.497 92.452 425.285 92.2161 425.979 91.7407L425.415 90.9153C424.894 91.2719 424.305 91.452 423.633 91.452V92.452ZM425.979 91.7407C426.692 91.253 427.198 90.5325 427.514 89.6196L426.569 89.2924C426.309 90.0435 425.918 90.571 425.415 90.9153L425.979 91.7407ZM427.541 89.456V87.632H426.541V89.456H427.541ZM427.041 87.132H424.353V88.132H427.041V87.132ZM424.353 87.132C423.209 87.132 422.264 87.3198 421.592 87.768C420.884 88.24 420.541 88.9583 420.541 89.84H421.541C421.541 89.2497 421.751 88.864 422.146 88.6C422.578 88.3122 423.289 88.132 424.353 88.132V87.132ZM420.541 89.84C420.541 90.5879 420.824 91.2324 421.373 91.7424L422.053 91.0096C421.707 90.6876 421.541 90.3081 421.541 89.84H420.541ZM421.401 91.7664C421.993 92.2403 422.754 92.452 423.633 92.452V91.452C422.912 91.452 422.393 91.2797 422.025 90.9856L421.401 91.7664ZM467.606 98L467.106 98.002L467.108 98.5H467.606V98ZM467.558 86.24L468.058 86.238L468.05 84.3785L467.124 85.991L467.558 86.24ZM461.99 95.936V96.436H462.279L462.423 96.185L461.99 95.936ZM457.43 95.936L456.99 96.1739L457.132 96.436H457.43V95.936ZM452.054 86L452.493 85.7621L451.554 86H452.054ZM452.054 98V98.5H452.554V98H452.054ZM442.31 98H441.81V98.5H442.31V98ZM442.31 71.744V71.244H441.81V71.744H442.31ZM453.782 71.744L454.227 71.5169L454.088 71.244H453.782V71.744ZM460.022 83.984L459.576 84.2111L459.995 85.0319L460.455 84.2337L460.022 83.984ZM467.078 71.744V71.244H466.789L466.644 71.4943L467.078 71.744ZM477.254 71.744L477.754 71.7422L477.752 71.244H477.254V71.744ZM477.35 98V98.5H477.851L477.85 97.9982L477.35 98ZM468.106 97.998L468.058 86.238L467.058 86.242L467.106 98.002L468.106 97.998ZM467.124 85.991L461.556 95.687L462.423 96.185L467.991 86.489L467.124 85.991ZM461.99 95.436H457.43V96.436H461.99V95.436ZM457.869 95.6981L452.493 85.7621L451.614 86.2379L456.99 96.1739L457.869 95.6981ZM451.554 86V98H452.554V86H451.554ZM452.054 97.5H442.31V98.5H452.054V97.5ZM442.81 98V71.744H441.81V98H442.81ZM442.31 72.244H453.782V71.244H442.31V72.244ZM453.336 71.9711L459.576 84.2111L460.467 83.7569L454.227 71.5169L453.336 71.9711ZM460.455 84.2337L467.511 71.9937L466.644 71.4943L459.588 83.7343L460.455 84.2337ZM467.078 72.244H477.254V71.244H467.078V72.244ZM476.754 71.7458L476.85 98.0018L477.85 97.9982L477.754 71.7422L476.754 71.7458ZM477.35 97.5H467.606V98.5H477.35V97.5Z" fill="white"/>
</svg>
