<svg width="165" height="186" viewBox="0 0 165 186" fill="none" xmlns="http://www.w3.org/2000/svg">
<g filter="url(#filter0_d)">
<path d="M42.0904 46.2998C50.0849 46.2906 56.564 39.8115 56.5731 31.8171V26.9574C56.5978 21.7661 53.8428 16.9597 49.3512 14.3569C44.8597 11.7541 39.3197 11.7541 34.8282 14.3569C30.3367 16.9597 27.5817 21.7661 27.6064 26.9574V31.8197C27.6168 39.8141 34.0959 46.2919 42.0904 46.2998ZM32.2683 26.9574C32.2475 23.4349 34.1154 20.1713 37.1618 18.4036C40.2095 16.6371 43.97 16.6371 47.0164 18.4036C50.064 20.1713 51.9319 23.4349 51.9111 26.9574V31.8197C51.9046 37.2412 47.5119 41.6352 42.0904 41.6417C36.6675 41.6352 32.2748 37.2412 32.2683 31.8197V26.9574Z" fill="#03FBF3"/>
<path d="M140.656 88.7904C134.86 88.7982 129.666 92.3714 127.587 97.7839L116.111 95.4997C116.146 94.8064 116.164 94.1092 116.164 93.4081C116.166 81.51 110.952 70.209 101.897 62.4903L115.134 43.7905C123.488 48.2118 133.841 45.3904 138.797 37.34C143.753 29.2909 141.611 18.7768 133.901 13.3084C126.191 7.83868 115.56 9.29164 109.6 16.6279C103.64 23.9655 104.398 34.6682 111.332 41.094L98.1886 59.6611C91.4806 55.124 83.5667 52.7033 75.4695 52.7137C74.304 52.7137 73.1359 52.7697 71.973 52.8685C71.7181 52.5329 71.4527 52.2051 71.1679 51.8903C68.3309 48.7555 64.3011 46.9656 60.0723 46.963H53.6752C53.082 46.963 52.5123 47.1894 52.0805 47.5952L42.5433 56.5445L33.3755 47.6238C32.9397 47.1998 32.357 46.963 31.7495 46.963H24.9595C20.7503 46.963 16.7374 48.7347 13.903 51.8448C11.0674 54.9549 9.67427 59.1161 10.0645 63.3058V100.548C10.0658 105.536 14.1086 109.579 19.0957 109.58H19.2011C20.9181 109.56 22.5908 109.039 24.0152 108.082L25.6893 164.393C25.8271 168.341 28.3727 171.8 32.0994 173.107C35.8261 174.413 39.9742 173.302 42.5485 170.307C45.124 173.305 49.2747 174.416 53.004 173.105C56.732 171.793 59.275 168.329 59.4077 164.379L60.3923 131.219C71.6543 135.7 84.3264 134.931 94.9627 129.122L108.03 148.419C101.983 154.257 101.468 163.773 106.849 170.23C112.23 176.686 121.683 177.893 128.515 172.997C135.346 168.099 137.24 158.76 132.854 151.59C128.468 144.419 119.291 141.85 111.821 145.701L98.9184 126.649C107.786 120.39 113.79 110.854 115.602 100.153L126.67 102.353C126.665 102.498 126.658 102.642 126.658 102.787C126.658 110.517 132.926 116.784 140.656 116.784C148.386 116.784 154.653 110.517 154.653 102.787C154.653 95.0562 148.386 88.7904 140.656 88.7904ZM110.245 27.9732C110.245 20.6694 116.166 14.7483 123.47 14.7483C130.774 14.7483 136.695 20.6694 136.695 27.9732C136.695 35.277 130.774 41.1981 123.47 41.1981C116.17 41.189 110.255 35.2731 110.245 27.9732ZM130.553 159.975C130.553 166.268 125.453 171.368 119.16 171.368C112.868 171.368 107.766 166.268 107.766 159.975C107.766 153.683 112.868 148.581 119.16 148.581C125.45 148.588 130.546 153.685 130.553 159.975ZM23.4715 100.359C23.4715 102.846 21.532 104.891 19.149 104.919H19.0983C16.6854 104.916 14.729 102.961 14.7277 100.548V63.1927C14.7277 63.1133 14.7238 63.0353 14.716 62.9572C14.4221 60.0604 15.369 57.1753 17.3215 55.0161C19.2739 52.8568 22.0497 51.625 24.9608 51.625H30.8039L40.8913 61.4379C40.9017 61.447 40.9134 61.4548 40.9251 61.464C40.994 61.5303 41.0682 61.5927 41.1449 61.65C41.1514 61.6539 41.1566 61.6591 41.1631 61.663C41.2464 61.7228 41.3348 61.7761 41.4272 61.8243C41.4454 61.8347 41.4636 61.8438 41.4831 61.8529C41.5664 61.8945 41.6535 61.9322 41.742 61.9634C41.7498 61.966 41.7589 61.9713 41.7667 61.9739C41.8617 62.0051 41.9592 62.0311 42.0568 62.0506C42.0802 62.0545 42.1036 62.0584 42.127 62.0623C42.2142 62.0779 42.3013 62.087 42.3885 62.0922C42.4028 62.0922 42.4171 62.0948 42.4301 62.0961C42.5289 62.0987 42.6278 62.0961 42.7267 62.087C42.7501 62.0844 42.7748 62.0818 42.7982 62.0792C42.8945 62.0675 42.9907 62.0506 43.0844 62.0272L43.0974 62.0246C43.2001 61.9986 43.3003 61.9647 43.3979 61.9244C43.407 61.9205 43.4161 61.9192 43.4252 61.9153C43.4343 61.9114 43.4434 61.9049 43.4525 61.901C43.6424 61.8178 43.8206 61.7098 43.9806 61.5797C44.0027 61.5615 44.0235 61.5433 44.0456 61.5251C44.0665 61.5069 44.0912 61.4887 44.112 61.4679L54.6013 51.6263H60.0775C62.9874 51.6263 65.7619 52.8581 67.7143 55.0187C69.6655 57.1779 70.6124 60.063 70.3185 62.9585C70.3107 63.0366 70.3068 63.1146 70.3068 63.194V100.543C70.3068 102.961 68.3465 104.921 65.9284 104.921C63.509 104.921 61.5487 102.961 61.5487 100.543V75.5434C61.5487 74.2557 60.5055 73.2124 59.2177 73.2124C57.93 73.2124 56.8868 74.2557 56.8868 75.5434V94.7869L56.8139 94.7843L56.8035 95.1082H28.2947L28.2505 93.6552L28.1334 93.6591V75.5434C28.1334 74.2557 27.0889 73.2124 25.8024 73.2124C24.5147 73.2124 23.4715 74.2557 23.4715 75.5434V100.359ZM54.7483 164.223C54.6547 166.916 52.42 169.036 49.7261 168.986C47.0322 168.938 44.8755 166.739 44.8794 164.046V109.145H40.2175V164.046C40.2188 166.735 38.0673 168.93 35.3774 168.984C32.6887 169.036 30.4527 166.926 30.3486 164.239L28.4326 99.7701H56.663L54.7483 164.223ZM75.4695 129.442C70.3185 129.456 65.226 128.354 60.5406 126.213L61.0765 108.172C63.8615 109.941 67.3878 110.053 70.2781 108.464C73.1697 106.878 74.9661 103.84 74.9661 100.541V63.3058C75.1508 61.3118 74.9323 59.3034 74.3248 57.3965C74.7059 57.3835 75.0897 57.377 75.4708 57.377C95.3712 57.377 111.503 73.509 111.503 93.4094C111.503 113.308 95.3712 129.442 75.4708 129.442H75.4695ZM140.656 112.122C135.5 112.122 131.32 107.943 131.32 102.788C131.32 97.6317 135.5 93.4523 140.655 93.4523C145.811 93.4523 149.99 97.6317 149.99 102.787C149.985 107.94 145.81 112.117 140.656 112.122Z" fill="#03FBF3"/>
</g>
<defs>
<filter id="filter0_d" x="0" y="0" width="164.653" height="186" filterUnits="userSpaceOnUse" color-interpolation-filters="sRGB">
<feFlood flood-opacity="0" result="BackgroundImageFix"/>
<feColorMatrix in="SourceAlpha" type="matrix" values="0 0 0 0 0 0 0 0 0 0 0 0 0 0 0 0 0 0 127 0"/>
<feOffset/>
<feGaussianBlur stdDeviation="5"/>
<feColorMatrix type="matrix" values="0 0 0 0 0.0117647 0 0 0 0 0.984314 0 0 0 0 0.952941 0 0 0 0.3 0"/>
<feBlend mode="normal" in2="BackgroundImageFix" result="effect1_dropShadow"/>
<feBlend mode="normal" in="SourceGraphic" in2="effect1_dropShadow" result="shape"/>
</filter>
</defs>
</svg>
